<svg width="950" height="850" viewBox="0 0 950 850" fill="none" xmlns="http://www.w3.org/2000/svg">
<g clip-path="url(#clip0)">
<path d="M330.601 632.755C331.08 632.757 331.32 632.518 331.56 632.279C332.04 631.802 331.804 630.604 331.326 630.124C331.087 629.884 331.087 629.884 330.848 629.644C329.176 627.963 329.42 626.288 331.578 625.096C331.818 624.858 332.297 624.859 332.537 624.62C333.498 623.186 334.455 623.667 335.65 624.389L335.89 624.15C334.698 621.992 334.938 621.753 337.334 621.281L337.812 621.282C338.531 621.045 339.011 620.567 338.774 619.848C338.777 618.412 338.78 617.454 339.98 616.26C340.22 616.021 340.221 615.542 340.461 615.304C340.223 614.585 340.703 614.107 341.184 613.629C341.904 612.913 341.666 612.194 340.709 611.713L340.231 611.712C339.274 611.23 338.798 610.271 338.801 608.835C339.042 608.117 339.283 607.878 340.719 607.882L341.198 607.883C342.156 607.886 342.634 607.887 343.354 607.171C344.075 606.454 344.789 608.132 345.509 607.416C347.426 606.463 348.861 607.425 350.055 608.625C350.532 609.105 351.011 609.107 351.969 609.109C354.364 608.637 356.282 607.684 358.676 607.69C359.634 607.693 360.114 607.215 360.355 606.498C360.597 605.78 361.077 605.302 361.794 605.544C362.992 605.307 362.993 604.829 362.996 603.871C362.998 602.913 363.478 602.436 364.196 602.677C364.196 602.677 364.436 602.438 364.676 602.199C364.438 601.481 363.96 601 364.202 600.283C364.443 599.565 364.684 598.847 365.643 598.371C365.883 598.132 366.363 597.655 366.842 597.656C366.603 597.416 366.364 597.176 366.125 596.936C365.408 596.695 365.17 595.976 365.411 595.258C365.893 594.302 366.134 593.584 365.178 592.624C364.94 592.384 365.18 592.145 364.941 591.905C365.183 590.708 363.269 590.224 363.751 588.789L363.513 588.549C362.555 588.547 362.079 587.588 361.841 586.869C361.363 586.389 360.646 586.147 360.168 585.667C359.69 585.187 359.213 584.707 358.255 584.704C357.776 584.703 356.818 584.701 356.58 584.461C355.624 583.5 354.667 583.498 353.471 582.776C352.515 582.295 352.036 582.294 351.076 583.249C349.876 584.443 349.397 584.441 347.964 583.001C347.247 582.281 346.769 582.28 346.047 583.475C345.806 584.193 345.566 584.431 345.086 584.909C344.126 585.864 342.929 585.621 342.454 584.184C342.455 583.705 342.457 583.226 342.458 582.747C342.219 582.507 342.22 582.028 341.98 582.267C341.741 582.027 341.261 582.505 341.021 582.743C340.541 583.221 340.78 583.461 341.018 584.18C341.494 585.139 341.492 586.096 340.532 587.052C340.052 587.529 340.05 588.008 341.007 588.489C341.725 588.731 341.723 589.21 341.482 589.927C341.002 590.405 340.762 590.644 340.284 590.164C340.046 589.923 339.328 589.682 339.089 589.442L338.61 589.441C338.37 589.68 338.609 589.92 338.369 590.158C338.608 590.398 338.847 590.639 339.086 590.879C339.563 591.359 339.562 591.838 339.082 592.315C338.602 592.793 337.883 593.03 337.404 593.029C336.925 593.028 336.447 593.026 335.729 592.785C335.964 594.462 337.162 594.225 337.878 594.946C337.876 595.903 337.873 596.861 337.632 597.579C336.673 598.055 335.714 598.531 334.758 598.05C333.801 597.568 333.323 597.567 332.364 598.044C331.645 598.281 330.927 598.04 330.93 597.082C330.932 596.124 331.173 595.407 331.892 595.169C332.611 594.932 333.091 594.454 333.332 593.736C334.053 592.541 334.775 591.346 335.496 590.151C335.737 589.433 335.74 588.475 335.502 587.757C335.264 587.038 334.308 586.556 333.589 586.794C332.87 587.031 332.869 587.51 332.868 587.989C332.867 588.468 332.865 588.947 332.624 589.664C332.382 590.861 331.423 591.337 330.704 591.575C329.746 591.572 329.509 590.853 329.271 590.134C329.032 589.894 329.032 589.894 328.793 589.654C328.555 589.414 328.076 589.413 328.076 589.413C327.117 589.889 325.679 590.364 324.959 591.081C323.999 592.036 322.8 592.751 321.602 592.987C321.365 592.268 321.127 591.549 321.128 591.07C320.889 590.83 320.172 590.589 320.171 591.068C319.931 591.307 319.929 591.785 319.929 591.785C319.206 593.938 317.527 595.131 315.609 596.084C315.37 595.844 315.131 595.604 315.371 595.365C315.132 595.125 314.894 594.885 314.895 594.406C314.418 593.447 313.462 592.965 312.743 593.203C312.024 593.441 311.304 594.157 311.541 595.355C311.778 596.074 311.298 596.551 310.58 596.31C309.623 596.307 309.145 595.827 309.626 594.871C309.628 594.392 309.629 593.913 309.39 593.673C309.151 593.433 308.673 592.953 308.436 592.234C308.676 591.995 309.156 591.518 309.635 591.519C310.115 591.041 310.355 590.802 309.637 590.561C308.202 590.078 307.965 588.881 308.447 587.924C308.689 586.728 308.211 586.248 307.974 585.529C307.02 584.09 306.544 582.652 304.87 581.929L304.631 581.689C304.155 580.73 303.438 580.01 302.241 580.246L301.762 580.245C301.045 579.525 300.09 578.565 298.892 578.801C298.892 578.801 298.654 578.561 298.415 578.321C297.937 577.841 297.219 577.599 296.501 577.837C296.022 577.835 295.543 577.834 295.064 577.833C294.106 577.83 293.628 577.829 293.391 576.631C292.916 575.194 291.721 574.472 290.284 574.468C288.847 574.465 288.127 575.181 287.645 576.616C287.645 576.616 287.645 576.616 287.405 576.855C286.924 577.811 286.205 578.049 285.247 578.046C284.768 578.045 284.052 577.325 284.292 577.086C284.532 576.847 284.533 576.368 284.773 576.13C285.253 575.652 285.254 575.173 285.017 574.454C284.541 573.017 283.585 572.535 282.148 572.531C281.67 572.53 280.712 572.528 280.233 572.526C279.038 571.805 277.842 571.083 276.648 569.883C275.693 568.923 275.694 568.444 277.133 567.49C277.373 567.251 277.373 567.251 277.613 567.013C278.333 566.296 278.096 565.577 277.379 564.857C276.423 564.376 275.704 564.613 274.982 565.808C274.741 566.526 274.499 567.723 274.02 567.721C273.301 567.959 272.585 567.239 271.867 566.997C271.867 566.997 271.867 566.997 271.628 566.757C270.67 566.755 269.954 566.035 269.956 565.077C269.959 564.119 269.961 563.161 269.485 562.203C269.486 561.724 269.487 561.245 269.009 560.765C268.771 560.525 268.293 560.045 268.053 560.283C267.095 560.281 266.614 561.237 267.09 562.196C267.329 562.436 267.328 562.915 267.806 563.395C268.522 564.115 268.52 565.073 268.279 565.791C268.037 566.508 267.557 566.986 266.6 566.983C265.642 566.981 264.924 566.739 263.968 566.258C263.489 566.257 262.771 566.015 262.531 566.254C261.572 566.731 261.095 566.25 260.857 565.532C260.379 565.051 260.142 564.333 260.143 563.854C259.905 563.135 259.429 562.176 258.232 561.933C258.231 562.412 257.991 562.651 258.23 562.891C258.468 563.61 259.184 564.33 259.422 565.049C259.899 565.529 260.137 566.248 260.615 566.728C261.092 567.208 260.851 567.926 260.132 568.163C258.933 568.878 257.494 569.832 256.295 570.547C255.58 569.348 254.864 568.628 254.387 567.669C253.907 568.147 253.906 568.626 254.384 569.106C255.814 571.504 254.134 573.175 253.41 575.328C253.17 575.567 252.93 575.806 252.452 575.805C251.973 575.803 251.015 575.801 251.253 576.52C251.25 577.477 251.729 577.479 252.447 577.72C252.447 577.72 252.686 577.96 252.926 577.721C253.643 577.963 253.642 578.441 253.88 579.16C253.879 579.639 253.877 580.118 253.876 580.597C253.634 581.793 253.394 582.032 252.197 581.789C250.522 581.546 249.803 581.783 249.321 583.218C249.079 583.936 248.838 584.654 248.358 585.131C247.878 585.609 247.398 586.086 246.68 585.845C245.244 585.841 244.522 587.036 244.519 588.473C244.757 589.192 244.515 589.91 244.993 590.39C245.469 591.349 245.468 591.827 245.227 592.545C244.987 592.784 244.746 593.502 244.745 593.98C245.7 594.941 246.896 595.183 247.133 596.381C247.609 597.34 248.566 597.821 249.043 598.301C249.759 599.5 250.478 599.263 251.675 599.027C251.915 598.788 252.393 599.268 252.632 599.508C254.546 599.992 256.7 600.237 258.141 598.326C258.622 597.848 259.34 597.61 259.58 597.372C260.06 596.894 260.062 596.415 260.303 595.698L260.543 595.459C261.262 595.221 261.263 594.742 261.025 594.024C260.31 592.825 261.749 591.871 261.513 590.673C261.513 590.673 261.753 590.434 261.993 590.195C262.471 590.197 262.711 589.958 263.19 589.959C264.148 589.962 264.387 590.202 264.384 591.159C264.38 593.075 264.378 593.554 266.293 594.038C267.01 594.279 267.489 594.28 267.967 594.76C268.206 595 268.923 595.242 269.162 595.482C271.076 595.966 272.514 595.491 273.714 594.297C274.914 593.103 276.114 591.909 277.314 590.715C277.794 590.237 278.273 590.238 278.511 590.957C278.987 591.916 278.745 593.113 278.503 594.309C279.221 594.072 279.7 594.073 280.179 594.074C280.658 594.076 280.897 594.316 280.896 594.794C281.133 595.513 281.371 596.232 281.13 596.95C281.128 597.429 280.41 597.666 279.93 598.144C279.69 598.383 279.45 598.621 279.209 598.86C282.795 601.025 284.952 600.312 286.395 597.922C286.395 597.922 286.635 597.683 286.873 597.923C288.306 599.363 288.306 599.363 289.742 599.846C289.981 600.086 290.459 600.087 290.458 600.566C291.413 601.526 291.413 601.526 292.372 601.05C294.53 599.859 296.922 600.823 298.114 602.981C298.829 604.18 298.348 605.136 297.867 606.092C299.062 606.814 300.26 606.578 301.218 606.101C302.177 605.625 302.895 605.866 303.611 606.587C304.089 607.067 304.566 608.026 304.803 608.745C305.041 609.463 305.04 609.942 303.841 610.657C303.601 610.896 303.361 611.135 303.359 611.614C303.598 611.854 303.597 612.333 303.597 612.333C302.637 613.288 302.393 614.963 300.478 614.958C299.999 614.957 299.999 614.957 299.52 614.956C299.76 614.717 299.76 614.717 299.762 614.238C300.483 613.043 300.485 612.085 299.768 611.844C299.05 611.602 297.852 611.839 297.371 612.795L297.131 613.034C296.65 613.99 297.365 615.189 298.321 615.671C299.518 615.913 300.953 616.396 302.15 616.638C303.106 617.12 303.824 617.361 304.54 618.081C305.256 619.28 305.495 619.52 304.534 620.476C303.814 621.192 302.854 622.147 303.091 623.345C303.091 623.345 302.611 623.822 302.132 623.821C301.653 623.82 301.414 623.58 300.935 623.579C300.456 623.577 299.736 624.294 299.974 625.013C300.451 625.972 301.167 626.692 302.123 627.173C302.841 627.414 304.04 626.699 303.802 625.98C303.567 624.304 304.287 623.587 305.247 622.632C306.209 621.198 306.687 621.2 308.36 622.401C309.555 623.601 310.989 624.563 312.183 625.763C312.66 626.243 313.377 626.964 314.095 627.205C313.853 627.923 313.372 628.879 313.131 629.597C313.129 630.554 312.887 631.272 312.645 632.468C312.164 633.425 312.64 634.384 313.358 634.625C314.075 634.866 314.796 634.15 315.038 632.954C315.038 632.954 315.038 632.954 315.278 632.715C315.28 631.757 315.76 631.279 316.479 631.042C316.958 631.043 317.438 630.566 317.679 629.848C317.922 628.652 318.641 628.414 319.598 628.417C320.556 628.419 321.514 628.422 322.471 628.424C323.908 628.428 323.908 628.428 324.863 629.388C325.103 629.149 325.345 628.432 325.585 628.193C325.825 627.954 326.542 628.196 326.781 628.436C327.498 629.156 327.735 629.875 328.452 630.595C328.689 631.314 328.927 632.033 329.164 632.752C330.123 632.275 330.362 632.515 330.601 632.755ZM303.141 603.233C302.425 602.513 301.228 602.271 301.949 601.075C302.432 599.64 303.152 598.924 304.588 598.928C305.546 598.93 306.025 598.931 306.028 597.495C306.03 597.016 306.508 597.017 306.747 597.257C306.986 597.497 307.224 598.216 307.703 598.218C307.941 598.458 308.42 598.459 309.138 598.7C307.937 600.373 306.737 601.567 305.775 603.001C304.815 603.956 304.336 603.955 303.141 603.233ZM337.137 604.281C336.423 602.603 335.23 600.924 334.277 599.006C334.996 598.769 335.714 598.531 336.193 598.533C337.391 598.296 337.87 598.298 338.585 599.497C339.062 600.456 339.299 601.174 339.776 602.133C338.816 603.089 337.857 603.565 337.137 604.281Z" fill="#D9D9D9"/>
<path d="M275.686 379.297C275.448 379.057 274.969 379.056 274.73 378.816C274.729 379.295 274.967 379.535 274.967 379.535C275.445 380.015 276.402 380.496 276.16 381.214C275.919 381.931 274.96 382.408 274.241 382.645C273.763 382.644 273.284 382.643 272.565 382.88C272.086 382.879 271.847 382.639 271.607 382.878C271.365 384.074 273.041 383.839 273.278 385.037C272.558 385.753 271.841 385.033 271.362 385.032C271.362 385.032 270.884 385.031 270.644 385.269C270.644 385.269 270.642 385.748 270.881 385.988C271.12 386.228 271.359 386.468 271.836 386.949C272.075 387.189 272.074 387.667 272.074 387.667C271.834 387.906 271.594 388.145 271.115 388.144C270.396 388.381 269.679 388.14 268.96 388.377L268.48 388.855C268.719 389.095 268.717 389.574 268.957 389.335C269.675 389.576 270.154 389.578 270.872 389.819C271.11 390.059 271.588 390.539 271.826 391.258C271.826 391.258 271.346 391.736 271.106 391.974C270.866 392.213 270.147 392.451 269.907 392.69C270.146 392.93 270.384 393.17 270.863 393.171C271.581 393.412 272.3 393.175 272.297 394.132C272.296 394.611 271.815 395.568 271.574 396.285C271.334 396.524 270.855 396.523 270.615 396.762C270.375 397 269.896 396.999 269.416 397.477C270.134 397.718 270.612 397.719 271.091 397.721C272.289 397.484 273.007 397.726 273.484 398.206C273.722 398.925 273.481 399.642 272.282 400.357C271.802 400.835 271.083 401.073 270.603 401.55L270.602 402.029C270.602 402.029 270.84 402.269 271.08 402.03C271.799 401.793 272.279 401.315 272.998 401.078C273.238 400.839 273.716 401.319 273.716 401.319C273.955 401.559 273.715 401.798 273.475 402.037C272.755 402.753 272.036 402.99 271.316 403.707C271.076 403.946 271.075 404.424 271.073 404.903C272.272 404.188 272.992 403.472 273.711 403.234C274.191 402.757 274.91 402.519 275.148 403.238C275.387 403.478 275.145 404.196 275.144 404.675C275.144 404.675 275.383 404.915 275.143 405.154C275.622 405.155 276.102 404.677 276.581 404.679C277.059 404.68 277.538 404.681 277.777 404.921C278.016 405.161 277.775 405.879 277.774 406.358L277.534 406.596C277.532 407.075 276.573 407.552 277.051 408.032C277.529 408.512 278.01 407.555 278.49 407.078C278.73 406.839 278.73 406.839 278.97 406.6C279.21 406.361 279.69 405.884 279.929 406.124C280.408 406.125 280.884 407.084 280.883 407.563C280.642 408.281 280.402 408.519 279.922 408.997C279.682 409.236 279.681 409.715 279.919 409.955C280.638 409.717 280.639 409.238 280.879 409C281.36 408.522 281.601 407.804 282.32 407.567C282.56 407.328 283.038 407.329 283.277 407.569C283.516 407.809 283.515 408.288 283.754 408.528C284.23 409.487 284.47 409.249 285.19 408.532C285.43 408.293 285.67 408.055 285.91 407.816C286.864 409.255 285.664 410.449 285.9 412.125C286.38 411.648 286.62 411.409 286.86 411.17C287.101 410.453 287.582 409.496 287.823 408.779C288.305 407.822 289.263 407.346 289.744 406.868C290.224 406.391 290.7 407.35 291.179 407.351C291.418 407.591 291.658 407.352 291.898 407.113C292.138 406.875 292.378 406.636 292.618 406.397C293.818 405.203 293.818 405.203 295.252 406.165C295.491 406.405 295.491 406.405 295.97 406.406C295.971 405.927 295.733 405.208 295.734 404.729C295.498 403.532 296.938 402.099 298.136 401.863C298.615 401.864 298.854 402.104 299.092 402.344C299.331 402.584 299.57 402.824 299.809 403.064C300.049 402.825 300.049 402.825 300.049 402.825C299.571 402.345 299.572 401.866 299.095 401.386C298.618 400.427 298.621 399.47 299.341 398.753C300.061 398.037 300.779 398.278 301.256 398.758C301.495 398.998 301.735 398.76 301.974 399C301.736 398.281 301.02 397.561 300.542 397.08C300.303 396.84 300.304 396.362 300.544 396.123C300.546 395.644 301.025 395.645 301.503 395.646C301.982 395.648 302.221 395.888 302.94 395.65C302.462 395.17 302.223 394.93 302.223 394.93C301.028 394.209 300.55 393.729 301.272 392.533C301.513 391.816 302.233 391.099 302.474 390.382C301.757 390.14 300.8 389.659 300.801 389.18C300.564 388.461 301.044 387.984 301.285 387.266C299.133 386.063 299.133 386.063 299.617 384.149C297.941 383.905 297.941 383.905 297.947 381.511C295.313 381.743 295.313 381.743 295.318 379.828L294.839 379.827L294.599 380.066C292.684 380.06 292.205 380.059 291.968 378.861C291.97 378.383 291.971 377.904 291.733 377.185C290.533 378.379 290.533 378.379 289.099 377.417C288.621 376.937 288.381 377.176 287.902 377.175C287.182 377.891 286.943 377.651 286.467 376.692C286.228 376.452 285.989 376.212 285.751 375.972C285.51 376.211 285.27 376.449 285.509 376.69C285.267 377.886 285.027 378.125 284.07 377.643C283.114 377.162 282.157 376.681 281.201 376.199C281.2 376.678 280.96 376.917 280.958 377.396C280.716 378.592 280.476 378.831 279.52 378.35C278.802 378.108 278.563 377.868 277.845 377.627C277.128 377.386 276.888 377.624 276.646 378.342C276.404 379.538 276.404 379.538 275.686 379.297Z" fill="#D9D9D9"/>
<path d="M322.32 687.8C322.084 686.602 322.565 685.646 323.285 684.929C323.765 684.452 324.007 683.734 323.529 683.254C322.812 682.534 322.336 681.575 323.057 680.38C323.297 680.141 323.058 679.901 323.298 679.662C323.301 678.704 323.302 678.226 322.346 677.744C322.107 677.504 321.628 677.503 321.389 677.263C320.671 677.022 320.433 676.781 320.435 675.824C320.439 674.387 319.961 673.907 318.526 673.424C317.808 673.183 317.33 672.703 316.613 672.462C315.895 672.22 315.417 671.74 314.938 671.739C313.261 672.453 311.827 671.491 310.389 671.966C309.91 671.965 309.67 672.204 309.43 672.443C307.991 673.397 306.552 674.35 305.352 675.544C304.632 676.261 304.152 676.738 304.149 677.696C304.386 678.894 304.143 680.09 302.945 680.805C302.224 681.522 301.983 682.239 302.46 683.198C302.695 684.875 303.649 686.314 303.884 687.991C304.123 688.231 304.122 688.709 304.361 688.95C305.557 689.192 306.034 690.151 306.749 691.35C307.467 691.591 308.184 691.833 308.663 691.834C309.621 691.837 310.579 691.839 311.295 692.559C312.011 693.279 312.49 693.281 313.21 692.564C313.93 691.848 314.649 691.61 315.606 692.092C316.323 692.333 316.564 692.094 317.282 691.857C319.2 690.904 320.401 689.231 322.08 688.039C322.318 688.758 322.319 688.279 322.32 687.8Z" fill="#D9D9D9"/>
<path d="M163.236 633.988C164.436 632.794 164.436 632.794 164.201 631.117C163.963 630.398 163.966 629.441 164.447 628.484C164.687 628.245 164.449 627.526 164.451 627.048C163.977 625.131 163.024 623.213 161.589 622.252C160.155 621.29 159.442 619.133 156.806 620.323C155.612 619.123 154.174 619.598 152.975 620.313L152.496 620.312C151.301 619.591 150.341 620.546 149.621 621.262C148.901 621.978 147.942 622.455 147.222 623.171C146.982 623.41 146.502 623.887 146.262 624.126C146.019 625.323 145.777 626.519 144.578 627.234C144.578 627.234 144.338 627.473 144.577 627.713C144.813 628.911 144.811 629.869 145.047 631.066C145.285 631.785 145.284 632.264 145.042 632.982C144.561 633.938 144.561 633.938 145.756 634.66C147.191 635.621 148.386 636.343 148.621 638.019C148.86 638.259 149.099 638.499 149.338 638.739C151.252 639.223 152.928 638.988 154.841 639.951C155.08 640.191 155.799 639.954 156.039 639.715C156.999 638.76 157.718 638.522 159.155 638.526C160.112 638.528 161.071 638.052 162.03 637.576C162.27 637.337 162.75 636.859 162.511 636.619C162.036 635.182 162.995 634.705 163.236 633.988Z" fill="#D9D9D9"/>
<path d="M236.786 522.134C237.984 521.898 238.941 521.901 239.658 522.621C239.897 522.861 240.376 522.862 240.854 522.864C241.813 522.387 242.772 521.911 243.969 522.154C244.208 522.394 244.448 522.155 244.688 521.916C245.886 521.201 246.845 520.725 247.805 519.769C249.006 518.576 250.444 517.622 249.97 515.705L249.972 515.226C251.172 514.032 251.414 512.836 250.22 511.635C249.981 511.395 250.221 511.157 250.222 510.678C250.462 510.439 250.464 509.96 250.704 509.721C250.465 509.481 250.465 509.481 250.226 509.241C249.269 508.76 248.792 508.28 249.034 507.083C249.277 505.887 247.844 504.446 246.408 503.964C245.451 503.961 244.494 503.48 243.778 502.76C243.539 502.52 242.821 502.278 242.821 502.278C241.622 502.993 240.906 502.273 239.949 501.792C239.709 502.031 239.469 502.269 239.469 502.269C238.748 503.465 238.748 503.465 237.313 502.982C236.595 502.741 235.876 502.978 235.635 503.696C235.394 504.413 234.914 504.891 233.956 504.888C233.477 504.887 232.997 505.365 232.996 505.844C232.994 506.801 232.513 507.279 231.555 507.755C230.596 508.231 229.632 510.623 230.349 511.343C231.064 512.542 230.823 513.26 230.101 514.455C231.537 514.938 232.252 516.137 231.769 517.572C231.528 518.29 232.006 518.77 232.724 519.011C235.115 519.975 236.791 520.219 236.786 522.134Z" fill="#D9D9D9"/>
<path d="M246.185 496.059C247.142 496.54 248.098 497.022 248.096 497.979C247.613 499.415 249.048 500.376 249.284 501.574C249.523 501.814 249.762 502.054 250 502.294C250.958 502.297 251.436 502.777 252.152 503.497C252.391 503.737 252.869 504.217 252.869 504.217C254.304 504.7 255.498 505.9 257.177 504.707C257.417 504.469 257.895 504.949 258.374 504.95C258.853 504.951 259.091 505.191 259.331 504.953C259.811 504.475 260.291 503.997 261.009 504.239C261.966 504.72 262.208 503.524 262.927 503.286C264.843 502.812 266.044 501.618 266.048 499.703L266.29 498.985C267.727 498.51 267.251 497.551 267.013 496.833C267.014 496.354 267.256 495.636 267.497 494.918C267.738 494.201 267.739 493.722 267.022 493.481C266.783 493.241 266.544 493.001 266.544 493.001C266.306 492.282 266.548 491.564 266.31 490.845C266.072 490.126 265.115 490.124 264.877 489.405C264.401 488.446 263.684 487.726 262.728 487.244C262.249 487.243 261.771 486.763 261.532 486.523C259.619 485.56 257.466 484.836 255.308 486.027C255.068 486.266 254.35 486.504 253.871 486.502C252.195 486.259 250.996 486.974 250.514 488.409C250.274 488.648 250.033 489.365 250.033 489.365C248.595 489.84 248.351 491.516 247.393 491.992C247.631 492.232 247.391 492.471 247.391 492.471C248.823 494.39 248.823 494.39 246.185 496.059Z" fill="#D9D9D9"/>
<path d="M207.217 567.782C208.414 568.024 209.609 568.746 210.569 567.79C210.809 567.552 211.288 567.553 211.527 567.793C214.639 568.041 216.319 566.369 217.76 564.458C218.241 563.501 218.484 562.305 219.683 561.59C219.923 561.351 219.924 560.872 219.685 560.632C219.209 559.673 218.972 558.475 219.215 557.279C219.216 556.8 219.217 556.321 218.978 556.081C218.264 554.403 217.31 552.964 216.116 551.764C215.638 551.284 215.161 550.803 214.443 550.562C213.486 550.081 212.769 549.839 211.812 549.358C211.335 548.878 210.377 548.875 209.658 549.113C208.699 549.589 207.74 550.066 207.023 549.824C205.586 549.82 204.388 550.057 203.427 551.491C202.947 551.968 202.467 552.446 201.987 552.923C201.507 553.401 200.787 554.117 200.546 554.835C200.306 555.074 200.303 556.031 200.302 556.51C200.3 557.468 200.297 558.426 200.056 559.143C199.572 561.057 200.046 562.974 201.241 564.174C203.392 565.377 204.825 566.818 207.217 567.782Z" fill="#D9D9D9"/>
<path d="M203.661 363.065C203.42 363.783 203.417 364.74 203.176 365.458C202.455 366.653 201.974 367.609 202.928 369.049C203.166 369.289 202.686 369.766 202.685 370.245C202.445 370.484 202.444 370.963 202.444 370.963C203.16 371.683 202.919 372.401 202.917 373.358C202.916 373.837 203.392 374.796 203.87 375.276C204.109 375.516 205.065 375.998 205.305 375.759C206.504 375.044 207.698 376.244 209.136 375.769C210.09 377.208 211.53 375.775 212.487 376.257C212.725 376.497 213.205 376.019 213.205 376.019C213.926 375.303 214.644 375.065 215.362 375.307C215.841 375.308 216.081 375.069 216.561 374.592C217.041 374.114 217.042 373.635 217.761 373.398C218.241 372.92 218.481 372.681 218.722 371.964C218.724 371.485 218.964 371.246 219.204 371.007C220.164 370.052 220.167 368.615 219.931 367.418C219.932 366.939 219.934 365.981 219.936 365.502C220.177 364.785 219.938 364.545 219.46 364.065C218.504 363.583 217.549 362.623 218.031 361.188L217.553 360.708C216.596 360.705 216.118 360.225 215.64 359.745C214.924 359.025 212.771 358.301 212.291 358.778C211.091 359.972 209.894 359.729 208.46 358.768C207.739 359.963 207.258 360.92 206.06 361.156C206.06 361.156 205.58 361.633 205.34 361.872C204.621 362.11 203.902 362.347 203.661 363.065Z" fill="#D9D9D9"/>
<path d="M65.2664 557.112C65.0288 556.393 65.2712 555.196 64.7935 554.716C64.0771 553.996 63.6006 553.037 63.123 552.557C61.9288 551.357 60.4947 550.395 58.8193 550.151C55.9474 549.665 53.312 550.376 51.1518 552.525C50.4305 553.721 49.7093 554.916 49.2268 556.351C49.2257 556.83 48.9844 557.548 49.2232 557.788C49.4609 558.507 49.6985 559.225 49.2185 559.703C48.9772 560.421 48.9761 560.899 49.6937 561.141C50.6502 561.622 51.3667 562.342 51.1243 563.539C50.8843 563.778 51.3619 564.258 51.8408 564.259C53.7538 565.222 55.4255 566.902 58.0622 565.712C59.4975 566.195 60.2176 565.478 61.4165 564.763C62.1353 564.526 63.0942 564.049 63.5743 563.572C64.5368 561.659 65.9781 559.747 65.2664 557.112Z" fill="#D9D9D9"/>
<path d="M243.887 458.702C244.368 457.746 244.849 456.789 244.373 455.83C244.134 455.59 244.374 455.352 244.375 454.873C244.142 452.238 243.189 450.321 240.798 449.356C240.319 449.355 239.841 448.875 239.602 448.635C239.363 448.395 239.125 448.155 238.646 448.154C237.687 448.63 236.253 447.668 235.534 447.906C234.336 448.142 232.898 448.617 231.461 449.092C231.221 449.331 230.981 449.57 230.979 450.049C230.499 450.526 230.258 451.244 230.258 451.244C228.818 452.677 228.818 452.677 228.574 454.352C228.573 454.831 228.572 455.31 228.092 455.787C227.612 456.265 227.611 456.744 228.088 457.224C228.327 457.464 228.805 457.944 228.565 458.183C228.562 459.14 229.04 459.621 229.518 460.101C229.757 460.341 229.994 461.06 230.233 461.3C230.711 461.78 230.709 462.259 231.427 462.5C233.579 463.703 235.732 464.427 238.129 463.475C238.369 463.237 238.847 463.238 239.086 463.478C240.044 463.481 240.524 463.003 241.244 462.287C241.484 462.048 241.964 461.57 242.204 461.331C243.164 460.376 243.167 459.419 243.887 458.702Z" fill="#D9D9D9"/>
<path d="M137.953 693.056C137.714 692.816 137.475 692.575 137.476 692.097C137.238 691.378 136.282 690.896 135.564 690.655C133.411 689.931 130.779 689.206 128.382 690.636C127.663 690.873 126.944 691.111 126.224 691.827C125.744 692.305 125.504 692.544 125.024 693.021C124.543 693.978 124.301 694.695 123.581 695.412C123.341 695.651 122.861 696.128 123.1 696.368C123.575 697.806 123.333 699.002 123.09 700.199C123.089 700.678 123.088 701.157 123.566 701.637C124.282 702.357 124.52 703.076 125.236 703.796L125.475 704.036C127.624 706.197 130.499 705.725 133.132 705.972C133.611 705.973 133.851 705.734 134.091 705.495C134.811 704.779 135.53 704.542 136.25 703.825C136.97 703.109 137.45 702.631 137.931 701.675C139.854 698.807 140.101 695.695 137.953 693.056Z" fill="#D9D9D9"/>
<path d="M131.238 409.322C130.761 408.363 130.763 407.884 131.004 407.167C131.246 405.97 131.727 405.014 131.73 404.056C132.216 401.184 130.786 398.307 127.916 397.342C126.959 396.861 126.002 396.858 125.044 396.856C122.65 396.849 120.732 397.802 119.529 399.954C118.327 402.105 117.843 404.019 119.035 406.177C119.749 407.855 120.704 408.815 122.14 409.298C122.379 409.538 122.617 409.778 123.096 409.779C122.375 410.975 122.611 412.172 123.088 413.131C124.04 415.528 125.474 416.49 128.109 415.778C131.461 415.787 132.907 411.96 131.238 409.322Z" fill="#D9D9D9"/>
<path d="M204.048 495.946C205.964 495.472 207.882 494.52 208.606 492.367C208.846 492.128 208.847 491.649 209.087 491.41C210.047 490.455 210.29 489.259 209.574 488.06C209.336 487.819 209.577 487.102 209.578 486.623C209.579 486.144 209.819 485.905 209.58 485.665C208.864 484.945 208.147 484.225 208.15 483.267C207.911 483.027 207.672 482.787 207.433 482.547C206.477 482.066 205.759 481.824 205.043 481.104C204.565 480.624 203.847 480.383 203.128 480.62C202.65 480.619 201.931 480.857 201.452 480.855C200.014 481.33 198.338 481.565 196.897 482.998C194.737 485.147 194.012 487.779 194.963 490.654C195.439 491.613 196.635 492.335 196.631 493.771L196.87 494.011C199.019 496.172 201.412 496.657 204.048 495.946Z" fill="#D9D9D9"/>
<path d="M323.01 796.022C322.535 794.584 322.778 792.908 321.343 792.426C317.762 788.346 312.971 789.291 310.811 791.44C306.731 795.5 307.679 799.333 310.543 802.692C312.214 804.852 318.438 805.347 320.358 803.437C321.318 802.482 322.039 801.286 322.999 800.331C322.524 798.893 323.724 797.699 323.01 796.022Z" fill="#D9D9D9"/>
<path d="M224.669 579.084C226.104 580.045 227.298 581.245 229.214 580.772L229.693 580.773C231.607 581.257 233.047 579.824 234.485 579.349L234.725 579.11C235.206 578.154 235.687 577.676 236.168 576.72C237.129 575.286 237.373 573.611 236.897 572.173C236.422 570.735 236.187 569.058 234.513 568.336C233.795 568.094 233.557 567.375 232.841 566.655C231.883 566.653 230.686 566.889 229.729 566.408C229.49 566.167 228.771 566.405 228.531 566.644C226.616 566.639 225.653 568.552 223.976 569.265L223.736 569.504C223.492 571.179 222.292 572.373 222.287 574.289C222.521 576.444 223.235 578.122 224.669 579.084Z" fill="#D9D9D9"/>
<path d="M333.419 654.312C334.613 655.512 335.089 656.95 336.764 657.194C337.243 657.195 337.482 657.435 337.72 657.675C338.437 658.395 339.635 658.159 340.353 657.922C341.072 657.684 341.552 657.207 342.271 656.969C345.148 655.54 345.873 652.908 347.076 650.278C347.316 650.039 346.839 649.559 346.84 649.08C346.602 648.361 346.364 648.121 346.126 647.402C345.887 647.162 346.128 646.445 345.65 646.443C344.215 645.482 342.781 644.52 341.107 643.798C338.715 642.834 336.557 644.025 334.878 645.218C333.438 646.65 332.477 648.084 332.233 649.76C331.99 651.435 331.986 652.872 333.419 654.312Z" fill="#D9D9D9"/>
<path d="M270.933 652.949C271.174 652.231 271.175 651.752 270.698 651.272C270.22 650.792 269.504 650.072 269.505 649.593C269.507 648.635 269.03 648.155 268.312 647.914C267.594 647.672 266.878 646.952 266.16 646.711C263.767 646.226 261.849 647.178 259.93 648.61C259.45 649.087 258.97 649.565 258.729 650.283C258.248 651.239 258.005 652.436 258.003 653.393C257.998 655.309 258.712 656.986 259.666 658.426C259.905 658.666 260.144 658.906 260.383 659.146C262.536 659.87 264.688 661.073 267.087 659.163C268.526 658.21 270.443 657.257 270.449 654.863C270.451 654.384 270.692 653.666 270.933 652.949Z" fill="#D9D9D9"/>
<path d="M300.917 629.802C299.48 629.798 297.803 630.033 296.366 630.508C295.167 631.223 294.208 631.7 294.204 633.136C294.203 633.615 293.962 634.333 293.722 634.572C293.481 635.289 293.479 635.768 293.717 636.487C293.716 636.966 293.955 637.206 293.713 637.924C293.712 638.402 293.711 638.881 293.95 639.121C294.189 639.361 294.426 640.08 294.665 640.32C295.142 641.279 296.098 641.761 297.056 641.763C298.014 641.766 298.731 642.007 299.689 642.01C300.168 642.011 300.407 642.251 300.647 642.012C301.845 641.297 303.283 640.822 304.482 640.107C304.963 639.15 305.683 638.434 305.926 637.238C307.37 634.368 304.747 629.812 300.917 629.802Z" fill="#D9D9D9"/>
<path d="M196.674 381.002C198.116 378.612 198.122 376.218 196.452 374.058C193.587 370.699 190.235 370.69 187.356 373.076C184.238 375.223 184.704 380.492 186.853 382.652C187.568 383.851 189.244 384.095 190.68 384.099C193.313 384.345 195.232 382.914 196.674 381.002Z" fill="#D9D9D9"/>
<path d="M144.509 463.466C146.66 465.147 149.533 465.155 151.453 463.245C153.613 461.095 153.861 457.984 151.95 456.063C150.756 454.863 150.996 454.624 150.522 452.707C150.048 450.791 148.614 449.829 146.696 450.782C145.737 451.258 145.017 451.975 145.013 453.411C145.012 453.89 144.771 454.608 144.53 455.325C143.092 455.8 143.088 457.237 142.607 458.193C141.885 459.867 142.359 461.784 143.313 463.223C144.27 463.226 144.27 463.226 144.509 463.466Z" fill="#D9D9D9"/>
<path d="M231.339 593.467C233.015 593.71 234.214 592.995 235.174 592.04C237.334 589.891 237.584 585.822 235.433 584.14C234.478 583.18 233.042 582.697 232.085 582.694C229.93 582.449 228.253 583.163 227.051 584.836C226.331 585.552 225.609 587.226 225.845 588.424C226.082 589.622 225.838 591.297 227.512 592.02C228.945 593.46 228.945 593.46 231.339 593.467Z" fill="#D9D9D9"/>
<path d="M80.5374 577.263C80.0621 575.825 78.868 574.624 77.6727 573.903C76.2385 572.941 74.3231 572.936 72.4054 573.889C70.7276 574.603 70.484 576.278 69.2839 577.472C68.8003 579.386 69.2743 581.303 70.9473 582.504C73.5756 584.666 76.9275 584.675 79.3277 582.287C80.7678 580.854 81.0114 579.179 80.5374 577.263Z" fill="#D9D9D9"/>
<path d="M82.3283 628.985C84.9673 626.837 84.258 623.244 82.5863 621.564C80.4369 619.403 77.5638 619.396 75.4036 621.545C73.2434 623.694 73.235 627.046 74.9056 629.205C76.5774 630.885 80.647 631.136 82.3283 628.985Z" fill="#D9D9D9"/>
<path d="M77.3741 502.557C76.4176 502.076 75.2211 501.833 74.0246 501.591C73.5446 502.068 72.8257 502.306 72.3457 502.784C69.4654 505.649 69.2158 509.719 73.2806 511.884C76.8678 513.57 79.9844 511.902 80.9517 508.074C81.1965 505.92 79.766 503.522 77.3741 502.557Z" fill="#D9D9D9"/>
<path d="M214.674 458.146C214.913 458.386 214.912 458.865 215.151 459.105C216.822 460.786 220.653 460.796 222.333 459.124C224.492 457.454 225.457 454.583 222.592 451.224C222.354 450.984 221.876 450.504 221.637 450.264C220.441 450.021 219.005 449.538 217.808 449.775C216.131 450.01 214.931 451.204 213.97 452.638C213.248 453.833 213.006 455.029 213.96 456.468C214.198 457.187 214.196 457.666 214.674 458.146Z" fill="#D9D9D9"/>
<path d="M217.677 598.458C217.438 598.218 216.72 597.977 216.242 597.975C214.327 597.492 214.089 597.251 214.093 595.336C214.099 592.942 212.668 591.023 210.515 590.299C209.797 590.057 209.079 589.816 208.362 589.575C206.687 588.852 205.489 589.567 205.245 591.242C205.002 592.439 205.239 593.637 204.996 594.833C204.754 596.03 204.99 597.227 206.186 597.949C207.14 599.388 208.336 599.63 209.774 599.155C210.493 598.918 211.69 599.161 212.407 599.402C214.083 599.646 215.759 599.411 217.196 599.415C217.436 599.176 217.676 598.937 217.916 598.698C218.155 598.938 217.916 598.698 217.677 598.458Z" fill="#D9D9D9"/>
<path d="M286.153 502.629C284.473 504.301 284.705 507.414 286.377 508.615C288.527 510.776 290.682 510.542 293.321 508.394C294.762 506.962 294.291 503.609 292.858 502.168C290.946 500.727 287.594 500.718 286.153 502.629Z" fill="#D9D9D9"/>
<path d="M328.917 540.813C329.879 539.379 329.646 536.744 328.213 535.304C327.974 535.064 327.256 534.823 326.779 534.342C325.583 533.621 324.626 533.618 323.666 534.574C323.426 534.812 323.186 535.051 322.467 535.289C320.548 536.72 320.059 540.55 322.689 542.233C325.082 542.718 327.476 542.724 328.917 540.813Z" fill="#D9D9D9"/>
<path d="M172.945 486.765C171.512 485.325 168.16 485.316 166.96 486.51C165.038 488.899 165.511 491.295 166.944 492.735C168.616 494.415 171.25 494.183 172.93 492.511C174.61 490.84 174.855 488.686 172.945 486.765Z" fill="#D9D9D9"/>
<path d="M53.2844 657.879C51.6126 656.198 48.9796 655.952 47.0594 657.862C45.6193 659.295 45.3721 662.407 46.5662 663.607C48.9544 666.008 51.3499 665.535 52.79 664.102C55.4302 661.476 54.7174 659.319 53.2844 657.879Z" fill="#D9D9D9"/>
<path d="M140.296 425.626C138.386 423.705 136.231 423.46 134.311 425.37C132.631 427.042 132.146 429.435 133.818 431.115C135.49 432.796 138.123 433.042 139.803 431.371C141.722 429.939 141.729 427.066 140.296 425.626Z" fill="#D9D9D9"/>
<path d="M154.276 387.835C152.843 386.394 149.97 386.387 148.53 387.82C146.85 389.491 146.604 392.124 148.514 394.045C150.186 395.725 152.82 395.493 154.26 394.06C155.941 392.388 155.948 389.515 154.276 387.835Z" fill="#D9D9D9"/>
<path d="M370.766 560.315C372.438 561.995 374.832 562.001 376.512 560.33C377.952 558.897 377.958 556.503 376.525 555.063C374.853 553.382 372.938 553.377 370.779 555.047C368.86 556.479 369.094 558.634 370.766 560.315Z" fill="#D9D9D9"/>
<path d="M119.793 487.105C118.353 488.538 118.347 490.932 119.78 492.372C121.213 493.813 123.369 493.579 124.809 492.146C126.249 490.714 126.255 488.319 124.822 486.879C123.388 485.918 120.993 485.911 119.793 487.105Z" fill="#D9D9D9"/>
<path d="M91.4555 616.08C92.6497 617.281 95.0439 617.287 96.244 616.093C97.4441 614.899 97.4501 612.505 96.256 611.305C95.0619 610.104 92.4288 609.858 91.2287 611.052C90.5086 611.768 89.7826 614.879 91.4555 616.08Z" fill="#D9D9D9"/>
<path d="M114.398 536.411C115.598 535.217 115.364 533.062 114.169 531.862C112.737 530.421 110.581 530.655 109.141 532.088C107.941 533.282 107.935 535.676 109.369 536.637C111.042 537.839 113.197 537.605 114.398 536.411Z" fill="#D9D9D9"/>
<path d="M278.15 639.082C279.344 640.282 281.738 640.288 282.938 639.094C284.378 637.662 284.143 635.985 282.95 634.306C281.756 633.106 279.841 633.101 278.401 634.533C276.96 635.966 276.956 637.882 278.15 639.082Z" fill="#D9D9D9"/>
<path d="M288.705 630.011C289.423 630.252 289.661 630.971 290.618 630.974C291.337 630.736 292.295 630.739 293.253 630.741C294.45 630.505 294.452 630.026 293.735 629.306C293.257 628.826 293.259 628.347 293.26 627.868C293.023 626.67 292.547 625.712 291.591 625.23C290.155 624.747 288.477 625.461 287.996 626.418C287.276 627.134 287.511 628.811 288.705 630.011Z" fill="#D9D9D9"/>
<path d="M217.606 818.25C216.651 817.289 214.735 817.284 213.535 818.478C212.575 819.433 212.569 821.828 213.764 822.549C214.72 823.509 216.635 823.514 217.835 822.32C218.795 821.365 218.8 819.45 217.606 818.25Z" fill="#D9D9D9"/>
<path d="M281.388 685.539C280.432 684.579 278.038 684.573 277.078 685.528C276.118 686.483 276.113 688.399 277.307 689.599C278.501 690.799 280.178 690.564 281.378 689.37C282.099 688.175 282.343 686.5 281.388 685.539Z" fill="#D9D9D9"/>
<path d="M176.053 393.399C177.013 392.444 177.257 390.768 176.063 389.568C174.869 388.368 173.432 388.364 172.232 389.558C171.272 390.513 171.267 392.428 172.223 393.389C173.417 394.589 175.093 394.354 176.053 393.399Z" fill="#D9D9D9"/>
<path d="M87.6958 682.87C86.7405 681.909 84.8251 681.904 83.865 682.86C82.9049 683.815 82.6613 685.49 83.8554 686.69C84.8107 687.651 86.4861 687.894 87.4462 686.939C88.6463 685.745 88.6511 683.83 87.6958 682.87Z" fill="#D9D9D9"/>
<path d="M166.055 465.919C165.339 465.199 164.621 464.958 163.905 464.238C163.184 464.954 162.704 465.432 162.224 465.909C161.504 466.626 161.502 467.583 161.978 468.542C162.216 469.261 162.932 469.981 163.89 469.984C164.848 469.987 165.567 469.749 166.048 468.793C166.529 467.836 166.533 466.4 166.055 465.919Z" fill="#D9D9D9"/>
<path d="M290.176 616.608C289.459 616.366 288.741 616.125 288.021 616.841C287.062 617.318 286.102 618.273 285.143 618.749C284.663 619.227 284.423 619.465 284.661 620.184C284.898 620.903 285.616 621.145 285.856 620.906C287.294 620.431 288.972 619.717 290.409 619.242C291.608 618.527 291.133 617.089 290.176 616.608Z" fill="#D9D9D9"/>
<path d="M336.843 627.026C336.603 627.265 336.363 627.504 336.361 627.983C335.64 629.178 335.636 630.614 336.832 631.336C337.787 632.296 339.225 631.821 340.185 630.866C340.665 630.388 340.909 628.713 340.67 628.473C339.953 627.753 339.237 627.033 338.519 626.791C337.563 626.31 337.084 626.309 336.843 627.026Z" fill="#D9D9D9"/>
<path d="M44.5004 627.927C43.5451 626.967 41.8698 626.723 40.6697 627.917C39.9496 628.633 39.706 630.309 40.4225 631.029C41.3778 631.989 43.0532 632.233 44.0132 631.278C45.2121 630.563 45.2157 629.126 44.5004 627.927Z" fill="#D9D9D9"/>
<path d="M280.836 618.257C280.598 618.017 279.88 617.776 279.401 617.775C278.203 618.011 277.244 618.487 276.286 618.964C276.046 619.202 275.565 619.68 275.564 620.159C275.563 620.638 276.041 621.118 276.28 621.358C277.236 621.839 278.194 621.842 278.911 622.083C280.108 622.326 280.828 621.609 281.309 620.653C282.03 619.458 281.074 618.976 280.836 618.257Z" fill="#D9D9D9"/>
<path d="M112.754 525.635C112.037 524.915 110.362 524.671 109.402 525.627C108.682 526.343 108.677 528.258 109.394 528.979C110.11 529.699 112.025 529.704 112.745 528.987C113.944 528.272 113.948 526.836 112.754 525.635Z" fill="#D9D9D9"/>
<path d="M184.664 492.305C183.947 491.585 182.272 491.341 181.552 492.058C180.832 492.774 180.828 494.211 181.545 494.931C182.261 495.651 183.698 495.655 184.658 494.7C185.138 494.222 185.38 493.026 184.664 492.305Z" fill="#D9D9D9"/>
<path d="M246.861 322.001L247.1 322.241C248.059 321.765 249.257 321.529 249.975 321.291C250.455 320.813 250.695 320.575 250.457 320.335C250.458 319.856 250.699 319.138 250.46 318.898C250.221 318.658 249.743 318.657 249.264 318.656C249.264 318.656 249.024 318.894 248.785 318.654C247.826 319.131 246.623 321.282 246.861 322.001Z" fill="#D9D9D9"/>
<path d="M327.473 638.253C327.473 638.253 327.952 638.254 327.954 637.775C328.676 636.101 327.482 634.901 327.485 633.464C327.247 633.224 327.007 633.463 326.768 633.223C326.528 633.462 326.288 633.701 326.048 633.94C325.805 635.136 326.281 636.574 326.756 638.012C327.235 638.013 327.473 638.253 327.473 638.253Z" fill="#D9D9D9"/>
<path d="M155.124 431.412C154.646 430.932 153.21 430.928 152.968 431.646C152.488 432.124 152.486 433.081 153.202 433.801C153.68 434.281 154.638 434.284 155.118 433.806C155.838 433.09 155.84 432.132 155.124 431.412Z" fill="#D9D9D9"/>
<path d="M155.565 256.634C154.126 257.588 152.688 258.542 151.489 259.257C151.489 259.257 151.249 259.496 151.487 259.736L151.966 259.737C153.165 259.022 154.364 258.307 155.802 257.832C156.521 257.595 157.48 257.118 157.961 256.162C156.764 255.919 156.284 256.397 155.565 256.634Z" fill="#D9D9D9"/>
<path d="M280.619 705.409C280.142 704.929 279.184 704.926 278.704 705.404C278.224 705.882 278.222 706.839 278.699 707.319C279.177 707.8 280.135 707.802 280.615 707.324C281.335 706.608 281.337 705.65 280.619 705.409Z" fill="#D9D9D9"/>
<path d="M187.97 605.563C187.49 606.04 187.487 606.998 187.965 607.478C188.442 607.958 189.161 607.721 189.641 607.243C190.121 606.765 190.124 605.808 189.646 605.328C189.407 605.088 188.45 605.085 187.97 605.563Z" fill="#D9D9D9"/>
<path d="M51.2103 625.071C50.2538 624.59 48.8173 624.586 48.0972 625.302C47.8572 625.541 47.8559 626.02 48.0948 626.26C49.0513 626.741 50.4878 626.745 51.2079 626.029C51.4479 625.79 51.6879 625.551 51.2103 625.071C51.4491 625.311 51.4491 625.311 51.2103 625.071Z" fill="#D9D9D9"/>
<path d="M252.718 564.072C252.718 564.072 252.239 564.071 251.999 564.309C251.759 564.548 251.998 564.788 251.998 564.788C252.713 565.987 253.429 566.708 254.866 566.711C254.871 564.796 254.393 564.316 252.718 564.072Z" fill="#D9D9D9"/>
<path d="M301.552 568.035C302.508 568.517 303.224 569.237 303.943 568.999L304.185 568.282C303.228 567.8 302.272 567.319 301.555 566.599L301.075 567.076C301.074 567.555 301.313 567.795 301.552 568.035Z" fill="#D9D9D9"/>
<path d="M165.049 388.582C164.571 388.102 163.614 388.1 163.134 388.577C162.654 389.055 162.652 389.534 163.13 390.014C163.608 390.494 164.325 390.735 164.805 390.258C165.285 389.78 165.527 389.062 165.049 388.582Z" fill="#D9D9D9"/>
<path d="M84.9379 542.319C83.9814 541.838 82.7849 541.595 81.8272 541.592C81.8272 541.592 81.5872 541.831 81.586 542.31C82.7813 543.031 83.7378 543.513 84.9355 543.277C84.9355 543.277 85.1756 543.038 85.4156 542.799C84.9367 542.798 84.9379 542.319 84.9379 542.319Z" fill="#D9D9D9"/>
<path d="M5.31938 402.765C7.23596 402.291 8.6737 401.816 9.63499 400.382C8.19845 400.378 6.99953 401.093 5.31938 402.765Z" fill="#D9D9D9"/>
<path d="M243.723 331.806C245.401 331.092 246.601 329.898 247.561 328.943C243.965 330.609 243.965 330.609 243.723 331.806Z" fill="#D9D9D9"/>
<path d="M73.7287 427.844C73.7287 427.844 73.2511 427.364 73.0111 427.603C72.2922 427.84 71.8121 428.318 71.0933 428.555C71.0921 429.034 71.0921 429.034 71.0909 429.513C71.0909 429.513 71.3297 429.753 71.8086 429.754C72.5274 429.517 73.2463 429.279 73.7263 428.802C73.4875 428.562 73.9676 428.084 73.7287 427.844Z" fill="#D9D9D9"/>
<path d="M162.844 313.876C160.689 313.631 159.251 314.584 157.812 315.538C159.488 315.303 161.165 315.068 162.844 313.876Z" fill="#D9D9D9"/>
<path d="M394.53 535.719C393.812 535.957 393.572 536.195 393.092 536.673C392.852 536.912 392.852 536.912 392.612 537.151L392.849 537.869C393.568 537.632 394.287 537.394 395.006 537.157C395.725 536.919 395.966 536.202 395.728 535.483C395.249 535.482 394.77 535.48 394.53 535.719Z" fill="#D9D9D9"/>
<path d="M236.335 605.689C235.378 605.207 234.419 605.683 233.46 606.16C233.22 606.399 233.22 606.399 233.459 606.639C233.698 606.879 233.937 607.119 233.937 607.119C234.895 607.121 235.613 606.884 236.571 606.886L237.051 606.409C236.812 606.169 236.574 605.929 236.335 605.689Z" fill="#D9D9D9"/>
<path d="M145.224 274.082L144.984 274.321L145.223 274.561C146.18 274.564 147.138 274.566 147.857 274.329L147.858 273.85C146.9 273.847 146.183 273.606 145.224 274.082Z" fill="#D9D9D9"/>
<path d="M393.312 544.573C392.113 545.289 391.632 546.245 391.388 547.92C392.827 546.966 393.309 546.01 393.312 544.573Z" fill="#D9D9D9"/>
</g>
<defs>
<clipPath id="clip0">
<rect width="471.369" height="360.645" fill="white" transform="translate(170.453 238.477) rotate(45.1476)"/>
</clipPath>
</defs>
</svg>
