<svg width="951" height="850" viewBox="0 0 951 850" fill="none" xmlns="http://www.w3.org/2000/svg">
<g clip-path="url(#clip0)">
<path d="M792.401 583.461C793.937 582.875 795.767 583.057 796.188 580.697C796.426 580.166 797.194 579.873 797.962 579.58C798.731 579.287 799.737 578.464 800.505 578.171C800.213 577.402 799.682 577.164 799.389 576.396C801.402 574.749 803.469 574.401 806.067 574.29C806.835 573.997 807.659 575.003 808.72 575.479C809.25 575.717 809.543 576.485 810.073 576.723C811.134 577.198 811.665 577.436 812.964 577.381C813.732 577.088 814.263 577.326 815.031 577.033C818.05 574.562 821.708 574.927 825.605 574.762C827.142 574.176 828.971 574.358 830.563 575.071C831.093 575.309 831.624 575.547 832.392 575.254C834.459 574.906 836.051 575.619 837.643 576.332C838.704 576.808 839.472 576.515 840.533 576.991C843.131 576.88 846.259 577.008 849.387 577.135C852.278 577.793 855.644 577.39 859.01 576.986C862.907 576.821 867.096 577.424 870.938 575.959C871.706 575.666 872.237 575.904 873.536 575.849C875.896 576.269 878.494 576.159 881.329 575.517C883.927 575.407 886.232 574.528 889.122 575.186C890.952 575.369 892.781 575.552 894.025 574.197C894.025 574.197 894.025 574.197 894.263 573.666C898.69 573.739 902.294 572.805 906.484 573.407C908.844 573.828 911.972 573.955 914.332 574.376C914.862 574.613 915.869 573.79 916.399 574.027C918.467 573.679 920.241 572.563 922.363 573.514C922.894 573.751 923.131 573.221 923.662 573.458C924.376 571.866 926.735 572.287 927.742 571.463C927.449 570.695 927.687 570.164 927.394 569.395C928.163 569.102 928.163 569.102 928.931 568.809C929.699 568.516 930.468 568.224 931.291 569.23C932.114 570.236 930.577 570.822 930.34 571.353C930.632 572.121 931.218 573.658 932.041 574.664C931.382 577.556 929.9 579.441 927.064 580.082C925.528 580.668 923.698 580.485 922.162 581.071C921.393 581.364 921.393 581.364 921.155 581.895C921.686 582.132 922.216 582.37 922.509 583.139C922.271 583.669 921.503 583.962 921.503 583.962C919.673 583.78 917.551 582.829 915.722 582.646C913.893 582.464 912.356 583.05 910.289 583.398C906.154 584.094 902.019 584.79 897.354 585.249C896.055 585.304 893.988 585.652 892.689 585.707C890.86 585.525 888.555 586.404 886.725 586.221C883.359 586.624 879.993 587.028 876.627 587.431C874.029 587.541 871.431 587.652 869.126 588.531C867.059 588.879 865.23 588.696 863.638 587.983C863.108 587.745 862.046 587.27 861.278 587.562C856.32 587.253 851.363 586.943 846.46 587.932C846.46 587.932 846.222 588.463 845.691 588.225C846.515 589.231 847.045 589.469 848.106 589.944C847.868 590.475 847.1 590.768 846.862 591.299C845.563 591.354 844.027 591.94 842.728 591.995C842.252 593.056 841.484 593.349 841.008 594.411C839.764 595.765 839.288 596.827 840.404 598.601C840.697 599.37 840.221 600.431 838.684 601.017C837.385 601.072 836.379 601.896 835.08 601.951C833.013 602.299 832.007 603.123 830.763 604.477C830.049 606.069 829.043 606.893 828.037 607.717C827.799 608.248 827.561 608.778 827.561 608.778C827.854 609.547 828.622 609.254 829.152 609.492C830.982 609.674 832.281 609.619 833.634 610.863C834.988 612.107 836.58 612.82 838.171 613.534C839.763 614.247 840.824 614.722 842.415 615.436C841.94 616.497 841.702 617.028 840.696 617.851C842.287 618.565 844.117 618.747 845.708 619.461C845.47 619.991 845.233 620.522 844.757 621.583C843.805 623.706 844.153 625.774 845.507 627.018C846.037 627.256 845.799 627.786 846.33 628.024C845.726 632.215 843.293 636.223 840.804 638.931C840.914 641.53 841.262 643.598 839.542 646.013C838.005 646.599 836.23 647.716 834.456 648.832C832.151 649.711 830.138 651.359 828.126 653.006C827.12 653.83 825.876 655.184 824.101 656.301C824.156 657.6 826.278 658.551 824.558 660.967C823.021 661.553 820.954 661.901 819.308 659.888C817.954 658.644 816.893 658.169 815.594 658.224C813.765 658.041 812.704 657.566 810.874 657.383C810.636 657.914 810.106 657.676 809.868 658.207C807.38 660.916 804.014 661.319 800.831 659.892C798.709 658.941 796.641 659.29 794.867 660.406C793.33 660.992 791.793 661.578 790.256 662.164C788.189 662.512 786.415 663.629 784.878 664.215C781.804 665.386 779.499 666.265 776.133 666.668C772.767 667.072 769.693 668.244 766.09 669.178L765.852 669.708C765.906 671.008 766.675 670.715 767.736 671.19C768.797 671.666 770.389 672.379 771.925 671.793C775.767 670.328 779.426 670.693 784.091 670.235C783.085 671.059 782.847 671.589 782.609 672.12C782.371 672.651 782.664 673.419 782.426 673.95C782.719 674.718 782.481 675.249 782.536 676.548C782.06 677.61 781.292 677.903 780.816 678.964C780.34 680.026 780.102 680.556 779.627 681.618C778.09 682.204 776.315 683.32 775.364 685.443C774.888 686.505 774.12 686.797 773.114 687.621C770.625 690.33 770.442 692.16 773.443 695.416C773.973 695.654 774.796 696.66 775.327 696.898C774.321 697.722 773.552 698.015 772.015 698.601C771.485 698.363 770.424 697.887 769.893 697.65C769.363 697.412 768.594 697.705 768.064 697.467C766.765 697.522 765.759 698.346 765.814 699.645C765.868 700.944 766.692 701.95 767.991 701.895C769.527 701.309 771.119 702.023 772.948 702.205C773.717 701.912 774.778 702.388 775.308 702.626C776.9 703.339 777.668 703.046 779.205 702.46C780.742 701.874 783.047 700.995 784.876 701.178C786.943 700.83 788.48 700.244 790.785 699.365C791.554 699.072 792.322 698.779 792.852 699.017C794.151 698.962 795.45 698.906 796.036 700.443C796.328 701.212 796.621 701.98 797.151 702.218C797.023 705.347 794.956 705.695 792.413 707.105C792.706 707.873 793.529 708.88 794.059 709.117C794.883 710.124 796.181 710.068 796.767 711.605C797.59 712.612 798.413 713.618 799.474 714.093C800.297 715.1 801.121 716.106 801.944 717.112C802.474 717.35 802.474 717.35 803.005 717.588C805.31 716.709 805.31 716.709 806.902 717.422C807.194 718.19 806.188 719.014 805.95 719.545C805.474 720.606 804.468 721.43 803.755 723.022C803.517 723.553 803.279 724.084 803.041 724.614C802.858 726.444 803.443 727.981 803.26 729.811C805.62 730.231 807.578 727.285 809.755 729.535C810.048 730.304 809.81 730.834 809.041 731.127C807.267 732.244 805.785 734.129 803.187 734.239C802.657 734.002 801.65 734.825 801.412 735.356C799.162 737.534 796.564 737.644 794.259 738.523C793.491 738.816 792.192 738.871 790.893 738.927C788.295 739.037 786.228 739.385 783.978 741.563C783.209 741.856 782.972 742.387 782.203 742.68C781.197 743.503 779.898 743.559 778.892 744.382C778.123 744.675 776.825 744.73 776.056 745.023C774.336 747.439 772.086 749.617 769.25 750.258C766.415 750.899 766.415 750.899 763.762 749.711C764 749.18 764.238 748.649 763.707 748.411C763.945 747.881 763.415 747.643 763.122 746.874C762.592 746.637 761.823 746.93 761.823 746.93L761.055 747.223C760.049 748.046 759.335 749.638 758.091 750.993C761.219 751.12 763.634 752.84 767 752.436C769.598 752.326 771.958 752.746 774.611 753.935C775.672 754.411 777.025 755.655 776.312 757.247C776.074 757.778 776.367 758.546 776.659 759.314C776.952 760.083 777.245 760.851 777.537 761.62C776.769 761.913 776.238 761.675 776.238 761.675C774.647 760.962 773.586 760.486 772.049 761.072C768.683 761.476 765.555 761.348 762.481 762.52C760.889 761.807 759.353 762.393 758.347 763.216L757.578 763.509C753.919 763.144 750.846 764.316 746.949 764.481C745.888 764.006 744.827 763.53 744.772 762.231C744.717 760.932 743.126 760.219 742.065 759.743C737.052 758.134 732.387 758.592 728.362 761.887C726.588 763.004 726.88 763.772 728.765 765.254L729.295 765.492C728.82 766.553 730.411 767.266 730.704 768.035C729.935 768.328 729.167 768.621 728.637 768.383C726.222 766.664 723.093 766.536 720.258 767.177C715.355 768.167 710.745 769.924 706.08 770.383C702.714 770.786 699.164 773.019 696.091 774.191L695.322 774.484C694.133 777.138 691.828 778.017 689.23 778.127C688.7 777.889 687.931 778.182 687.694 778.713C685.681 780.36 683.614 780.708 681.547 781.056C679.479 781.405 677.174 782.283 675.692 784.168C674.21 786.054 671.375 786.695 669.07 787.574C668.301 787.867 667.002 787.922 665.996 788.745C665.228 789.038 663.929 789.093 663.398 788.856C661.807 788.142 660.27 788.728 659.209 788.253C657.38 788.07 656.081 788.125 654.544 788.711C653.245 788.767 652.477 789.059 651.416 788.584C649.056 788.164 647.226 787.981 645.159 788.329C643.86 788.384 642.031 788.202 640.201 788.019C639.433 788.312 638.372 787.837 637.604 788.13C636.305 788.185 635.006 788.24 633.707 788.295C632.646 787.82 631.109 788.406 629.81 788.461C628.511 788.516 627.212 788.571 626.151 788.096C624.56 787.382 622.968 786.669 621.615 785.425C620.023 784.712 618.962 784.236 617.133 784.054C615.303 783.871 612.943 783.451 610.583 783.03C609.522 782.555 607.693 782.372 606.687 783.196C606.449 783.727 605.918 783.489 605.388 783.251C601.729 782.886 598.363 783.289 594.704 782.924C594.174 782.686 593.643 782.449 592.875 782.742C589.508 783.145 585.85 782.78 582.721 782.652C579.593 782.525 576.757 783.166 573.336 782.27C572.806 782.032 572.806 782.032 572.038 782.325C568.196 783.79 564.244 782.657 560.055 782.054C555.097 781.744 549.609 781.196 544.651 780.886C538.925 780.869 533.199 780.852 526.942 780.597C525.113 780.415 523.284 780.232 521.454 780.049C519.094 779.629 516.497 779.74 514.137 779.319C511.539 779.43 509.417 778.478 507.349 778.827C507.349 778.827 506.819 778.589 506.581 779.12C502.099 777.748 496.666 778.5 491.946 777.659C489.586 777.239 486.988 777.349 484.39 777.459C483.091 777.515 482.03 777.039 480.731 777.094C477.073 776.729 473.944 776.602 470.286 776.237C468.456 776.054 466.096 775.634 463.736 775.213C462.437 775.268 461.138 775.324 460.077 774.848C458.779 774.903 457.48 774.959 456.181 775.014C451.223 774.704 446.503 773.863 441.545 773.553C441.015 773.315 440.247 773.608 439.478 773.901C436.112 774.305 432.453 773.939 429.27 772.513C427.679 771.8 425.081 771.91 423.251 771.727C420.361 771.069 417.763 771.18 414.873 770.522L414.342 770.284C412.037 771.163 409.384 769.974 407.317 770.322C404.482 770.963 401.591 770.305 398.993 770.415C396.103 769.757 393.505 769.868 390.853 768.679C390.322 768.441 390.322 768.441 389.791 768.203C385.657 768.9 382.181 766.705 378.284 766.87C377.754 766.632 377.754 766.632 377.223 766.395C375.632 765.681 374.809 764.675 372.741 765.023C371.443 765.078 369.851 764.365 368.552 764.42C366.723 764.238 364.363 763.817 362.533 763.635C360.704 763.452 358.582 762.501 356.515 762.849C354.447 763.197 351.85 763.308 350.203 761.295C346.837 761.699 344.239 761.809 341.587 760.62C341.056 760.382 340.288 760.675 340.288 760.675C336.629 760.31 333.501 760.183 329.311 759.58C324.591 758.739 319.341 757.661 314.621 756.82C314.091 756.582 313.322 756.875 312.792 756.638C309.663 756.51 306.828 757.151 304.413 755.432C303.352 754.956 302.584 755.249 301.285 755.304C296.858 755.232 292.138 754.391 287.418 753.551C286.887 753.313 286.887 753.313 286.119 753.606C282.991 753.479 279.862 753.351 276.679 751.925C275.088 751.211 273.02 751.56 271.429 750.846C266.709 750.006 261.459 748.927 256.739 748.086C255.44 748.142 254.086 746.898 252.787 746.953C249.659 746.825 246.238 745.93 243.348 745.271C242.287 744.796 241.518 745.089 240.457 744.613C237.805 743.425 235.737 743.773 232.847 743.115C231.786 742.639 229.719 742.987 229.005 744.579C228.529 745.641 228.584 746.94 229.938 748.184C230.468 748.422 231.291 749.428 231.822 749.666C233.414 750.379 235.005 751.092 237.127 752.043C239.249 752.994 241.609 753.415 243.969 753.835C244.5 754.073 245.561 754.548 245.853 755.317C246.677 756.323 246.969 757.092 247.792 758.098C247.024 758.391 246.786 758.922 246.256 758.684C243.896 758.263 241.298 758.374 238.645 757.185C237.584 756.709 236.816 757.002 235.755 756.527C232.334 755.631 229.444 754.973 226.023 754.077C224.431 753.364 223.37 752.888 221.778 752.175C221.193 750.638 220.9 749.87 221.083 748.04C221.504 745.679 220.864 742.843 221.815 740.72C222.053 740.189 221.761 739.421 221.23 739.183C220.114 737.408 218.761 736.164 216.401 735.744C214.571 735.561 212.98 734.848 211.15 734.666C208.79 734.245 207.674 732.47 207.565 729.872C206.87 725.737 206.577 724.968 202.15 724.896C200.851 724.951 199.79 724.476 199.26 724.238C197.137 723.287 195.308 723.104 192.948 722.684C189.289 722.319 185.63 721.954 181.679 720.82C179.557 719.869 177.49 720.217 175.13 719.797C171.471 719.432 169.001 716.413 168.599 713.046C168.837 712.515 169.075 711.985 169.313 711.454C169.55 710.923 170.026 709.862 170.264 709.331C171.215 707.208 170.868 705.141 167.977 704.482C164.556 703.587 161.849 701.099 158.666 699.672C157.605 699.197 156.782 698.19 156.965 696.36C156.91 695.061 156.617 694.293 155.264 693.049C155.501 692.518 155.447 691.219 155.684 690.688C155.684 690.688 155.922 690.157 156.453 690.395C157.99 689.809 160.057 689.461 161.356 689.406C162.124 689.113 162.362 688.582 163.13 688.289C161.777 687.045 159.947 686.863 159.362 685.326C159.6 684.795 160.368 684.502 160.606 683.971C157.898 681.483 157.898 681.483 154.77 681.356C154.294 682.417 153.819 683.479 153.343 684.54C151.514 684.358 149.922 683.644 149.337 682.107C149.337 682.107 149.044 681.339 148.514 681.101C148.989 680.04 148.166 679.033 147.873 678.265C147.343 678.027 146.574 678.32 146.044 678.082C143.922 677.131 142.33 676.418 140.263 676.766C139.495 677.059 138.964 676.821 138.434 676.584C136.842 675.87 135.781 675.395 134.19 674.682C133.128 674.206 132.36 674.499 131.884 675.56C132.945 676.036 133.769 677.042 135.36 677.755C138.013 678.944 141.196 680.371 144.086 681.029C145.916 681.212 147.562 683.224 149.337 682.107C149.099 682.638 148.623 683.7 148.385 684.23C146.849 684.816 145.019 684.634 143.958 684.158C142.367 683.445 140.007 683.024 138.415 682.311C137.354 681.836 136.293 681.36 134.756 681.946C135.049 682.714 134.811 683.245 135.342 683.483C136.403 683.958 137.756 685.202 139.055 685.147C140.885 685.33 142.238 686.574 143.83 687.287L144.123 688.056C143.354 688.349 143.116 688.879 142.586 688.642C139.695 687.983 136.037 687.618 132.853 686.192C131.262 685.478 129.433 685.296 129.085 683.228C130.384 683.173 131.097 681.581 132.159 682.056C132.159 682.056 132.927 681.763 133.165 681.233C133.403 680.702 132.872 680.464 133.11 679.934C131.226 678.452 129.341 676.97 127.036 677.849C125.5 678.435 124.439 677.959 123.908 677.721C121.548 677.301 118.95 677.411 116.645 678.29C115.108 678.876 112.749 678.456 110.864 676.974C111.816 674.851 112.529 673.259 113.481 671.136C119.499 671.922 118.969 671.684 120.396 668.5C121.164 668.207 121.164 668.207 120.872 667.438C121.11 666.908 121.11 666.908 121.347 666.377C121.585 665.846 121.823 665.315 121.293 665.078C120.762 664.84 120.232 664.602 119.701 664.364C119.701 664.364 119.701 664.364 119.17 664.127C116.92 666.305 114.798 665.354 112.438 664.933C108.487 663.8 104.535 662.666 100.108 662.594C95.443 663.052 93.8514 662.339 92.2598 661.626C91.5463 663.218 93.3757 663.401 93.6684 664.169C94.2537 665.706 93.0096 667.06 92.2961 668.652C90.7594 669.238 88.6921 669.586 86.6249 669.935C86.3322 669.166 85.7468 667.629 85.4542 666.861C84.9236 666.623 83.6247 666.678 83.3869 667.209C80.6061 669.149 77.9535 667.96 74.8252 667.833C72.941 666.351 70.3432 666.462 68.2211 665.511C67.6906 665.273 67.6906 665.273 67.16 665.035C66.3368 664.029 66.8125 662.967 67.5809 662.674C68.5872 661.851 70.1239 661.265 71.1301 660.441C72.429 660.386 73.49 660.861 74.3132 661.868C75.1364 662.874 75.6669 663.112 76.9658 663.057C76.728 663.587 76.728 663.587 77.2585 663.825C77.2585 663.825 76.728 663.587 76.9658 663.057C77.972 662.233 78.7404 661.94 79.7466 661.116C79.9845 660.586 80.7529 660.293 80.7529 660.293C82.1066 661.537 84.2286 662.488 85.5824 663.732C86.3507 663.439 87.6496 663.383 88.418 663.091C88.6558 662.56 89.4242 662.267 89.6621 661.736C89.1316 661.498 88.601 661.261 88.0705 661.023C86.9547 659.248 85.8936 658.773 84.119 659.889C84.119 659.889 83.058 659.414 82.5275 659.176C81.7591 659.469 81.5212 660 80.7529 660.293C80.4602 659.524 80.1675 658.756 79.8749 657.987C79.0517 656.981 77.9906 656.505 76.9296 656.03C75.1002 655.847 72.9781 654.896 71.3865 654.183C69.795 653.47 67.4351 653.049 66.191 654.404C64.1785 656.051 61.8186 655.631 59.7513 655.979C59.4587 655.21 58.8733 653.673 58.5807 652.905C58.8185 652.374 59.0564 651.843 59.2942 651.313C59.5321 650.782 58.7089 649.776 57.9405 650.069C57.41 649.831 56.6416 650.124 56.1111 649.886C55.05 649.411 55.1049 650.71 54.3365 651.003C52.7449 650.29 50.9155 650.107 49.0861 649.924C47.2567 649.742 45.6651 649.029 43.8357 648.846C41.4758 648.426 39.5916 646.944 39.7198 643.815C39.4271 643.046 39.1344 642.278 38.8418 641.509C38.0186 640.503 36.9027 638.728 36.0795 637.722C34.7258 636.478 33.0794 634.466 31.7257 633.222C31.1952 632.984 30.6647 632.746 30.1342 632.508C30.372 631.978 30.6099 631.447 30.6099 631.447L30.0794 631.209C29.8415 631.74 29.6036 632.271 29.6036 632.271C28.5426 631.795 28.0121 631.557 27.4268 630.02C27.3719 628.721 26.5488 627.715 25.7256 626.709C26.2013 625.647 27.2075 624.824 26.6221 623.287C25.7989 622.28 27.3357 621.694 27.8114 620.633C29.1651 621.877 31.2324 621.529 32.4764 620.174C33.4826 619.351 34.7815 619.296 36.3183 618.71C37.855 618.124 38.6782 619.13 40.4528 618.013C41.459 617.19 42.7579 617.135 43.5263 616.842C46.9472 617.738 47.0021 619.037 48.9959 623.117C49.2886 623.885 50.5875 623.83 51.3559 623.537C51.8864 623.775 52.4169 624.013 53.4779 624.488C55.3622 625.97 57.2464 627.452 59.1306 628.934C59.1306 628.934 58.8928 629.464 58.6549 629.995L58.1244 629.757L58.6549 629.995C60.2465 630.708 61.5454 630.653 62.5516 629.829C64.0884 629.244 65.6251 628.658 66.924 628.602C69.5218 628.492 71.6438 629.443 73.8207 631.693C74.6439 632.7 76.2355 633.413 77.2965 633.888C80.4797 635.315 84.669 635.918 87.6143 637.875C88.1448 638.113 88.1448 638.113 88.9132 637.82C89.4437 638.058 90.4499 637.234 91.5109 637.71C92.572 638.185 93.633 638.661 94.9867 639.905C95.8099 640.911 96.871 641.386 98.1698 641.331C99.4687 641.276 99.9992 641.514 100.822 642.52C102.176 643.764 103.768 644.477 105.304 643.891C107.134 644.074 109.018 645.556 110.61 646.269C111.14 646.507 111.671 646.745 112.201 646.982C116.445 648.884 120.69 650.787 125.721 646.668C125.721 646.668 125.666 645.369 125.904 644.838C125.373 644.601 125.373 644.601 125.373 644.601C123.782 643.887 121.422 643.467 119.83 642.754C119.3 642.516 119.007 641.747 119.007 641.747C119.245 641.217 119.483 640.686 120.013 640.924C121.312 640.869 122.611 640.813 123.91 640.758C125.209 640.703 125.977 640.41 126.983 639.586C127.99 638.763 128.227 638.232 127.404 637.226C127.404 637.226 127.642 636.695 127.88 636.164C128.648 635.871 129.124 634.81 130.13 633.986C130.185 635.285 130.478 636.054 130.77 636.822C130.642 639.952 131.758 641.726 134.941 643.153C136.533 643.866 138.124 644.579 140.008 646.061C140.777 645.768 142.076 645.713 143.082 644.889C144.326 643.535 144.509 641.705 146.576 641.357C147.985 643.9 148.625 646.736 149.265 649.572C151.442 651.823 153.802 652.243 156.4 652.133C156.638 651.602 156.875 651.071 157.113 650.54C158.303 647.887 160.846 646.477 163.681 645.836C164.98 645.781 166.279 645.726 167.047 645.433L167.285 644.902C167.23 643.603 167.468 643.072 167.413 641.773C162.639 639.633 157.626 638.024 152.376 636.946C151.662 638.538 152.193 638.776 153.254 639.251C153.784 639.489 153.784 639.489 154.077 640.257C154.077 640.257 153.839 640.788 153.601 641.319C151.296 642.198 149.174 641.247 148.058 639.472C147.766 638.703 147.235 638.466 146.942 637.697C146.888 636.398 146.064 635.392 144.765 635.447C143.704 634.971 143.174 634.734 142.351 633.727C140.997 632.483 139.168 632.301 138.454 633.893C137.21 635.247 136.442 635.54 134.85 634.827C131.96 634.169 130.313 632.156 128.667 630.144C127.551 628.369 125.429 627.418 123.307 626.467C124.075 626.174 124.606 626.412 125.905 626.357C126.38 625.295 127.386 624.472 127.332 623.172C128.045 621.58 128.759 619.988 130.003 618.634C131.009 617.81 131.192 615.98 131.668 614.919C128.96 612.431 125.539 611.535 122.649 610.877C122.118 610.639 121.35 610.932 121.112 611.463C118.569 612.872 116.209 612.452 113.849 612.032C111.489 611.611 109.605 610.129 107.007 610.24C104.648 609.819 103.532 608.045 102.416 606.27C99.818 606.38 97.9886 606.198 95.3908 606.308C94.0919 606.363 93.3236 606.656 92.3173 607.48C91.3111 608.304 90.0122 608.359 88.6585 607.115C88.3659 606.346 87.067 606.402 86.2986 606.695C84.9997 606.75 83.9387 606.274 82.8776 605.799C82.5849 605.03 81.5239 604.555 81.2313 603.786C80.4081 602.78 80.1154 602.012 79.0543 601.536C77.7554 601.591 76.1639 600.878 74.9198 602.232L74.1514 602.525C72.5599 601.812 71.261 601.867 70.2 601.392C68.9011 601.447 67.6022 601.502 66.5411 601.026C64.1812 600.606 62.8275 599.362 62.9557 596.233C62.9009 594.934 62.0777 593.928 63.0839 593.104C63.0839 593.104 62.7912 592.335 62.4986 591.567C64.5658 591.219 66.3952 591.401 68.5173 592.352C70.1089 593.066 72.7067 592.955 74.5361 593.138C75.0666 593.376 76.0728 592.552 76.3107 592.021C76.2559 590.722 76.4937 590.191 77.4999 589.368C78.0305 589.605 79.3293 589.55 80.3904 590.026C82.9882 589.915 85.4029 591.635 86.5188 593.41C87.6346 595.184 89.7567 596.135 91.5861 596.318C93.946 596.738 95.5376 597.452 97.6597 598.403C99.2513 599.116 100.312 599.592 102.142 599.774C103.203 600.25 103.971 599.957 105.032 600.432C108.215 601.859 111.398 603.285 115.35 604.419C118.24 605.077 120.6 605.497 123.729 605.625C125.027 605.57 125.558 605.807 125.851 606.576C126.381 606.814 126.674 607.582 126.674 607.582C129.564 608.24 132.747 609.667 135.583 609.026C135.821 608.495 136.297 607.434 136.772 606.372C137.486 604.78 136.663 603.774 135.309 602.53C135.309 602.53 135.309 602.53 134.778 602.292C130.772 599.859 130.955 598.029 134.98 594.735C136.041 595.21 135.803 595.741 135.565 596.272L135.328 596.802C135.62 597.571 136.151 597.808 136.681 598.046C136.681 598.046 137.45 597.753 138.218 597.46C139.169 595.337 141.182 593.69 143.487 592.811C145.078 593.525 146.963 595.006 148.024 595.482C149.56 594.896 150.567 594.072 152.158 594.786C155.341 596.212 155.341 596.212 153.091 598.39C151.847 599.745 151.902 601.044 153.731 601.226C154.792 601.702 156.384 602.415 157.207 603.421C157.738 603.659 158.799 604.135 159.329 604.372C161.982 605.561 164.396 607.281 166.043 609.293C166.336 610.062 167.397 610.537 168.22 611.544C168.275 612.843 168.329 614.142 168.384 615.441C172.921 618.112 177.696 620.252 182.946 621.33C184.007 621.806 186.074 621.457 187.081 620.634C189.861 618.693 192.752 619.352 195.588 618.71C196.356 618.417 197.655 618.362 198.423 618.069C198.423 618.069 199.429 617.246 198.899 617.008C198.606 616.239 198.076 616.002 197.838 616.532C197.307 616.295 197.069 616.825 196.301 617.118C195.533 617.411 195.002 617.173 194.472 616.936C193.594 614.63 192.478 612.856 191.362 611.081C190.539 610.075 190.722 608.245 191.197 607.183C191.618 604.823 192.039 602.462 194.052 600.815C194.29 600.284 194.29 600.284 195.058 599.991C197.07 598.344 195.954 596.569 196.138 594.739C196.375 594.208 195.314 593.733 195.314 593.733C194.784 593.495 194.253 593.257 193.723 593.02C193.192 592.782 192.662 592.544 192.369 591.776C192.022 589.708 190.668 588.464 189.076 587.751C186.954 586.8 186.369 585.263 185.491 582.957C185.619 579.828 187.394 578.711 189.937 577.302C192.242 576.423 193.778 575.837 195.846 575.489C197.145 575.434 199.212 575.086 200.218 574.262C201.755 573.676 202.999 572.322 203.182 570.492C202.889 569.723 203.365 568.662 203.603 568.131C202.542 567.656 202.011 567.418 200.95 566.942C199.651 566.998 197.767 565.516 196.523 566.87C195.993 566.632 196.23 566.102 195.7 565.864C195.883 564.034 196.304 561.673 197.548 560.319C199.268 557.903 198.92 555.835 197.512 553.292C196.396 551.518 194.511 550.036 194.932 547.675C196.176 546.321 197.42 544.966 198.427 544.143C200.201 543.026 201.317 544.801 202.854 544.215C203.622 543.922 204.153 544.16 205.452 544.105C204.866 542.568 203.805 542.092 202.214 541.379C200.622 540.666 199.031 539.952 197.915 538.178C194.677 535.452 193.616 534.976 193.085 534.738C193.561 533.677 193.799 533.146 194.275 532.085C193.451 531.079 192.921 530.841 192.098 529.835C192.335 529.304 192.811 528.243 193.049 527.712C193.763 526.12 193.763 526.12 192.409 524.876C191.878 524.638 191.348 524.4 190.817 524.162C190.287 523.925 190.287 523.925 189.226 523.449C189.994 523.156 190.232 522.625 190.762 522.863C192.83 522.515 194.366 521.929 196.141 520.813C196.909 520.52 197.147 519.989 197.147 519.989C197.861 518.397 198.867 517.573 199.873 516.749C200.88 515.926 201.355 514.864 201.063 514.096C200.477 512.559 200.953 511.497 201.429 510.436C201.849 508.075 201.557 507.307 199.435 506.356C197.843 505.643 196.014 505.46 194.422 504.747C193.892 504.509 193.361 504.271 192.831 504.033C192.483 501.966 193.727 500.611 195.264 500.025C198.337 498.854 200.588 496.676 202.307 494.26C202.783 493.198 204.558 492.082 205.564 491.258C207.393 491.441 208.692 491.385 210.522 491.568C211.052 491.806 211.821 491.513 212.589 491.22C214.894 490.341 217.254 490.761 219.376 491.712C223.09 493.377 225.925 492.736 229.237 491.033C234.066 494.472 239.5 493.721 244.933 492.969C246.232 492.914 247.769 492.328 248.537 492.035C249.068 492.273 249.543 491.212 249.543 491.212C249.543 491.212 249.251 490.443 248.72 490.205C246.598 489.254 244.769 489.072 242.646 488.121C239.756 487.463 239.226 487.225 236.225 483.968C237.415 481.315 240.25 480.674 242.318 480.325C243.086 480.033 244.147 480.508 244.97 481.514C245.793 482.521 247.385 483.234 248.446 483.709C251.629 485.136 255.581 486.27 259.002 487.165C262.423 488.061 265.843 488.957 269.027 490.384C270.088 490.859 271.149 491.335 271.441 492.103C271.734 492.872 272.027 493.64 272.319 494.409C273.911 495.122 275.74 495.305 277.57 495.487C280.991 496.383 281.997 495.559 283.955 492.613C284.192 492.082 284.43 491.551 284.961 491.789C285.967 490.965 287.211 489.611 288.217 488.787C287.925 488.019 287.339 486.482 287.047 485.714C286.406 482.877 284.815 482.164 282.217 482.274C279.089 482.147 276.729 481.727 274.076 480.538C271.716 480.118 270.6 478.343 269.722 476.037C273.034 474.335 276.162 474.462 279.29 474.59C280.059 474.297 281.12 474.772 281.65 475.01C282.949 474.955 283.718 474.662 284.724 473.838C286.736 472.191 287.98 470.836 289.993 469.189C291.237 467.835 291.42 466.005 292.133 464.413C292.371 463.882 292.316 462.583 291.255 462.107C289.371 460.626 287.249 459.674 284.889 459.254C279.931 458.944 275.98 457.811 271.26 456.97C268.9 456.55 268.9 456.55 266.485 454.83C266.193 454.062 267.492 454.006 267.729 453.476C270.035 452.597 272.102 452.249 273.876 451.132C274.645 450.839 275.413 450.546 275.121 449.778C275.304 447.948 276.84 447.362 278.908 447.014C280.206 446.958 281.213 446.135 282.749 445.549C283.463 443.957 283.939 442.895 284.122 441.065C284.89 440.773 286.189 440.717 287.25 441.193C289.079 441.375 290.909 441.558 292.208 441.503C294.568 441.923 297.458 442.581 299.818 443.002C304.007 443.604 307.959 444.738 311.856 444.573C314.453 444.462 316.575 445.413 319.173 445.303C323.893 446.144 328.32 446.216 333.04 447.056C337.229 447.659 341.126 447.494 345.078 448.627C350.858 449.944 356.585 449.961 362.365 451.277C367.085 452.117 371.513 452.19 376.232 453.03C382.782 454.054 389.861 455.315 396.649 455.807C397.947 455.752 398.478 455.99 399.777 455.934C402.905 456.062 405.503 455.951 408.393 456.61C411.814 457.505 415.711 457.34 419.37 457.705C422.26 458.363 425.626 457.96 429.047 458.856C431.407 459.276 434.536 459.403 436.896 459.824C440.024 459.951 442.384 460.371 445.512 460.499C453.36 461.467 461.977 462.142 469.825 463.11C472.953 463.237 475.551 463.127 478.442 463.785C483.399 464.095 488.887 464.643 493.607 465.484C497.028 466.379 500.925 466.214 504.584 466.579C506.944 466.999 509.779 466.358 512.432 467.547C512.432 467.547 512.432 467.547 511.901 467.309C512.908 466.486 513.493 468.023 515.03 467.437C515.798 467.144 516.859 467.619 517.92 468.095C518.451 468.333 519.75 468.277 520.518 467.984C523.884 467.581 527.305 468.477 530.433 468.604C532.263 468.787 534.092 468.969 536.159 468.621C537.458 468.566 537.989 468.804 539.05 469.279C539.58 469.517 540.294 467.925 541.117 468.931C541.117 468.931 541.117 468.931 541.648 469.169C541.648 469.169 541.648 469.169 542.178 469.407L541.648 469.169C543.715 468.821 546.313 468.711 548.435 469.662C548.965 469.899 549.734 469.606 550.502 469.313C551.27 469.02 552.148 471.326 552.862 469.734C554.161 469.679 555.222 470.154 555.99 469.861C559.356 469.458 562.485 469.585 565.613 469.713C566.144 469.95 566.912 469.657 567.442 469.895C568.741 469.84 570.04 469.785 571.339 469.73C573.169 469.912 575.528 470.333 577.596 469.984C578.895 469.929 580.724 470.112 582.316 470.825C583.084 470.532 583.615 470.77 584.913 470.715C586.743 470.897 588.334 471.611 590.109 470.494C590.109 470.494 590.639 470.732 590.877 470.201C594.298 471.097 598.433 470.401 601.854 471.296C602.384 471.534 603.921 470.948 604.452 471.186C607.049 471.076 609.647 470.965 612.245 470.855C617.203 471.165 621.392 471.768 626.057 471.309C628.124 470.961 629.954 471.144 632.551 471.033C634.911 471.454 637.509 471.343 640.345 470.702C643.949 469.768 647.9 470.902 651.797 470.736C654.925 470.864 658.584 471.229 662.188 470.295C662.956 470.002 663.487 470.24 664.786 470.184C668.975 470.787 672.872 470.622 676.769 470.456C677.299 470.694 677.83 470.932 677.83 470.932C678.122 471.7 677.884 472.231 677.647 472.762C677.464 474.591 677.756 475.36 678.817 475.835C680.409 476.549 682 477.262 683.885 478.744C684.415 478.982 684.415 478.982 684.946 479.219C686.245 479.164 688.074 479.347 689.135 479.822C690.434 479.767 692.025 480.48 693.324 480.425C696.983 480.79 701.173 481.393 704.593 482.289C706.185 483.002 708.014 483.185 710.082 482.837C714.509 482.909 719.467 483.219 724.077 481.461C725.614 480.875 726.912 480.82 728.211 480.765C730.681 483.784 730.681 483.784 734.285 482.85C735.108 483.856 736.169 484.331 736.992 485.338C740.066 484.166 743.139 482.994 746.505 482.591C747.804 482.535 749.579 481.419 751.646 481.071C753.53 482.552 754.939 485.096 758.305 484.692C758.36 485.992 758.653 486.76 758.945 487.529C760.006 488.004 760.537 488.242 761.305 487.949C763.135 488.131 764.488 489.375 765.366 491.681C765.952 493.218 766.83 495.523 769.19 495.944C768.714 497.005 768.476 497.536 768.238 498.066C769.592 499.31 770.415 500.317 771.238 501.323C773.36 502.274 775.135 501.157 776.964 501.34C779.8 500.699 782.636 500.058 785.233 499.947C788.362 500.075 790.905 498.665 793.686 496.725C793.923 496.194 793.631 495.426 793.869 494.895C797.235 494.492 800.601 494.088 803.491 494.746C804.022 494.984 804.79 494.691 805.559 494.398C807.626 494.05 808.925 493.995 810.754 494.178C812.821 493.829 814.943 494.78 816.425 492.895C816.663 492.365 817.724 492.84 818.493 492.547C819.023 492.785 819.261 492.254 819.975 490.662C821.566 491.375 821.859 492.144 821.676 493.974C821.731 495.273 821.785 496.572 821.31 497.634C821.127 499.464 820.12 500.287 818.053 500.635C816.754 500.691 814.687 501.039 813.388 501.094C811.321 501.442 810.315 502.266 810.662 504.333C810.662 504.333 810.424 504.864 810.955 505.102C810.955 505.102 810.955 505.102 811.485 505.34C812.839 506.584 814.668 506.766 816.498 506.949C817.797 506.894 818.565 506.601 819.626 507.076C821.218 507.789 823.047 507.972 824.877 508.155C827.474 508.044 830.365 508.702 833.017 509.891C833.603 511.428 834.426 512.434 835.011 513.971C834.536 515.033 833.529 515.856 833.822 516.625C833.346 517.686 833.639 518.455 833.932 519.223C834.224 519.992 834.279 521.291 834.041 521.822C833.035 522.645 832.029 523.469 830.73 523.524L829.962 523.817C828.132 523.634 826.595 524.22 824.821 525.337C825.168 527.405 825.754 528.942 827.821 528.593C828.882 529.069 829.65 528.776 830.711 529.252C831.772 529.727 833.126 530.971 832.413 532.563C832.23 534.393 831.754 535.455 829.979 536.571C827.198 538.512 824.948 540.69 821.875 541.861C818.033 543.326 813.953 545.322 810.111 546.786C807.806 547.665 804.971 548.306 802.135 548.947C799.299 549.588 796.464 550.23 793.628 550.871C790.554 552.042 787.188 552.446 783.822 552.849C782.523 552.904 781.517 553.728 780.749 554.021C779.212 554.607 777.968 555.961 777.785 557.791C777.547 558.322 778.37 559.328 778.901 559.566C779.669 559.273 780.968 559.218 781.736 558.925C783.273 558.339 784.572 558.284 786.164 558.997C786.218 560.296 786.273 561.595 784.499 562.712C782.724 563.829 780.949 564.945 779.998 567.068C779.815 568.898 781.644 569.081 782.23 570.617C781.992 571.148 781.224 571.441 781.224 571.441C779.925 571.496 779.156 571.789 777.857 571.844C775.022 572.486 773.009 574.133 771.527 576.018C770.759 576.311 770.814 577.61 770.338 578.672C772.168 578.854 773.997 579.037 775.296 578.982C775.351 580.281 775.405 581.58 775.698 582.348C780.418 583.189 784.553 582.493 789.51 582.803C789.272 583.333 788.504 583.626 788.028 584.688C788.559 584.926 789.62 585.401 790.15 585.639C789.913 586.17 789.913 586.17 789.382 585.932C788.614 586.225 787.845 586.518 787.315 586.28C782.357 585.97 781.881 587.031 778.808 588.203C780.692 589.685 782.284 590.398 784.351 590.05C788.485 589.354 792.913 589.426 797.047 588.73C797.816 588.437 798.584 588.144 799.352 587.851C801.365 586.204 803.432 585.855 806.03 585.745C810.457 585.817 814.591 585.121 818.726 584.425C821.324 584.314 823.391 583.966 825.989 583.856C828.056 583.508 830.361 582.629 832.136 581.512C832.904 581.219 833.91 580.396 834.679 580.103C835.447 579.81 836.746 579.755 837.222 578.693L836.929 577.925C835.868 577.449 835.337 577.211 834.039 577.266C828.367 578.549 822.111 578.294 816.439 579.576C811.537 580.565 806.341 580.786 800.908 581.538C797.121 584.302 794.761 583.881 792.401 583.461ZM122.097 671.811C121.567 671.574 121.036 671.336 120.268 671.629C121.036 671.336 121.567 671.574 122.097 671.811L122.628 672.049C123.158 672.287 123.158 672.287 123.689 672.525L123.396 671.756C122.573 670.75 122.335 671.281 122.097 671.811ZM797.431 597.824C795.418 599.471 793.589 599.289 791.522 599.637C790.991 599.399 790.753 599.93 790.223 599.692C790.278 600.991 789.802 602.053 789.564 602.584C790.68 604.358 791.211 604.596 792.747 604.01C794.284 603.424 795.821 602.838 797.12 602.783C797.833 601.191 798.547 599.599 799.023 598.537C801.09 598.189 802.626 597.603 804.218 598.317C805.279 598.792 806.047 598.499 807.108 598.975C811.298 599.578 815.249 600.711 819.384 600.015C822.988 599.081 826.354 598.678 829.373 596.207C831.147 595.09 831.568 592.729 829.446 591.778C828.385 591.303 827.324 590.827 826.793 590.59C823.665 590.462 820.006 590.097 816.64 590.5C813.274 590.904 809.377 591.069 806.011 591.473C800.816 591.693 795.913 592.683 790.717 592.903C789.418 592.959 788.412 593.782 787.936 594.844C789.583 596.856 791.943 597.276 794.54 597.166C795.601 597.642 796.9 597.586 797.431 597.824ZM176.964 627.571C177.201 627.04 177.439 626.51 177.677 625.979C178.391 624.387 177.86 624.149 177.037 623.143C176.506 622.905 175.445 622.43 174.677 622.723C173.671 623.546 172.61 623.071 171.549 622.595C169.189 622.175 167.597 621.462 165.237 621.041C164.176 620.566 163.115 620.09 162.823 619.322C160.646 617.071 158.524 616.12 155.395 615.993C155.688 616.761 155.981 617.53 155.505 618.591C155.267 619.122 155.029 619.653 154.261 619.946C153.493 620.239 153.255 620.769 152.486 621.062C153.84 622.306 155.194 623.55 157.023 623.733C157.791 623.44 158.615 624.446 158.907 625.215C159.493 626.752 161.084 627.465 161.907 628.471C162.731 629.477 164.56 629.66 165.859 629.605C167.158 629.55 168.457 629.494 168.932 628.433C169.408 627.372 170.707 627.316 171.238 627.554C173.597 627.975 175.427 628.157 176.964 627.571ZM761.731 757.085C760.67 756.61 760.14 756.372 759.079 755.897C758.018 755.421 757.249 755.714 756.188 755.238C754.597 754.525 753.298 754.58 751.761 755.166C750.993 755.459 749.932 754.984 749.163 755.277C748.102 754.801 747.572 754.563 746.511 754.088C745.45 753.612 744.681 753.905 743.913 754.198C742.907 755.022 741.608 755.077 741.425 756.907C742.486 757.383 743.309 758.389 744.077 758.096C747.498 758.992 750.627 759.119 753.755 759.246C756.115 759.667 757.835 757.251 760.195 757.671C760.195 757.671 760.963 757.378 761.201 756.848C761.493 757.616 761.731 757.085 761.731 757.085ZM869.145 582.803C868.56 581.266 870.096 580.68 870.041 579.381C869.511 579.143 868.45 578.668 867.682 578.961C867.151 578.723 865.852 578.778 865.322 578.54C862.193 578.413 859.358 579.054 856.229 578.927C855.699 578.689 854.93 578.982 854.693 579.513C854.693 579.513 854.455 580.043 854.217 580.574L854.51 581.342C855.808 581.287 856.87 581.763 858.168 581.708C859.467 581.652 860.236 581.36 861.059 582.366C860.821 582.896 860.053 583.189 860.583 583.427C860.876 584.196 861.406 584.433 862.175 584.14C864.48 583.262 866.547 582.913 869.145 582.803ZM161.433 611.051C159.073 610.631 157.481 609.917 155.652 609.735C153.822 609.552 153.822 609.552 152.871 611.675C155.524 612.864 157.883 613.284 160.774 613.942C160.719 612.643 160.957 612.112 161.433 611.051ZM825.553 518.017C824.016 518.603 823.248 518.896 821.949 518.951C821.181 519.244 820.412 519.537 819.406 520.361C819.406 520.361 819.168 520.892 818.93 521.422C818.93 521.422 819.223 522.191 819.754 522.429C820.815 522.904 822.113 522.849 822.882 522.556C823.65 522.263 824.419 521.97 824.126 521.202C823.833 520.433 824.071 519.902 824.839 519.61C826.376 519.024 825.846 518.786 825.553 518.017ZM141.034 621.028C141.272 620.498 140.979 619.729 140.924 618.43L140.394 618.192C139.333 617.717 138.327 618.54 137.851 619.602C137.375 620.663 137.43 621.962 137.961 622.2C138.784 623.206 140.321 622.62 141.034 621.028ZM45.2628 645.662C46.3239 646.137 47.3849 646.613 47.6776 647.381C49.69 645.734 49.69 645.734 48.8668 644.728C48.2815 643.191 46.6899 642.477 45.391 642.533C45.4459 643.832 46.269 644.838 45.2628 645.662ZM840.037 620.743C838.976 620.267 838.445 620.029 837.915 619.792C836.616 619.847 835.079 620.433 834.073 621.256L833.835 621.787L834.128 622.556C836.195 622.208 838.262 621.859 840.037 620.743ZM760.616 736.829C759.555 736.354 759.025 736.116 758.256 736.409C756.957 736.464 755.951 737.288 756.244 738.056C756.537 738.825 757.835 738.769 758.604 738.476C758.842 737.946 759.61 737.653 760.616 736.829ZM211.407 728.407C212.468 728.883 213.236 728.59 213.474 728.059C213.712 727.528 213.419 726.76 212.889 726.522L212.358 726.284C211.828 726.047 211.059 726.34 210.821 726.87C210.584 727.401 210.876 728.17 211.407 728.407ZM161.722 685.746C162.545 686.752 163.606 687.228 164.905 687.173C164.905 687.173 165.673 686.88 165.381 686.111C165.381 686.111 165.088 685.343 164.557 685.105C163.496 684.629 162.728 684.922 161.722 685.746ZM847.777 582.149C846.661 580.374 846.661 580.374 845.417 581.729C846.186 581.436 846.716 581.674 847.777 582.149ZM754.853 748.267C754.853 748.267 754.323 748.029 754.085 748.56L753.847 749.091C754.853 748.267 754.853 748.267 754.853 748.267ZM849.497 579.733C849.497 579.733 849.735 579.203 849.497 579.733C849.735 579.203 849.735 579.203 849.497 579.733C849.204 578.965 849.204 578.965 849.497 579.733C849.204 578.965 848.967 579.496 849.497 579.733Z" fill="url(#paint0_linear)"/>
<path d="M785.651 682.404C789.547 682.239 789.438 679.64 789.09 677.573C790.627 676.987 792.456 677.169 794.816 677.59C798.53 679.254 802.719 679.857 806.616 679.691C807.677 680.167 807.732 681.466 807.256 682.528C806.78 683.589 806.835 684.888 805.299 685.474C804.53 685.767 803.762 686.06 802.993 686.353C800.45 687.762 798.145 688.641 795.895 690.819C794.413 692.704 792.108 693.583 789.748 693.163C787.919 692.98 785.851 693.329 784.607 694.683C782.064 696.092 780.235 695.91 778.351 694.428C777.29 693.953 776.467 692.946 774.637 692.764C773.046 692.051 772.991 690.751 773.997 689.928C774.711 688.336 775.717 687.512 777.546 687.694C778.845 687.639 780.382 687.053 781.681 686.998C782.449 686.705 783.748 686.65 784.516 686.357C785.76 685.003 786.236 683.941 785.651 682.404ZM796.225 680.133C795.694 679.895 795.164 679.657 794.633 679.42C794.633 679.42 793.865 679.713 793.627 680.243L793.92 681.012C794.45 681.249 795.219 680.957 796.225 680.133ZM797.816 680.846C797.816 680.846 798.054 680.315 797.816 680.846C798.585 680.553 798.054 680.315 797.816 680.846C798.054 680.315 798.054 680.315 797.816 680.846C798.054 680.315 798.054 680.315 797.816 680.846Z" fill="url(#paint1_linear)"/>
<path d="M51.7629 663.87C49.4577 664.749 47.921 665.335 45.6159 666.214C44.8475 666.506 44.9023 667.806 45.195 668.574C45.195 668.574 45.4877 669.343 45.7255 668.812C48.0855 669.232 49.7318 671.245 51.8539 672.196C51.1952 675.087 50.6647 674.849 48.8353 674.667C45.707 674.539 43.5849 673.588 40.9323 672.4C38.8102 671.448 37.2186 670.735 35.0965 669.784C34.3282 670.077 33.5598 670.37 32.7914 670.663C30.5412 672.841 28.4739 673.189 25.8213 672C24.7602 671.525 24.2846 672.586 23.5162 672.879C23.2235 672.111 22.1625 671.635 21.8698 670.867C22.0528 669.037 22.7664 667.445 23.4799 665.853C24.4313 663.73 24.6692 663.199 22.2544 661.479C21.7239 661.242 21.9617 660.711 21.9617 660.711C22.1996 660.18 22.1996 660.18 22.968 659.887C23.7364 659.594 24.2669 659.832 24.2669 659.832C25.6206 661.076 26.9195 661.021 28.7489 661.203C29.2794 661.441 29.8099 661.679 30.3404 661.917C31.4015 662.392 31.932 662.63 33.2309 662.575C33.9993 662.282 35.0603 662.757 35.5908 662.995C38.4813 663.653 39.2496 663.36 40.9694 660.945C41.2073 660.414 41.4451 659.883 42.2135 659.59C42.9819 659.297 43.5124 659.535 44.2807 659.242C45.0491 658.949 45.5796 659.187 46.348 658.894C47.7565 661.437 49.6408 662.919 51.7629 663.87Z" fill="url(#paint2_linear)"/>
<path d="M79.9727 610.872C82.2778 609.993 84.1072 610.175 86.2293 611.127C86.7598 611.364 88.0587 611.309 89.1198 611.785C90.1808 612.26 91.5345 613.504 91.5894 614.803C91.882 615.572 90.1074 616.688 88.278 616.506C86.2108 616.854 84.3813 616.671 82.4971 615.19C79.5518 613.232 75.6552 613.398 71.9963 613.033C70.6975 613.088 69.3986 613.143 68.5754 612.137C67.5143 611.661 66.2154 611.717 65.1544 611.241C63.5628 610.528 62.264 610.583 60.6724 609.87C60.1419 609.632 59.8492 608.863 58.7882 608.388C59.7944 607.564 60.5079 605.972 61.5141 605.148C63.3984 606.63 65.4657 606.282 67.0572 606.995C68.1183 607.471 68.8866 607.178 69.655 606.885C73.259 605.951 76.1494 606.609 78.0885 609.39C78.619 609.628 79.1495 609.866 79.9727 610.872Z" fill="url(#paint3_linear)"/>
<path d="M121.19 625.521C121.483 626.289 121.776 627.058 121.538 627.589C121.831 628.357 122.123 629.126 122.416 629.894C121.41 630.718 119.58 630.535 118.757 629.529C117.696 629.053 116.342 627.809 115.519 626.803C113.05 623.784 110.104 621.827 105.915 621.224C104.086 621.042 103.025 620.566 101.433 619.853C100.902 619.615 100.372 619.377 99.6035 619.67C96.5301 620.842 94.591 618.061 92.4689 617.11C92.652 615.28 93.6582 614.457 94.9571 614.401C96.256 614.346 97.317 614.822 98.378 615.297C100.793 617.017 103.153 617.437 105.458 616.558C107.873 618.278 109.995 619.229 112.885 619.887C114.184 619.832 116.013 620.014 117.02 619.191C117.788 618.898 118.319 619.135 119.087 618.842C119.142 620.142 119.434 620.91 119.489 622.209C120.843 623.453 120.367 624.515 121.19 625.521Z" fill="url(#paint4_linear)"/>
<path d="M67.0036 624.175C67.2415 623.645 67.4793 623.114 67.7172 622.583L68.4856 622.29C70.315 622.473 72.1444 622.655 73.9738 622.838C75.0348 623.314 76.3337 623.258 77.1569 624.265C78.5106 625.509 79.5717 625.984 81.4011 626.167C82.4621 626.642 83.2305 626.349 84.0537 627.355C88.06 629.788 92.7799 630.629 97.7924 632.238C100.152 632.659 102.567 634.378 104.689 635.329C105.22 635.567 105.512 636.335 105.805 637.104C104.268 637.69 103.5 637.983 101.908 637.269C101.085 636.263 99.2557 636.081 97.9568 636.136C97.4263 635.898 96.658 636.191 96.1274 635.953C93.7127 634.234 90.5844 634.106 88.2244 633.686C86.1024 632.735 83.9803 631.784 82.3887 631.071C80.2666 630.119 77.9067 629.699 75.7846 628.748C74.7236 628.273 73.132 627.559 71.8331 627.614C70.2964 628.2 69.7111 626.663 68.4122 626.719C68.1195 625.95 67.2963 624.944 67.0036 624.175Z" fill="url(#paint5_linear)"/>
<path d="M719.376 474.891C722.505 475.019 725.047 473.609 728.706 473.974C730.536 474.157 732.072 473.571 733.316 472.216C734.798 470.331 737.104 469.452 739.463 469.873C740.762 469.818 741.531 469.525 742.83 469.469C745.665 468.828 746.434 468.535 749.855 469.431C750.147 470.2 750.202 471.499 748.665 472.085C746.36 472.964 743.817 474.373 741.457 473.953C740.158 474.008 739.39 474.301 738.914 475.363C738.201 476.955 736.664 477.541 735.603 477.065C734.011 476.352 731.944 476.7 730.115 476.517C728.285 476.335 726.987 476.39 725.157 476.207C723.566 475.494 721.498 475.842 719.669 475.66C719.669 475.66 719.138 475.422 719.376 474.891Z" fill="url(#paint6_linear)"/>
<path d="M53.7763 588.298C50.9406 588.939 48.105 589.581 45.5072 589.691C43.7326 590.808 43.3117 593.168 41.2445 593.516C39.8908 592.272 40.3665 591.211 40.3116 589.912C39.7263 588.375 39.6715 587.076 39.0861 585.539C38.5008 584.002 39.507 583.178 40.8059 583.123C43.1658 583.543 45.5258 583.963 47.8857 584.384C48.9468 584.859 50.5383 585.573 51.8372 585.517C52.8982 585.993 53.7214 586.999 53.7763 588.298Z" fill="url(#paint7_linear)"/>
<path d="M788.314 751.793C787.838 752.855 787.6 753.385 787.362 753.916C786.886 754.978 785.88 755.801 784.581 755.856C782.459 754.905 781.453 755.729 779.971 757.614C779.733 758.145 778.965 758.438 778.727 758.969C777.666 758.493 777.135 758.255 776.074 757.78C775.8 751.284 775.8 751.284 777.227 748.1C779.295 747.751 780.648 748.995 782.002 750.239C783.831 750.422 785.954 751.373 788.314 751.793Z" fill="url(#paint8_linear)"/>
<path d="M810.222 475.458C810.46 474.928 810.698 474.397 810.405 473.628C809.875 473.391 809.582 472.622 809.582 472.622C809.82 472.091 810.058 471.561 810.058 471.561C812.893 470.92 816.497 469.986 819.15 471.174L819.68 471.412C819.973 472.181 821.034 472.656 820.796 473.187C821.089 473.955 820.083 474.779 819.314 475.072C818.546 475.365 817.778 475.658 817.247 475.42C814.887 475 813.35 475.586 811.283 475.934C811.283 475.934 810.753 475.696 810.222 475.458Z" fill="url(#paint9_linear)"/>
<path d="M78.9606 685.619C79.729 685.326 80.2595 685.563 80.2595 685.563C81.6132 686.807 83.1499 686.221 84.7415 686.935C85.8026 687.41 87.632 687.593 88.693 688.068C91.0529 688.489 93.175 689.44 94.053 691.745C92.809 693.1 91.4553 691.856 90.1564 691.911C88.8575 691.966 87.5038 690.722 86.4427 690.246C84.3206 689.295 82.1986 688.344 80.0765 687.393C80.0765 687.393 79.7838 686.625 78.9606 685.619Z" fill="url(#paint10_linear)"/>
<path d="M143.73 573.804C143.967 573.273 144.205 572.742 144.736 572.98C145.742 572.157 147.041 572.101 148.578 571.515C148.87 572.284 148.632 572.815 148.395 573.345C148.212 575.175 148.797 576.712 149.858 577.188C150.919 577.663 151.212 578.432 151.267 579.731C151.029 580.262 151.559 580.499 151.321 581.03C150.791 580.792 150.022 581.085 149.492 580.848C147.9 580.134 146.547 578.89 145.431 577.116C144.608 576.109 143.784 575.103 143.73 573.804Z" fill="url(#paint11_linear)"/>
<path d="M167.75 483.233C166.981 483.526 166.743 484.057 166.743 484.057C162.847 484.222 159.664 482.796 157.249 481.076C156.718 480.838 156.664 479.539 157.432 479.246C158.969 478.66 160.268 478.605 161.329 479.081C162.682 480.325 163.743 480.8 165.335 481.514C165.865 481.751 166.927 482.227 167.75 483.233Z" fill="url(#paint12_linear)"/>
<path d="M150.445 523.278C154.214 526.242 154.214 526.242 155.622 528.785C154.854 529.078 154.378 530.139 153.61 530.432C153.665 531.732 153.72 533.031 153.244 534.092C152.713 533.854 151.945 534.147 151.414 533.91C149.823 533.196 149 532.19 150.244 530.836C151.488 529.481 151.433 528.182 150.317 526.407C150.317 526.407 149.732 524.87 150.445 523.278Z" fill="url(#paint13_linear)"/>
<path d="M65.2752 682.036C67.1046 682.219 68.934 682.401 70.7634 682.584C72.5928 682.766 74.1844 683.48 75.7759 684.193C75.5381 684.724 75.3002 685.254 75.0624 685.785C74.8245 686.316 74.0562 686.609 73.5256 686.371C71.9341 685.658 70.6352 685.713 69.0984 686.299C68.3301 686.592 67.269 686.116 66.7385 685.878C65.6226 684.104 64.7995 683.097 65.2752 682.036Z" fill="url(#paint14_linear)"/>
<path d="M272.935 761.718C267.264 763 267.264 763 264.081 761.573C261.721 761.153 259.361 760.733 256.525 761.374C256.233 760.605 255.172 760.13 254.879 759.361L255.117 758.831C256.416 758.776 258.245 758.958 259.544 758.903C262.197 760.092 264.794 759.981 267.392 759.871C269.514 760.822 270.575 761.298 272.935 761.718Z" fill="url(#paint15_linear)"/>
<path d="M807.196 662.747C807.251 664.046 806.537 665.638 805.239 665.694C802.403 666.335 799.86 667.744 796.732 667.617C796.732 667.617 796.201 667.379 795.671 667.141C798.213 665.732 801.049 665.091 802.824 663.974C804.068 662.62 805.367 662.565 807.196 662.747Z" fill="url(#paint16_linear)"/>
<path d="M769.472 483.962C764.861 485.72 763.562 485.775 760.379 484.348C762.63 482.17 764.404 481.053 767.532 481.181C768.063 481.419 767.825 481.949 769.472 483.962Z" fill="url(#paint17_linear)"/>
<path d="M4.26779 673.176C6.28022 671.529 7.87178 672.242 9.70119 672.425C9.99386 673.193 10.817 674.199 11.1097 674.968L10.8719 675.498C9.09729 676.615 8.03626 676.14 6.4447 675.426C5.67633 675.719 4.61528 675.244 4.26779 673.176Z" fill="url(#paint18_linear)"/>
<path d="M23.1134 632.546C21.8145 632.602 21.284 632.364 20.5156 632.657C18.6862 632.474 18.3935 631.706 18.3387 630.407C18.5765 629.876 18.046 629.638 18.2839 629.107C18.5217 628.577 18.7595 628.046 18.9974 627.515C19.2352 626.985 20.8268 627.698 21.1195 628.466C22.711 629.18 22.7659 630.479 23.1134 632.546Z" fill="url(#paint19_linear)"/>
<path d="M807.197 662.747C808.496 662.692 808.971 661.631 810.508 661.045C812.283 659.928 814.112 660.111 815.521 662.654C813.746 663.77 811.441 664.649 809.611 664.467C808.55 663.991 807.727 662.985 807.197 662.747Z" fill="url(#paint20_linear)"/>
<path d="M322.486 770.542C320.419 770.891 318.351 771.239 317.29 770.763C314.107 769.337 310.503 770.271 307.265 767.545C309.625 767.965 311.692 767.617 313.284 768.33C316.467 769.757 319.541 768.585 322.486 770.542Z" fill="url(#paint21_linear)"/>
<path d="M115.005 639.315C113.468 639.901 112.169 639.956 110.578 639.243C110.047 639.005 109.517 638.767 109.754 638.237C109.992 637.706 110.23 637.175 110.468 636.644C112.243 635.528 114.603 635.948 115.481 638.254C115.243 638.784 115.243 638.784 115.005 639.315Z" fill="url(#paint22_linear)"/>
<path d="M137.997 703.156C140.119 704.107 142.479 704.527 144.07 705.24C144.125 706.54 143.887 707.07 142.826 706.595C140.997 706.412 139.698 706.467 138.344 705.223C137.814 704.986 137.521 704.217 137.997 703.156Z" fill="url(#paint23_linear)"/>
<path d="M51.7566 663.865C51.7017 662.566 52.7628 663.042 53.5311 662.749C54.2995 662.456 54.5374 661.925 55.3057 661.632C55.8363 661.87 55.5984 662.401 56.1289 662.638C56.1289 662.638 56.1289 662.638 56.6594 662.876C56.6594 662.876 56.6594 662.876 56.4216 663.407C55.4154 664.23 56.2386 665.237 55.2323 666.06C54.464 666.353 53.4029 665.878 53.1103 665.109C52.5797 664.872 52.0492 664.634 51.7566 663.865Z" fill="url(#paint24_linear)"/>
<path d="M750.193 767.209C750.778 768.746 751.601 769.752 750.888 771.344C749.589 771.399 748.766 770.393 747.942 769.387C748.418 768.325 748.363 767.026 750.193 767.209Z" fill="url(#paint25_linear)"/>
<path d="M53.3031 570.874C53.7788 569.813 53.724 568.514 53.724 568.514C54.7302 567.69 56.0291 567.635 57.3828 568.879C56.1387 570.233 56.1387 570.233 53.3031 570.874Z" fill="url(#paint26_linear)"/>
<path d="M159.245 503.639C161.367 504.59 161.367 504.59 161.714 506.657C159.116 506.768 159.116 506.768 157.47 504.755C158.238 504.462 159.007 504.169 159.245 503.639Z" fill="url(#paint27_linear)"/>
<path d="M160.849 720.408C161.086 719.877 161.086 719.877 161.855 719.584C162.916 720.06 164.507 720.773 165.568 721.249C165.385 723.079 164.617 723.372 163.794 722.365C162.733 721.89 161.91 720.884 160.849 720.408Z" fill="url(#paint28_linear)"/>
<path d="M777.334 497.683C779.639 496.805 781.999 497.225 784.651 498.414C781.285 498.817 779.694 498.104 777.334 497.683Z" fill="url(#paint29_linear)"/>
<path d="M789.471 668.185C788.703 668.478 788.465 669.009 787.459 669.832C786.453 670.656 785.392 670.18 784.569 669.174C786.343 668.057 787.88 667.472 789.471 668.185Z" fill="url(#paint30_linear)"/>
<path d="M159.006 504.172C157.414 503.459 156.06 502.215 155.237 501.209C156.774 500.623 158.073 500.568 158.658 502.105C159.189 502.343 159.481 503.111 159.006 504.172Z" fill="url(#paint31_linear)"/>
<path d="M171.742 528.361C170.681 527.885 168.614 528.233 168.266 526.166C171.925 526.531 171.925 526.531 171.742 528.361Z" fill="url(#paint32_linear)"/>
<path d="M329.275 771.037C328.031 772.391 327.208 771.385 326.44 771.678C325.909 771.44 324.61 771.495 324.08 771.258C325.086 770.434 325.854 770.141 329.275 771.037Z" fill="url(#paint33_linear)"/>
<path d="M351.813 774.765C352.343 775.003 353.642 774.948 354.173 775.185C354.228 776.485 353.167 776.009 352.929 776.54C352.398 776.302 351.63 776.595 351.813 774.765Z" fill="url(#paint34_linear)"/>
<path d="M187.139 566.487C188.438 566.432 189.207 566.139 189.261 567.438C189.024 567.969 188.786 568.499 188.786 568.499C188.255 568.262 188.255 568.262 188.255 568.262C187.725 568.024 187.432 567.255 187.139 566.487Z" fill="url(#paint35_linear)"/>
<path d="M305.97 767.602C305.202 767.895 304.671 767.657 304.433 768.188C304.433 768.188 303.903 767.95 303.61 767.182L303.848 766.651C303.848 766.651 304.616 766.358 305.147 766.596C305.147 766.596 305.44 767.364 305.97 767.602Z" fill="url(#paint36_linear)"/>
<path d="M800.082 709.904C799.496 708.367 799.204 707.599 798.911 706.83C800.74 707.013 800.74 707.013 800.082 709.904Z" fill="url(#paint37_linear)"/>
<path d="M802.277 706.431C801.746 706.193 801.454 705.424 801.454 705.424L801.691 704.894L802.222 705.131C801.984 705.662 802.277 706.431 802.277 706.431Z" fill="url(#paint38_linear)"/>
<path d="M96.6484 691.636C97.179 691.874 97.4716 692.642 98.0022 692.88C97.2338 693.173 96.7033 692.935 96.1727 692.697C96.4106 692.166 96.6484 691.636 96.6484 691.636Z" fill="url(#paint39_linear)"/>
<path d="M714.768 476.652C714.238 476.414 714.238 476.414 713.47 476.707L713.707 476.176L714.476 475.883C715.006 476.121 714.768 476.652 714.768 476.652Z" fill="url(#paint40_linear)"/>
<path d="M919.141 583.54C919.671 583.778 920.732 584.253 921.793 584.729C920.256 585.315 920.256 585.315 919.141 583.54Z" fill="url(#paint41_linear)"/>
<path d="M65.4099 623.462L64.8794 623.224C64.8794 623.224 64.8793 623.224 65.1172 622.693C64.8793 623.224 64.8794 623.224 65.4099 623.462Z" fill="url(#paint42_linear)"/>
<path d="M117.272 668.372C116.742 668.135 116.742 668.135 116.211 667.897C116.211 667.897 116.211 667.897 115.681 667.659C115.681 667.659 115.918 667.128 116.449 667.366C116.979 667.604 116.979 667.604 117.748 667.311C117.51 667.842 117.272 668.372 117.272 668.372Z" fill="url(#paint43_linear)"/>
<path d="M103.73 692.894L103.492 693.425C102.962 693.187 102.962 693.187 103.73 692.894C103.199 692.656 103.199 692.656 103.73 692.894Z" fill="url(#paint44_linear)"/>
<path d="M166.156 501C166.156 501 166.686 501.237 166.156 501C166.449 501.767 166.449 501.767 166.156 501C165.919 501.53 165.919 501.53 166.156 501Z" fill="url(#paint45_linear)"/>
<path d="M161.127 523.604C161.127 523.604 160.596 523.366 161.127 523.604C161.365 523.073 161.365 523.073 161.895 523.311L161.657 523.842L161.127 523.604Z" fill="url(#paint46_linear)"/>
<path d="M141.637 635.321C141.106 635.083 140.868 635.614 140.338 635.376L140.576 634.845C140.813 634.315 141.344 634.552 141.637 635.321C141.344 634.552 141.106 635.083 141.637 635.321Z" fill="url(#paint47_linear)"/>
<path d="M845.508 590.056C846.039 590.294 846.039 590.294 845.508 590.056C846.277 589.763 846.277 589.763 846.807 590.001C846.807 590.001 846.569 590.532 846.039 590.294C846.039 590.294 846.039 590.294 845.508 590.056Z" fill="url(#paint48_linear)"/>
<path d="M107.758 671.121L107.228 670.884C107.466 670.354 107.466 670.354 107.758 671.121C107.995 670.591 107.995 670.591 107.758 671.121Z" fill="url(#paint49_linear)"/>
<path d="M101.137 693.006C101.137 693.006 100.845 692.239 101.137 693.006C100.845 692.239 100.845 692.239 101.137 693.006Z" fill="url(#paint50_linear)"/>
<path d="M810.229 475.46C809.462 475.753 809.462 475.753 810.229 475.46C809.462 475.753 809.462 475.753 810.229 475.46C809.462 475.753 809.992 475.99 810.229 475.46Z" fill="url(#paint51_linear)"/>
<path d="M789.766 668.957C790.004 668.426 790.535 668.664 790.773 668.133C790.242 667.896 790.004 668.426 789.766 668.957Z" fill="url(#paint52_linear)"/>
<path d="M802.277 706.426C802.277 706.426 802.57 707.194 802.277 706.426C802.57 707.194 802.277 706.426 802.277 706.426Z" fill="url(#paint53_linear)"/>
<path d="M767.124 767.79L766.356 768.082L766.594 767.552L767.124 767.79Z" fill="url(#paint54_linear)"/>
<path d="M29.6627 633.569C29.3702 632.801 29.1328 633.331 29.1328 633.331L29.6627 633.569Z" fill="url(#paint55_linear)"/>
<path d="M797.43 597.824L798.198 597.531C798.198 597.531 798.198 597.531 798.491 598.299C797.961 598.061 797.961 598.061 797.43 597.824Z" fill="url(#paint56_linear)"/>
<path d="M865.195 581.668C864.427 581.961 863.659 582.254 863.128 582.016C863.128 582.016 862.836 581.248 862.305 581.01C864.134 581.193 864.665 581.431 865.195 581.668Z" fill="url(#paint57_linear)"/>
</g>
<defs>
<linearGradient id="paint0_linear" x1="576.591" y1="381.585" x2="378.938" y2="822.609" gradientUnits="userSpaceOnUse">
<stop stop-color="#E5E5E5"/>
<stop offset="1" stop-color="#9C9C9C"/>
</linearGradient>
<linearGradient id="paint1_linear" x1="795.707" y1="674.802" x2="785.394" y2="697.815" gradientUnits="userSpaceOnUse">
<stop stop-color="#E5E5E5"/>
<stop offset="1" stop-color="#9C9C9C"/>
</linearGradient>
<linearGradient id="paint2_linear" x1="41.4075" y1="656.68" x2="32.3692" y2="676.847" gradientUnits="userSpaceOnUse">
<stop stop-color="#E5E5E5"/>
<stop offset="1" stop-color="#9C9C9C"/>
</linearGradient>
<linearGradient id="paint3_linear" x1="77.5173" y1="606.585" x2="73.4739" y2="615.607" gradientUnits="userSpaceOnUse">
<stop stop-color="#E5E5E5"/>
<stop offset="1" stop-color="#9C9C9C"/>
</linearGradient>
<linearGradient id="paint4_linear" x1="111.025" y1="615.229" x2="106.888" y2="624.46" gradientUnits="userSpaceOnUse">
<stop stop-color="#E5E5E5"/>
<stop offset="1" stop-color="#9C9C9C"/>
</linearGradient>
<linearGradient id="paint5_linear" x1="87.8182" y1="627.485" x2="84.8583" y2="634.089" gradientUnits="userSpaceOnUse">
<stop stop-color="#E5E5E5"/>
<stop offset="1" stop-color="#9C9C9C"/>
</linearGradient>
<linearGradient id="paint6_linear" x1="738.489" y1="464.338" x2="731.116" y2="480.79" gradientUnits="userSpaceOnUse">
<stop stop-color="#E5E5E5"/>
<stop offset="1" stop-color="#9C9C9C"/>
</linearGradient>
<linearGradient id="paint7_linear" x1="47.5691" y1="583.605" x2="42.8121" y2="594.219" gradientUnits="userSpaceOnUse">
<stop stop-color="#E5E5E5"/>
<stop offset="1" stop-color="#9C9C9C"/>
</linearGradient>
<linearGradient id="paint8_linear" x1="783.008" y1="749.416" x2="778.727" y2="758.969" gradientUnits="userSpaceOnUse">
<stop stop-color="#E5E5E5"/>
<stop offset="1" stop-color="#9C9C9C"/>
</linearGradient>
<linearGradient id="paint9_linear" x1="816.607" y1="470.035" x2="813.515" y2="476.934" gradientUnits="userSpaceOnUse">
<stop stop-color="#E5E5E5"/>
<stop offset="1" stop-color="#9C9C9C"/>
</linearGradient>
<linearGradient id="paint10_linear" x1="87.2437" y1="687.038" x2="85.8065" y2="690.244" gradientUnits="userSpaceOnUse">
<stop stop-color="#E5E5E5"/>
<stop offset="1" stop-color="#9C9C9C"/>
</linearGradient>
<linearGradient id="paint11_linear" x1="149.904" y1="572.11" x2="146.574" y2="579.54" gradientUnits="userSpaceOnUse">
<stop stop-color="#E5E5E5"/>
<stop offset="1" stop-color="#9C9C9C"/>
</linearGradient>
<linearGradient id="paint12_linear" x1="163.076" y1="479.864" x2="161.506" y2="483.365" gradientUnits="userSpaceOnUse">
<stop stop-color="#E5E5E5"/>
<stop offset="1" stop-color="#9C9C9C"/>
</linearGradient>
<linearGradient id="paint13_linear" x1="153.628" y1="524.705" x2="149.823" y2="533.196" gradientUnits="userSpaceOnUse">
<stop stop-color="#E5E5E5"/>
<stop offset="1" stop-color="#9C9C9C"/>
</linearGradient>
<linearGradient id="paint14_linear" x1="71.0012" y1="682.053" x2="68.8606" y2="686.829" gradientUnits="userSpaceOnUse">
<stop stop-color="#E5E5E5"/>
<stop offset="1" stop-color="#9C9C9C"/>
</linearGradient>
<linearGradient id="paint15_linear" x1="264.977" y1="758.151" x2="262.361" y2="763.989" gradientUnits="userSpaceOnUse">
<stop stop-color="#E5E5E5"/>
<stop offset="1" stop-color="#9C9C9C"/>
</linearGradient>
<linearGradient id="paint16_linear" x1="803.391" y1="661.042" x2="799.824" y2="669.003" gradientUnits="userSpaceOnUse">
<stop stop-color="#E5E5E5"/>
<stop offset="1" stop-color="#9C9C9C"/>
</linearGradient>
<linearGradient id="paint17_linear" x1="766.471" y1="480.705" x2="764.093" y2="486.013" gradientUnits="userSpaceOnUse">
<stop stop-color="#E5E5E5"/>
<stop offset="1" stop-color="#9C9C9C"/>
</linearGradient>
<linearGradient id="paint18_linear" x1="8.64015" y1="671.949" x2="6.83296" y2="675.981" gradientUnits="userSpaceOnUse">
<stop stop-color="#E5E5E5"/>
<stop offset="1" stop-color="#9C9C9C"/>
</linearGradient>
<linearGradient id="paint19_linear" x1="21.8284" y1="628.306" x2="19.8918" y2="632.627" gradientUnits="userSpaceOnUse">
<stop stop-color="#E5E5E5"/>
<stop offset="1" stop-color="#9C9C9C"/>
</linearGradient>
<linearGradient id="paint20_linear" x1="812.503" y1="660.147" x2="810.407" y2="664.823" gradientUnits="userSpaceOnUse">
<stop stop-color="#E5E5E5"/>
<stop offset="1" stop-color="#9C9C9C"/>
</linearGradient>
<linearGradient id="paint21_linear" x1="315.627" y1="767.366" x2="314.029" y2="770.933" gradientUnits="userSpaceOnUse">
<stop stop-color="#E5E5E5"/>
<stop offset="1" stop-color="#9C9C9C"/>
</linearGradient>
<linearGradient id="paint22_linear" x1="113.524" y1="636.222" x2="111.904" y2="639.837" gradientUnits="userSpaceOnUse">
<stop stop-color="#E5E5E5"/>
<stop offset="1" stop-color="#9C9C9C"/>
</linearGradient>
<linearGradient id="paint23_linear" x1="141.326" y1="704.011" x2="140.277" y2="706.353" gradientUnits="userSpaceOnUse">
<stop stop-color="#E5E5E5"/>
<stop offset="1" stop-color="#9C9C9C"/>
</linearGradient>
<linearGradient id="paint24_linear" x1="55.0448" y1="661.515" x2="53.2014" y2="665.628" gradientUnits="userSpaceOnUse">
<stop stop-color="#E5E5E5"/>
<stop offset="1" stop-color="#9C9C9C"/>
</linearGradient>
<linearGradient id="paint25_linear" x1="750.681" y1="767.428" x2="749.155" y2="770.832" gradientUnits="userSpaceOnUse">
<stop stop-color="#E5E5E5"/>
<stop offset="1" stop-color="#9C9C9C"/>
</linearGradient>
<linearGradient id="paint26_linear" x1="55.8845" y1="567.957" x2="54.3641" y2="571.35" gradientUnits="userSpaceOnUse">
<stop stop-color="#E5E5E5"/>
<stop offset="1" stop-color="#9C9C9C"/>
</linearGradient>
<linearGradient id="paint27_linear" x1="160.306" y1="504.114" x2="159.235" y2="506.502" gradientUnits="userSpaceOnUse">
<stop stop-color="#E5E5E5"/>
<stop offset="1" stop-color="#9C9C9C"/>
</linearGradient>
<linearGradient id="paint28_linear" x1="163.55" y1="720.344" x2="162.748" y2="722.136" gradientUnits="userSpaceOnUse">
<stop stop-color="#E5E5E5"/>
<stop offset="1" stop-color="#9C9C9C"/>
</linearGradient>
<linearGradient id="paint29_linear" x1="781.468" y1="496.987" x2="780.517" y2="499.11" gradientUnits="userSpaceOnUse">
<stop stop-color="#E5E5E5"/>
<stop offset="1" stop-color="#9C9C9C"/>
</linearGradient>
<linearGradient id="paint30_linear" x1="787.615" y1="667.353" x2="786.269" y2="670.355" gradientUnits="userSpaceOnUse">
<stop stop-color="#E5E5E5"/>
<stop offset="1" stop-color="#9C9C9C"/>
</linearGradient>
<linearGradient id="paint31_linear" x1="157.856" y1="501.051" x2="156.884" y2="503.221" gradientUnits="userSpaceOnUse">
<stop stop-color="#E5E5E5"/>
<stop offset="1" stop-color="#9C9C9C"/>
</linearGradient>
<linearGradient id="paint32_linear" x1="170.454" y1="526.258" x2="169.73" y2="527.875" gradientUnits="userSpaceOnUse">
<stop stop-color="#E5E5E5"/>
<stop offset="1" stop-color="#9C9C9C"/>
</linearGradient>
<linearGradient id="paint33_linear" x1="327.153" y1="770.086" x2="326.202" y2="772.209" gradientUnits="userSpaceOnUse">
<stop stop-color="#E5E5E5"/>
<stop offset="1" stop-color="#9C9C9C"/>
</linearGradient>
<linearGradient id="paint34_linear" x1="353.186" y1="774.743" x2="352.435" y2="776.42" gradientUnits="userSpaceOnUse">
<stop stop-color="#E5E5E5"/>
<stop offset="1" stop-color="#9C9C9C"/>
</linearGradient>
<linearGradient id="paint35_linear" x1="188.475" y1="566.35" x2="187.725" y2="568.024" gradientUnits="userSpaceOnUse">
<stop stop-color="#E5E5E5"/>
<stop offset="1" stop-color="#9C9C9C"/>
</linearGradient>
<linearGradient id="paint36_linear" x1="305.147" y1="766.596" x2="304.433" y2="768.188" gradientUnits="userSpaceOnUse">
<stop stop-color="#E5E5E5"/>
<stop offset="1" stop-color="#9C9C9C"/>
</linearGradient>
<linearGradient id="paint37_linear" x1="800.096" y1="707.028" x2="799.021" y2="709.428" gradientUnits="userSpaceOnUse">
<stop stop-color="#E5E5E5"/>
<stop offset="1" stop-color="#9C9C9C"/>
</linearGradient>
<linearGradient id="paint38_linear" x1="802.222" y1="705.131" x2="801.746" y2="706.193" gradientUnits="userSpaceOnUse">
<stop stop-color="#E5E5E5"/>
<stop offset="1" stop-color="#9C9C9C"/>
</linearGradient>
<linearGradient id="paint39_linear" x1="97.4442" y1="691.992" x2="96.9685" y2="693.054" gradientUnits="userSpaceOnUse">
<stop stop-color="#E5E5E5"/>
<stop offset="1" stop-color="#9C9C9C"/>
</linearGradient>
<linearGradient id="paint40_linear" x1="714.476" y1="475.883" x2="714" y2="476.945" gradientUnits="userSpaceOnUse">
<stop stop-color="#E5E5E5"/>
<stop offset="1" stop-color="#9C9C9C"/>
</linearGradient>
<linearGradient id="paint41_linear" x1="920.467" y1="584.134" x2="920.11" y2="584.931" gradientUnits="userSpaceOnUse">
<stop stop-color="#E5E5E5"/>
<stop offset="1" stop-color="#9C9C9C"/>
</linearGradient>
<linearGradient id="paint42_linear" x1="65.3824" y1="622.812" x2="65.1446" y2="623.343" gradientUnits="userSpaceOnUse">
<stop stop-color="#E5E5E5"/>
<stop offset="1" stop-color="#9C9C9C"/>
</linearGradient>
<linearGradient id="paint43_linear" x1="116.952" y1="666.954" x2="116.476" y2="668.016" gradientUnits="userSpaceOnUse">
<stop stop-color="#E5E5E5"/>
<stop offset="1" stop-color="#9C9C9C"/>
</linearGradient>
<linearGradient id="paint44_linear" x1="103.531" y1="692.805" x2="103.293" y2="693.336" gradientUnits="userSpaceOnUse">
<stop stop-color="#E5E5E5"/>
<stop offset="1" stop-color="#9C9C9C"/>
</linearGradient>
<linearGradient id="paint45_linear" x1="166.355" y1="501.089" x2="166.177" y2="501.486" gradientUnits="userSpaceOnUse">
<stop stop-color="#E5E5E5"/>
<stop offset="1" stop-color="#9C9C9C"/>
</linearGradient>
<linearGradient id="paint46_linear" x1="161.512" y1="523.139" x2="161.274" y2="523.67" gradientUnits="userSpaceOnUse">
<stop stop-color="#E5E5E5"/>
<stop offset="1" stop-color="#9C9C9C"/>
</linearGradient>
<linearGradient id="paint47_linear" x1="141.284" y1="634.685" x2="140.868" y2="635.614" gradientUnits="userSpaceOnUse">
<stop stop-color="#E5E5E5"/>
<stop offset="1" stop-color="#9C9C9C"/>
</linearGradient>
<linearGradient id="paint48_linear" x1="846.277" y1="589.763" x2="846.039" y2="590.294" gradientUnits="userSpaceOnUse">
<stop stop-color="#E5E5E5"/>
<stop offset="1" stop-color="#9C9C9C"/>
</linearGradient>
<linearGradient id="paint49_linear" x1="107.671" y1="670.605" x2="107.493" y2="671.002" gradientUnits="userSpaceOnUse">
<stop stop-color="#E5E5E5"/>
<stop offset="1" stop-color="#9C9C9C"/>
</linearGradient>
<linearGradient id="paint50_linear" x1="101.117" y1="692.52" x2="100.939" y2="692.917" gradientUnits="userSpaceOnUse">
<stop stop-color="#E5E5E5"/>
<stop offset="1" stop-color="#9C9C9C"/>
</linearGradient>
<linearGradient id="paint51_linear" x1="810.031" y1="475.371" x2="809.853" y2="475.769" gradientUnits="userSpaceOnUse">
<stop stop-color="#E5E5E5"/>
<stop offset="1" stop-color="#9C9C9C"/>
</linearGradient>
<linearGradient id="paint52_linear" x1="790.507" y1="668.014" x2="790.032" y2="669.076" gradientUnits="userSpaceOnUse">
<stop stop-color="#E5E5E5"/>
<stop offset="1" stop-color="#9C9C9C"/>
</linearGradient>
<linearGradient id="paint53_linear" x1="802.395" y1="706.479" x2="802.29" y2="706.715" gradientUnits="userSpaceOnUse">
<stop stop-color="#E5E5E5"/>
<stop offset="1" stop-color="#9C9C9C"/>
</linearGradient>
<linearGradient id="paint54_linear" x1="766.859" y1="767.671" x2="766.621" y2="768.201" gradientUnits="userSpaceOnUse">
<stop stop-color="#E5E5E5"/>
<stop offset="1" stop-color="#9C9C9C"/>
</linearGradient>
<linearGradient id="paint55_linear" x1="29.5032" y1="633.214" x2="29.3977" y2="633.45" gradientUnits="userSpaceOnUse">
<stop stop-color="#E5E5E5"/>
<stop offset="1" stop-color="#9C9C9C"/>
</linearGradient>
<linearGradient id="paint56_linear" x1="798.198" y1="597.531" x2="797.961" y2="598.061" gradientUnits="userSpaceOnUse">
<stop stop-color="#E5E5E5"/>
<stop offset="1" stop-color="#9C9C9C"/>
</linearGradient>
<linearGradient id="paint57_linear" x1="863.869" y1="581.074" x2="863.394" y2="582.135" gradientUnits="userSpaceOnUse">
<stop stop-color="#E5E5E5"/>
<stop offset="1" stop-color="#9C9C9C"/>
</linearGradient>
<clipPath id="clip0">
<rect width="836" height="524" fill="white" transform="translate(187.305 188) rotate(24.1405)"/>
</clipPath>
</defs>
</svg>
