<svg width="950" height="850" viewBox="0 0 950 850" fill="none" xmlns="http://www.w3.org/2000/svg">
<g clip-path="url(#clip0)">
<path d="M232.423 497.066C232.367 497.542 232.577 497.808 232.787 498.073C233.206 498.605 234.423 498.507 234.955 498.088C235.221 497.878 235.221 497.878 235.486 497.668C237.347 496.2 238.984 496.633 239.92 498.913C240.13 499.179 240.074 499.655 240.284 499.921C241.598 501.04 241.01 501.935 240.157 503.04L240.367 503.305C242.647 502.369 242.857 502.634 243.052 505.068L242.996 505.544C243.149 506.285 243.569 506.817 244.31 506.663C245.737 506.831 246.688 506.943 247.737 508.272C247.946 508.538 248.422 508.594 248.632 508.859C249.373 508.706 249.793 509.237 250.212 509.769C250.841 510.566 251.583 510.412 252.17 509.517L252.226 509.042C252.814 508.146 253.821 507.783 255.248 507.951C255.933 508.273 256.143 508.539 255.975 509.965L255.919 510.441C255.807 511.392 255.751 511.867 256.38 512.665C257.009 513.462 255.26 513.979 255.89 514.777C256.616 516.791 255.497 518.106 254.168 519.154C253.636 519.574 253.58 520.05 253.468 521.001C253.663 523.434 254.39 525.449 254.11 527.826C253.997 528.777 254.417 529.309 255.102 529.631C255.788 529.953 256.207 530.484 255.885 531.17C255.983 532.386 256.458 532.442 257.409 532.554C258.361 532.666 258.78 533.198 258.458 533.883C258.458 533.883 258.668 534.149 258.878 534.415C259.619 534.261 260.151 533.842 260.836 534.163C261.521 534.485 262.207 534.807 262.57 535.814C262.78 536.08 263.199 536.611 263.143 537.087C263.409 536.877 263.675 536.667 263.941 536.458C264.262 535.772 265.004 535.619 265.689 535.94C266.584 536.528 267.269 536.85 268.333 536.011C268.599 535.801 268.808 536.067 269.074 535.857C270.235 536.235 270.935 534.388 272.305 535.032L272.571 534.822C272.683 533.871 273.691 533.508 274.432 533.354C274.964 532.934 275.286 532.249 275.817 531.829C276.349 531.41 276.88 530.99 276.993 530.039C277.049 529.564 277.161 528.613 277.427 528.403C278.49 527.564 278.602 526.613 279.456 525.508C280.043 524.613 280.099 524.137 279.261 523.074C278.212 521.745 278.268 521.269 279.863 520.011C280.66 519.382 280.716 518.906 279.612 518.053C278.926 517.731 278.717 517.465 278.297 516.934C277.458 515.87 277.836 514.709 279.319 514.402C279.794 514.458 280.27 514.514 280.746 514.57C281.011 514.36 281.487 514.416 281.277 514.15C281.543 513.941 281.124 513.409 280.914 513.143C280.494 512.612 280.228 512.822 279.487 512.975C278.48 513.339 277.529 513.227 276.69 512.164C276.27 511.632 275.795 511.576 275.207 512.471C274.885 513.157 274.41 513.101 273.724 512.779C273.305 512.247 273.095 511.981 273.627 511.562C273.893 511.352 274.214 510.667 274.48 510.457L274.536 509.981C274.327 509.716 274.061 509.925 273.851 509.66C273.585 509.869 273.319 510.079 273.054 510.289C272.522 510.709 272.046 510.653 271.627 510.121C271.207 509.589 271.054 508.848 271.11 508.373C271.166 507.897 271.222 507.421 271.544 506.736C269.851 506.778 269.949 507.995 269.151 508.624C268.2 508.512 267.249 508.4 266.564 508.078C266.201 507.071 265.837 506.064 266.425 505.169C267.013 504.274 267.069 503.798 266.705 502.791C266.552 502.05 266.874 501.365 267.825 501.477C268.776 501.589 269.461 501.91 269.615 502.652C269.768 503.393 270.188 503.925 270.873 504.246C271.978 505.1 273.083 505.953 274.187 506.806C274.873 507.128 275.824 507.24 276.565 507.086C277.307 506.933 277.894 506.038 277.741 505.296C277.587 504.555 277.112 504.499 276.636 504.443C276.16 504.387 275.685 504.331 275 504.009C273.839 503.631 273.475 502.624 273.322 501.883C273.434 500.932 274.175 500.778 274.917 500.624C275.182 500.414 275.182 500.414 275.448 500.205C275.714 499.995 275.77 499.519 275.77 499.519C275.407 498.512 275.099 497.03 274.47 496.232C273.631 495.169 273.058 493.896 272.96 492.679C273.702 492.526 274.443 492.372 274.919 492.428C275.185 492.218 275.506 491.533 275.031 491.477C274.821 491.211 274.346 491.155 274.346 491.155C272.29 490.19 271.297 488.385 270.57 486.371C270.836 486.161 271.102 485.951 271.312 486.217C271.577 486.007 271.843 485.798 272.319 485.854C273.326 485.49 273.914 484.595 273.76 483.854C273.606 483.112 272.977 482.315 271.76 482.413C271.019 482.566 270.599 482.035 270.921 481.35C271.034 480.398 271.565 479.979 272.46 480.566C272.936 480.622 273.411 480.678 273.677 480.469C273.943 480.259 274.475 479.839 275.216 479.686C275.426 479.951 275.845 480.483 275.789 480.959C276.209 481.49 276.418 481.756 276.74 481.071C277.384 479.7 278.601 479.602 279.496 480.19C280.657 480.567 281.189 480.148 281.93 479.994C283.469 479.211 284.952 478.904 285.861 477.323L286.127 477.113C287.134 476.75 287.932 476.121 287.834 474.904L287.89 474.428C288.688 473.799 289.751 472.96 289.653 471.743C289.653 471.743 289.919 471.533 290.185 471.323C290.717 470.904 291.038 470.218 290.885 469.477C290.941 469.002 290.997 468.526 291.053 468.05C291.165 467.099 291.221 466.624 292.438 466.526C293.921 466.218 294.775 465.114 294.943 463.687C295.111 462.26 294.482 461.463 293.111 460.819C293.111 460.819 293.111 460.819 292.901 460.554C292.006 459.966 291.853 459.225 291.965 458.274C292.021 457.798 292.818 457.169 293.028 457.434C293.238 457.7 293.713 457.756 293.923 458.022C294.343 458.554 294.818 458.61 295.56 458.456C297.042 458.148 297.63 457.253 297.798 455.827C297.854 455.351 297.967 454.4 298.023 453.924C298.876 452.819 299.73 451.715 301.059 450.666C302.122 449.827 302.598 449.883 303.381 451.421C303.59 451.687 303.59 451.687 303.8 451.953C304.429 452.75 305.171 452.596 305.968 451.967C306.556 451.072 306.402 450.331 305.297 449.477C304.612 449.156 303.451 448.778 303.507 448.302C303.354 447.561 304.151 446.932 304.473 446.246C304.473 446.246 304.473 446.246 304.739 446.037C304.851 445.085 305.648 444.456 306.6 444.568C307.551 444.68 308.502 444.792 309.509 444.429C309.985 444.485 310.46 444.541 310.992 444.121C311.258 443.911 311.789 443.492 311.58 443.226C311.692 442.275 310.797 441.687 309.789 442.051C309.524 442.261 309.048 442.205 308.516 442.624C307.719 443.253 306.768 443.141 306.083 442.82C305.397 442.498 304.978 441.966 305.09 441.015C305.202 440.064 305.524 439.379 306.112 438.484C306.168 438.008 306.49 437.323 306.28 437.057C305.917 436.05 306.448 435.63 307.19 435.477C307.721 435.057 308.463 434.903 308.938 434.959C309.68 434.806 310.687 434.442 311.065 433.281C310.589 433.225 310.379 432.959 310.114 433.169C309.372 433.323 308.575 433.952 307.833 434.106C307.302 434.525 306.56 434.679 306.029 435.099C305.497 435.518 304.812 435.197 304.658 434.455C304.085 433.182 303.302 431.644 302.729 430.371C304.002 429.797 304.799 429.168 305.807 428.805C305.387 428.273 304.912 428.217 304.38 428.637C301.834 429.783 300.366 427.923 298.31 426.957C298.1 426.692 297.89 426.426 297.946 425.95C298.002 425.475 298.115 424.524 297.373 424.677C296.422 424.565 296.366 425.041 296.044 425.726C296.044 425.726 295.778 425.936 295.988 426.202C295.666 426.887 295.191 426.831 294.449 426.985C293.974 426.929 293.498 426.873 293.023 426.817C291.862 426.439 291.652 426.173 292.03 425.012C292.464 423.376 292.31 422.635 290.94 421.991C290.254 421.669 289.569 421.347 289.15 420.816C288.73 420.284 288.311 419.753 288.633 419.067C288.801 417.641 287.696 416.787 286.269 416.619C285.528 416.773 284.843 416.451 284.311 416.871C283.304 417.235 282.828 417.179 282.143 416.857C281.933 416.591 281.248 416.269 280.772 416.213C279.709 417.052 279.331 418.213 278.114 418.311C277.107 418.674 276.519 419.57 275.988 419.989C274.715 420.562 274.868 421.304 274.966 422.521C275.176 422.786 274.644 423.206 274.378 423.416C273.678 425.262 273.188 427.374 274.922 429.025C275.342 429.556 275.495 430.297 275.705 430.563C276.124 431.095 276.6 431.151 277.285 431.473L277.495 431.738C277.649 432.48 278.124 432.536 278.866 432.382C280.139 431.809 280.922 433.347 282.138 433.25C282.138 433.25 282.348 433.515 282.558 433.781C282.502 434.257 282.712 434.522 282.656 434.998C282.543 435.949 282.278 436.159 281.326 436.047C279.424 435.823 278.949 435.767 278.249 437.613C277.927 438.298 277.871 438.774 277.339 439.193C277.073 439.403 276.751 440.089 276.486 440.298C275.786 442.145 276.093 443.627 277.142 444.956C278.19 446.285 279.239 447.614 280.288 448.943C280.707 449.474 280.651 449.95 279.91 450.104C278.903 450.467 277.742 450.089 276.581 449.712C276.735 450.453 276.679 450.928 276.622 451.404C276.566 451.88 276.301 452.089 275.825 452.033C275.084 452.187 274.342 452.341 273.657 452.019C273.181 451.963 273.028 451.222 272.608 450.69C272.398 450.424 272.189 450.159 271.979 449.893C269.418 453.207 269.879 455.431 272.089 457.138C272.089 457.138 272.299 457.404 272.033 457.614C270.438 458.872 270.438 458.872 269.794 460.243C269.528 460.453 269.472 460.928 268.997 460.872C267.933 461.711 267.933 461.711 268.297 462.719C269.233 464.999 268.002 467.264 265.722 468.201C264.449 468.774 263.554 468.187 262.658 467.599C261.805 468.704 261.903 469.921 262.266 470.928C262.629 471.935 262.307 472.621 261.51 473.25C260.978 473.669 259.971 474.033 259.23 474.187C258.488 474.341 258.013 474.285 257.44 473.012C257.23 472.746 257.02 472.48 256.545 472.424C256.279 472.634 255.803 472.578 255.803 472.578C254.964 471.515 253.328 471.081 253.552 469.179C253.608 468.703 253.608 468.703 253.664 468.228C253.874 468.493 253.874 468.493 254.35 468.549C255.454 469.403 256.406 469.515 256.727 468.829C257.049 468.144 256.952 466.927 256.057 466.34L255.847 466.074C254.952 465.486 253.679 466.06 253.091 466.955C252.713 468.116 252.069 469.486 251.691 470.647C251.104 471.542 250.782 472.228 249.984 472.857C248.711 473.43 248.445 473.64 247.607 472.577C246.977 471.779 246.138 470.716 244.921 470.814C244.921 470.814 244.502 470.283 244.558 469.807C244.614 469.331 244.88 469.122 244.936 468.646C244.992 468.171 244.363 467.373 243.621 467.527C242.614 467.891 241.817 468.52 241.229 469.415C240.907 470.1 241.48 471.373 242.222 471.219C243.914 471.178 244.543 471.975 245.382 473.038C246.697 474.157 246.641 474.633 245.256 476.157C243.927 477.206 242.807 478.521 241.478 479.57C240.946 479.989 240.149 480.618 239.827 481.304C239.142 480.982 238.247 480.394 237.561 480.073C236.61 479.961 235.925 479.639 234.764 479.261C233.869 478.673 232.862 479.037 232.54 479.722C232.218 480.408 232.847 481.205 234.008 481.583C234.008 481.583 234.008 481.583 234.218 481.849C235.169 481.961 235.589 482.492 235.742 483.233C235.686 483.709 236.106 484.241 236.791 484.562C237.952 484.94 238.105 485.681 237.993 486.633C237.881 487.584 237.769 488.535 237.657 489.486C237.489 490.913 237.489 490.913 236.425 491.752C236.635 492.017 237.32 492.339 237.53 492.605C237.74 492.871 237.418 493.556 237.152 493.766C236.355 494.395 235.613 494.549 234.816 495.178C234.074 495.332 233.333 495.486 232.592 495.64C232.955 496.647 232.689 496.856 232.423 497.066ZM264.895 473.166C265.692 472.537 266.07 471.376 267.175 472.23C268.546 472.873 269.175 473.67 269.007 475.097C268.895 476.048 268.839 476.524 270.265 476.692C270.741 476.748 270.685 477.223 270.419 477.433C270.153 477.643 269.412 477.797 269.356 478.272C269.09 478.482 269.034 478.958 268.712 479.643C267.188 478.258 266.139 476.929 264.824 475.81C263.985 474.747 264.041 474.271 264.895 473.166ZM259.962 506.819C261.711 506.301 263.515 505.308 265.53 504.581C265.683 505.323 265.837 506.064 265.781 506.54C265.879 507.756 265.823 508.232 264.55 508.805C263.542 509.169 262.801 509.323 261.794 509.686C260.955 508.623 260.591 507.616 259.962 506.819Z" fill="#D9D9D9"/>
<path d="M490.499 471.53C490.765 471.32 490.821 470.845 491.087 470.635C490.611 470.579 490.345 470.789 490.345 470.789C489.814 471.208 489.226 472.103 488.541 471.782C487.855 471.46 487.492 470.453 487.338 469.711C487.394 469.236 487.45 468.76 487.297 468.019C487.353 467.543 487.619 467.334 487.409 467.068C486.248 466.69 486.29 468.382 485.073 468.48C484.443 467.683 485.241 467.054 485.297 466.578C485.297 466.578 485.353 466.102 485.143 465.837C485.143 465.837 484.668 465.781 484.402 465.99C484.136 466.2 483.87 466.41 483.339 466.83C483.073 467.039 482.597 466.983 482.597 466.983C482.387 466.718 482.178 466.452 482.234 465.976C482.08 465.235 482.402 464.55 482.248 463.808L481.829 463.277C481.563 463.486 481.088 463.43 481.297 463.696C480.975 464.381 480.919 464.857 480.597 465.542C480.332 465.752 479.8 466.172 479.059 466.325C479.059 466.325 478.639 465.794 478.429 465.528C478.22 465.262 478.066 464.521 477.856 464.255C477.59 464.465 477.325 464.675 477.268 465.15C476.947 465.836 477.1 466.577 476.149 466.465C475.674 466.409 474.778 465.821 474.093 465.5C473.883 465.234 473.94 464.758 473.73 464.492C473.52 464.227 473.576 463.751 473.157 463.22C472.835 463.905 472.779 464.38 472.723 464.856C472.82 466.073 472.498 466.758 471.967 467.178C471.225 467.332 470.54 467.01 469.967 465.737C469.547 465.205 469.394 464.464 468.974 463.932L468.499 463.876C468.499 463.876 468.233 464.086 468.443 464.352C468.596 465.093 469.016 465.625 469.169 466.366C469.379 466.632 468.847 467.052 468.847 467.052C468.582 467.261 468.372 466.996 468.162 466.73C467.533 465.932 467.379 465.191 466.75 464.394C466.54 464.128 466.065 464.072 465.589 464.016C466.162 465.289 466.792 466.086 466.945 466.827C467.365 467.359 467.518 468.1 466.777 468.254C466.511 468.464 465.826 468.142 465.35 468.086C465.35 468.086 465.084 468.296 464.875 468.03C464.819 468.506 465.238 469.037 465.182 469.513C465.126 469.988 465.07 470.464 464.804 470.674C464.538 470.883 463.853 470.562 463.377 470.506L463.168 470.24C462.692 470.184 462.329 469.177 461.797 469.596C461.265 470.016 462.16 470.603 462.58 471.135C462.79 471.401 462.79 471.401 462.999 471.667C463.209 471.932 463.629 472.464 463.363 472.674C463.307 473.149 462.299 473.513 461.824 473.457C461.139 473.135 460.929 472.869 460.509 472.338C460.3 472.072 459.824 472.016 459.558 472.226C459.712 472.967 460.187 473.023 460.397 473.289C460.817 473.82 461.502 474.142 461.656 474.883C461.865 475.149 461.809 475.625 461.544 475.834C461.278 476.044 460.802 475.988 460.536 476.198C459.529 476.562 459.739 476.827 460.368 477.625C460.578 477.89 460.788 478.156 460.997 478.422C459.458 479.205 458.41 477.876 456.717 477.918C457.137 478.45 457.346 478.715 457.556 478.981C458.242 479.303 459.137 479.89 459.822 480.212C460.717 480.8 461.08 481.807 461.5 482.338C461.919 482.87 460.912 483.234 460.856 483.709C460.59 483.919 460.8 484.185 461.01 484.45C461.219 484.716 461.429 484.982 461.639 485.248C462.688 486.577 462.688 486.577 461.568 487.891C461.302 488.101 461.302 488.101 461.246 488.577C461.722 488.633 462.463 488.479 462.939 488.535C464.156 488.437 465.414 490.032 465.512 491.249C465.456 491.724 465.19 491.934 464.924 492.144C464.658 492.354 464.392 492.563 464.127 492.773C464.336 493.039 464.336 493.039 464.336 493.039C464.868 492.619 465.344 492.675 465.875 492.256C466.882 491.892 467.833 492.004 468.463 492.802C469.092 493.599 468.77 494.284 468.238 494.704C467.973 494.914 468.182 495.179 467.916 495.389C468.658 495.235 469.455 494.606 469.987 494.187C470.253 493.977 470.728 494.033 470.938 494.299C471.414 494.355 471.358 494.83 471.301 495.306C471.245 495.781 470.98 495.991 471.133 496.732C471.665 496.313 471.931 496.103 471.931 496.103C472.784 494.998 473.316 494.579 474.421 495.432C475.106 495.754 475.735 496.551 476.421 496.873C476.742 496.187 477.33 495.292 477.806 495.348C478.547 495.195 478.967 495.726 479.652 496.048C481.093 494.048 481.093 494.048 482.939 494.748C483.373 493.111 483.373 493.111 485.751 493.391C485.822 490.748 485.822 490.748 487.724 490.972L487.78 490.496L487.57 490.23C487.795 488.328 487.851 487.853 489.068 487.755C489.543 487.811 490.019 487.867 490.76 487.713C489.712 486.384 489.712 486.384 490.831 485.07C491.363 484.65 491.153 484.384 491.209 483.909C490.58 483.111 490.845 482.902 491.853 482.538C492.119 482.328 492.384 482.118 492.65 481.909C492.44 481.643 492.231 481.377 491.965 481.587C490.804 481.209 490.594 480.943 491.182 480.048C491.77 479.153 492.357 478.258 492.945 477.363C492.47 477.307 492.26 477.041 491.784 476.985C490.623 476.607 490.414 476.342 491.001 475.446C491.323 474.761 491.589 474.551 491.911 473.866C492.233 473.181 492.023 472.915 491.338 472.593C490.177 472.215 490.177 472.215 490.499 471.53Z" fill="#D9D9D9"/>
<path d="M178.687 482.539C179.904 482.442 180.799 483.029 181.428 483.827C181.848 484.358 182.533 484.68 183.065 484.26C183.862 483.631 184.869 483.268 185.974 484.121C186.184 484.387 186.45 484.177 186.659 484.443C187.61 484.555 188.086 484.611 188.674 483.716C188.94 483.506 188.996 483.03 189.261 482.821C189.583 482.135 189.849 481.925 190.8 482.037C192.227 482.205 192.759 481.786 193.402 480.415C193.724 479.73 194.256 479.31 194.578 478.625C194.9 477.94 195.431 477.52 195.487 477.045C194.97 475.296 196.09 473.982 195.782 472.499C195.838 472.023 195.629 471.758 195.419 471.492C194.636 469.953 193.853 468.414 192.805 467.086C192.175 466.288 191.756 465.757 190.805 465.645C189.588 465.742 188.427 465.365 187.854 464.092C187.225 463.294 186.539 462.973 185.532 463.336C183.84 463.378 182.301 464.161 180.608 464.203C180.342 464.412 179.867 464.356 179.601 464.566C179.223 465.727 178.216 466.091 176.943 466.664C176.621 467.349 176.299 468.035 176.243 468.51C176.131 469.461 176.019 470.412 175.221 471.042C174.424 471.671 174.368 472.147 174.997 472.944C175.626 473.741 175.78 474.483 175.192 475.378C174.87 476.063 175.08 476.329 175.233 477.07C175.96 479.084 177.485 480.469 178.477 482.274C177.736 482.427 178.211 482.483 178.687 482.539Z" fill="#D9D9D9"/>
<path d="M250.358 330.662C251.407 331.991 251.407 331.991 253.099 331.949C253.841 331.796 254.792 331.908 255.687 332.495C255.897 332.761 256.638 332.607 257.114 332.663C259.072 332.412 261.086 331.685 262.206 330.37C263.325 329.055 265.549 328.594 264.669 325.838C265.998 324.79 265.69 323.307 265.117 322.034L265.173 321.558C266.027 320.454 265.188 319.39 264.559 318.593C263.929 317.796 263.566 316.789 262.937 315.991C262.727 315.726 262.308 315.194 262.098 314.928C260.937 314.55 259.776 314.173 259.203 312.9C259.203 312.9 258.993 312.634 258.727 312.844C257.511 312.941 256.559 312.829 255.342 312.927C254.601 313.081 254.126 313.025 253.44 312.703C252.545 312.116 252.545 312.116 251.692 313.221C250.572 314.535 249.719 315.64 248.026 315.682C247.76 315.892 247.495 316.101 247.229 316.311C246.529 318.157 246.57 319.85 245.395 321.64C245.129 321.85 245.283 322.591 245.493 322.857C246.332 323.92 246.485 324.661 246.317 326.088C246.205 327.039 246.568 328.046 246.932 329.053C247.141 329.319 247.561 329.851 247.827 329.641C249.309 329.333 249.673 330.34 250.358 330.662Z" fill="#D9D9D9"/>
<path d="M353.058 416.531C353.155 417.748 353.043 418.699 352.246 419.328C351.98 419.538 351.924 420.013 351.868 420.489C352.231 421.496 352.595 422.503 352.217 423.664C351.951 423.874 352.161 424.14 352.37 424.405C352.943 425.678 353.307 426.685 354.146 427.748C355.194 429.077 355.977 430.616 357.936 430.365L358.411 430.421C359.46 431.749 360.621 432.127 361.95 431.078C362.216 430.869 362.425 431.134 362.901 431.19C363.111 431.456 363.586 431.512 363.796 431.778C364.062 431.568 364.062 431.568 364.328 431.358C364.915 430.463 365.447 430.044 366.608 430.422C367.769 430.799 369.364 429.541 370.007 428.17C370.12 427.219 370.707 426.324 371.505 425.695C371.771 425.485 372.093 424.799 372.093 424.799C371.519 423.527 372.317 422.897 372.905 422.002C372.695 421.736 372.485 421.471 372.485 421.471C371.38 420.617 371.38 420.617 372.024 419.247C372.346 418.561 372.192 417.82 371.507 417.498C370.822 417.176 370.402 416.645 370.514 415.694C370.571 415.218 370.151 414.687 369.676 414.631C368.724 414.519 368.305 413.987 367.942 412.98C367.578 411.973 365.312 410.742 364.515 411.371C363.242 411.944 362.557 411.622 361.452 410.769C360.808 412.14 359.535 412.713 358.164 412.07C357.479 411.748 356.948 412.167 356.626 412.853C355.394 415.118 354.96 416.755 353.058 416.531Z" fill="#D9D9D9"/>
<path d="M377.885 428.856C377.297 429.751 376.71 430.647 375.758 430.535C374.388 429.891 373.269 431.206 372.052 431.303C371.786 431.513 371.52 431.723 371.254 431.933C371.142 432.884 370.61 433.303 369.813 433.933C369.547 434.142 369.015 434.562 369.015 434.562C368.372 435.933 367.042 436.982 368.035 438.786C368.245 439.052 367.713 439.471 367.657 439.947C367.601 440.422 367.335 440.632 367.545 440.898C367.964 441.43 368.384 441.961 368.062 442.646C367.474 443.541 368.635 443.919 368.789 444.661C369.04 446.619 370.089 447.948 371.991 448.172L372.676 448.494C372.984 449.976 373.991 449.613 374.732 449.459C375.208 449.515 375.893 449.837 376.578 450.158C377.264 450.48 377.739 450.536 378.061 449.851C378.327 449.641 378.593 449.431 378.593 449.431C379.334 449.278 380.019 449.599 380.761 449.446C381.502 449.292 381.614 448.341 382.356 448.187C383.363 447.823 384.16 447.194 384.748 446.299C384.804 445.824 385.336 445.404 385.602 445.194C386.777 443.404 387.743 441.348 386.806 439.068C386.597 438.802 386.443 438.061 386.499 437.585C386.933 435.949 386.36 434.676 384.989 434.032C384.78 433.767 384.094 433.445 384.094 433.445C383.787 431.962 382.151 431.528 381.787 430.521C381.521 430.731 381.312 430.465 381.312 430.465C379.241 431.668 379.241 431.668 377.885 428.856Z" fill="#D9D9D9"/>
<path d="M311.094 381.933C310.716 383.094 309.863 384.199 310.702 385.262C310.911 385.528 310.855 386.003 310.59 386.213C309.987 389.276 311.455 391.137 313.189 392.787C314.085 393.375 315.245 393.753 315.818 395.026C316.028 395.291 316.504 395.347 316.77 395.138C317.777 394.774 318.994 394.676 320.155 395.054C320.63 395.11 321.106 395.166 321.372 394.956C323.12 394.439 324.659 393.656 325.988 392.607C326.52 392.188 327.051 391.768 327.373 391.083C327.961 390.188 328.283 389.502 328.871 388.607C329.402 388.188 329.514 387.237 329.361 386.495C328.997 385.488 328.634 384.481 328.956 383.796C329.124 382.369 329.026 381.152 327.712 380.033C327.292 379.501 326.873 378.97 326.454 378.438C326.034 377.907 325.405 377.109 324.72 376.788C324.51 376.522 323.559 376.41 323.083 376.354C322.132 376.242 321.181 376.13 320.496 375.808C318.649 375.108 316.691 375.36 315.362 376.409C313.921 378.409 312.326 379.667 311.094 381.933Z" fill="#D9D9D9"/>
<path d="M514.872 401.837C514.187 401.515 513.236 401.403 512.55 401.081C511.445 400.228 510.55 399.64 509.012 400.423C508.746 400.633 508.326 400.101 507.851 400.045C507.641 399.78 507.165 399.724 507.165 399.724C506.368 400.353 505.683 400.031 504.732 399.919C504.256 399.863 503.249 400.227 502.717 400.646C502.451 400.856 501.864 401.751 502.073 402.017C502.646 403.29 501.317 404.339 501.625 405.821C500.086 406.604 501.344 408.199 500.757 409.094C500.491 409.304 500.91 409.835 500.91 409.835C501.539 410.633 501.693 411.374 501.371 412.059C501.315 412.535 501.525 412.801 501.944 413.332C502.364 413.864 502.839 413.92 502.993 414.661C503.413 415.193 503.622 415.458 504.308 415.78C504.783 415.836 504.993 416.102 505.203 416.368C506.042 417.431 507.468 417.599 508.685 417.501C509.161 417.557 510.112 417.669 510.587 417.725C511.273 418.047 511.539 417.837 512.07 417.418C512.658 416.523 513.721 415.684 515.092 416.327L515.623 415.908C515.736 414.956 516.267 414.537 516.799 414.117C517.596 413.488 518.562 411.432 518.143 410.901C517.094 409.572 517.472 408.411 518.591 407.096C517.486 406.243 516.591 405.655 516.494 404.438C516.494 404.438 516.074 403.907 515.865 403.641C515.711 402.9 515.557 402.158 514.872 401.837Z" fill="#D9D9D9"/>
<path d="M337.944 242.137C338.685 241.984 339.846 242.361 340.378 241.942C341.175 241.313 342.182 240.949 342.714 240.529C344.043 239.481 345.162 238.166 345.596 236.53C346.408 233.732 346.004 231.033 344.116 228.641C343.011 227.787 341.906 226.934 340.536 226.29C340.06 226.234 339.375 225.913 339.109 226.122C338.368 226.276 337.626 226.43 337.207 225.898C336.521 225.577 336.046 225.521 335.724 226.206C335.136 227.101 334.339 227.73 333.178 227.353C332.968 227.087 332.437 227.506 332.38 227.982C331.205 229.772 329.344 231.24 330.225 233.996C329.581 235.367 330.21 236.164 330.783 237.437C330.937 238.178 331.3 239.185 331.72 239.717C333.51 240.892 335.244 242.543 337.944 242.137Z" fill="#D9D9D9"/>
<path d="M415.258 430.847C416.153 431.435 417.048 432.022 418.055 431.659C418.321 431.449 418.531 431.715 419.006 431.771C421.65 431.841 423.664 431.114 424.896 428.848C424.952 428.373 425.483 427.953 425.749 427.743C426.015 427.534 426.281 427.324 426.337 426.848C425.974 425.841 427.093 424.526 426.939 423.785C426.842 422.568 426.534 421.086 426.227 419.603C426.017 419.337 425.808 419.071 425.332 419.015C424.913 418.484 424.227 418.162 424.227 418.162C422.969 416.567 422.969 416.567 421.332 416.134C420.857 416.077 420.381 416.021 419.962 415.49C419.542 414.958 419.067 414.902 418.535 415.322C418.269 415.532 417.738 415.951 417.528 415.685C416.577 415.573 416.045 415.993 415.514 416.413C415.248 416.622 414.506 416.776 414.24 416.986C413.709 417.405 413.233 417.349 412.911 418.035C411.47 420.035 410.504 422.091 411.175 424.58C411.385 424.846 411.329 425.322 411.063 425.532C410.951 426.483 411.37 427.014 412 427.812C412.209 428.077 412.629 428.609 412.838 428.875C413.677 429.938 414.629 430.05 415.258 430.847Z" fill="#D9D9D9"/>
<path d="M194.573 298.78C194.839 298.57 195.105 298.361 195.58 298.417C196.322 298.263 196.909 297.368 197.231 296.682C198.197 294.626 199.219 292.095 198.073 289.549C197.919 288.808 197.765 288.067 197.136 287.269C196.716 286.738 196.507 286.472 196.087 285.94C195.192 285.353 194.507 285.031 193.878 284.234C193.668 283.968 193.248 283.436 192.983 283.646C191.5 283.954 190.339 283.576 189.178 283.198C188.703 283.142 188.227 283.086 187.695 283.505C186.898 284.135 186.157 284.289 185.359 284.918L185.093 285.128C182.701 287.016 182.84 289.925 182.294 292.512C182.238 292.988 182.447 293.254 182.657 293.52C183.286 294.317 183.44 295.058 184.069 295.856C184.698 296.653 185.118 297.184 186.013 297.772C188.642 300.01 191.705 300.612 194.573 298.78Z" fill="#D9D9D9"/>
<path d="M477.211 324.593C478.218 324.23 478.694 324.286 479.379 324.608C480.54 324.985 481.435 325.573 482.386 325.685C485.183 326.497 488.205 325.406 489.492 322.665C490.08 321.77 490.192 320.819 490.304 319.867C490.585 317.49 489.858 315.475 487.858 314.035C485.858 312.594 484.012 311.894 481.732 312.831C479.983 313.348 478.92 314.187 478.276 315.558C478.01 315.768 477.745 315.977 477.689 316.453C476.584 315.6 475.367 315.697 474.36 316.061C471.87 316.732 470.75 318.047 471.155 320.746C470.763 324.075 474.399 325.95 477.211 324.593Z" fill="#D9D9D9"/>
<path d="M382.819 387.006C383.07 388.964 383.797 390.979 385.853 391.944C386.063 392.21 386.538 392.266 386.748 392.532C387.587 393.595 388.748 393.972 390.021 393.399C390.286 393.189 390.972 393.511 391.447 393.567C391.923 393.623 392.133 393.889 392.398 393.679C393.196 393.05 393.993 392.421 394.945 392.533C395.21 392.323 395.476 392.113 395.742 391.903C396.33 391.008 396.652 390.323 397.449 389.694C397.981 389.274 398.303 388.589 398.149 387.847C398.205 387.372 398.051 386.63 398.107 386.155C397.8 384.672 397.759 382.98 396.5 381.385C394.613 378.993 392.081 377.972 389.116 378.587C388.108 378.95 387.255 380.055 385.828 379.887L385.562 380.097C383.17 381.985 382.414 384.307 382.819 387.006Z" fill="#D9D9D9"/>
<path d="M71.0985 470.835C72.5812 470.528 74.2177 470.961 74.8615 469.591C79.3243 466.5 78.934 461.633 77.0463 459.241C73.4807 454.722 69.5641 455.225 65.8987 457.687C63.5624 459.099 62.3578 465.225 64.0357 467.352C64.8747 468.415 65.9795 469.268 66.8184 470.331C68.3012 470.024 69.3499 471.353 71.0985 470.835Z" fill="#D9D9D9"/>
<path d="M297.866 397.975C296.747 399.29 295.417 400.339 295.669 402.297L295.613 402.772C294.913 404.619 296.171 406.213 296.478 407.696L296.688 407.962C297.583 408.549 298.003 409.081 298.898 409.668C300.212 410.787 301.849 411.221 303.331 410.914C304.814 410.606 306.507 410.564 307.416 408.984C307.738 408.299 308.48 408.145 309.277 407.516C309.389 406.565 309.292 405.348 309.879 404.453C310.145 404.243 309.992 403.501 309.782 403.236C310.006 401.333 308.216 400.158 307.699 398.41L307.489 398.144C305.853 397.71 304.804 396.381 302.902 396.157C300.734 396.143 298.985 396.66 297.866 397.975Z" fill="#D9D9D9"/>
<path d="M210.684 497.398C209.355 498.447 207.872 498.755 207.438 500.391C207.382 500.867 207.116 501.077 206.85 501.286C206.053 501.916 206.15 503.133 206.304 503.874C206.458 504.615 206.877 505.147 207.031 505.888C208.121 508.91 210.652 509.931 213.128 511.428C213.337 511.694 213.869 511.274 214.345 511.33C215.086 511.176 215.352 510.966 216.093 510.813C216.359 510.603 217.044 510.925 217.1 510.449C218.22 509.135 219.339 507.82 220.249 506.239C221.48 503.974 220.544 501.694 219.551 499.889C218.293 498.295 216.978 497.175 215.342 496.742C213.705 496.308 212.279 496.14 210.684 497.398Z" fill="#D9D9D9"/>
<path d="M219.19 435.479C219.875 435.801 220.351 435.857 220.883 435.437C221.414 435.017 222.212 434.388 222.687 434.444C223.638 434.556 224.17 434.137 224.492 433.451C224.814 432.766 225.611 432.137 225.933 431.451C226.689 429.13 225.962 427.115 224.76 425.045C224.341 424.514 223.921 423.982 223.236 423.66C222.341 423.073 221.18 422.695 220.229 422.583C218.326 422.359 216.578 422.876 215.039 423.659C214.773 423.869 214.507 424.079 214.242 424.289C213.276 426.344 211.835 428.344 213.456 430.946C214.239 432.485 214.966 434.499 217.344 434.779C217.82 434.835 218.505 435.157 219.19 435.479Z" fill="#D9D9D9"/>
<path d="M238.755 467.916C238.923 466.49 238.882 464.797 238.575 463.314C238.001 462.042 237.638 461.034 236.211 460.866C235.736 460.81 235.05 460.489 234.841 460.223C234.155 459.901 233.68 459.845 232.938 459.999C232.463 459.943 232.197 460.153 231.512 459.831C231.036 459.775 230.561 459.719 230.295 459.929C230.029 460.138 229.288 460.292 229.022 460.502C228.015 460.865 227.427 461.76 227.315 462.712C227.203 463.663 226.881 464.348 226.769 465.299C226.712 465.775 226.447 465.984 226.656 466.25C227.23 467.523 227.537 469.006 228.11 470.279C229.005 470.866 229.634 471.664 230.795 472.041C233.48 473.804 238.306 471.721 238.755 467.916Z" fill="#D9D9D9"/>
<path d="M497.853 392.839C500.063 394.546 502.44 394.826 504.777 393.414C508.442 390.952 508.835 387.624 506.793 384.49C505.018 381.147 499.731 381.007 497.338 382.895C496.065 383.468 495.631 385.104 495.463 386.531C494.917 389.118 496.119 391.189 497.853 392.839Z" fill="#D9D9D9"/>
<path d="M421.902 331.58C419.985 333.524 419.649 336.377 421.327 338.503C423.215 340.895 426.278 341.497 428.404 339.819C429.733 338.77 429.943 339.036 431.901 338.784C433.86 338.533 434.979 337.218 434.252 335.204C433.889 334.197 433.26 333.4 431.833 333.232C431.357 333.176 430.672 332.854 429.987 332.532C429.679 331.049 428.253 330.881 427.358 330.294C425.777 329.384 423.819 329.636 422.28 330.419C422.168 331.37 422.168 331.37 421.902 331.58Z" fill="#D9D9D9"/>
<path d="M282.817 402.953C282.383 404.59 282.956 405.863 283.795 406.926C285.683 409.318 289.697 410.032 291.614 408.088C292.677 407.249 293.321 405.878 293.433 404.927C293.923 402.815 293.406 401.066 291.882 399.682C291.252 398.884 289.672 397.975 288.455 398.073C287.238 398.17 285.602 397.737 284.692 399.317C283.097 400.576 283.097 400.576 282.817 402.953Z" fill="#D9D9D9"/>
<path d="M316.176 255.001C317.659 254.694 318.988 253.645 319.841 252.54C320.961 251.225 321.185 249.323 320.458 247.309C319.941 245.56 318.305 245.127 317.256 243.798C315.41 243.098 313.452 243.35 312.066 244.874C309.618 247.237 309.225 250.566 311.323 253.224C312.581 254.819 314.218 255.253 316.176 255.001Z" fill="#D9D9D9"/>
<path d="M264.591 250.856C266.423 253.724 270.074 253.43 271.935 251.962C274.327 250.074 274.663 247.221 272.776 244.829C270.888 242.437 267.559 242.045 265.223 243.457C263.362 244.925 262.648 248.94 264.591 250.856Z" fill="#D9D9D9"/>
<path d="M390.753 260.411C391.341 259.516 391.719 258.355 392.097 257.194C391.677 256.662 391.524 255.921 391.104 255.389C388.587 252.2 384.573 251.486 381.956 255.276C379.871 258.647 381.171 261.934 384.864 263.333C386.976 263.823 389.522 262.676 390.753 260.411Z" fill="#D9D9D9"/>
<path d="M419.153 401.892C418.887 402.101 418.412 402.045 418.146 402.255C416.285 403.724 415.836 407.528 417.305 409.388C418.717 411.724 421.458 413.012 425.123 410.55C425.389 410.341 425.921 409.921 426.187 409.711C426.565 408.55 427.208 407.18 427.111 405.963C427.069 404.27 426.021 402.942 424.706 401.822C423.601 400.969 422.44 400.591 420.902 401.374C420.16 401.528 419.685 401.472 419.153 401.892Z" fill="#D9D9D9"/>
<path d="M279.422 388.813C279.688 388.603 280.01 387.917 280.066 387.442C280.766 385.596 281.032 385.386 282.934 385.61C285.312 385.89 287.382 384.687 288.348 382.631C288.67 381.946 288.992 381.261 289.314 380.575C290.223 378.995 289.65 377.722 288.014 377.288C286.853 376.91 285.636 377.008 284.475 376.63C283.314 376.253 282.097 376.35 281.244 377.455C279.705 378.238 279.327 379.399 279.634 380.882C279.788 381.623 279.41 382.784 279.088 383.469C278.654 385.106 278.695 386.798 278.527 388.225C278.737 388.491 278.947 388.757 279.156 389.022C278.891 389.232 279.157 389.022 279.422 388.813Z" fill="#D9D9D9"/>
<path d="M366.782 467.808C365.313 465.947 362.194 465.821 360.809 467.346C358.417 469.233 358.402 471.401 360.234 474.269C361.492 475.864 364.877 475.78 366.472 474.522C368.123 472.787 368.516 469.458 366.782 467.808Z" fill="#D9D9D9"/>
<path d="M323.954 505.919C325.269 507.038 327.913 507.108 329.507 505.85C329.773 505.64 330.095 504.955 330.627 504.535C331.48 503.43 331.593 502.479 330.754 501.416C330.544 501.15 330.334 500.884 330.18 500.143C328.978 498.073 325.23 497.149 323.257 499.569C322.501 501.891 322.22 504.268 323.954 505.919Z" fill="#D9D9D9"/>
<path d="M395.501 357.158C397.096 355.899 397.489 352.57 396.44 351.241C394.287 349.059 391.853 349.255 390.258 350.513C388.397 351.982 388.326 354.625 389.795 356.486C391.263 358.346 393.375 358.836 395.501 357.158Z" fill="#D9D9D9"/>
<path d="M239.212 218.696C241.073 217.227 241.619 214.64 239.941 212.514C238.683 210.919 235.62 210.317 234.291 211.366C231.632 213.464 231.828 215.897 233.086 217.492C235.393 220.416 237.617 219.954 239.212 218.696Z" fill="#D9D9D9"/>
<path d="M459.978 331.725C462.104 330.047 462.595 327.935 460.917 325.809C459.449 323.948 457.127 323.193 455.266 324.661C453.405 326.129 452.859 328.717 454.327 330.577C455.53 332.648 458.383 332.984 459.978 331.725Z" fill="#D9D9D9"/>
<path d="M495.92 349.939C497.514 348.681 497.851 345.827 496.592 344.233C495.124 342.372 492.537 341.826 490.41 343.504C488.549 344.973 488.479 347.616 489.737 349.211C491.205 351.072 494.059 351.408 495.92 349.939Z" fill="#D9D9D9"/>
<path d="M299.788 545.258C297.928 546.727 297.647 549.105 299.115 550.965C300.374 552.56 302.752 552.84 304.347 551.581C306.207 550.113 306.432 548.21 305.02 545.874C303.817 543.804 301.649 543.79 299.788 545.258Z" fill="#D9D9D9"/>
<path d="M401.248 304.318C399.989 302.723 397.611 302.443 396.016 303.702C394.421 304.96 394.407 307.128 395.665 308.723C396.924 310.318 399.302 310.598 400.896 309.339C402.016 308.024 402.296 305.647 401.248 304.318Z" fill="#D9D9D9"/>
<path d="M276.366 261.403C275.036 262.452 274.756 264.83 275.805 266.159C276.853 267.487 279.231 267.767 280.56 266.719C281.889 265.67 282.436 263.082 281.387 261.753C280.758 260.956 277.751 259.879 276.366 261.403Z" fill="#D9D9D9"/>
<path d="M352.886 293.316C353.934 294.645 356.103 294.659 357.432 293.61C359.027 292.352 359.041 290.184 357.783 288.589C356.734 287.26 354.356 286.98 353.237 288.295C351.852 289.819 351.837 291.987 352.886 293.316Z" fill="#D9D9D9"/>
<path d="M232.143 444.236C230.814 445.285 230.534 447.663 231.582 448.992C232.841 450.587 234.533 450.545 236.338 449.552C237.667 448.503 237.892 446.601 236.633 445.006C235.375 443.412 233.472 443.188 232.143 444.236Z" fill="#D9D9D9"/>
<path d="M239.946 455.761C239.624 456.447 238.882 456.601 238.77 457.552C238.924 458.293 238.812 459.244 238.699 460.195C238.797 461.412 239.273 461.468 240.07 460.839C240.602 460.419 241.077 460.475 241.553 460.531C242.77 460.433 243.777 460.07 244.365 459.175C245.008 457.804 244.491 456.056 243.596 455.468C242.967 454.671 241.275 454.713 239.946 455.761Z" fill="#D9D9D9"/>
<path d="M61.0844 363.58C62.1476 362.74 62.372 360.838 61.3233 359.509C60.4843 358.446 58.1065 358.166 57.2529 359.271C56.1897 360.11 55.9653 362.012 57.014 363.341C57.853 364.404 59.7553 364.628 61.0844 363.58Z" fill="#D9D9D9"/>
<path d="M185.619 442.133C186.683 441.294 186.963 438.916 186.124 437.853C185.285 436.79 183.383 436.566 182.054 437.615C180.725 438.664 180.766 440.356 181.815 441.685C182.92 442.538 184.556 442.972 185.619 442.133Z" fill="#D9D9D9"/>
<path d="M487.897 370.934C488.736 371.997 490.372 372.431 491.702 371.382C493.031 370.333 493.199 368.907 492.15 367.578C491.311 366.515 489.409 366.291 488.346 367.13C487.017 368.179 487.058 369.871 487.897 370.934Z" fill="#D9D9D9"/>
<path d="M210.444 250.023C211.507 249.184 211.731 247.282 210.892 246.219C210.053 245.155 208.417 244.722 207.088 245.77C206.025 246.61 205.591 248.246 206.43 249.309C207.478 250.638 209.38 250.862 210.444 250.023Z" fill="#D9D9D9"/>
<path d="M416.998 352.702C417.796 352.072 418.118 351.387 418.915 350.758C418.286 349.96 417.867 349.429 417.447 348.897C416.818 348.1 415.867 347.988 414.86 348.351C414.118 348.505 413.321 349.134 413.209 350.086C413.096 351.037 413.25 351.778 414.145 352.366C415.04 352.953 416.467 353.121 416.998 352.702Z" fill="#D9D9D9"/>
<path d="M253.09 458.757C253.412 458.072 253.734 457.387 253.104 456.589C252.741 455.582 251.902 454.519 251.539 453.512C251.119 452.98 250.91 452.715 250.168 452.868C249.427 453.022 249.105 453.708 249.315 453.973C249.622 455.456 250.139 457.204 250.446 458.687C251.019 459.96 252.502 459.652 253.09 458.757Z" fill="#D9D9D9"/>
<path d="M237.398 503.921C237.189 503.655 236.979 503.389 236.503 503.333C235.399 502.48 233.972 502.312 233.118 503.417C232.055 504.256 232.362 505.738 233.201 506.801C233.621 507.333 235.257 507.767 235.523 507.557C236.321 506.928 237.118 506.298 237.44 505.613C238.028 504.718 238.084 504.242 237.398 503.921Z" fill="#D9D9D9"/>
<path d="M269.971 213.399C271.034 212.56 271.468 210.923 270.42 209.594C269.791 208.797 268.154 208.363 267.357 208.993C266.293 209.832 265.859 211.468 266.698 212.531C267.271 213.804 268.698 213.972 269.971 213.399Z" fill="#D9D9D9"/>
<path d="M252.522 449.288C252.788 449.078 253.11 448.392 253.166 447.917C253.068 446.7 252.705 445.693 252.341 444.686C252.132 444.42 251.712 443.888 251.236 443.832C250.761 443.776 250.229 444.196 249.963 444.406C249.376 445.301 249.264 446.252 248.942 446.937C248.564 448.098 249.193 448.895 250.088 449.483C251.193 450.336 251.78 449.441 252.522 449.288Z" fill="#D9D9D9"/>
<path d="M363.776 292.913C364.573 292.283 365.008 290.647 364.169 289.584C363.539 288.787 361.637 288.563 360.84 289.192C360.042 289.821 359.818 291.723 360.447 292.521C361.02 293.794 362.447 293.962 363.776 292.913Z" fill="#D9D9D9"/>
<path d="M388.655 368.166C389.452 367.536 389.886 365.9 389.257 365.103C388.628 364.305 387.201 364.137 386.404 364.767C385.606 365.396 385.438 366.823 386.277 367.886C386.697 368.417 387.857 368.795 388.655 368.166Z" fill="#D9D9D9"/>
<path d="M550.719 449.452L550.453 449.662C550.816 450.669 550.914 451.886 551.068 452.628C551.487 453.159 551.697 453.425 551.963 453.215C552.438 453.271 553.124 453.593 553.389 453.383C553.655 453.173 553.711 452.698 553.767 452.222C553.767 452.222 553.558 451.957 553.824 451.747C553.46 450.74 551.46 449.299 550.719 449.452Z" fill="#D9D9D9"/>
<path d="M227.318 493.329C227.318 493.329 227.262 493.805 227.738 493.861C229.318 494.77 230.647 493.721 232.074 493.889C232.34 493.68 232.13 493.414 232.396 493.204C232.186 492.938 231.976 492.672 231.767 492.407C230.606 492.029 229.123 492.336 227.64 492.644C227.584 493.119 227.318 493.329 227.318 493.329Z" fill="#D9D9D9"/>
<path d="M452.528 345.794C453.06 345.374 453.228 343.948 452.543 343.626C452.124 343.094 451.172 342.982 450.375 343.612C449.843 344.031 449.731 344.982 450.151 345.514C450.78 346.311 451.731 346.423 452.528 345.794Z" fill="#D9D9D9"/>
<path d="M626.108 366.239C625.325 364.7 624.542 363.161 623.969 361.889C623.969 361.889 623.76 361.623 623.494 361.832L623.438 362.308C624.011 363.581 624.584 364.854 624.891 366.336C625.045 367.078 625.408 368.085 626.303 368.673C626.681 367.512 626.262 366.98 626.108 366.239Z" fill="#D9D9D9"/>
<path d="M165.968 439.096C166.5 438.677 166.612 437.725 166.192 437.194C165.773 436.662 164.822 436.55 164.29 436.97C163.759 437.389 163.646 438.341 164.066 438.872C164.695 439.669 165.646 439.781 165.968 439.096Z" fill="#D9D9D9"/>
<path d="M275.763 358.487C275.343 357.955 274.392 357.843 273.86 358.263C273.329 358.682 273.482 359.424 273.902 359.955C274.321 360.487 275.272 360.599 275.804 360.179C276.07 359.969 276.182 359.018 275.763 358.487Z" fill="#D9D9D9"/>
<path d="M272.042 220.393C272.63 219.498 272.798 218.072 272.169 217.274C271.959 217.009 271.483 216.952 271.217 217.162C270.63 218.057 270.461 219.484 271.091 220.281C271.3 220.547 271.51 220.813 272.042 220.393C271.776 220.603 271.776 220.603 272.042 220.393Z" fill="#D9D9D9"/>
<path d="M309.571 427.559C309.571 427.559 309.627 427.084 309.417 426.818C309.207 426.552 308.942 426.762 308.942 426.762C307.669 427.335 306.871 427.965 306.703 429.391C308.605 429.615 309.137 429.196 309.571 427.559Z" fill="#D9D9D9"/>
<path d="M300.044 475.618C299.457 476.513 298.659 477.142 298.813 477.884L299.498 478.205C300.086 477.31 300.674 476.415 301.471 475.786L301.052 475.254C300.576 475.198 300.31 475.408 300.044 475.618Z" fill="#D9D9D9"/>
<path d="M493.941 360.557C494.472 360.137 494.584 359.186 494.165 358.655C493.745 358.123 493.27 358.067 492.738 358.487C492.207 358.906 491.885 359.592 492.304 360.123C492.724 360.655 493.409 360.976 493.941 360.557Z" fill="#D9D9D9"/>
<path d="M350.385 263.371C350.973 262.475 351.351 261.315 351.463 260.363C351.463 260.363 351.253 260.098 350.778 260.042C349.924 261.147 349.336 262.042 349.434 263.259C349.434 263.259 349.644 263.524 349.854 263.79C349.91 263.315 350.385 263.371 350.385 263.371Z" fill="#D9D9D9"/>
<path d="M498.138 200.251C498.389 202.209 498.696 203.692 500.011 204.811C500.179 203.384 499.606 202.111 498.138 200.251Z" fill="#D9D9D9"/>
<path d="M541.339 445.211C541.856 446.959 542.905 448.288 543.744 449.351C542.5 445.589 542.5 445.589 541.339 445.211Z" fill="#D9D9D9"/>
<path d="M465.394 265.342C465.394 265.342 465.925 264.922 465.716 264.657C465.562 263.915 465.142 263.384 464.989 262.642C464.513 262.586 464.513 262.586 464.038 262.53C464.038 262.53 463.772 262.74 463.716 263.216C463.869 263.957 464.023 264.698 464.443 265.23C464.708 265.02 465.128 265.552 465.394 265.342Z" fill="#D9D9D9"/>
<path d="M568.409 366.917C568.899 364.805 568.116 363.266 567.333 361.727C567.375 363.42 567.416 365.112 568.409 366.917Z" fill="#D9D9D9"/>
<path d="M321.503 571.684C321.35 570.943 321.14 570.677 320.721 570.145C320.511 569.879 320.511 569.879 320.301 569.614L319.56 569.767C319.713 570.509 319.867 571.25 320.021 571.991C320.174 572.733 320.86 573.055 321.601 572.901C321.657 572.425 321.713 571.95 321.503 571.684Z" fill="#D9D9D9"/>
<path d="M270.101 406.518C270.688 405.623 270.325 404.615 269.961 403.608C269.752 403.342 269.752 403.342 269.486 403.552C269.22 403.762 268.954 403.972 268.954 403.972C268.842 404.923 268.996 405.664 268.884 406.615L269.303 407.147C269.569 406.937 269.835 406.727 270.101 406.518Z" fill="#D9D9D9"/>
<path d="M349.514 133.81C349.416 132.593 348.731 132.271 347.57 131.893C347.668 133.11 348.031 134.117 348.982 134.229C349.458 134.285 349.724 134.075 349.514 133.81Z" fill="#D9D9D9"/>
<path d="M609.96 353.969L609.751 353.703L609.485 353.913C609.373 354.864 609.26 355.815 609.414 356.556L609.89 356.612C610.002 355.661 610.324 354.976 609.96 353.969Z" fill="#D9D9D9"/>
<path d="M312.846 569.46C312.272 568.188 311.377 567.6 309.741 567.166C310.524 568.705 311.419 569.292 312.846 569.46Z" fill="#D9D9D9"/>
<path d="M440.73 182.159C441.318 181.264 440.423 180.676 440.269 179.935C440.269 179.935 440.059 179.669 439.793 179.879C439.625 181.305 439.779 182.047 440.73 182.159Z" fill="#D9D9D9"/>
</g>
<defs>
<clipPath id="clip0">
<rect width="471.369" height="360.645" fill="white" transform="translate(642.441 383.108) rotate(141.721)"/>
</clipPath>
</defs>
</svg>
