<svg width="950" height="850" viewBox="0 0 950 850" fill="none" xmlns="http://www.w3.org/2000/svg">
<g clip-path="url(#clip0)">
<path d="M477.445 663.3C477.877 663.094 477.99 662.775 478.103 662.456C478.33 661.818 477.599 660.84 476.961 660.614C476.641 660.5 476.641 660.5 476.322 660.387C474.088 659.595 473.584 657.979 475.015 655.972C475.128 655.652 475.56 655.447 475.673 655.128C475.92 653.419 476.991 653.439 478.38 653.573L478.494 653.254C476.486 651.823 476.599 651.504 478.555 650.043L478.987 649.837C479.533 649.312 479.759 648.674 479.234 648.128C478.617 646.831 478.205 645.967 478.771 644.371C478.884 644.052 478.678 643.62 478.791 643.301C478.266 642.755 478.493 642.117 478.719 641.479C479.059 640.522 478.534 639.976 477.463 639.956L477.031 640.161C475.96 640.141 475.116 639.482 474.498 638.185C474.405 637.434 474.519 637.115 475.816 636.497L476.248 636.291C477.113 635.88 477.545 635.674 477.884 634.716C478.224 633.759 479.593 634.963 479.933 634.006C481.25 632.318 482.959 632.565 484.555 633.131C485.193 633.358 485.626 633.152 486.49 632.74C488.446 631.279 489.764 629.59 491.925 628.561C492.79 628.149 493.016 627.511 492.924 626.76C492.831 626.008 493.057 625.37 493.809 625.278C494.787 624.547 494.581 624.115 494.169 623.25C493.757 622.385 493.983 621.747 494.735 621.655C494.735 621.655 494.848 621.335 494.961 621.016C494.436 620.471 493.798 620.244 493.705 619.493C493.613 618.742 493.52 617.99 494.179 617.146C494.292 616.827 494.518 616.189 494.95 615.983C494.631 615.87 494.312 615.757 493.993 615.643C493.242 615.736 492.717 615.191 492.624 614.439C492.644 613.369 492.552 612.617 491.275 612.164C490.956 612.051 491.069 611.732 490.75 611.619C490.451 610.435 488.516 610.826 488.331 609.324L488.011 609.21C487.147 609.622 486.303 608.963 485.778 608.418C485.139 608.191 484.388 608.284 483.75 608.057C483.111 607.831 482.473 607.605 481.608 608.016C481.176 608.222 480.311 608.634 479.992 608.521C478.716 608.068 477.851 608.48 476.461 608.346C475.391 608.325 474.958 608.531 474.506 609.807C473.939 611.403 473.507 611.609 471.592 610.929C470.635 610.59 470.203 610.795 470.069 612.185C470.162 612.936 470.048 613.256 469.822 613.894C469.369 615.17 468.185 615.469 467.135 614.377C466.929 613.945 466.723 613.513 466.518 613.081C466.198 612.967 465.992 612.535 465.879 612.854C465.56 612.741 465.334 613.379 465.22 613.698C464.994 614.336 465.313 614.45 465.838 614.995C466.682 615.654 467.094 616.518 466.642 617.795C466.415 618.433 466.621 618.865 467.692 618.886C468.443 618.793 468.649 619.225 468.742 619.977C468.515 620.615 468.402 620.934 467.764 620.708C467.445 620.594 466.693 620.687 466.374 620.574L465.942 620.78C465.829 621.099 466.148 621.212 466.035 621.531C466.354 621.644 466.673 621.758 466.992 621.871C467.63 622.097 467.836 622.53 467.61 623.168C467.383 623.806 466.838 624.331 466.405 624.537C465.973 624.743 465.541 624.948 464.789 625.041C465.726 626.451 466.704 625.72 467.661 626.06C468.073 626.925 468.485 627.789 468.578 628.541C467.919 629.385 467.26 630.229 466.19 630.208C465.119 630.188 464.687 630.393 464.028 631.237C463.483 631.762 462.731 631.855 462.319 630.99C461.907 630.126 461.815 629.374 462.36 628.849C462.906 628.325 463.132 627.686 463.039 626.935C463.173 625.545 463.307 624.156 463.44 622.766C463.348 622.015 462.936 621.15 462.411 620.605C461.886 620.059 460.815 620.039 460.27 620.564C459.724 621.089 459.93 621.521 460.136 621.953C460.342 622.385 460.548 622.818 460.641 623.569C460.939 624.753 460.28 625.597 459.735 626.122C458.87 626.534 458.345 625.988 457.82 625.442C457.501 625.329 457.501 625.329 457.182 625.216C456.863 625.103 456.43 625.309 456.43 625.309C455.772 626.153 454.681 627.203 454.341 628.16C453.888 629.436 453.116 630.599 452.138 631.33C451.613 630.785 451.088 630.239 450.882 629.807C450.563 629.694 449.812 629.786 450.018 630.218C449.904 630.538 450.11 630.97 450.11 630.97C450.388 633.224 449.39 635.025 448.073 636.713C447.753 636.6 447.434 636.487 447.548 636.168C447.228 636.055 446.909 635.941 446.703 635.509C445.859 634.85 444.789 634.83 444.243 635.355C443.697 635.88 443.358 636.837 444.089 637.815C444.614 638.36 444.387 638.998 443.636 639.091C442.771 639.503 442.133 639.276 442.154 638.206C441.948 637.774 441.742 637.341 441.423 637.228C441.103 637.115 440.465 636.888 439.94 636.343C440.053 636.024 440.28 635.386 440.712 635.18C440.938 634.542 441.052 634.223 440.3 634.315C438.797 634.5 438.066 633.523 438.087 632.452C437.788 631.268 437.15 631.042 436.625 630.496C435.142 629.611 434.092 628.52 432.27 628.592L431.951 628.479C431.107 627.82 430.149 627.481 429.172 628.211L428.739 628.417C427.782 628.078 426.505 627.625 425.527 628.356C425.527 628.356 425.208 628.242 424.889 628.129C424.251 627.903 423.499 627.995 422.954 628.52C422.521 628.726 422.089 628.932 421.657 629.138C420.792 629.55 420.36 629.755 419.629 628.778C418.579 627.687 417.189 627.553 415.892 628.17C414.595 628.788 414.255 629.745 414.441 631.248C414.441 631.248 414.441 631.248 414.328 631.567C414.307 632.637 413.762 633.162 412.897 633.574C412.465 633.78 411.507 633.44 411.62 633.121C411.734 632.802 411.528 632.37 411.641 632.051C411.867 631.413 411.661 630.98 411.136 630.435C410.086 629.344 409.015 629.323 407.718 629.941C407.286 630.147 406.421 630.558 405.989 630.764C404.599 630.63 403.21 630.497 401.614 629.93C400.337 629.478 400.132 629.045 401.017 627.563C401.13 627.244 401.13 627.244 401.243 626.925C401.583 625.968 401.058 625.422 400.1 625.082C399.03 625.062 398.484 625.587 398.35 626.976C398.443 627.728 398.742 628.911 398.309 629.117C397.764 629.642 396.807 629.303 396.055 629.395C396.055 629.395 396.055 629.395 395.736 629.282C394.871 629.694 393.914 629.354 393.502 628.489C393.09 627.625 392.678 626.76 391.834 626.101C391.628 625.669 391.422 625.237 390.784 625.01C390.465 624.897 389.827 624.671 389.713 624.99C388.849 625.402 388.828 626.472 389.672 627.131C389.992 627.244 390.197 627.676 390.836 627.903C391.793 628.242 392.205 629.107 392.298 629.858C392.39 630.61 392.164 631.248 391.299 631.66C390.435 632.071 389.683 632.164 388.613 632.143C388.18 632.349 387.429 632.442 387.316 632.761C386.657 633.605 386.019 633.379 385.494 632.833C384.855 632.607 384.33 632.061 384.124 631.629C383.599 631.083 382.755 630.425 381.571 630.723C381.777 631.155 381.664 631.474 381.983 631.588C382.508 632.133 383.466 632.473 383.991 633.018C384.629 633.245 385.154 633.79 385.792 634.017C386.43 634.243 386.523 634.995 385.978 635.52C385.206 636.683 384.321 638.165 383.549 639.328C382.385 638.556 381.428 638.216 380.584 637.558C380.357 638.196 380.563 638.628 381.201 638.855C383.528 640.399 382.736 642.632 383.014 644.886C382.901 645.205 382.787 645.524 382.355 645.73C381.923 645.936 381.058 646.348 381.583 646.893C381.995 647.758 382.427 647.552 383.179 647.46C383.179 647.46 383.498 647.573 383.611 647.254C384.363 647.161 384.568 647.593 385.094 648.139C385.299 648.571 385.505 649.003 385.711 649.436C386.01 650.619 385.897 650.939 384.713 651.237C383.097 651.741 382.551 652.266 382.737 653.769C382.829 654.521 382.922 655.272 382.696 655.91C382.469 656.548 382.243 657.186 381.491 657.279C380.194 657.897 380.061 659.286 380.679 660.583C381.204 661.129 381.296 661.88 381.935 662.106C382.779 662.765 382.985 663.198 383.077 663.949C382.964 664.268 383.057 665.019 383.263 665.452C384.539 665.905 385.723 665.606 386.454 666.584C387.298 667.243 388.369 667.263 389.007 667.49C390.171 668.262 390.716 667.737 391.694 667.006C391.807 666.687 392.446 666.913 392.765 667.027C394.7 666.635 396.748 665.925 397.222 663.578C397.448 662.94 397.994 662.415 398.107 662.096C398.333 661.458 398.127 661.026 398.035 660.274L398.148 659.955C398.693 659.43 398.487 658.998 397.962 658.452C396.799 657.68 397.684 656.198 396.953 655.22C396.953 655.22 397.066 654.901 397.18 654.582C397.612 654.376 397.725 654.057 398.158 653.851C399.022 653.44 399.341 653.553 399.753 654.418C400.577 656.147 400.783 656.579 402.718 656.188C403.47 656.095 403.902 655.889 404.54 656.116C404.859 656.229 405.611 656.136 405.93 656.25C407.865 655.859 408.956 654.809 409.522 653.213C410.088 651.618 410.654 650.022 411.22 648.427C411.447 647.789 411.879 647.583 412.404 648.128C413.248 648.787 413.547 649.971 413.846 651.155C414.391 650.63 414.824 650.424 415.256 650.218C415.688 650.012 416.007 650.125 416.213 650.558C416.738 651.103 417.263 651.649 417.356 652.4C417.562 652.832 417.017 653.357 416.79 653.995C416.677 654.315 416.564 654.634 416.45 654.953C420.62 655.354 422.256 653.779 422.524 651C422.524 651 422.637 650.681 422.956 650.794C424.871 651.474 424.871 651.474 426.374 651.288C426.693 651.402 427.125 651.196 427.331 651.628C428.608 652.081 428.608 652.081 429.266 651.237C430.697 649.23 433.271 649.065 435.278 650.496C436.442 651.268 436.421 652.338 436.401 653.409C437.79 653.543 438.768 652.812 439.427 651.968C440.086 651.124 440.837 651.031 441.795 651.371C442.433 651.597 443.277 652.256 443.802 652.801C444.327 653.347 444.533 653.779 443.761 654.942C443.648 655.261 443.535 655.581 443.741 656.013C444.06 656.126 444.266 656.558 444.266 656.558C443.813 657.835 444.317 659.451 442.588 660.274C442.156 660.48 442.156 660.48 441.723 660.686C441.837 660.367 441.837 660.367 441.631 659.934C441.764 658.545 441.353 657.68 440.601 657.773C439.85 657.866 438.872 658.596 438.851 659.667L438.738 659.986C438.718 661.056 439.881 661.828 440.951 661.849C442.135 661.55 443.638 661.365 444.822 661.067C445.893 661.087 446.644 660.995 447.602 661.334C448.765 662.106 449.084 662.219 448.631 663.496C448.292 664.453 447.839 665.729 448.57 666.707C448.57 666.707 448.343 667.345 447.911 667.551C447.479 667.757 447.159 667.644 446.727 667.85C446.295 668.056 445.955 669.013 446.48 669.558C447.324 670.217 448.282 670.557 449.352 670.577C450.104 670.485 450.876 669.322 450.351 668.776C449.414 667.366 449.754 666.409 450.206 665.132C450.453 663.424 450.886 663.218 452.914 663.578C454.509 664.144 456.218 664.391 457.814 664.957C458.452 665.184 459.409 665.524 460.161 665.431C460.254 666.182 460.233 667.253 460.326 668.004C460.738 668.869 460.83 669.62 461.129 670.804C461.109 671.874 461.953 672.533 462.704 672.44C463.456 672.348 463.795 671.391 463.497 670.207C463.497 670.207 463.497 670.207 463.61 669.888C463.198 669.023 463.424 668.385 463.97 667.86C464.402 667.654 464.629 667.016 464.536 666.265C464.237 665.081 464.783 664.556 465.648 664.144C466.512 663.733 467.377 663.321 468.242 662.909C469.539 662.291 469.539 662.291 470.815 662.744C470.928 662.425 470.836 661.674 470.949 661.355C471.062 661.036 471.814 660.943 472.133 661.056C473.09 661.396 473.615 661.941 474.573 662.281C475.098 662.827 475.623 663.372 476.148 663.918C476.806 663.074 477.126 663.187 477.445 663.3ZM439.921 648.55C438.963 648.211 437.78 648.509 437.913 647.12C437.728 645.617 438.067 644.66 439.364 644.042C440.229 643.63 440.661 643.424 440.044 642.128C439.838 641.695 440.27 641.489 440.589 641.603C440.908 641.716 441.433 642.261 441.866 642.055C442.185 642.169 442.617 641.963 443.369 641.87C443.009 643.898 442.443 645.493 442.196 647.202C441.743 648.478 441.31 648.684 439.921 648.55ZM471.029 634.799C469.659 633.595 467.858 632.596 466.169 631.279C466.715 630.754 467.26 630.229 467.693 630.023C468.671 629.292 469.103 629.086 470.266 629.858C471.11 630.517 471.636 631.062 472.48 631.721C472.027 632.998 471.368 633.842 471.029 634.799Z" fill="#D9D9D9"/>
<path d="M318.355 458.489C318.036 458.376 317.604 458.582 317.285 458.469C317.49 458.901 317.81 459.014 317.81 459.014C318.448 459.241 319.518 459.261 319.611 460.013C319.704 460.764 319.045 461.608 318.5 462.133C318.067 462.339 317.635 462.545 317.089 463.07C316.657 463.276 316.338 463.162 316.225 463.481C316.523 464.665 317.934 463.728 318.665 464.706C318.325 465.663 317.368 465.324 316.935 465.53C316.935 465.53 316.503 465.736 316.39 466.055C316.39 466.055 316.596 466.487 316.915 466.6C317.234 466.713 317.553 466.827 318.191 467.053C318.51 467.166 318.716 467.599 318.716 467.599C318.603 467.918 318.49 468.237 318.058 468.443C317.512 468.968 316.761 469.06 316.215 469.585L315.989 470.223C316.308 470.337 316.514 470.769 316.627 470.45C317.378 470.357 317.811 470.151 318.562 470.059C318.881 470.172 319.52 470.398 320.045 470.944C320.045 470.944 319.818 471.582 319.705 471.901C319.592 472.22 319.046 472.745 318.933 473.064C319.252 473.177 319.571 473.291 320.004 473.085C320.755 472.992 321.301 472.467 321.713 473.332C321.918 473.764 321.898 474.835 321.991 475.586C321.878 475.905 321.445 476.111 321.332 476.43C321.219 476.749 320.786 476.955 320.56 477.593C321.312 477.5 321.744 477.295 322.176 477.089C323.154 476.358 323.906 476.265 324.544 476.492C325.069 477.037 325.162 477.789 324.39 478.952C324.163 479.59 323.618 480.115 323.391 480.753L323.597 481.185C323.597 481.185 323.916 481.299 324.03 480.979C324.575 480.455 324.801 479.816 325.347 479.291C325.46 478.972 326.098 479.199 326.098 479.199C326.418 479.312 326.304 479.631 326.191 479.95C325.852 480.907 325.306 481.432 324.966 482.39C324.853 482.709 325.059 483.141 325.265 483.573C326.037 482.41 326.377 481.453 326.922 480.928C327.149 480.29 327.694 479.765 328.219 480.31C328.538 480.424 328.631 481.175 328.837 481.607C328.837 481.607 329.156 481.721 329.043 482.04C329.475 481.834 329.702 481.196 330.134 480.99C330.566 480.784 330.999 480.578 331.318 480.691C331.637 480.804 331.73 481.556 331.936 481.988L331.822 482.307C332.028 482.74 331.37 483.584 332.008 483.81C332.646 484.036 332.667 482.966 332.893 482.328C333.006 482.009 333.006 482.009 333.119 481.69C333.233 481.371 333.459 480.732 333.778 480.846C334.211 480.64 335.055 481.299 335.261 481.731C335.353 482.482 335.24 482.801 335.014 483.439C334.901 483.759 335.106 484.191 335.426 484.304C335.971 483.779 335.765 483.347 335.878 483.028C336.105 482.39 336.012 481.638 336.558 481.113C336.671 480.794 337.103 480.588 337.422 480.702C337.741 480.815 337.947 481.247 338.267 481.36C339.111 482.019 339.224 481.7 339.564 480.743C339.677 480.424 339.79 480.105 339.903 479.785C341.386 480.671 340.82 482.266 341.756 483.676C341.983 483.038 342.096 482.719 342.209 482.4C342.117 481.648 342.137 480.578 342.044 479.827C342.065 478.756 342.724 477.912 342.95 477.274C343.176 476.636 344.021 477.295 344.453 477.089C344.772 477.202 344.885 476.883 344.998 476.564C345.112 476.245 345.225 475.926 345.338 475.606C345.904 474.011 345.904 474.011 347.613 474.258C347.932 474.371 347.932 474.371 348.364 474.165C348.159 473.733 347.633 473.188 347.428 472.755C346.697 471.777 347.376 469.863 348.354 469.132C348.786 468.926 349.105 469.039 349.424 469.153C349.743 469.266 350.063 469.379 350.382 469.492C350.495 469.173 350.495 469.173 350.495 469.173C349.857 468.947 349.651 468.515 349.012 468.288C348.168 467.629 347.756 466.765 348.096 465.807C348.436 464.85 349.187 464.758 349.825 464.984C350.144 465.097 350.258 464.778 350.577 464.891C350.052 464.346 349.094 464.006 348.456 463.78C348.137 463.667 347.931 463.234 348.044 462.915C347.838 462.483 348.271 462.277 348.703 462.071C349.135 461.865 349.454 461.978 350 461.454C349.362 461.227 349.043 461.114 349.043 461.114C347.653 460.98 347.015 460.754 347.148 459.364C347.056 458.613 347.395 457.655 347.302 456.904C346.551 456.997 345.48 456.976 345.274 456.544C344.749 455.998 344.976 455.36 344.883 454.609C342.423 454.454 342.423 454.454 342.031 452.519C340.415 453.024 340.415 453.024 339.386 450.862C337.111 452.21 337.111 452.21 336.287 450.481L335.855 450.687L335.741 451.006C334.012 451.83 333.58 452.035 332.849 451.058C332.643 450.625 332.437 450.193 331.912 449.647C331.346 451.243 331.346 451.243 329.637 450.996C328.999 450.769 328.885 451.089 328.453 451.294C328.113 452.252 327.794 452.138 326.95 451.48C326.631 451.366 326.312 451.253 325.993 451.14C325.88 451.459 325.766 451.778 326.085 451.891C326.384 453.075 326.271 453.394 325.2 453.374C324.13 453.353 323.059 453.332 321.989 453.312C322.194 453.744 322.081 454.063 322.287 454.496C322.586 455.679 322.473 455.998 321.402 455.978C320.651 456.07 320.331 455.957 319.58 456.05C318.828 456.142 318.715 456.462 318.808 457.213C319.107 458.397 319.107 458.397 318.355 458.489Z" fill="#D9D9D9"/>
<path d="M493.772 716.515C493.041 715.537 493.061 714.466 493.401 713.509C493.627 712.871 493.535 712.12 492.896 711.893C491.939 711.553 491.095 710.895 491.229 709.505C491.342 709.186 491.023 709.073 491.136 708.754C490.724 707.889 490.518 707.457 489.447 707.436C489.128 707.323 488.696 707.529 488.377 707.416C487.625 707.508 487.306 707.395 486.894 706.531C486.277 705.234 485.638 705.007 484.135 705.192C483.384 705.285 482.746 705.059 481.994 705.151C481.243 705.244 480.604 705.017 480.172 705.223C478.968 706.592 477.259 706.345 476.168 707.395C475.736 707.601 475.622 707.92 475.509 708.239C474.624 709.721 473.739 711.204 473.173 712.799C472.833 713.756 472.607 714.394 473.019 715.259C473.75 716.237 474.048 717.421 473.276 718.584C472.937 719.541 473.029 720.292 473.874 720.951C474.811 722.361 476.293 723.246 477.23 724.657C477.549 724.77 477.755 725.202 478.074 725.315C479.258 725.017 480.102 725.676 481.265 726.448C482.017 726.355 482.768 726.262 483.201 726.056C484.065 725.645 484.93 725.233 485.887 725.573C486.845 725.912 487.277 725.706 487.617 724.749C487.956 723.792 488.502 723.267 489.573 723.288C490.324 723.195 490.437 722.876 490.983 722.351C492.3 720.663 492.66 718.635 493.659 716.834C494.184 717.379 493.978 716.947 493.772 716.515Z" fill="#D9D9D9"/>
<path d="M327.058 736.763C327.624 735.167 327.624 735.167 326.688 733.757C326.162 733.212 325.751 732.347 325.771 731.277C325.884 730.958 325.359 730.412 325.153 729.98C323.897 728.456 322.209 727.139 320.5 726.892C318.791 726.645 317.216 725.008 315.353 727.221C313.757 726.655 312.666 727.705 311.894 728.868L311.462 729.074C310.072 728.94 309.619 730.217 309.28 731.174C308.94 732.131 308.281 732.975 307.942 733.932C307.829 734.251 307.602 734.89 307.489 735.209C307.788 736.392 308.086 737.576 307.314 738.739C307.314 738.739 307.201 739.058 307.52 739.172C308.251 740.149 308.663 741.014 309.394 741.992C309.919 742.537 310.125 742.97 310.218 743.721C310.197 744.792 310.197 744.791 311.587 744.925C313.296 745.172 314.686 745.306 315.623 746.716C315.942 746.83 316.261 746.943 316.58 747.056C318.515 746.665 319.925 745.728 322.067 745.769C322.386 745.883 322.931 745.358 323.044 745.038C323.497 743.762 324.043 743.237 325.34 742.62C326.205 742.208 326.863 741.364 327.522 740.52C327.635 740.201 327.862 739.563 327.543 739.449C326.492 738.358 327.151 737.514 327.058 736.763Z" fill="#D9D9D9"/>
<path d="M345.025 604.107C346.003 603.376 346.867 602.965 347.825 603.304C348.144 603.418 348.576 603.212 349.008 603.006C349.667 602.162 350.326 601.318 351.51 601.019C351.829 601.133 351.942 600.814 352.055 600.494C352.827 599.331 353.486 598.487 353.939 597.211C354.505 595.616 355.39 594.133 354.134 592.61L353.928 592.178C354.494 590.582 354.195 589.399 352.6 588.832C352.281 588.719 352.394 588.4 352.188 587.968C352.301 587.649 352.095 587.216 352.208 586.897C351.889 586.784 351.889 586.784 351.57 586.671C350.5 586.65 349.861 586.424 349.563 585.24C349.264 584.056 347.349 583.377 345.846 583.562C344.982 583.974 343.911 583.954 342.954 583.614C342.634 583.501 341.883 583.593 341.883 583.593C341.111 584.756 340.154 584.417 339.083 584.396C338.97 584.715 338.857 585.034 338.857 585.034C338.723 586.424 338.723 586.424 337.22 586.609C336.468 586.702 335.923 587.227 336.016 587.978C336.108 588.73 335.882 589.368 335.017 589.779C334.585 589.985 334.359 590.623 334.564 591.056C334.976 591.92 334.75 592.559 334.091 593.403C333.432 594.247 333.597 596.82 334.555 597.16C335.718 597.932 335.811 598.683 335.677 600.072C337.18 599.887 338.343 600.659 338.529 602.162C338.622 602.913 339.26 603.14 340.011 603.047C342.585 602.882 344.201 602.378 345.025 604.107Z" fill="#D9D9D9"/>
<path d="M342.23 576.529C343.301 576.55 344.371 576.57 344.783 577.435C344.969 578.938 346.677 579.185 347.408 580.163C347.728 580.276 348.047 580.389 348.366 580.502C349.23 580.091 349.869 580.317 350.826 580.657C351.145 580.77 351.784 580.996 351.784 580.996C353.286 580.811 354.882 581.377 355.881 579.576C355.994 579.257 356.632 579.483 357.064 579.277C357.497 579.072 357.816 579.185 357.929 578.866C358.155 578.227 358.382 577.589 359.133 577.497C360.204 577.517 359.905 576.334 360.451 575.809C361.974 574.553 362.54 572.957 361.716 571.228L361.624 570.477C362.715 569.427 361.871 568.768 361.346 568.223C361.14 567.79 361.047 567.039 360.954 566.288C360.862 565.536 360.656 565.104 359.904 565.197C359.585 565.083 359.266 564.97 359.266 564.97C358.741 564.425 358.648 563.673 358.123 563.128C357.598 562.582 356.733 562.994 356.208 562.448C355.364 561.79 354.407 561.45 353.336 561.429C352.904 561.635 352.265 561.409 351.946 561.295C349.805 561.254 347.551 561.532 346.12 563.539C346.007 563.858 345.461 564.383 345.029 564.589C343.413 565.094 342.641 566.257 342.826 567.76C342.713 568.079 342.806 568.83 342.806 568.83C341.715 569.88 342.219 571.496 341.56 572.34C341.88 572.453 341.766 572.772 341.766 572.772C343.887 573.884 343.887 573.884 342.23 576.529Z" fill="#D9D9D9"/>
<path d="M338.096 658.05C339.28 657.751 340.67 657.885 341.122 656.609C341.236 656.29 341.668 656.084 341.987 656.197C344.9 655.075 345.693 652.842 346.166 650.495C346.186 649.424 345.888 648.241 346.66 647.078C346.773 646.759 346.567 646.326 346.248 646.213C345.404 645.554 344.673 644.576 344.374 643.393C344.168 642.96 343.962 642.528 343.643 642.415C342.274 641.211 340.791 640.325 339.196 639.759C338.557 639.533 337.919 639.306 337.168 639.399C336.097 639.378 335.346 639.471 334.275 639.451C333.637 639.224 332.772 639.636 332.227 640.161C331.568 641.005 330.909 641.849 330.158 641.941C328.861 642.559 327.883 643.29 327.636 644.998C327.409 645.637 327.183 646.275 326.957 646.913C326.73 647.551 326.391 648.508 326.483 649.26C326.37 649.579 326.782 650.444 326.988 650.876C327.4 651.74 327.812 652.605 327.904 653.356C328.296 655.292 329.552 656.815 331.147 657.381C333.608 657.535 335.522 658.215 338.096 658.05Z" fill="#D9D9D9"/>
<path d="M246.393 474.989C246.485 475.74 246.897 476.605 246.99 477.356C246.856 478.745 246.836 479.816 248.318 480.701C248.637 480.814 248.411 481.453 248.617 481.885C248.504 482.204 248.71 482.636 248.71 482.636C249.667 482.976 249.76 483.727 250.172 484.592C250.377 485.024 251.222 485.683 251.86 485.909C252.179 486.023 253.25 486.043 253.363 485.724C254.135 484.561 255.73 485.127 256.822 484.077C258.304 484.962 258.983 483.048 260.054 483.069C260.373 483.182 260.599 482.544 260.599 482.544C260.939 481.586 261.485 481.061 262.236 480.969C262.668 480.763 262.782 480.444 263.008 479.806C263.234 479.167 263.028 478.735 263.574 478.21C263.8 477.572 263.914 477.253 263.821 476.502C263.615 476.069 263.728 475.75 263.841 475.431C264.294 474.155 263.676 472.858 262.945 471.88C262.74 471.448 262.328 470.583 262.122 470.151C262.029 469.399 261.71 469.286 261.072 469.06C260.001 469.039 258.724 468.586 258.539 467.083L257.901 466.857C257.036 467.269 256.398 467.042 255.76 466.816C254.802 466.476 252.548 466.754 252.321 467.392C251.755 468.988 250.571 469.286 248.863 469.039C248.729 470.429 248.708 471.499 247.731 472.23C247.731 472.23 247.504 472.868 247.391 473.187C246.845 473.712 246.3 474.237 246.393 474.989Z" fill="#D9D9D9"/>
<path d="M205.486 709.795C204.961 709.25 204.662 708.066 204.024 707.84C203.066 707.5 202.222 706.841 201.584 706.615C199.988 706.049 198.279 705.802 196.663 706.306C193.863 707.109 191.794 708.89 190.775 711.761C190.642 713.151 190.508 714.54 190.693 716.043C190.899 716.475 190.992 717.227 191.311 717.34C191.836 717.886 192.361 718.431 192.135 719.069C192.228 719.821 192.434 720.253 193.185 720.16C194.256 720.181 195.213 720.521 195.512 721.704C195.398 722.023 196.037 722.25 196.469 722.044C198.61 722.085 200.844 722.878 202.707 720.665C204.21 720.479 204.55 719.522 205.322 718.359C205.867 717.834 206.526 716.99 206.752 716.352C206.793 714.211 207.267 711.864 205.486 709.795Z" fill="#D9D9D9"/>
<path d="M324.006 543.838C324.026 542.768 324.047 541.697 323.203 541.039C322.884 540.925 322.997 540.606 322.791 540.174C321.442 537.899 319.754 536.582 317.18 536.746C316.748 536.952 316.11 536.726 315.79 536.613C315.471 536.499 315.152 536.386 314.72 536.592C314.061 537.436 312.352 537.189 311.807 537.714C310.829 538.445 309.738 539.495 308.647 540.545C308.533 540.864 308.42 541.183 308.626 541.615C308.4 542.253 308.492 543.005 308.492 543.005C307.813 544.919 307.813 544.919 308.318 546.535C308.524 546.967 308.73 547.4 308.503 548.038C308.277 548.676 308.483 549.108 309.121 549.335C309.44 549.448 310.078 549.674 309.965 549.994C310.377 550.858 311.015 551.085 311.654 551.311C311.973 551.424 312.498 551.97 312.817 552.083C313.455 552.31 313.661 552.742 314.413 552.649C316.873 552.804 319.127 552.526 320.877 550.632C320.99 550.313 321.423 550.107 321.742 550.22C322.607 549.808 322.833 549.17 323.173 548.213C323.286 547.894 323.512 547.256 323.625 546.937C324.078 545.66 323.666 544.796 324.006 543.838Z" fill="#D9D9D9"/>
<path d="M329.796 800.957C329.477 800.844 329.158 800.731 328.952 800.299C328.427 799.753 327.356 799.733 326.605 799.825C324.351 800.103 321.664 800.587 320.12 802.913C319.574 803.438 319.029 803.963 318.689 804.92C318.463 805.558 318.35 805.878 318.123 806.516C318.103 807.586 318.195 808.338 317.856 809.295C317.743 809.614 317.516 810.252 317.835 810.365C318.885 811.456 319.184 812.64 319.483 813.824C319.689 814.256 319.895 814.688 320.533 814.915C321.49 815.255 322.015 815.8 322.973 816.14L323.292 816.253C326.164 817.272 328.552 815.604 331.033 814.688C331.465 814.482 331.579 814.163 331.692 813.844C332.031 812.887 332.577 812.362 332.917 811.405C333.256 810.448 333.483 809.809 333.503 808.739C333.997 805.322 332.874 802.409 329.796 800.957Z" fill="#D9D9D9"/>
<path d="M201.081 548.009C200.237 547.35 200.031 546.918 199.938 546.166C199.64 544.983 199.66 543.912 199.248 543.047C198.445 540.248 195.912 538.272 192.907 538.642C191.836 538.622 190.971 539.033 190.107 539.445C187.945 540.474 186.627 542.162 186.473 544.622C186.319 547.082 186.71 549.017 188.718 550.448C190.087 551.653 191.364 552.105 192.867 551.92C193.186 552.033 193.505 552.147 193.937 551.941C193.804 553.33 194.535 554.308 195.379 554.967C197.273 556.717 198.982 556.964 201.051 555.183C204.077 553.742 203.727 549.666 201.081 548.009Z" fill="#D9D9D9"/>
<path d="M304.184 594.645C305.707 593.389 307.025 591.701 306.746 589.447C306.86 589.128 306.654 588.696 306.767 588.376C307.22 587.1 306.921 585.916 305.758 585.144C305.439 585.031 305.346 584.28 305.14 583.848C304.934 583.415 305.047 583.096 304.728 582.983C303.771 582.643 302.813 582.304 302.401 581.439C302.082 581.326 301.763 581.213 301.444 581.099C300.373 581.079 299.622 581.171 298.665 580.832C298.026 580.605 297.275 580.698 296.729 581.223C296.297 581.429 295.751 581.954 295.319 582.16C294.228 583.209 292.818 584.146 292.138 586.061C291.12 588.932 291.604 591.619 293.704 593.801C294.548 594.46 295.938 594.593 296.556 595.89L296.875 596.004C299.747 597.023 302.115 596.426 304.184 594.645Z" fill="#D9D9D9"/>
<path d="M541.179 813.803C540.128 812.712 539.624 811.096 538.121 811.281C533.128 809.15 529.216 812.074 528.198 814.945C526.273 820.37 528.785 823.416 532.821 825.207C535.261 826.432 541.087 824.188 541.993 821.636C542.445 820.359 542.579 818.97 543.032 817.693C541.982 816.602 542.548 815.007 541.179 813.803Z" fill="#D9D9D9"/>
<path d="M358.719 660.697C360.428 660.944 362.024 661.51 363.547 660.255L363.979 660.049C365.915 659.658 366.594 657.743 367.685 656.693L367.798 656.374C367.819 655.304 368.045 654.666 368.066 653.595C368.312 651.886 367.808 650.27 366.758 649.179C365.708 648.088 364.771 646.678 362.949 646.75C362.197 646.843 361.672 646.297 360.715 645.958C359.85 646.369 358.872 647.1 357.802 647.08C357.482 646.966 356.937 647.491 356.824 647.81C355.094 648.634 355.053 650.775 353.849 652.144L353.736 652.463C354.24 654.079 353.674 655.674 354.498 657.404C355.641 659.246 357.01 660.45 358.719 660.697Z" fill="#D9D9D9"/>
<path d="M489.304 681.52C490.9 682.086 491.95 683.177 493.566 682.673C493.998 682.467 494.318 682.58 494.637 682.694C495.594 683.033 496.572 682.302 497.118 681.778C497.663 681.253 497.89 680.614 498.435 680.089C500.411 677.557 499.927 674.871 499.875 671.979C499.989 671.659 499.35 671.433 499.144 671.001C498.619 670.455 498.3 670.342 497.775 669.796C497.456 669.683 497.363 668.932 496.931 669.138C495.222 668.891 493.513 668.644 491.691 668.716C489.118 668.88 487.687 670.888 486.689 672.689C486.009 674.603 485.762 676.312 486.267 677.928C486.772 679.544 487.389 680.841 489.304 681.52Z" fill="#D9D9D9"/>
<path d="M432.369 707.304C432.276 706.553 432.07 706.12 431.432 705.894C430.794 705.668 429.836 705.328 429.63 704.896C429.218 704.031 428.58 703.804 427.829 703.897C427.077 703.99 426.12 703.65 425.368 703.743C423.001 704.34 421.683 706.028 420.572 708.148C420.345 708.786 420.119 709.425 420.212 710.176C420.191 711.246 420.49 712.43 420.902 713.295C421.725 715.024 423.095 716.228 424.577 717.113C424.896 717.227 425.215 717.34 425.534 717.453C427.789 717.175 430.249 717.329 431.587 714.571C432.472 713.089 433.79 711.401 432.76 709.239C432.554 708.807 432.461 708.055 432.369 707.304Z" fill="#D9D9D9"/>
<path d="M449.4 673.469C448.103 674.087 446.693 675.024 445.602 676.073C444.83 677.237 444.171 678.081 444.789 679.378C444.995 679.81 445.088 680.561 444.974 680.88C445.067 681.632 445.273 682.064 445.798 682.61C446.004 683.042 446.323 683.155 446.416 683.906C446.622 684.339 446.828 684.771 447.147 684.884C447.466 684.998 447.991 685.543 448.31 685.656C449.154 686.315 450.225 686.336 451.09 685.924C451.954 685.512 452.706 685.42 453.571 685.008C454.003 684.802 454.322 684.915 454.435 684.596C455.207 683.433 456.298 682.383 457.07 681.22C457.091 680.149 457.43 679.192 457.132 678.009C457.193 674.797 452.859 671.822 449.4 673.469Z" fill="#D9D9D9"/>
<path d="M247.843 494.184C248.11 491.405 247.08 489.244 244.64 488.019C240.605 486.228 237.579 487.669 236.014 491.066C234.131 494.349 236.828 498.899 239.7 499.918C240.864 500.69 242.48 500.185 243.777 499.568C246.258 498.652 247.369 496.531 247.843 494.184Z" fill="#D9D9D9"/>
<path d="M236.455 591.094C239.121 591.681 241.715 590.446 242.621 587.893C243.64 585.021 242.517 582.108 239.964 581.202C238.368 580.636 238.482 580.317 237.226 578.794C235.97 577.27 234.261 577.023 232.943 578.711C232.284 579.556 231.945 580.513 232.563 581.81C232.769 582.242 232.861 582.993 232.954 583.745C231.863 584.795 232.481 586.092 232.46 587.162C232.532 588.984 233.789 590.507 235.271 591.393C236.136 590.981 236.136 590.981 236.455 591.094Z" fill="#D9D9D9"/>
<path d="M370.952 670.784C372.568 670.28 373.34 669.117 373.792 667.84C374.811 664.969 373.277 661.191 370.611 660.604C369.334 660.152 367.831 660.337 366.967 660.749C364.918 661.459 363.714 662.828 363.354 664.855C363.014 665.813 363.086 667.635 363.817 668.612C364.548 669.59 365.053 671.206 366.875 671.134C368.79 671.814 368.79 671.814 370.952 670.784Z" fill="#D9D9D9"/>
<path d="M227.964 721.363C226.914 720.272 225.319 719.706 223.929 719.572C222.22 719.325 220.491 720.148 219.173 721.836C217.969 723.205 218.474 724.821 217.907 726.417C218.299 728.352 219.555 729.875 221.583 730.236C224.887 731.049 227.914 729.608 229.046 726.417C229.725 724.502 229.221 722.886 227.964 721.363Z" fill="#D9D9D9"/>
<path d="M251.938 767.231C253.39 764.153 251.197 761.219 248.963 760.427C246.091 759.408 243.497 760.643 242.478 763.515C241.459 766.387 242.9 769.413 245.34 770.638C247.574 771.43 251.352 769.896 251.938 767.231Z" fill="#D9D9D9"/>
<path d="M192.817 655.367C191.746 655.347 190.563 655.645 189.379 655.944C189.152 656.582 188.607 657.107 188.38 657.745C187.022 661.574 188.556 665.351 193.158 665.547C197.121 665.516 199.21 662.665 198.428 658.795C197.717 656.746 195.39 655.202 192.817 655.367Z" fill="#D9D9D9"/>
<path d="M297.424 555.965C297.743 556.079 297.949 556.511 298.268 556.624C300.502 557.417 303.961 555.77 304.753 553.536C305.978 551.097 305.607 548.091 301.572 546.3C301.252 546.187 300.614 545.961 300.295 545.847C299.111 546.146 297.608 546.331 296.63 547.062C295.22 547.999 294.654 549.594 294.407 551.303C294.274 552.692 294.572 553.876 296.055 554.761C296.58 555.307 296.786 555.739 297.424 555.965Z" fill="#D9D9D9"/>
<path d="M360.792 681.189C360.472 681.076 359.721 681.169 359.289 681.375C357.353 681.766 357.034 681.653 356.21 679.923C355.181 677.762 353.06 676.65 350.806 676.928C350.054 677.021 349.303 677.113 348.551 677.206C346.729 677.278 345.957 678.441 346.462 680.057C346.76 681.241 347.491 682.219 347.79 683.403C348.089 684.586 348.82 685.564 350.209 685.698C351.692 686.583 352.876 686.285 353.967 685.235C354.512 684.71 355.696 684.411 356.448 684.319C358.064 683.814 359.474 682.878 360.771 682.26C360.884 681.941 360.997 681.622 361.111 681.303C361.43 681.416 361.111 681.303 360.792 681.189Z" fill="#D9D9D9"/>
<path d="M381.11 565.177C380.317 567.411 381.872 570.118 383.9 570.478C386.772 571.497 388.615 570.354 390.066 567.277C390.745 565.362 388.871 562.542 386.957 561.863C384.61 561.389 381.583 562.83 381.11 565.177Z" fill="#D9D9D9"/>
<path d="M436.177 581.121C436.424 579.412 435.076 577.138 433.161 576.458C432.842 576.345 432.09 576.438 431.452 576.211C430.062 576.077 429.197 576.489 428.745 577.766C428.631 578.085 428.518 578.404 427.973 578.929C426.861 581.049 428.076 584.713 431.175 585.094C433.542 584.497 435.704 583.468 436.177 581.121Z" fill="#D9D9D9"/>
<path d="M272.168 599.813C270.253 599.133 267.227 600.574 266.661 602.17C265.961 605.155 267.423 607.11 269.338 607.79C271.572 608.582 273.847 607.234 274.639 605C275.432 602.767 274.721 600.718 272.168 599.813Z" fill="#D9D9D9"/>
<path d="M238.239 805.84C236.005 805.048 233.524 805.964 232.618 808.516C231.939 810.431 233.061 813.344 234.657 813.91C237.848 815.042 239.804 813.58 240.483 811.666C241.729 808.156 240.153 806.519 238.239 805.84Z" fill="#D9D9D9"/>
<path d="M216.297 558.794C213.744 557.888 211.696 558.599 210.79 561.151C209.998 563.385 210.595 565.752 212.829 566.545C215.063 567.337 217.544 566.421 218.336 564.188C219.448 562.067 218.212 559.473 216.297 558.794Z" fill="#D9D9D9"/>
<path d="M212.568 518.674C210.653 517.995 208.059 519.23 207.38 521.144C206.587 523.378 207.504 525.859 210.057 526.764C212.291 527.557 214.566 526.209 215.245 524.294C216.037 522.06 214.802 519.467 212.568 518.674Z" fill="#D9D9D9"/>
<path d="M482.342 580.615C484.576 581.408 486.738 580.379 487.53 578.145C488.209 576.231 487.18 574.069 485.265 573.39C483.031 572.597 481.302 573.421 480.077 575.86C478.965 577.98 480.108 579.823 482.342 580.615Z" fill="#D9D9D9"/>
<path d="M224.388 623.097C223.708 625.011 224.738 627.173 226.653 627.852C228.568 628.532 230.41 627.389 231.089 625.475C231.769 623.56 230.739 621.398 228.824 620.719C227.115 620.472 224.954 621.501 224.388 623.097Z" fill="#D9D9D9"/>
<path d="M254.59 751.647C256.186 752.213 258.347 751.183 258.913 749.588C259.48 747.993 258.45 745.831 256.854 745.265C255.259 744.699 252.778 745.615 252.212 747.21C251.872 748.168 252.562 751.286 254.59 751.647Z" fill="#D9D9D9"/>
<path d="M240.84 669.888C241.406 668.293 240.264 666.45 238.668 665.884C236.753 665.205 234.911 666.347 234.231 668.262C233.665 669.857 234.695 672.019 236.404 672.266C238.432 672.626 240.274 671.484 240.84 669.888Z" fill="#D9D9D9"/>
<path d="M432.882 691.679C434.477 692.245 436.639 691.216 437.205 689.62C437.884 687.706 436.947 686.296 435.146 685.297C433.55 684.731 431.821 685.555 431.141 687.469C430.462 689.384 431.286 691.113 432.882 691.679Z" fill="#D9D9D9"/>
<path d="M438.481 678.937C439.232 678.844 439.757 679.389 440.622 678.978C441.167 678.453 442.032 678.041 442.897 677.629C443.875 676.899 443.669 676.466 442.711 676.127C442.073 675.9 441.867 675.468 441.661 675.036C440.93 674.058 440.086 673.399 439.015 673.378C437.512 673.564 436.308 674.933 436.288 676.003C435.948 676.96 436.885 678.37 438.481 678.937Z" fill="#D9D9D9"/>
<path d="M455.884 732.172C454.607 731.719 452.446 732.749 451.993 734.025C451.54 735.301 452.364 737.031 453.959 737.597C455.555 738.163 456.965 737.226 457.531 735.631C457.665 734.241 457.16 732.625 455.884 732.172Z" fill="#D9D9D9"/>
<path d="M234.607 514.277C235.06 513.001 234.555 511.385 232.959 510.819C231.364 510.253 230.067 510.87 229.501 512.466C229.048 513.742 229.871 515.471 231.148 515.924C232.744 516.49 234.154 515.554 234.607 514.277Z" fill="#D9D9D9"/>
<path d="M280.077 813.497C278.8 813.044 277.071 813.867 276.618 815.143C276.165 816.42 276.67 818.036 278.265 818.602C279.542 819.055 281.158 818.55 281.611 817.274C282.177 815.679 281.353 813.949 280.077 813.497Z" fill="#D9D9D9"/>
<path d="M256.944 583.993C255.986 583.653 255.235 583.746 254.277 583.406C253.938 584.363 253.711 585.001 253.485 585.64C253.145 586.597 253.557 587.461 254.401 588.12C254.926 588.666 255.884 589.005 256.749 588.594C257.613 588.182 258.159 587.657 258.179 586.587C258.2 585.516 257.582 584.219 256.944 583.993Z" fill="#D9D9D9"/>
<path d="M434.011 666.214C433.259 666.306 432.508 666.399 432.168 667.356C431.51 668.2 431.057 669.477 430.398 670.321C430.172 670.959 430.058 671.278 430.584 671.823C431.109 672.369 431.86 672.276 431.973 671.957C433.064 670.907 434.269 669.538 435.36 668.489C436.132 667.325 435.082 666.234 434.011 666.214Z" fill="#D9D9D9"/>
<path d="M480.593 655.437C480.48 655.756 480.366 656.075 480.572 656.507C480.439 657.897 481.056 659.194 482.446 659.327C483.723 659.78 484.814 658.73 485.266 657.454C485.493 656.816 484.988 655.2 484.669 655.087C483.712 654.747 482.754 654.407 482.003 654.5C480.932 654.479 480.5 654.685 480.593 655.437Z" fill="#D9D9D9"/>
<path d="M217.369 782.628C216.093 782.176 214.477 782.68 213.911 784.275C213.571 785.233 214.076 786.849 215.033 787.188C216.31 787.641 217.926 787.137 218.379 785.86C219.151 784.697 218.533 783.4 217.369 782.628Z" fill="#D9D9D9"/>
<path d="M426.299 671.741C425.98 671.628 425.229 671.72 424.796 671.926C423.818 672.657 423.16 673.501 422.501 674.345C422.388 674.664 422.161 675.302 422.367 675.734C422.573 676.167 423.211 676.393 423.53 676.506C424.601 676.527 425.466 676.115 426.217 676.023C427.401 675.724 427.741 674.767 427.761 673.696C427.895 672.307 426.824 672.286 426.299 671.741Z" fill="#D9D9D9"/>
<path d="M234.695 660.883C233.737 660.544 232.121 661.048 231.669 662.324C231.329 663.282 232.153 665.011 233.11 665.351C234.067 665.69 235.797 664.867 236.136 663.91C236.908 662.746 236.291 661.449 234.695 660.883Z" fill="#D9D9D9"/>
<path d="M285.128 599.742C284.171 599.402 282.555 599.906 282.215 600.864C281.876 601.821 282.493 603.118 283.451 603.458C284.408 603.797 285.705 603.18 286.158 601.903C286.385 601.265 286.086 600.081 285.128 599.742Z" fill="#D9D9D9"/>
<path d="M267.594 419.284L267.913 419.397C268.572 418.553 269.55 417.823 270.095 417.298C270.322 416.659 270.435 416.34 270.116 416.227C269.91 415.795 269.817 415.043 269.498 414.93C269.179 414.817 268.747 415.023 268.314 415.229C268.314 415.229 268.201 415.548 267.882 415.435C267.223 416.279 267.069 418.739 267.594 419.284Z" fill="#D9D9D9"/>
<path d="M476.998 669.609C476.998 669.609 477.431 669.403 477.225 668.971C477.152 667.149 475.557 666.583 474.939 665.286C474.62 665.173 474.507 665.492 474.188 665.379C474.074 665.698 473.961 666.017 473.848 666.336C474.147 667.52 475.197 668.611 476.247 669.702C476.679 669.496 476.998 669.609 476.998 669.609Z" fill="#D9D9D9"/>
<path d="M232.172 557.602C231.534 557.376 230.237 557.993 230.329 558.745C230.103 559.383 230.515 560.248 231.472 560.587C232.11 560.814 232.975 560.402 233.202 559.764C233.541 558.807 233.129 557.942 232.172 557.602Z" fill="#D9D9D9"/>
<path d="M157.009 399.811C156.123 401.293 155.238 402.775 154.466 403.938C154.466 403.938 154.353 404.257 154.672 404.371L155.105 404.165C155.877 403.002 156.649 401.839 157.74 400.789C158.285 400.264 158.944 399.42 158.964 398.349C157.781 398.648 157.554 399.286 157.009 399.811Z" fill="#D9D9D9"/>
<path d="M463.782 750.421C463.144 750.194 462.279 750.606 462.053 751.244C461.826 751.882 462.238 752.747 462.877 752.973C463.515 753.2 464.38 752.788 464.606 752.15C464.946 751.193 464.534 750.328 463.782 750.421Z" fill="#D9D9D9"/>
<path d="M337.075 700.438C336.848 701.077 337.26 701.941 337.898 702.168C338.537 702.394 339.082 701.869 339.308 701.231C339.535 700.593 339.123 699.728 338.485 699.502C338.166 699.389 337.301 699.8 337.075 700.438Z" fill="#D9D9D9"/>
<path d="M222.188 777.152C221.118 777.131 219.821 777.749 219.481 778.706C219.368 779.025 219.574 779.458 219.893 779.571C220.963 779.591 222.26 778.974 222.6 778.017C222.713 777.698 222.826 777.378 222.188 777.152C222.507 777.265 222.507 777.265 222.188 777.152Z" fill="#D9D9D9"/>
<path d="M377.522 635.035C377.522 635.035 377.09 635.241 376.977 635.56C376.864 635.879 377.183 635.992 377.183 635.992C378.346 636.764 379.304 637.104 380.601 636.486C379.777 634.757 379.139 634.53 377.522 635.035Z" fill="#D9D9D9"/>
<path d="M423.27 617.498C424.341 617.518 425.298 617.858 425.844 617.333L425.751 616.582C424.681 616.561 423.61 616.54 422.652 616.201L422.426 616.839C422.632 617.271 422.951 617.384 423.27 617.498Z" fill="#D9D9D9"/>
<path d="M222.605 514.69C221.966 514.464 221.102 514.875 220.875 515.514C220.649 516.152 220.855 516.584 221.493 516.811C222.131 517.037 222.883 516.944 223.109 516.306C223.336 515.668 223.243 514.917 222.605 514.69Z" fill="#D9D9D9"/>
<path d="M216.826 687.953C215.756 687.932 214.572 688.231 213.707 688.642C213.707 688.642 213.594 688.961 213.8 689.394C215.19 689.527 216.26 689.548 217.238 688.817C217.238 688.817 217.352 688.498 217.465 688.179C217.032 688.385 216.826 687.953 216.826 687.953Z" fill="#D9D9D9"/>
<path d="M84.7003 596.532C86.2237 595.276 87.3148 594.226 87.5617 592.517C86.2647 593.135 85.4927 594.298 84.7003 596.532Z" fill="#D9D9D9"/>
<path d="M269.002 429.484C270.207 428.115 270.773 426.52 271.225 425.243C268.704 428.3 268.704 428.3 269.002 429.484Z" fill="#D9D9D9"/>
<path d="M157.234 589.572C157.234 589.572 156.595 589.346 156.482 589.665C155.937 590.19 155.71 590.828 155.165 591.353C155.371 591.785 155.371 591.785 155.576 592.217C155.576 592.217 155.896 592.331 156.328 592.125C156.873 591.6 157.419 591.075 157.645 590.437C157.326 590.323 157.553 589.685 157.234 589.572Z" fill="#D9D9D9"/>
<path d="M188.32 448.28C186.271 448.99 185.386 450.472 184.501 451.954C185.911 451.018 187.322 450.081 188.32 448.28Z" fill="#D9D9D9"/>
<path d="M493.14 548.162C492.594 548.687 492.481 549.006 492.255 549.644C492.141 549.964 492.141 549.964 492.028 550.283L492.553 550.828C493.099 550.303 493.644 549.778 494.19 549.253C494.735 548.728 494.643 547.977 494.118 547.431C493.685 547.637 493.253 547.843 493.14 548.162Z" fill="#D9D9D9"/>
<path d="M380.74 679.645C379.67 679.625 379.011 680.469 378.352 681.313C378.239 681.632 378.239 681.632 378.558 681.745C378.877 681.858 379.196 681.971 379.196 681.971C380.061 681.56 380.606 681.035 381.471 680.623L381.698 679.985C381.378 679.872 381.059 679.758 380.74 679.645Z" fill="#D9D9D9"/>
<path d="M107.642 757.709C106.664 758.44 106.757 759.192 107.055 760.375C108.033 759.645 108.692 758.8 108.28 757.936C108.074 757.504 107.755 757.39 107.642 757.709Z" fill="#D9D9D9"/>
<path d="M155.227 420.013L155.114 420.332L155.433 420.445C156.298 420.034 157.162 419.622 157.708 419.097L157.502 418.665C156.637 419.076 155.886 419.169 155.227 420.013Z" fill="#D9D9D9"/>
<path d="M495.87 556.673C495.098 557.836 495.077 558.907 495.582 560.523C496.467 559.041 496.487 557.97 495.87 556.673Z" fill="#D9D9D9"/>
<path d="M99.973 654.757C98.9024 654.736 98.8819 655.807 98.3364 656.331C98.3364 656.331 98.2232 656.651 98.5423 656.764C99.8394 656.146 100.385 655.621 99.973 654.757Z" fill="#D9D9D9"/>
</g>
<defs>
<clipPath id="clip0">
<rect width="471.369" height="360.645" fill="white" transform="translate(162.586 377) rotate(19.5337)"/>
</clipPath>
</defs>
</svg>
