<svg width="950" height="850" viewBox="0 0 950 850" fill="none" xmlns="http://www.w3.org/2000/svg">
<g clip-path="url(#clip0)">
<path d="M514.582 396.138C514.151 396.347 514.04 396.666 513.929 396.986C513.706 397.626 514.443 398.599 515.083 398.821C515.403 398.933 515.403 398.933 515.723 399.044C517.961 399.823 518.476 401.435 517.058 403.451C516.947 403.771 516.515 403.98 516.404 404.299C516.168 406.01 515.097 405.996 513.707 405.871L513.596 406.19C515.612 407.609 515.501 407.928 513.554 409.402L513.123 409.611C512.581 410.139 512.358 410.778 512.887 411.321C513.513 412.614 513.93 413.476 513.374 415.075C513.262 415.395 513.471 415.826 513.36 416.145C513.888 416.688 513.666 417.327 513.443 417.967C513.11 418.926 513.638 419.468 514.709 419.482L515.14 419.274C516.211 419.288 517.059 419.941 517.685 421.234C517.782 421.985 517.671 422.305 516.378 422.93L515.947 423.139C515.085 423.556 514.654 423.765 514.32 424.724C513.986 425.683 512.61 424.487 512.276 425.447C510.969 427.143 509.258 426.907 507.659 426.35C507.02 426.128 506.589 426.336 505.727 426.754C503.78 428.227 502.473 429.924 500.318 430.966C499.456 431.383 499.233 432.023 499.33 432.774C499.428 433.524 499.205 434.164 498.455 434.261C497.481 434.998 497.69 435.429 498.107 436.291C498.524 437.153 498.302 437.793 497.551 437.89C497.551 437.89 497.44 438.21 497.329 438.53C497.857 439.072 498.497 439.294 498.594 440.045C498.691 440.796 498.789 441.547 498.135 442.395C498.024 442.715 497.802 443.354 497.371 443.563C497.69 443.674 498.01 443.785 498.33 443.897C499.081 443.799 499.609 444.342 499.707 445.092C499.693 446.163 499.79 446.914 501.07 447.359C501.389 447.47 501.278 447.79 501.598 447.901C501.904 449.083 503.837 448.68 504.032 450.181L504.351 450.292C505.214 449.875 506.062 450.529 506.59 451.071C507.23 451.294 507.981 451.196 508.621 451.419C509.26 451.641 509.9 451.864 510.762 451.447C511.193 451.238 512.055 450.821 512.375 450.932C513.654 451.377 514.516 450.96 515.907 451.085C516.978 451.099 517.409 450.891 517.853 449.612C518.41 448.013 518.841 447.804 520.76 448.472C521.719 448.805 522.15 448.597 522.275 447.206C522.178 446.456 522.289 446.136 522.511 445.496C522.956 444.217 524.138 443.911 525.195 444.996C525.404 445.427 525.612 445.858 525.821 446.289C526.141 446.4 526.349 446.831 526.461 446.511C526.781 446.622 527.003 445.983 527.114 445.663C527.337 445.024 527.017 444.912 526.488 444.37C525.64 443.717 525.223 442.855 525.668 441.575C525.89 440.936 525.682 440.505 524.611 440.491C523.86 440.588 523.651 440.157 523.554 439.406C523.776 438.767 523.888 438.447 524.527 438.67C524.847 438.781 525.598 438.683 525.918 438.795L526.349 438.586C526.46 438.266 526.14 438.155 526.252 437.835C525.932 437.724 525.612 437.613 525.292 437.502C524.652 437.279 524.444 436.848 524.666 436.209C524.889 435.569 525.431 435.041 525.862 434.832C526.293 434.624 526.724 434.415 527.475 434.318C526.529 432.913 525.556 433.65 524.596 433.317C524.179 432.455 523.762 431.593 523.665 430.842C524.318 429.994 524.972 429.146 526.042 429.159C527.113 429.173 527.544 428.965 528.198 428.117C528.74 427.588 529.491 427.491 529.908 428.353C530.325 429.215 530.423 429.966 529.88 430.494C529.338 431.023 529.116 431.662 529.213 432.413C529.088 433.803 528.963 435.194 528.838 436.584C528.935 437.335 529.352 438.197 529.881 438.739C530.409 439.281 531.48 439.295 532.022 438.767C532.565 438.239 532.356 437.808 532.147 437.377C531.939 436.946 531.73 436.515 531.633 435.764C531.327 434.582 531.98 433.734 532.522 433.206C533.385 432.789 533.913 433.331 534.441 433.873C534.761 433.984 534.761 433.984 535.081 434.095C535.401 434.207 535.832 433.998 535.832 433.998C536.485 433.15 537.57 432.093 537.904 431.134C538.349 429.855 539.113 428.687 540.087 427.95C540.615 428.492 541.144 429.035 541.352 429.466C541.672 429.577 542.423 429.48 542.214 429.049C542.325 428.729 542.117 428.298 542.117 428.298C541.825 426.045 542.812 424.238 544.119 422.542C544.439 422.653 544.758 422.764 544.647 423.084C544.967 423.195 545.287 423.307 545.496 423.738C546.344 424.391 547.414 424.405 547.957 423.877C548.499 423.348 548.833 422.389 548.096 421.416C547.567 420.873 547.79 420.234 548.541 420.137C549.403 419.72 550.042 419.942 550.028 421.013C550.237 421.444 550.446 421.875 550.765 421.986C551.085 422.097 551.725 422.32 552.253 422.862C552.142 423.182 551.92 423.821 551.489 424.03C551.266 424.669 551.155 424.989 551.906 424.892C553.408 424.697 554.145 425.67 554.131 426.741C554.437 427.923 555.077 428.145 555.605 428.688C557.093 429.563 558.15 430.648 559.971 430.565L560.291 430.676C561.139 431.329 562.099 431.663 563.072 430.926L563.503 430.718C564.463 431.051 565.742 431.496 566.715 430.759C566.715 430.759 567.035 430.871 567.355 430.982C567.995 431.204 568.746 431.107 569.288 430.579C569.719 430.37 570.15 430.162 570.581 429.953C571.443 429.536 571.874 429.328 572.611 430.301C573.668 431.385 575.059 431.51 576.352 430.885C577.645 430.259 577.979 429.3 577.784 427.798C577.784 427.798 577.784 427.798 577.895 427.479C577.909 426.408 578.451 425.88 579.313 425.463C579.744 425.254 580.704 425.588 580.593 425.907C580.481 426.227 580.69 426.658 580.579 426.978C580.356 427.618 580.565 428.049 581.093 428.591C582.15 429.675 583.221 429.689 584.514 429.064C584.945 428.855 585.807 428.438 586.238 428.23C587.629 428.355 589.019 428.48 590.619 429.036C591.898 429.481 592.107 429.912 591.231 431.4C591.119 431.719 591.119 431.719 591.008 432.039C590.675 432.999 591.203 433.541 592.162 433.875C593.233 433.889 593.775 433.36 593.9 431.97C593.803 431.219 593.497 430.037 593.928 429.829C594.47 429.3 595.43 429.634 596.181 429.537C596.181 429.537 596.181 429.537 596.501 429.648C597.363 429.231 598.322 429.565 598.739 430.427C599.157 431.289 599.574 432.151 600.422 432.804C600.631 433.235 600.839 433.666 601.479 433.889C601.799 434 602.438 434.222 602.55 433.903C603.412 433.486 603.426 432.415 602.577 431.761C602.258 431.65 602.049 431.219 601.409 430.997C600.45 430.663 600.033 429.801 599.935 429.05C599.838 428.299 600.06 427.66 600.922 427.243C601.784 426.826 602.535 426.728 603.606 426.742C604.037 426.534 604.788 426.436 604.899 426.117C605.553 425.269 606.192 425.491 606.721 426.033C607.36 426.256 607.889 426.798 608.097 427.229C608.626 427.771 609.474 428.425 610.656 428.119C610.448 427.688 610.559 427.368 610.239 427.257C609.71 426.715 608.751 426.381 608.223 425.839C607.583 425.616 607.054 425.074 606.415 424.851C605.775 424.629 605.678 423.878 606.22 423.35C606.985 422.182 607.861 420.694 608.625 419.526C609.793 420.291 610.753 420.625 611.601 421.278C611.824 420.639 611.615 420.208 610.975 419.985C608.639 418.456 609.418 416.217 609.126 413.965C609.237 413.645 609.348 413.325 609.779 413.117C610.21 412.908 611.072 412.491 610.544 411.949C610.127 411.087 609.696 411.296 608.945 411.393C608.945 411.393 608.625 411.282 608.514 411.601C607.763 411.699 607.554 411.268 607.026 410.725C606.817 410.294 606.608 409.863 606.4 409.432C606.094 408.251 606.205 407.931 607.387 407.625C609 407.11 609.542 406.582 609.347 405.081C609.25 404.33 609.153 403.579 609.375 402.939C609.598 402.3 609.82 401.66 610.571 401.563C611.864 400.937 611.989 399.547 611.363 398.254C610.835 397.712 610.737 396.961 610.098 396.738C609.25 396.085 609.041 395.654 608.944 394.903C609.055 394.583 608.957 393.832 608.749 393.401C607.469 392.957 606.287 393.262 605.55 392.289C604.702 391.636 603.631 391.622 602.992 391.399C601.824 390.634 601.281 391.163 600.308 391.9C600.197 392.219 599.557 391.997 599.237 391.886C597.305 392.289 595.261 393.012 594.802 395.362C594.579 396.001 594.037 396.529 593.926 396.849C593.703 397.489 593.912 397.92 594.009 398.671L593.898 398.99C593.356 399.519 593.565 399.95 594.093 400.492C595.261 401.257 594.385 402.744 595.122 403.718C595.122 403.718 595.011 404.037 594.9 404.357C594.469 404.566 594.357 404.886 593.926 405.094C593.064 405.511 592.745 405.4 592.327 404.538C591.493 402.814 591.284 402.383 589.351 402.786C588.601 402.883 588.17 403.092 587.53 402.869C587.21 402.758 586.459 402.855 586.139 402.744C584.206 403.147 583.122 404.204 582.566 405.803C582.01 407.402 581.454 409.001 580.898 410.6C580.675 411.239 580.244 411.448 579.716 410.905C578.867 410.252 578.561 409.07 578.255 407.888C577.713 408.417 577.282 408.625 576.851 408.834C576.42 409.042 576.1 408.931 575.891 408.5C575.363 407.958 574.835 407.415 574.737 406.665C574.529 406.234 575.071 405.705 575.293 405.066C575.405 404.746 575.516 404.426 575.627 404.106C571.455 403.731 569.829 405.316 569.578 408.097C569.578 408.097 569.467 408.416 569.147 408.305C567.228 407.638 567.228 407.638 565.727 407.832C565.407 407.721 564.976 407.93 564.767 407.499C563.488 407.054 563.488 407.054 562.834 407.902C561.416 409.918 558.844 410.098 556.827 408.68C555.659 407.915 555.673 406.845 555.687 405.774C554.296 405.649 553.323 406.386 552.67 407.234C552.016 408.082 551.265 408.18 550.306 407.846C549.666 407.623 548.818 406.97 548.289 406.428C547.761 405.885 547.552 405.454 548.317 404.286C548.428 403.967 548.539 403.647 548.331 403.216C548.011 403.105 547.802 402.674 547.802 402.674C548.247 401.394 547.733 399.782 549.457 398.947C549.888 398.739 549.888 398.739 550.319 398.53C550.208 398.85 550.208 398.85 550.416 399.281C550.291 400.672 550.708 401.534 551.459 401.436C552.21 401.339 553.184 400.602 553.197 399.531L553.309 399.212C553.322 398.141 552.154 397.376 551.084 397.362C549.902 397.668 548.4 397.863 547.218 398.169C546.147 398.155 545.396 398.252 544.437 397.918C543.269 397.154 542.949 397.042 543.394 395.763C543.728 394.804 544.172 393.525 543.435 392.552C543.435 392.552 543.658 391.912 544.089 391.704C544.52 391.495 544.84 391.606 545.271 391.398C545.702 391.189 546.036 390.23 545.507 389.688C544.659 389.034 543.699 388.7 542.629 388.686C541.878 388.784 541.113 389.952 541.641 390.494C542.587 391.898 542.253 392.857 541.809 394.137C541.572 395.847 541.141 396.055 539.111 395.708C537.512 395.151 535.802 394.915 534.202 394.359C533.563 394.136 532.603 393.803 531.852 393.9C531.755 393.149 531.769 392.079 531.671 391.328C531.254 390.466 531.157 389.715 530.851 388.533C530.865 387.463 530.016 386.809 529.266 386.906C528.515 387.004 528.181 387.963 528.487 389.145C528.487 389.145 528.487 389.145 528.376 389.465C528.793 390.327 528.571 390.966 528.028 391.495C527.597 391.703 527.375 392.343 527.472 393.093C527.778 394.275 527.236 394.804 526.374 395.221C525.512 395.638 524.65 396.055 523.787 396.472C522.494 397.098 522.494 397.098 521.215 396.653C521.104 396.972 521.201 397.723 521.09 398.043C520.979 398.363 520.228 398.46 519.908 398.349C518.949 398.015 518.42 397.473 517.461 397.139C516.932 396.597 516.404 396.055 515.875 395.512C515.222 396.36 514.902 396.249 514.582 396.138ZM552.197 410.654C553.156 410.988 554.338 410.682 554.213 412.073C554.408 413.574 554.074 414.534 552.781 415.159C551.919 415.576 551.488 415.785 552.114 417.078C552.323 417.509 551.892 417.717 551.572 417.606C551.252 417.495 550.723 416.953 550.292 417.161C549.973 417.05 549.542 417.259 548.791 417.356C549.138 415.326 549.694 413.727 549.931 412.017C550.375 410.738 550.806 410.529 552.197 410.654ZM521.175 424.599C522.552 425.795 524.36 426.782 526.056 428.089C525.514 428.617 524.972 429.146 524.541 429.354C523.567 430.091 523.136 430.299 521.968 429.535C521.12 428.881 520.591 428.339 519.743 427.686C520.188 426.406 520.841 425.558 521.175 424.599Z" fill="#D9D9D9"/>
<path d="M674.938 599.957C675.258 600.068 675.689 599.86 676.009 599.971C675.8 599.54 675.481 599.429 675.481 599.429C674.841 599.206 673.77 599.192 673.673 598.442C673.575 597.691 674.229 596.843 674.771 596.314C675.202 596.106 675.633 595.897 676.176 595.369C676.607 595.16 676.926 595.272 677.038 594.952C676.732 593.77 675.327 594.715 674.59 593.742C674.924 592.783 675.883 593.117 676.314 592.908C676.314 592.908 676.746 592.7 676.857 592.38C676.857 592.38 676.648 591.949 676.328 591.837C676.008 591.726 675.689 591.615 675.049 591.393C674.729 591.281 674.521 590.85 674.521 590.85C674.632 590.53 674.743 590.211 675.174 590.002C675.716 589.474 676.467 589.377 677.009 588.848L677.232 588.209C676.912 588.097 676.703 587.666 676.592 587.986C675.841 588.083 675.41 588.292 674.659 588.389C674.34 588.278 673.7 588.056 673.172 587.513C673.172 587.513 673.394 586.874 673.505 586.554C673.616 586.234 674.159 585.706 674.27 585.386C673.95 585.275 673.63 585.164 673.199 585.372C672.448 585.469 671.906 585.998 671.489 585.136C671.28 584.705 671.294 583.634 671.197 582.883C671.308 582.564 671.739 582.355 671.85 582.035C671.961 581.715 672.392 581.507 672.615 580.867C671.864 580.965 671.433 581.173 671.002 581.382C670.029 582.119 669.278 582.216 668.638 581.993C668.11 581.451 668.012 580.7 668.777 579.533C668.999 578.893 669.542 578.365 669.764 577.725L669.555 577.294C669.555 577.294 669.236 577.183 669.124 577.503C668.582 578.031 668.36 578.67 667.817 579.199C667.706 579.519 667.067 579.296 667.067 579.296C666.747 579.185 666.858 578.865 666.969 578.545C667.303 577.586 667.845 577.058 668.179 576.098C668.29 575.779 668.081 575.348 667.873 574.916C667.108 576.084 666.774 577.044 666.232 577.572C666.01 578.212 665.467 578.74 664.939 578.198C664.619 578.086 664.522 577.336 664.313 576.905C664.313 576.905 663.993 576.793 664.104 576.474C663.673 576.682 663.451 577.322 663.02 577.53C662.589 577.739 662.158 577.947 661.838 577.836C661.518 577.725 661.421 576.974 661.212 576.543L661.323 576.223C661.115 575.792 661.768 574.944 661.129 574.722C660.489 574.499 660.475 575.57 660.253 576.209C660.141 576.529 660.141 576.529 660.03 576.849C659.919 577.169 659.697 577.808 659.377 577.697C658.946 577.906 658.097 577.252 657.889 576.821C657.791 576.07 657.903 575.75 658.125 575.111C658.236 574.791 658.028 574.36 657.708 574.249C657.166 574.777 657.374 575.208 657.263 575.528C657.041 576.168 657.138 576.918 656.596 577.447C656.484 577.766 656.053 577.975 655.734 577.864C655.414 577.752 655.205 577.321 654.885 577.21C654.037 576.557 653.926 576.877 653.592 577.836C653.481 578.156 653.37 578.475 653.258 578.795C651.771 577.919 652.327 576.32 651.381 574.916C651.159 575.556 651.047 575.875 650.936 576.195C651.034 576.946 651.02 578.017 651.117 578.767C651.103 579.838 650.45 580.686 650.227 581.326C650.005 581.965 649.157 581.312 648.726 581.52C648.406 581.409 648.294 581.729 648.183 582.049C648.072 582.368 647.961 582.688 647.85 583.008C647.294 584.607 647.294 584.607 645.583 584.37C645.263 584.259 645.263 584.259 644.832 584.468C645.041 584.899 645.569 585.441 645.778 585.872C646.515 586.845 645.848 588.764 644.874 589.501C644.443 589.709 644.123 589.598 643.804 589.487C643.484 589.376 643.164 589.264 642.844 589.153C642.733 589.473 642.733 589.473 642.733 589.473C643.373 589.695 643.581 590.126 644.221 590.349C645.069 591.002 645.486 591.864 645.153 592.824C644.819 593.783 644.068 593.88 643.428 593.658C643.109 593.547 642.997 593.866 642.678 593.755C643.206 594.298 644.165 594.631 644.805 594.854C645.125 594.965 645.334 595.396 645.222 595.716C645.431 596.147 645 596.355 644.569 596.564C644.138 596.772 643.818 596.661 643.276 597.189C643.915 597.412 644.235 597.523 644.235 597.523C645.626 597.648 646.265 597.871 646.14 599.261C646.238 600.012 645.904 600.971 646.001 601.722C646.752 601.625 647.823 601.639 648.032 602.07C648.56 602.612 648.338 603.252 648.435 604.002C650.896 604.142 650.896 604.142 651.3 606.074C652.913 605.56 652.913 605.56 653.956 607.715C656.222 606.352 656.222 606.352 657.057 608.076L657.488 607.868L657.599 607.548C659.323 606.714 659.754 606.505 660.491 607.479C660.7 607.91 660.908 608.341 661.437 608.883C661.993 607.284 661.993 607.284 663.703 607.52C664.343 607.743 664.454 607.423 664.885 607.215C665.219 606.255 665.539 606.366 666.387 607.02C666.707 607.131 667.027 607.242 667.347 607.354C667.458 607.034 667.569 606.714 667.249 606.603C666.943 605.421 667.054 605.101 668.125 605.115C669.196 605.129 670.266 605.143 671.337 605.157C671.129 604.726 671.24 604.406 671.031 603.975C670.725 602.793 670.836 602.474 671.907 602.488C672.658 602.39 672.978 602.501 673.729 602.404C674.48 602.307 674.591 601.987 674.493 601.236C674.187 600.054 674.187 600.054 674.938 599.957Z" fill="#D9D9D9"/>
<path d="M497.92 343.026C498.657 343.999 498.644 345.069 498.31 346.029C498.088 346.668 498.185 347.419 498.825 347.642C499.784 347.975 500.632 348.629 500.507 350.019C500.396 350.339 500.716 350.45 500.605 350.77C501.022 351.632 501.23 352.063 502.301 352.077C502.621 352.188 503.052 351.98 503.372 352.091C504.123 351.994 504.443 352.105 504.86 352.967C505.486 354.26 506.125 354.482 507.627 354.288C508.378 354.19 509.018 354.413 509.768 354.316C510.519 354.218 511.159 354.441 511.59 354.232C512.786 352.856 514.496 353.092 515.581 352.036C516.012 351.827 516.123 351.507 516.234 351.187C517.11 349.7 517.986 348.212 518.542 346.613C518.876 345.654 519.098 345.014 518.681 344.152C517.944 343.179 517.638 341.997 518.403 340.829C518.736 339.87 518.639 339.119 517.791 338.466C516.845 337.061 515.357 336.185 514.412 334.781C514.092 334.67 513.883 334.239 513.563 334.128C512.381 334.433 511.533 333.78 510.365 333.015C509.614 333.113 508.863 333.21 508.432 333.418C507.57 333.836 506.708 334.253 505.748 333.919C504.789 333.585 504.358 333.794 504.024 334.753C503.691 335.712 503.148 336.241 502.078 336.227C501.327 336.324 501.216 336.644 500.673 337.172C499.366 338.868 499.019 340.898 498.032 342.706C497.503 342.164 497.712 342.595 497.92 343.026Z" fill="#D9D9D9"/>
<path d="M664.505 321.743C663.949 323.342 663.949 323.342 664.894 324.746C665.423 325.288 665.84 326.15 665.826 327.221C665.715 327.54 666.243 328.083 666.452 328.514C667.718 330.029 669.414 331.336 671.124 331.573C672.835 331.809 674.42 333.436 676.269 331.211C677.869 331.767 678.953 330.711 679.718 329.543L680.149 329.334C681.539 329.46 681.984 328.18 682.318 327.221C682.652 326.262 683.305 325.414 683.639 324.454C683.75 324.135 683.972 323.495 684.084 323.175C683.778 321.993 683.472 320.812 684.236 319.644C684.236 319.644 684.348 319.324 684.028 319.213C683.291 318.239 682.873 317.377 682.136 316.404C681.608 315.862 681.399 315.431 681.302 314.68C681.316 313.609 681.316 313.609 679.925 313.484C678.215 313.248 676.824 313.123 675.879 311.718C675.559 311.607 675.239 311.496 674.919 311.385C672.986 311.788 671.582 312.733 669.441 312.705C669.121 312.594 668.579 313.122 668.467 313.442C668.022 314.721 667.48 315.25 666.187 315.875C665.325 316.292 664.671 317.141 664.018 317.989C663.907 318.308 663.684 318.948 664.004 319.059C665.061 320.144 664.407 320.992 664.505 321.743Z" fill="#D9D9D9"/>
<path d="M647.367 454.507C646.393 455.244 645.531 455.661 644.572 455.328C644.252 455.216 643.821 455.425 643.39 455.634C642.736 456.482 642.083 457.33 640.901 457.636C640.581 457.524 640.47 457.844 640.359 458.164C639.594 459.332 638.94 460.18 638.496 461.459C637.939 463.058 637.064 464.546 638.329 466.061L638.538 466.492C637.982 468.091 638.288 469.273 639.887 469.829C640.207 469.94 640.095 470.26 640.304 470.691C640.193 471.011 640.401 471.442 640.29 471.762C640.61 471.873 640.61 471.873 640.93 471.984C642 471.998 642.64 472.221 642.946 473.402C643.252 474.584 645.171 475.252 646.673 475.057C647.535 474.64 648.606 474.654 649.565 474.988C649.885 475.099 650.636 475.001 650.636 475.001C651.401 473.834 652.36 474.167 653.431 474.181C653.542 473.861 653.653 473.542 653.653 473.542C653.778 472.151 653.778 472.151 655.28 471.957C656.031 471.859 656.573 471.331 656.476 470.58C656.378 469.829 656.601 469.19 657.463 468.773C657.894 468.564 658.116 467.925 657.908 467.494C657.491 466.632 657.713 465.992 658.367 465.144C659.02 464.296 658.839 461.724 657.88 461.39C656.711 460.625 656.614 459.874 656.739 458.484C655.237 458.679 654.069 457.914 653.875 456.412C653.777 455.662 653.137 455.439 652.387 455.536C649.814 455.717 648.201 456.232 647.367 454.507Z" fill="#D9D9D9"/>
<path d="M650.33 482.066C649.259 482.052 648.188 482.039 647.771 481.177C647.576 479.675 645.866 479.439 645.129 478.465C644.809 478.354 644.489 478.243 644.169 478.132C643.307 478.549 642.668 478.326 641.708 477.992C641.388 477.881 640.749 477.659 640.749 477.659C639.247 477.853 637.648 477.297 636.66 479.105C636.549 479.424 635.91 479.202 635.479 479.41C635.048 479.619 634.728 479.508 634.616 479.827C634.394 480.467 634.172 481.107 633.421 481.204C632.35 481.19 632.656 482.372 632.114 482.9C630.598 484.165 630.042 485.764 630.876 487.488L630.974 488.239C629.889 489.296 630.738 489.949 631.266 490.492C631.475 490.923 631.572 491.673 631.669 492.424C631.767 493.175 631.975 493.606 632.726 493.509C633.046 493.62 633.366 493.731 633.366 493.731C633.894 494.273 633.992 495.024 634.52 495.566C635.049 496.109 635.911 495.692 636.439 496.234C637.287 496.887 638.247 497.221 639.318 497.235C639.749 497.026 640.388 497.249 640.708 497.36C642.85 497.388 645.102 497.096 646.52 495.08C646.632 494.76 647.174 494.232 647.605 494.023C649.218 493.509 649.983 492.341 649.788 490.84C649.899 490.52 649.802 489.769 649.802 489.769C650.886 488.712 650.372 487.1 651.025 486.251C650.705 486.14 650.817 485.82 650.817 485.82C648.689 484.722 648.689 484.722 650.33 482.066Z" fill="#D9D9D9"/>
<path d="M653.959 400.522C652.777 400.828 651.386 400.703 650.941 401.982C650.83 402.302 650.399 402.51 650.079 402.399C647.173 403.539 646.395 405.777 645.936 408.127C645.922 409.198 646.228 410.38 645.463 411.547C645.352 411.867 645.561 412.298 645.881 412.409C646.729 413.063 647.466 414.036 647.772 415.218C647.981 415.649 648.189 416.08 648.509 416.191C649.886 417.387 651.374 418.263 652.973 418.819C653.612 419.042 654.252 419.264 655.003 419.167C656.074 419.181 656.825 419.083 657.895 419.097C658.535 419.32 659.397 418.903 659.939 418.374C660.593 417.526 661.246 416.678 661.997 416.581C663.29 415.955 664.264 415.218 664.5 413.508C664.722 412.869 664.945 412.229 665.167 411.59C665.39 410.95 665.723 409.991 665.626 409.24C665.737 408.92 665.32 408.058 665.111 407.627C664.694 406.765 664.277 405.903 664.18 405.152C663.776 403.22 662.511 401.704 660.912 401.148C658.45 401.009 656.531 400.341 653.959 400.522Z" fill="#D9D9D9"/>
<path d="M746.797 583.01C746.7 582.259 746.283 581.397 746.185 580.646C746.311 579.256 746.324 578.186 744.836 577.31C744.517 577.198 744.739 576.559 744.53 576.128C744.642 575.808 744.433 575.377 744.433 575.377C743.474 575.043 743.376 574.292 742.959 573.43C742.75 572.999 741.902 572.346 741.262 572.123C740.943 572.012 739.872 571.998 739.761 572.318C738.996 573.486 737.397 572.93 736.312 573.986C734.824 573.11 734.157 575.029 733.086 575.015C732.766 574.904 732.544 575.543 732.544 575.543C732.21 576.503 731.668 577.031 730.917 577.128C730.486 577.337 730.375 577.657 730.152 578.296C729.93 578.936 730.139 579.367 729.596 579.895C729.374 580.535 729.263 580.855 729.36 581.605C729.569 582.036 729.457 582.356 729.346 582.676C728.901 583.955 729.527 585.248 730.264 586.221C730.473 586.652 730.89 587.514 731.099 587.945C731.196 588.696 731.516 588.807 732.156 589.03C733.226 589.044 734.506 589.489 734.7 590.99L735.34 591.213C736.202 590.796 736.842 591.018 737.481 591.241C738.441 591.575 740.694 591.283 740.916 590.643C741.472 589.044 742.654 588.738 744.364 588.975C744.489 587.584 744.503 586.514 745.477 585.777C745.477 585.777 745.699 585.137 745.81 584.818C746.353 584.289 746.895 583.761 746.797 583.01Z" fill="#D9D9D9"/>
<path d="M786.247 347.954C786.775 348.497 787.081 349.678 787.721 349.901C788.68 350.235 789.529 350.888 790.168 351.111C791.767 351.667 793.478 351.903 795.091 351.389C797.886 350.569 799.944 348.775 800.945 345.897C801.07 344.507 801.195 343.116 801 341.615C800.791 341.184 800.694 340.433 800.374 340.322C799.846 339.779 799.317 339.237 799.54 338.598C799.442 337.847 799.234 337.416 798.483 337.513C797.412 337.499 796.453 337.165 796.147 335.984C796.258 335.664 795.618 335.441 795.187 335.65C793.046 335.622 790.807 334.843 788.958 337.068C787.456 337.263 787.122 338.222 786.357 339.39C785.815 339.918 785.162 340.766 784.939 341.406C784.912 343.547 784.453 345.897 786.247 347.954Z" fill="#D9D9D9"/>
<path d="M668.758 514.643C668.744 515.714 668.73 516.784 669.578 517.438C669.898 517.549 669.787 517.869 669.995 518.3C671.358 520.566 673.055 521.873 675.627 521.693C676.058 521.484 676.698 521.707 677.018 521.818C677.338 521.929 677.658 522.04 678.089 521.832C678.742 520.984 680.452 521.22 680.995 520.692C681.968 519.955 683.053 518.898 684.137 517.842C684.248 517.522 684.36 517.202 684.151 516.771C684.373 516.131 684.276 515.381 684.276 515.381C684.943 513.462 684.943 513.462 684.429 511.849C684.22 511.418 684.012 510.987 684.234 510.348C684.456 509.708 684.248 509.277 683.608 509.054C683.288 508.943 682.649 508.721 682.76 508.401C682.343 507.539 681.703 507.316 681.063 507.094C680.744 506.983 680.215 506.44 679.895 506.329C679.256 506.107 679.047 505.676 678.296 505.773C675.835 505.634 673.582 505.926 671.844 507.831C671.733 508.15 671.302 508.359 670.982 508.248C670.12 508.665 669.898 509.304 669.564 510.264C669.453 510.583 669.23 511.223 669.119 511.543C668.674 512.822 669.091 513.684 668.758 514.643Z" fill="#D9D9D9"/>
<path d="M661.373 257.566C661.693 257.677 662.013 257.788 662.222 258.219C662.75 258.762 663.821 258.776 664.572 258.678C666.824 258.386 669.508 257.886 671.037 255.55C671.58 255.022 672.122 254.493 672.456 253.534C672.678 252.895 672.789 252.575 673.012 251.935C673.026 250.865 672.928 250.114 673.262 249.154C673.373 248.835 673.596 248.195 673.276 248.084C672.219 246.999 671.913 245.818 671.607 244.636C671.398 244.205 671.19 243.774 670.55 243.551C669.591 243.217 669.062 242.675 668.103 242.342L667.783 242.23C664.904 241.229 662.527 242.911 660.052 243.843C659.62 244.051 659.509 244.371 659.398 244.691C659.064 245.65 658.522 246.179 658.188 247.138C657.855 248.097 657.632 248.737 657.618 249.807C657.146 253.228 658.286 256.134 661.373 257.566Z" fill="#D9D9D9"/>
<path d="M791.653 509.71C792.501 510.363 792.71 510.794 792.807 511.545C793.113 512.727 793.1 513.798 793.517 514.66C794.337 517.454 796.882 519.415 799.886 519.026C800.956 519.039 801.819 518.622 802.681 518.205C804.836 517.163 806.143 515.466 806.282 513.005C806.421 510.544 806.017 508.612 804.001 507.194C802.624 505.998 801.345 505.553 799.843 505.748C799.523 505.636 799.203 505.525 798.772 505.734C798.897 504.343 798.16 503.37 797.312 502.716C795.407 500.978 793.697 500.742 791.639 502.536C788.621 503.995 788.997 508.069 791.653 509.71Z" fill="#D9D9D9"/>
<path d="M688.265 463.716C686.749 464.981 685.442 466.677 685.734 468.93C685.623 469.249 685.832 469.68 685.72 470C685.275 471.279 685.581 472.461 686.75 473.226C687.069 473.337 687.167 474.088 687.375 474.519C687.584 474.95 687.473 475.27 687.793 475.381C688.752 475.715 689.712 476.048 690.129 476.91C690.449 477.022 690.768 477.133 691.088 477.244C692.159 477.258 692.91 477.161 693.869 477.494C694.509 477.717 695.26 477.62 695.802 477.091C696.233 476.883 696.775 476.354 697.207 476.146C698.291 475.089 699.695 474.144 700.363 472.225C701.364 469.347 700.863 466.664 698.749 464.495C697.901 463.841 696.51 463.716 695.885 462.423L695.565 462.312C692.686 461.311 690.322 461.922 688.265 463.716Z" fill="#D9D9D9"/>
<path d="M449.913 246.034C450.97 247.119 451.485 248.731 452.986 248.537C457.992 250.636 461.886 247.689 462.887 244.811C464.777 239.375 462.246 236.344 458.2 234.578C455.752 233.368 449.94 235.648 449.05 238.206C448.605 239.485 448.48 240.876 448.036 242.155C449.092 243.239 448.536 244.838 449.913 246.034Z" fill="#D9D9D9"/>
<path d="M633.32 398.002C631.609 397.766 630.01 397.21 628.494 398.475L628.063 398.684C626.131 399.087 625.463 401.005 624.379 402.062L624.268 402.382C624.254 403.452 624.031 404.092 624.017 405.163C623.781 406.873 624.296 408.486 625.353 409.57C626.41 410.655 627.355 412.059 629.177 411.975C629.928 411.878 630.456 412.42 631.416 412.754C632.278 412.337 633.251 411.6 634.322 411.614C634.642 411.725 635.184 411.197 635.295 410.877C637.019 410.043 637.047 407.902 638.243 406.525L638.354 406.206C637.839 404.593 638.395 402.994 637.561 401.27C636.407 399.435 635.03 398.239 633.32 398.002Z" fill="#D9D9D9"/>
<path d="M502.609 377.992C501.009 377.436 499.953 376.351 498.34 376.866C497.909 377.074 497.589 376.963 497.269 376.852C496.309 376.518 495.336 377.255 494.794 377.783C494.251 378.311 494.029 378.951 493.487 379.479C491.526 382.024 492.027 384.707 492.097 387.599C491.986 387.919 492.625 388.141 492.834 388.572C493.362 389.115 493.682 389.226 494.211 389.768C494.53 389.879 494.628 390.63 495.059 390.422C496.769 390.658 498.48 390.894 500.301 390.811C502.874 390.63 504.292 388.614 505.279 386.807C505.946 384.888 506.183 383.178 505.668 381.565C505.153 379.952 504.528 378.659 502.609 377.992Z" fill="#D9D9D9"/>
<path d="M559.383 351.855C559.48 352.606 559.689 353.037 560.329 353.259C560.968 353.482 561.928 353.816 562.136 354.247C562.554 355.109 563.193 355.331 563.944 355.234C564.695 355.136 565.654 355.47 566.405 355.373C568.769 354.761 570.076 353.065 571.175 350.938C571.397 350.298 571.619 349.659 571.522 348.908C571.536 347.837 571.23 346.655 570.813 345.793C569.978 344.069 568.602 342.874 567.114 341.998C566.794 341.886 566.474 341.775 566.154 341.664C563.901 341.956 561.44 341.817 560.119 344.583C559.243 346.071 557.936 347.767 558.98 349.922C559.188 350.353 559.286 351.104 559.383 351.855Z" fill="#D9D9D9"/>
<path d="M542.561 385.795C543.855 385.169 545.259 384.223 546.344 383.167C547.108 381.999 547.762 381.151 547.136 379.858C546.927 379.427 546.83 378.676 546.941 378.356C546.844 377.605 546.635 377.174 546.107 376.632C545.898 376.201 545.578 376.09 545.481 375.339C545.272 374.908 545.064 374.477 544.744 374.366C544.424 374.255 543.896 373.712 543.576 373.601C542.727 372.948 541.657 372.934 540.795 373.351C539.933 373.768 539.182 373.865 538.32 374.282C537.889 374.491 537.569 374.38 537.457 374.699C536.693 375.867 535.608 376.924 534.844 378.092C534.83 379.162 534.496 380.122 534.802 381.303C534.761 384.515 539.113 387.463 542.561 385.795Z" fill="#D9D9D9"/>
<path d="M745.229 563.824C744.979 566.605 746.022 568.76 748.47 569.969C752.516 571.735 755.533 570.276 757.077 566.869C758.94 563.574 756.214 559.041 753.336 558.04C752.168 557.276 750.555 557.79 749.261 558.416C746.786 559.347 745.688 561.474 745.229 563.824Z" fill="#D9D9D9"/>
<path d="M756.011 466.846C753.342 466.276 750.755 467.527 749.866 470.086C748.865 472.964 750.005 475.87 752.564 476.759C754.163 477.316 754.052 477.635 755.317 479.151C756.583 480.666 758.293 480.903 759.6 479.207C760.253 478.359 760.587 477.399 759.961 476.106C759.753 475.675 759.655 474.924 759.558 474.174C760.642 473.117 760.017 471.824 760.03 470.753C759.947 468.932 758.681 467.416 757.193 466.54C756.331 466.957 756.331 466.957 756.011 466.846Z" fill="#D9D9D9"/>
<path d="M621.025 387.992C619.412 388.507 618.647 389.675 618.202 390.954C617.201 393.832 618.759 397.6 621.428 398.17C622.708 398.615 624.21 398.42 625.072 398.003C627.116 397.28 628.311 395.904 628.659 393.874C628.993 392.915 628.909 391.093 628.172 390.12C627.435 389.147 626.92 387.534 625.099 387.617C623.18 386.95 623.18 386.95 621.025 387.992Z" fill="#D9D9D9"/>
<path d="M763.695 336.526C764.752 337.61 766.351 338.166 767.741 338.292C769.452 338.528 771.176 337.694 772.483 335.998C773.679 334.621 773.164 333.008 773.72 331.409C773.317 329.477 772.051 327.961 770.021 327.614C766.712 326.821 763.694 328.281 762.582 331.479C761.915 333.397 762.429 335.01 763.695 336.526Z" fill="#D9D9D9"/>
<path d="M739.439 290.809C738.007 293.896 740.218 296.815 742.456 297.594C745.335 298.595 747.921 297.344 748.922 294.466C749.923 291.588 748.463 288.571 746.016 287.361C743.777 286.582 740.008 288.14 739.439 290.809Z" fill="#D9D9D9"/>
<path d="M799.251 402.303C800.322 402.317 801.504 402.011 802.686 401.705C802.908 401.066 803.451 400.537 803.673 399.898C805.008 396.061 803.45 392.293 798.848 392.126C794.884 392.181 792.813 395.045 793.62 398.91C794.343 400.954 796.679 402.484 799.251 402.303Z" fill="#D9D9D9"/>
<path d="M695.263 502.353C694.943 502.241 694.734 501.81 694.415 501.699C692.176 500.92 688.727 502.589 687.949 504.827C686.739 507.274 687.129 510.277 691.175 512.043C691.495 512.154 692.135 512.377 692.455 512.488C693.637 512.182 695.138 511.988 696.112 511.251C697.516 510.305 698.072 508.707 698.308 506.996C698.433 505.606 698.127 504.424 696.64 503.548C696.111 503.006 695.902 502.575 695.263 502.353Z" fill="#D9D9D9"/>
<path d="M631.121 377.524C631.44 377.635 632.191 377.537 632.622 377.329C634.555 376.926 634.875 377.037 635.709 378.761C636.753 380.916 638.88 382.015 641.133 381.723C641.884 381.625 642.635 381.528 643.385 381.431C645.207 381.347 645.972 380.18 645.457 378.567C645.151 377.385 644.414 376.412 644.108 375.23C643.802 374.048 643.065 373.075 641.674 372.949C640.187 372.074 639.005 372.379 637.92 373.436C637.378 373.964 636.196 374.27 635.445 374.367C633.832 374.882 632.428 375.827 631.134 376.453C631.023 376.773 630.912 377.092 630.801 377.412C630.481 377.301 630.801 377.412 631.121 377.524Z" fill="#D9D9D9"/>
<path d="M611.52 493.661C612.299 491.423 610.728 488.726 608.697 488.378C605.819 487.377 603.983 488.531 602.551 491.617C601.884 493.536 603.775 496.345 605.694 497.012C608.044 497.471 611.062 496.011 611.52 493.661Z" fill="#D9D9D9"/>
<path d="M556.356 478.059C556.119 479.77 557.482 482.036 559.401 482.703C559.721 482.815 560.472 482.717 561.111 482.94C562.502 483.065 563.364 482.648 563.809 481.369C563.92 481.049 564.031 480.729 564.574 480.201C565.672 478.074 564.434 474.417 561.333 474.055C558.97 474.667 556.814 475.71 556.356 478.059Z" fill="#D9D9D9"/>
<path d="M720.248 458.349C722.167 459.016 725.185 457.556 725.741 455.958C726.422 452.968 724.948 451.022 723.029 450.354C720.79 449.576 718.524 450.938 717.745 453.177C716.967 455.415 717.69 457.459 720.248 458.349Z" fill="#D9D9D9"/>
<path d="M752.897 252.114C755.136 252.893 757.611 251.962 758.501 249.403C759.168 247.485 758.027 244.579 756.428 244.023C753.23 242.91 751.283 244.384 750.616 246.303C749.393 249.82 750.978 251.447 752.897 252.114Z" fill="#D9D9D9"/>
<path d="M776.37 499.02C778.928 499.91 780.972 499.187 781.862 496.628C782.641 494.39 782.029 492.026 779.79 491.248C777.551 490.469 775.076 491.4 774.297 493.639C773.199 495.766 774.451 498.352 776.37 499.02Z" fill="#D9D9D9"/>
<path d="M780.35 539.115C782.269 539.783 784.855 538.532 785.522 536.613C786.301 534.374 785.369 531.899 782.81 531.01C780.571 530.231 778.305 531.593 777.638 533.512C776.859 535.751 778.111 538.337 780.35 539.115Z" fill="#D9D9D9"/>
<path d="M510.195 478.851C507.956 478.072 505.8 479.115 505.022 481.353C504.355 483.272 505.398 485.427 507.317 486.094C509.555 486.873 511.28 486.039 512.489 483.592C513.588 481.465 512.433 479.629 510.195 478.851Z" fill="#D9D9D9"/>
<path d="M767.884 434.769C768.551 432.85 767.508 430.695 765.589 430.027C763.67 429.36 761.834 430.514 761.167 432.433C760.5 434.351 761.543 436.506 763.462 437.174C765.172 437.41 767.327 436.367 767.884 434.769Z" fill="#D9D9D9"/>
<path d="M736.878 306.408C735.279 305.852 733.124 306.895 732.568 308.494C732.012 310.092 733.055 312.248 734.654 312.804C736.253 313.36 738.728 312.428 739.284 310.83C739.618 309.87 738.908 306.756 736.878 306.408Z" fill="#D9D9D9"/>
<path d="M751.14 388.08C750.583 389.679 751.738 391.514 753.337 392.07C755.256 392.738 757.091 391.584 757.759 389.665C758.315 388.066 757.272 385.911 755.561 385.675C753.531 385.327 751.696 386.481 751.14 388.08Z" fill="#D9D9D9"/>
<path d="M558.967 367.483C557.368 366.927 555.213 367.97 554.657 369.569C553.989 371.487 554.935 372.892 556.743 373.879C558.342 374.435 560.066 373.601 560.733 371.682C561.401 369.763 560.566 368.039 558.967 367.483Z" fill="#D9D9D9"/>
<path d="M553.449 380.26C552.698 380.357 552.17 379.815 551.308 380.232C550.765 380.76 549.903 381.177 549.041 381.594C548.068 382.331 548.277 382.762 549.236 383.096C549.876 383.319 550.084 383.75 550.293 384.181C551.03 385.154 551.878 385.807 552.949 385.821C554.451 385.627 555.646 384.25 555.66 383.18C555.994 382.22 555.048 380.816 553.449 380.26Z" fill="#D9D9D9"/>
<path d="M535.711 327.133C536.991 327.578 539.146 326.535 539.591 325.256C540.036 323.977 539.201 322.253 537.602 321.696C536.003 321.14 534.599 322.086 534.043 323.685C533.917 325.075 534.432 326.688 535.711 327.133Z" fill="#D9D9D9"/>
<path d="M758.339 543.649C757.894 544.928 758.409 546.541 760.008 547.097C761.607 547.654 762.9 547.028 763.456 545.429C763.901 544.15 763.067 542.426 761.787 541.981C760.188 541.425 758.784 542.37 758.339 543.649Z" fill="#D9D9D9"/>
<path d="M711.012 244.718C712.291 245.162 714.015 244.328 714.46 243.049C714.905 241.77 714.39 240.157 712.791 239.601C711.512 239.156 709.899 239.67 709.454 240.95C708.898 242.548 709.732 244.273 711.012 244.718Z" fill="#D9D9D9"/>
<path d="M735.57 474.074C736.53 474.408 737.281 474.31 738.24 474.644C738.574 473.685 738.796 473.045 739.019 472.406C739.352 471.446 738.935 470.584 738.087 469.931C737.558 469.388 736.599 469.055 735.737 469.472C734.875 469.889 734.332 470.417 734.319 471.488C734.305 472.558 734.931 473.851 735.57 474.074Z" fill="#D9D9D9"/>
<path d="M557.992 392.954C558.743 392.857 559.494 392.76 559.828 391.8C560.481 390.952 560.926 389.673 561.579 388.825C561.802 388.185 561.913 387.866 561.385 387.323C560.856 386.781 560.105 386.878 559.994 387.198C558.91 388.255 557.714 389.631 556.629 390.688C555.865 391.856 556.921 392.94 557.992 392.954Z" fill="#D9D9D9"/>
<path d="M511.479 404.021C511.59 403.701 511.702 403.381 511.493 402.95C511.618 401.56 510.992 400.267 509.602 400.141C508.322 399.696 507.238 400.753 506.793 402.032C506.57 402.672 507.085 404.285 507.405 404.396C508.364 404.73 509.324 405.063 510.075 404.966C511.145 404.98 511.577 404.771 511.479 404.021Z" fill="#D9D9D9"/>
<path d="M773.906 275.196C775.186 275.641 776.799 275.127 777.355 273.528C777.688 272.568 777.174 270.956 776.214 270.622C774.935 270.177 773.322 270.691 772.877 271.97C772.112 273.138 772.738 274.431 773.906 275.196Z" fill="#D9D9D9"/>
<path d="M565.672 387.38C565.992 387.491 566.743 387.394 567.174 387.185C568.147 386.448 568.8 385.6 569.454 384.752C569.565 384.432 569.788 383.793 569.579 383.362C569.37 382.931 568.731 382.708 568.411 382.597C567.34 382.583 566.478 383 565.727 383.097C564.545 383.403 564.212 384.362 564.198 385.433C564.073 386.823 565.143 386.837 565.672 387.38Z" fill="#D9D9D9"/>
<path d="M757.339 397.047C758.299 397.38 759.912 396.866 760.357 395.587C760.69 394.627 759.856 392.903 758.896 392.57C757.937 392.236 756.213 393.07 755.879 394.029C755.114 395.197 755.74 396.49 757.339 397.047Z" fill="#D9D9D9"/>
<path d="M707.285 458.501C708.244 458.834 709.857 458.32 710.191 457.361C710.524 456.401 709.899 455.108 708.939 454.775C707.98 454.441 706.686 455.066 706.242 456.346C706.019 456.985 706.325 458.167 707.285 458.501Z" fill="#D9D9D9"/>
<path d="M725.942 638.845L725.622 638.734C724.969 639.582 723.996 640.319 723.453 640.847C723.231 641.487 723.12 641.807 723.439 641.918C723.648 642.349 723.745 643.1 724.065 643.211C724.385 643.322 724.816 643.114 725.247 642.905C725.247 642.905 725.358 642.585 725.678 642.697C726.332 641.849 726.471 639.388 725.942 638.845Z" fill="#D9D9D9"/>
<path d="M514.985 389.826C514.985 389.826 514.554 390.034 514.763 390.465C514.846 392.287 516.445 392.843 517.071 394.136C517.391 394.247 517.502 393.927 517.822 394.039C517.933 393.719 518.045 393.399 518.156 393.079C517.85 391.897 516.793 390.813 515.736 389.728C515.305 389.937 514.985 389.826 514.985 389.826Z" fill="#D9D9D9"/>
<path d="M760.505 500.31C761.144 500.533 762.438 499.907 762.34 499.156C762.563 498.517 762.145 497.655 761.186 497.321C760.546 497.099 759.684 497.516 759.462 498.155C759.128 499.115 759.545 499.977 760.505 500.31Z" fill="#D9D9D9"/>
<path d="M836.645 657.632C837.521 656.145 838.397 654.657 839.162 653.489C839.162 653.489 839.273 653.169 838.953 653.058L838.522 653.267C837.758 654.435 836.993 655.602 835.908 656.659C835.366 657.187 834.713 658.036 834.699 659.106C835.881 658.8 836.103 658.161 836.645 657.632Z" fill="#D9D9D9"/>
<path d="M527.699 308.934C528.339 309.156 529.201 308.739 529.423 308.1C529.645 307.46 529.228 306.598 528.589 306.376C527.949 306.153 527.087 306.57 526.864 307.21C526.531 308.169 526.948 309.031 527.699 308.934Z" fill="#D9D9D9"/>
<path d="M654.718 358.128C654.941 357.489 654.524 356.627 653.884 356.404C653.244 356.182 652.702 356.71 652.48 357.349C652.257 357.989 652.674 358.851 653.314 359.074C653.634 359.185 654.496 358.768 654.718 358.128Z" fill="#D9D9D9"/>
<path d="M769.124 280.703C770.195 280.717 771.488 280.091 771.822 279.132C771.933 278.812 771.724 278.381 771.404 278.27C770.334 278.256 769.04 278.881 768.707 279.841C768.596 280.16 768.484 280.48 769.124 280.703C768.804 280.591 768.804 280.591 769.124 280.703Z" fill="#D9D9D9"/>
<path d="M614.676 423.782C614.676 423.782 615.107 423.574 615.218 423.254C615.329 422.934 615.009 422.823 615.009 422.823C613.841 422.058 612.882 421.724 611.589 422.35C612.423 424.074 613.063 424.296 614.676 423.782Z" fill="#D9D9D9"/>
<path d="M569.038 441.603C567.967 441.589 567.008 441.255 566.466 441.783L566.563 442.534C567.634 442.548 568.704 442.562 569.664 442.896L569.886 442.256C569.678 441.825 569.358 441.714 569.038 441.603Z" fill="#D9D9D9"/>
<path d="M770.338 543.161C770.978 543.384 771.84 542.967 772.062 542.327C772.285 541.688 772.076 541.257 771.436 541.034C770.797 540.812 770.046 540.909 769.823 541.549C769.601 542.188 769.698 542.939 770.338 543.161Z" fill="#D9D9D9"/>
<path d="M775.039 369.867C776.11 369.881 777.292 369.575 778.154 369.158C778.154 369.158 778.265 368.838 778.056 368.407C776.666 368.282 775.595 368.268 774.622 369.005C774.622 369.005 774.511 369.325 774.399 369.644C774.83 369.436 775.039 369.867 775.039 369.867Z" fill="#D9D9D9"/>
<path d="M907.733 460.465C906.217 461.731 905.133 462.787 904.896 464.497C906.19 463.872 906.954 462.704 907.733 460.465Z" fill="#D9D9D9"/>
<path d="M724.473 628.655C723.277 630.032 722.721 631.631 722.276 632.91C724.779 629.837 724.779 629.837 724.473 628.655Z" fill="#D9D9D9"/>
<path d="M835.244 467.875C835.244 467.875 835.884 468.098 835.995 467.778C836.537 467.25 836.76 466.61 837.302 466.082C837.093 465.651 837.093 465.651 836.885 465.22C836.885 465.22 836.565 465.109 836.134 465.317C835.592 465.845 835.049 466.374 834.827 467.013C835.147 467.125 834.924 467.764 835.244 467.875Z" fill="#D9D9D9"/>
<path d="M805.035 609.358C807.079 608.635 807.955 607.147 808.831 605.66C807.426 606.605 806.022 607.551 805.035 609.358Z" fill="#D9D9D9"/>
<path d="M499.6 511.371C500.142 510.843 500.253 510.523 500.476 509.883C500.587 509.563 500.587 509.563 500.698 509.244L500.17 508.701C499.627 509.23 499.085 509.758 498.543 510.286C498.001 510.815 498.098 511.565 498.626 512.108C499.058 511.899 499.489 511.691 499.6 511.371Z" fill="#D9D9D9"/>
<path d="M611.182 379.192C612.253 379.206 612.906 378.358 613.56 377.51C613.671 377.19 613.671 377.19 613.351 377.079C613.031 376.967 612.712 376.856 612.712 376.856C611.849 377.273 611.307 377.801 610.445 378.219L610.223 378.858C610.542 378.969 610.862 379.081 611.182 379.192Z" fill="#D9D9D9"/>
<path d="M883.789 299.434C884.763 298.697 884.665 297.946 884.359 296.764C883.386 297.501 882.733 298.349 883.15 299.211C883.358 299.642 883.678 299.754 883.789 299.434Z" fill="#D9D9D9"/>
<path d="M838.3 637.418L838.411 637.098L838.092 636.987C837.229 637.404 836.367 637.821 835.825 638.35L836.034 638.781C836.896 638.364 837.647 638.266 838.3 637.418Z" fill="#D9D9D9"/>
<path d="M496.818 502.877C497.582 501.709 497.596 500.639 497.082 499.026C496.206 500.514 496.192 501.584 496.818 502.877Z" fill="#D9D9D9"/>
<path d="M892.099 402.336C893.17 402.35 893.184 401.28 893.726 400.751C893.726 400.751 893.837 400.432 893.517 400.32C892.224 400.946 891.682 401.474 892.099 402.336Z" fill="#D9D9D9"/>
</g>
<defs>
<clipPath id="clip0">
<rect width="471.369" height="360.645" fill="white" transform="translate(831.211 680.477) rotate(-160.822)"/>
</clipPath>
</defs>
</svg>
