<svg width="950" height="850" viewBox="0 0 950 850" fill="none" xmlns="http://www.w3.org/2000/svg">
<g clip-path="url(#clip0)">
<path fill-rule="evenodd" clip-rule="evenodd" d="M109.58 420.495C110.688 418.603 110.656 416.735 109.936 414.654C109.158 412.381 108.352 410.012 107.479 407.768C105.402 401.813 103.353 395.953 101.276 389.998C101.248 389.902 101.219 389.806 101.191 389.71C105.537 390.3 109.703 393.447 112.401 396.923C113.765 398.71 114.745 400.609 115.178 402.776C115.572 405.162 115.43 407.499 115.316 409.931C115.277 410.151 115.362 410.439 115.323 410.659L116.051 410.652C116.356 408.163 116.662 405.673 116.364 403.259C116.009 400.652 115.04 398.436 113.562 396.266C110.885 392.158 106.45 389.508 102.793 386.315C100.673 384.44 99.0429 382.107 97.6724 379.593L96.5999 379.493C100.232 389.994 103.836 400.399 107.468 410.9C107.553 411.188 107.667 411.571 107.752 411.859C103.842 409.575 97.9366 411.116 96.0826 415.42C94.1895 419.944 97.7084 424.429 102.46 424.273C105.343 424.149 107.982 422.846 109.58 420.495Z" fill="#666666"/>
</g>
<g clip-path="url(#clip1)">
<path d="M199.6 209.8C199.3 209.2 198.6 208.9 198 209C197.5 209.1 196.9 209.5 196.7 210.2C196.3 211.2 196.9 211.8 195.6 212.3C195.3 212.4 195 212.6 194 212.9C194 212.8 194 212.7 194 212.6C193.7 210.4 192.2 209.1 190.9 209.3C190.7 209.3 190.4 209.4 190.2 209.5C188.9 210.3 189.1 212.2 190.5 212.4C191.3 212.6 191.9 212.8 192.3 213.4C190.4 214 182.5 215.8 177.2 217.1C177.2 217 177.2 216.9 177.2 216.8C176.8 214.7 175.3 213.5 174 213.6C173.8 213.6 173.5 213.7 173.3 213.8C172 214.6 172.2 216.5 173.6 216.8C174.3 216.9 174.9 217.1 175.2 217.6C173.4 218 172.1 218.3 172.1 218.3C169.8 218.9 168.6 220.7 169.3 222.2C169.6 222.8 170.2 223 170.8 222.8C171.4 222.7 172 222.3 172.2 221.7C172.4 221 172.4 220.1 174 219.5C174.1 219.4 174.7 219.3 175.7 219C176.3 222.4 178.3 236.6 178.2 237.3C178.2 237.5 178 237.6 177.7 237.6C177.3 237.6 176.7 237.5 175.9 237.5C175 237.4 174 237.3 173 237.4C172.8 237.4 172.6 237.4 172.4 237.5C167.5 238.5 168 246 173.5 245.4C178.7 244.8 179 239.6 179 238.8C178.9 238 177.8 223.8 177.3 218.5L192.6 214.6C193.1 218.1 195.1 232.2 195 233C195 233.2 194.8 233.3 194.5 233.3C194.1 233.3 193.5 233.2 192.7 233.2C191.9 233.1 190.9 233 189.9 233.2C189.7 233.2 189.5 233.3 189.3 233.3C184.3 234.2 184.9 241.8 190.4 241.2C195.6 240.6 195.9 235.4 195.9 234.6C195.8 233.8 194.7 219.6 194.2 214.3H194.3C195.1 214.1 195.9 214 196.7 213.8C196.8 213.8 196.8 213.8 196.9 213.8C199.2 213.3 200.4 211.4 199.6 209.8Z" fill="#666666"/>
</g>
<defs>
<clipPath id="clip0">
<rect width="24.4" height="44.9" fill="white" transform="translate(85 382.93) rotate(-16.5005)"/>
</clipPath>
<clipPath id="clip1">
<rect width="30.9" height="36.4" fill="white" transform="translate(169 209)"/>
</clipPath>
</defs>
</svg>
