<svg width="950" height="850" viewBox="0 0 950 850" fill="none" xmlns="http://www.w3.org/2000/svg">
<g clip-path="url(#clip0)">
<path d="M774.035 535.414C775.497 534.66 777.335 534.637 777.49 532.244C777.667 531.69 778.398 531.313 779.128 530.936C779.859 530.559 780.767 529.628 781.498 529.251C781.121 528.52 780.568 528.343 780.191 527.612C782.007 525.751 784.022 525.174 786.592 524.774C787.322 524.397 788.253 525.305 789.36 525.659C789.914 525.836 790.291 526.567 790.844 526.744C791.952 527.098 792.506 527.275 793.79 527.075C794.521 526.698 795.075 526.875 795.806 526.499C798.53 523.706 802.206 523.66 806.06 523.06C807.522 522.307 809.36 522.284 811.021 522.815C811.575 522.992 812.129 523.169 812.86 522.792C814.875 522.215 816.536 522.746 818.198 523.277C819.305 523.631 820.036 523.254 821.144 523.609C823.713 523.209 826.836 522.986 829.959 522.763C832.905 523.094 836.205 522.318 839.505 521.541C843.359 520.941 847.589 521.073 851.243 519.188C851.974 518.811 852.528 518.988 853.812 518.788C856.205 518.942 858.774 518.542 861.52 517.589C864.089 517.189 866.282 516.058 869.228 516.389C871.066 516.366 872.904 516.344 873.989 514.859C873.989 514.859 873.989 514.859 874.167 514.305C878.574 513.882 882.051 512.551 886.282 512.683C888.674 512.837 891.797 512.614 894.189 512.768C894.743 512.945 895.651 512.014 896.204 512.192C898.22 511.615 899.859 510.307 902.074 511.015C902.627 511.192 902.804 510.638 903.358 510.815C903.889 509.153 906.282 509.307 907.189 508.376C906.813 507.645 906.99 507.092 906.613 506.361C907.344 505.984 907.344 505.984 908.075 505.607C908.806 505.23 909.537 504.853 910.467 505.761C911.398 506.669 909.936 507.423 909.759 507.977C910.135 508.708 910.889 510.17 911.819 511.078C911.487 514.024 910.225 516.063 907.479 517.017C906.017 517.771 904.179 517.794 902.717 518.548C901.986 518.925 901.986 518.925 901.809 519.478C902.363 519.656 902.917 519.833 903.293 520.564C903.116 521.117 902.386 521.494 902.386 521.494C900.547 521.517 898.332 520.809 896.494 520.832C894.655 520.855 893.194 521.609 891.178 522.186C887.147 523.339 883.116 524.493 878.532 525.469C877.247 525.669 875.232 526.246 873.947 526.446C872.109 526.469 869.916 527.6 868.078 527.623C864.778 528.399 861.478 529.176 858.178 529.953C855.609 530.353 853.039 530.752 850.847 531.883C848.831 532.46 846.993 532.483 845.332 531.952C844.778 531.775 843.67 531.421 842.94 531.798C837.978 532.043 833.017 532.289 828.255 533.819C828.255 533.819 828.078 534.373 827.524 534.196C828.455 535.104 829.009 535.281 830.116 535.636C829.939 536.189 829.208 536.566 829.031 537.12C827.746 537.32 826.285 538.074 825 538.274C824.646 539.382 823.915 539.759 823.561 540.867C822.476 542.352 822.122 543.459 823.429 545.098C823.805 545.829 823.451 546.937 821.99 547.691C820.705 547.891 819.797 548.822 818.512 549.022C816.497 549.599 815.589 550.53 814.504 552.014C813.973 553.676 813.065 554.607 812.157 555.538C811.98 556.092 811.803 556.646 811.803 556.646C812.179 557.377 812.91 557 813.464 557.177C815.302 557.154 816.587 556.954 818.071 558.039C819.555 559.124 821.216 559.656 822.878 560.187C824.539 560.718 825.646 561.072 827.308 561.603C826.953 562.711 826.776 563.265 825.868 564.196C827.53 564.727 829.368 564.704 831.029 565.235C830.852 565.789 830.675 566.343 830.321 567.451C829.613 569.667 830.189 571.683 831.673 572.768C832.227 572.945 832.05 573.499 832.603 573.676C832.471 577.907 830.501 582.162 828.331 585.132C828.73 587.702 829.306 589.717 827.867 592.31C826.405 593.064 824.766 594.372 823.127 595.68C820.935 596.81 819.119 598.672 817.303 600.534C816.395 601.465 815.31 602.95 813.671 604.258C813.871 605.542 816.086 606.251 814.647 608.843C813.185 609.597 811.17 610.174 809.309 608.358C807.825 607.273 806.717 606.919 805.432 607.119C803.594 607.142 802.487 606.788 800.648 606.81C800.471 607.364 799.917 607.187 799.74 607.741C797.57 610.711 794.27 611.488 790.948 610.426C788.733 609.717 786.717 610.294 785.078 611.602C783.617 612.356 782.155 613.11 780.693 613.864C778.678 614.441 777.039 615.748 775.577 616.502C772.654 618.01 770.461 619.141 767.161 619.917C763.861 620.694 760.938 622.202 757.461 623.532L757.284 624.086C757.483 625.371 758.214 624.994 759.322 625.349C760.429 625.703 762.09 626.234 763.552 625.48C767.206 623.595 770.883 623.549 775.468 622.573C774.56 623.504 774.383 624.058 774.206 624.612C774.028 625.166 774.405 625.897 774.228 626.451C774.605 627.182 774.428 627.735 774.627 629.02C774.273 630.128 773.542 630.505 773.188 631.613C772.834 632.721 772.657 633.275 772.302 634.383C770.841 635.137 769.202 636.445 768.494 638.66C768.139 639.768 767.409 640.145 766.501 641.076C764.331 644.046 764.353 645.885 767.698 648.786C768.252 648.963 769.182 649.871 769.736 650.048C768.828 650.979 768.097 651.356 766.635 652.11C766.082 651.933 764.974 651.578 764.42 651.401C763.867 651.224 763.136 651.601 762.582 651.424C761.297 651.624 760.39 652.555 760.589 653.84C760.789 655.125 761.719 656.033 763.004 655.833C764.465 655.079 766.127 655.61 767.965 655.587C768.696 655.211 769.803 655.565 770.357 655.742C772.018 656.273 772.749 655.896 774.211 655.142C775.673 654.388 777.865 653.257 779.703 653.234C781.719 652.658 783.181 651.904 785.373 650.773C786.104 650.396 786.835 650.019 787.389 650.196C788.673 649.996 789.958 649.796 790.711 651.258C791.088 651.989 791.464 652.72 792.018 652.897C792.24 656.021 790.225 656.598 787.855 658.283C788.232 659.014 789.162 659.922 789.716 660.099C790.646 661.007 791.931 660.807 792.684 662.269C793.615 663.177 794.545 664.085 795.653 664.439C796.583 665.347 797.513 666.255 798.444 667.163C798.998 667.34 798.998 667.34 799.551 667.517C801.744 666.386 801.744 666.386 803.405 666.917C803.782 667.648 802.874 668.579 802.697 669.133C802.343 670.241 801.435 671.172 800.903 672.834C800.726 673.388 800.549 673.942 800.372 674.496C800.395 676.335 801.148 677.797 801.17 679.636C803.563 679.79 805.179 676.643 807.593 678.636C807.97 679.367 807.793 679.921 807.062 680.298C805.423 681.606 804.161 683.645 801.592 684.044C801.038 683.867 800.13 684.798 799.953 685.352C797.96 687.768 795.391 688.168 793.199 689.298C792.468 689.675 791.183 689.875 789.898 690.075C787.329 690.475 785.314 691.052 783.321 693.467C782.59 693.844 782.413 694.398 781.682 694.775C780.774 695.706 779.489 695.906 778.582 696.837C777.851 697.214 776.566 697.414 775.835 697.791C774.396 700.383 772.403 702.799 769.657 703.753C766.91 704.707 766.91 704.707 764.142 703.822C764.319 703.268 764.496 702.714 763.942 702.537C764.119 701.983 763.565 701.806 763.189 701.075C762.635 700.898 761.904 701.275 761.904 701.275L761.173 701.651C760.265 702.582 759.734 704.244 758.649 705.729C761.772 705.506 764.364 706.945 767.664 706.169C770.233 705.769 772.625 705.923 775.394 706.808C776.501 707.162 777.986 708.247 777.454 709.909C777.277 710.463 777.654 711.194 778.03 711.925C778.407 712.656 778.784 713.387 779.16 714.118C778.43 714.495 777.876 714.318 777.876 714.318C776.215 713.787 775.107 713.433 773.645 714.187C770.345 714.963 767.222 715.186 764.299 716.694C762.638 716.163 761.176 716.917 760.268 717.847L759.537 718.224C755.86 718.27 752.937 719.778 749.083 720.378C747.976 720.023 746.868 719.669 746.669 718.385C746.469 717.1 744.808 716.568 743.7 716.214C738.54 715.175 733.955 716.152 730.323 719.875C728.684 721.183 729.061 721.914 731.099 723.176L731.653 723.353C731.298 724.461 732.96 724.992 733.336 725.723C732.605 726.1 731.875 726.477 731.321 726.3C728.729 724.861 725.606 725.084 722.86 726.037C718.098 727.568 713.713 729.83 709.128 730.806C705.828 731.583 702.551 734.198 699.627 735.706L698.897 736.083C698.011 738.853 695.819 739.984 693.249 740.383C692.696 740.206 691.965 740.583 691.788 741.137C689.972 742.999 687.956 743.576 685.941 744.153C683.925 744.73 681.733 745.86 680.471 747.899C679.209 749.938 676.462 750.892 674.27 752.023C673.539 752.399 672.254 752.599 671.346 753.53C670.616 753.907 669.331 754.107 668.777 753.93C667.116 753.399 665.654 754.153 664.547 753.799C662.708 753.822 661.424 754.021 659.962 754.775C658.677 754.975 657.947 755.352 656.839 754.998C654.447 754.844 652.609 754.867 650.593 755.444C649.309 755.644 647.47 755.666 645.632 755.689C644.901 756.066 643.794 755.712 643.063 756.089C641.778 756.289 640.493 756.489 639.209 756.689C638.101 756.335 636.64 757.089 635.355 757.288C634.07 757.488 632.786 757.688 631.678 757.334C630.017 756.803 628.356 756.272 626.872 755.187C625.21 754.656 624.103 754.302 622.265 754.325C620.426 754.348 618.034 754.193 615.642 754.039C614.534 753.685 612.696 753.708 611.788 754.639C611.611 755.193 611.057 755.016 610.504 754.839C606.827 754.885 603.527 755.661 599.85 755.707C599.296 755.53 598.743 755.353 598.012 755.73C594.712 756.507 591.035 756.552 587.912 756.775C584.789 756.998 582.043 757.952 578.543 757.443C577.989 757.266 577.989 757.266 577.258 757.643C573.604 759.528 569.551 758.843 565.32 758.711C560.359 758.957 554.844 759.026 549.883 759.271C544.191 759.894 538.498 760.516 532.252 760.962C530.414 760.985 528.576 761.008 526.737 761.031C524.345 760.876 521.776 761.276 519.384 761.122C516.815 761.522 514.6 760.814 512.584 761.39C512.584 761.39 512.031 761.213 511.853 761.767C507.246 760.905 501.931 762.259 497.147 761.95C494.755 761.796 492.185 762.196 489.616 762.596C488.331 762.796 487.224 762.442 485.939 762.642C482.263 762.687 479.14 762.91 475.463 762.956C473.625 762.979 471.233 762.824 468.84 762.67C467.556 762.87 466.271 763.07 465.164 762.716C463.879 762.916 462.595 763.116 461.31 763.316C456.349 763.561 451.564 763.253 446.603 763.499C446.049 763.322 445.318 763.699 444.588 764.075C441.288 764.852 437.611 764.898 434.288 763.836C432.627 763.305 430.058 763.704 428.219 763.727C425.274 763.396 422.704 763.796 419.759 763.465L419.205 763.288C417.012 764.419 414.243 763.533 412.228 764.11C409.482 765.064 406.536 764.733 403.967 765.133C401.021 764.801 398.452 765.201 395.683 764.316C395.129 764.139 395.129 764.139 394.575 763.962C390.544 765.116 386.845 763.322 382.991 763.922C382.438 763.745 382.438 763.745 381.884 763.568C380.223 763.037 379.292 762.129 377.277 762.706C375.992 762.906 374.331 762.375 373.046 762.574C371.208 762.597 368.816 762.443 366.978 762.466C365.139 762.489 362.924 761.781 360.909 762.358C358.893 762.934 356.324 763.334 354.463 761.518C351.163 762.295 348.594 762.695 345.825 761.81C345.271 761.633 344.541 762.009 344.541 762.009C340.864 762.055 337.741 762.278 333.51 762.147C328.726 761.838 323.388 761.353 318.604 761.045C318.05 760.868 317.319 761.245 316.766 761.068C313.643 761.29 310.896 762.244 308.305 760.805C307.197 760.451 306.466 760.828 305.182 761.028C300.774 761.45 295.99 761.142 291.206 760.834C290.652 760.657 290.652 760.657 289.921 761.034C286.798 761.256 283.675 761.479 280.353 760.417C278.691 759.886 276.676 760.463 275.015 759.932C270.231 759.623 264.893 759.138 260.108 758.83C258.824 759.03 257.34 757.945 256.055 758.144C252.932 758.367 249.432 757.859 246.487 757.528C245.379 757.174 244.648 757.551 243.541 757.197C240.772 756.311 238.756 756.888 235.811 756.557C234.703 756.203 232.688 756.78 232.156 758.442C231.802 759.55 232.002 760.835 233.486 761.92C234.04 762.097 234.97 763.005 235.524 763.182C237.185 763.713 238.846 764.244 241.061 764.952C243.276 765.66 245.668 765.814 248.061 765.968C248.614 766.145 249.722 766.5 250.099 767.23C251.029 768.139 251.406 768.869 252.336 769.777C251.605 770.154 251.428 770.708 250.874 770.531C248.482 770.377 245.913 770.777 243.144 769.892C242.037 769.538 241.306 769.915 240.198 769.561C236.699 769.052 233.753 768.721 230.253 768.213C228.592 767.682 227.484 767.328 225.823 766.797C225.07 765.335 224.693 764.604 224.671 762.765C224.825 760.372 223.873 757.625 224.581 755.409C224.758 754.855 224.381 754.124 223.828 753.947C222.52 752.308 221.036 751.223 218.644 751.069C216.806 751.092 215.145 750.561 213.306 750.584C210.914 750.43 209.607 748.791 209.208 746.221C208.055 742.189 207.679 741.458 203.271 741.881C201.987 742.08 200.879 741.726 200.325 741.549C198.11 740.841 196.272 740.864 193.88 740.71C190.203 740.756 186.526 740.801 182.473 740.116C180.258 739.408 178.243 739.985 175.851 739.831C172.174 739.876 169.383 737.152 168.607 733.852C168.784 733.298 168.961 732.744 169.138 732.19C169.315 731.636 169.669 730.528 169.846 729.974C170.555 727.758 169.979 725.742 167.033 725.411C163.533 724.903 160.565 722.733 157.242 721.67C156.135 721.316 155.204 720.408 155.182 718.569C154.982 717.284 154.606 716.553 153.122 715.468C153.299 714.914 153.099 713.63 153.276 713.076C153.276 713.076 153.453 712.522 154.007 712.699C155.469 711.945 157.484 711.368 158.769 711.168C159.5 710.791 159.677 710.237 160.408 709.86C158.923 708.775 157.085 708.798 156.332 707.336C156.509 706.782 157.24 706.405 157.417 705.851C154.448 703.681 154.448 703.681 151.325 703.904C150.971 705.012 150.617 706.12 150.263 707.228C148.424 707.251 146.763 706.719 146.01 705.257C146.01 705.257 145.633 704.527 145.08 704.349C145.434 703.242 144.503 702.334 144.127 701.603C143.573 701.426 142.842 701.802 142.288 701.625C140.073 700.917 138.412 700.386 136.397 700.963C135.666 701.34 135.112 701.163 134.558 700.986C132.897 700.455 131.789 700.101 130.128 699.57C129.021 699.216 128.29 699.593 127.936 700.7C129.043 701.055 129.974 701.963 131.635 702.494C134.404 703.379 137.726 704.441 140.672 704.772C142.51 704.749 144.371 706.565 146.01 705.257C145.833 705.811 145.479 706.919 145.302 707.473C143.84 708.227 142.001 708.25 140.894 707.896C139.233 707.365 136.841 707.211 135.179 706.68C134.072 706.326 132.964 705.972 131.503 706.725C131.879 707.456 131.702 708.01 132.256 708.187C133.363 708.541 134.848 709.626 136.132 709.427C137.971 709.404 139.455 710.489 141.116 711.02L141.493 711.751C140.762 712.128 140.585 712.682 140.031 712.505C137.085 712.173 133.408 712.219 130.086 711.157C128.425 710.626 126.586 710.649 126.01 708.633C127.295 708.433 127.826 706.771 128.933 707.125C128.933 707.125 129.664 706.748 129.841 706.194C130.018 705.64 129.465 705.463 129.642 704.909C127.604 703.647 125.566 702.385 123.373 703.516C121.912 704.27 120.804 703.916 120.25 703.739C117.858 703.585 115.289 703.984 113.097 705.115C111.635 705.869 109.243 705.715 107.205 704.453C107.913 702.237 108.445 700.575 109.153 698.359C115.222 698.468 114.668 698.291 115.731 694.967C116.461 694.59 116.461 694.59 116.085 693.859C116.262 693.305 116.262 693.305 116.439 692.751C116.616 692.197 116.793 691.643 116.239 691.466C115.686 691.289 115.132 691.112 114.578 690.935C114.578 690.935 114.578 690.935 114.024 690.758C112.031 693.174 109.816 692.466 107.424 692.311C103.371 691.626 99.3175 690.941 94.9099 691.364C90.3253 692.34 88.664 691.809 87.0028 691.278C86.4715 692.94 88.3098 692.917 88.6865 693.648C89.4398 695.11 88.3548 696.595 87.8235 698.257C86.3618 699.011 84.3463 699.587 82.3309 700.164C81.9542 699.433 81.2009 697.971 80.8243 697.24C80.2705 697.063 78.9859 697.263 78.8088 697.817C76.2621 700.056 73.4933 699.171 70.3703 699.393C68.3324 698.131 65.7632 698.531 63.5482 697.823C62.9944 697.646 62.9944 697.646 62.4407 697.469C61.5103 696.561 61.8645 695.453 62.5953 695.076C63.5033 694.145 64.9649 693.391 65.8729 692.461C67.1575 692.261 68.265 692.615 69.1954 693.523C70.1258 694.431 70.6796 694.608 71.9642 694.408C71.7871 694.962 71.7871 694.962 72.3409 695.139C72.3409 695.139 71.7871 694.962 71.9642 694.408C72.8721 693.477 73.603 693.1 74.5109 692.169C74.688 691.615 75.4189 691.238 75.4189 691.238C76.903 692.323 79.118 693.031 80.6022 694.116C81.3331 693.74 82.6177 693.54 83.3485 693.163C83.5256 692.609 84.2565 692.232 84.4336 691.678C83.8798 691.501 83.3261 691.324 82.7723 691.147C81.4652 689.508 80.3577 689.154 78.7189 690.462C78.7189 690.462 77.6114 690.107 77.0577 689.93C76.3268 690.307 76.1497 690.861 75.4189 691.238C75.0422 690.507 74.6655 689.776 74.2889 689.045C73.3585 688.137 72.251 687.783 71.1435 687.429C69.3051 687.452 67.0901 686.744 65.4288 686.213C63.7676 685.682 61.3755 685.528 60.2904 687.012C58.4745 688.874 56.0824 688.72 54.067 689.297C53.6903 688.566 52.937 687.104 52.5603 686.373C52.7374 685.819 52.9145 685.265 53.0916 684.711C53.2687 684.157 52.3383 683.249 51.6075 683.626C51.0537 683.449 50.3229 683.826 49.7691 683.649C48.6616 683.295 48.8612 684.58 48.1303 684.957C46.469 684.426 44.6307 684.448 42.7923 684.471C40.954 684.494 39.2927 683.963 37.4544 683.986C35.0622 683.832 33.0243 682.57 32.8023 679.446C32.4256 678.715 32.049 677.984 31.6723 677.253C30.7419 676.345 29.4348 674.706 28.5044 673.798C27.0203 672.713 25.1594 670.897 23.6752 669.812C23.1215 669.635 22.5677 669.458 22.014 669.281C22.1911 668.727 22.3682 668.173 22.3682 668.173L21.8144 667.996C21.6373 668.55 21.4602 669.104 21.4602 669.104C20.3527 668.75 19.799 668.573 19.0457 667.111C18.8461 665.826 17.9157 664.918 16.9853 664.01C17.3395 662.902 18.2474 661.971 17.4941 660.509C16.5637 659.601 18.0254 658.847 18.3796 657.739C19.8637 658.824 21.8792 658.247 22.9642 656.762C23.8722 655.832 25.1568 655.632 26.6185 654.878C28.0801 654.124 29.0106 655.032 30.6493 653.724C31.5573 652.793 32.8419 652.593 33.5727 652.216C37.0724 652.725 37.2719 654.01 39.709 657.842C40.0856 658.573 41.3702 658.373 42.1011 657.996C42.6548 658.173 43.2086 658.35 44.3161 658.704C46.354 659.966 48.3919 661.228 50.4299 662.49C50.4299 662.49 50.2528 663.044 50.0757 663.598L49.5219 663.421L50.0757 663.598C51.7369 664.129 53.0215 663.929 53.9295 662.998C55.3912 662.244 56.8529 661.491 58.1375 661.291C60.7067 660.891 62.9217 661.599 65.3363 663.592C66.2667 664.5 67.928 665.031 69.0355 665.385C72.358 666.447 76.5885 666.579 79.7339 668.195C80.2876 668.372 80.2876 668.372 81.0185 667.995C81.5722 668.172 82.4802 667.241 83.5877 667.595C84.6952 667.949 85.8027 668.303 87.2869 669.388C88.2173 670.296 89.3248 670.65 90.6094 670.45C91.894 670.251 92.4477 670.428 93.3782 671.336C94.8623 672.421 96.5236 672.952 97.9853 672.198C99.8236 672.175 101.862 673.437 103.523 673.968C104.077 674.145 104.63 674.322 105.184 674.499C109.614 675.916 114.044 677.332 118.584 672.677C118.584 672.677 118.384 671.392 118.561 670.838C118.008 670.661 118.008 670.661 118.008 670.661C116.346 670.13 113.954 669.976 112.293 669.445C111.739 669.268 111.363 668.537 111.363 668.537C111.54 667.983 111.717 667.429 112.271 667.606C113.555 667.406 114.84 667.206 116.124 667.006C117.409 666.807 118.14 666.43 119.048 665.499C119.956 664.568 120.133 664.014 119.202 663.106C119.202 663.106 119.379 662.552 119.557 661.998C120.287 661.621 120.642 660.513 121.55 659.582C121.749 660.867 122.126 661.598 122.502 662.329C122.724 665.453 124.032 667.092 127.354 668.154C129.015 668.685 130.677 669.216 132.714 670.478C133.445 670.102 134.73 669.902 135.638 668.971C136.723 667.486 136.7 665.647 138.716 665.07C140.4 667.44 141.353 670.187 142.305 672.934C144.72 674.927 147.112 675.081 149.681 674.681C149.858 674.127 150.035 673.574 150.213 673.02C151.098 670.25 153.468 668.565 156.214 667.611C157.499 667.411 158.783 667.211 159.514 666.835L159.691 666.281C159.492 664.996 159.669 664.442 159.469 663.157C154.485 661.564 149.324 660.524 143.986 660.039C143.455 661.701 144.009 661.878 145.116 662.232C145.67 662.409 145.67 662.409 146.047 663.14C146.047 663.14 145.87 663.694 145.693 664.248C143.5 665.379 141.285 664.67 139.978 663.031C139.601 662.3 139.048 662.123 138.671 661.392C138.471 660.107 137.541 659.199 136.256 659.399C135.149 659.045 134.595 658.868 133.665 657.96C132.181 656.875 130.342 656.898 129.811 658.56C128.726 660.045 127.995 660.422 126.334 659.891C123.388 659.559 121.527 657.743 119.666 655.927C118.359 654.288 116.144 653.58 113.929 652.872C114.66 652.495 115.214 652.672 116.498 652.472C116.853 651.364 117.76 650.434 117.561 649.149C118.092 647.487 118.623 645.825 119.709 644.34C120.616 643.409 120.594 641.57 120.948 640.462C117.98 638.292 114.48 637.784 111.534 637.453C110.981 637.276 110.25 637.653 110.073 638.207C107.703 639.891 105.311 639.737 102.919 639.583C100.527 639.429 98.4888 638.167 95.9196 638.567C93.5274 638.412 92.2204 636.773 90.9133 635.134C88.3441 635.534 86.5057 635.557 83.9365 635.957C82.6519 636.157 81.9211 636.534 81.0131 637.465C80.1052 638.395 78.8206 638.595 77.3364 637.51C76.9598 636.779 75.6752 636.979 74.9443 637.356C73.6597 637.556 72.5522 637.202 71.4447 636.848C71.068 636.117 69.9605 635.763 69.5839 635.032C68.6535 634.124 68.2768 633.393 67.1693 633.039C65.8847 633.239 64.2234 632.708 63.1384 634.193L62.4075 634.569C60.7463 634.038 59.4617 634.238 58.3542 633.884C57.0696 634.084 55.785 634.284 54.6775 633.93C52.2854 633.776 50.8012 632.691 50.5791 629.567C50.3796 628.282 49.4492 627.374 50.3571 626.443C50.3571 626.443 49.9805 625.712 49.6038 624.981C51.6193 624.404 53.4576 624.381 55.6726 625.09C57.3339 625.621 59.9031 625.221 61.7414 625.198C62.2952 625.375 63.2031 624.444 63.3802 623.89C63.1807 622.605 63.3578 622.051 64.2657 621.12C64.8195 621.297 66.1041 621.097 67.2116 621.452C69.7808 621.052 72.3725 622.491 73.6795 624.13C74.9866 625.769 77.2016 626.477 79.04 626.454C81.4321 626.608 83.0933 627.139 85.3084 627.847C86.9696 628.379 88.0771 628.733 89.9155 628.71C91.023 629.064 91.7538 628.687 92.8613 629.041C96.1839 630.103 99.5064 631.165 103.56 631.851C106.506 632.182 108.898 632.336 112.021 632.113C113.305 631.913 113.859 632.09 114.236 632.821C114.789 632.998 115.166 633.729 115.166 633.729C118.112 634.06 121.435 635.123 124.181 634.169C124.358 633.615 124.712 632.507 125.066 631.399C125.598 629.737 124.667 628.829 123.183 627.744C123.183 627.744 123.183 627.744 122.629 627.567C118.376 625.597 118.354 623.758 121.986 620.034C123.093 620.389 122.916 620.942 122.739 621.496L122.562 622.05C122.938 622.781 123.492 622.958 124.046 623.135C124.046 623.135 124.777 622.759 125.508 622.382C126.216 620.166 128.032 618.304 130.224 617.173C131.886 617.704 133.924 618.966 135.031 619.32C136.493 618.567 137.401 617.636 139.062 618.167C142.385 619.229 142.385 619.229 140.392 621.645C139.307 623.13 139.506 624.414 141.345 624.392C142.452 624.746 144.113 625.277 145.044 626.185C145.597 626.362 146.705 626.716 147.259 626.893C150.027 627.778 152.619 629.217 154.48 631.033C154.857 631.764 155.964 632.118 156.895 633.026C157.094 634.311 157.294 635.596 157.493 636.881C162.3 639.028 167.284 640.622 172.622 641.107C173.729 641.461 175.745 640.884 176.653 639.953C179.199 637.715 182.145 638.046 184.892 637.092C185.622 636.715 186.907 636.515 187.638 636.138C187.638 636.138 188.546 635.207 187.992 635.03C187.615 634.299 187.062 634.122 186.884 634.676C186.331 634.499 186.154 635.053 185.423 635.43C184.692 635.807 184.138 635.63 183.584 635.453C182.454 633.26 181.147 631.621 179.84 629.982C178.91 629.074 178.887 627.235 179.242 626.127C179.396 623.734 179.551 621.342 181.367 619.48C181.544 618.926 181.544 618.926 182.275 618.549C184.091 616.687 182.784 615.048 182.761 613.209C182.938 612.655 181.831 612.301 181.831 612.301C181.277 612.124 180.723 611.947 180.169 611.77C179.616 611.593 179.062 611.416 178.685 610.685C178.109 608.669 176.625 607.584 174.964 607.053C172.749 606.345 171.995 604.883 170.865 602.69C170.643 599.566 172.282 598.258 174.652 596.574C176.844 595.443 178.306 594.689 180.321 594.112C181.606 593.912 183.621 593.335 184.529 592.404C185.991 591.651 187.076 590.166 187.054 588.327C186.677 587.596 187.031 586.488 187.208 585.934C186.101 585.58 185.547 585.403 184.439 585.049C183.155 585.249 181.117 583.987 180.032 585.472C179.478 585.294 179.655 584.741 179.101 584.564C179.079 582.725 179.234 580.332 180.319 578.847C181.758 576.254 181.182 574.238 179.498 571.868C178.191 570.229 176.153 568.967 176.308 566.574C177.393 565.089 178.478 563.605 179.386 562.674C181.024 561.366 182.331 563.005 183.793 562.251C184.524 561.874 185.078 562.051 186.362 561.851C185.609 560.389 184.502 560.035 182.84 559.504C181.179 558.973 179.518 558.442 178.211 556.803C174.689 554.456 173.581 554.102 173.027 553.925C173.381 552.817 173.559 552.263 173.913 551.155C172.982 550.247 172.429 550.07 171.498 549.162C171.675 548.608 172.029 547.5 172.207 546.946C172.738 545.284 172.738 545.284 171.254 544.199C170.7 544.022 170.146 543.845 169.592 543.668C169.039 543.491 169.039 543.491 167.931 543.137C168.662 542.76 168.839 542.206 169.393 542.383C171.408 541.806 172.87 541.052 174.509 539.745C175.24 539.368 175.417 538.814 175.417 538.814C175.948 537.152 176.856 536.221 177.764 535.29C178.672 534.359 179.026 533.251 178.649 532.52C177.896 531.058 178.25 529.95 178.604 528.843C178.759 526.45 178.382 525.719 176.167 525.011C174.506 524.479 172.668 524.502 171.007 523.971C170.453 523.794 169.899 523.617 169.345 523.44C168.769 521.424 169.854 519.939 171.316 519.186C174.239 517.678 176.232 515.262 177.671 512.669C178.026 511.561 179.664 510.254 180.572 509.323C182.411 509.3 183.695 509.1 185.534 509.077C186.087 509.254 186.818 508.877 187.549 508.5C189.742 507.37 192.134 507.524 194.349 508.232C198.225 509.471 200.971 508.517 204.072 506.456C209.255 509.334 214.571 507.98 219.886 506.627C221.171 506.427 222.632 505.673 223.363 505.296C223.917 505.473 224.271 504.365 224.271 504.365C224.271 504.365 223.895 503.634 223.341 503.457C221.126 502.749 219.287 502.772 217.072 502.064C214.127 501.733 213.573 501.556 210.228 498.654C211.113 495.885 213.86 494.931 215.875 494.354C216.606 493.977 217.713 494.331 218.644 495.239C219.574 496.147 221.235 496.678 222.343 497.032C225.666 498.095 229.719 498.78 233.218 499.288C236.718 499.796 240.218 500.304 243.54 501.367C244.648 501.721 245.755 502.075 246.132 502.806C246.509 503.537 246.885 504.268 247.262 504.999C248.923 505.53 250.762 505.507 252.6 505.484C256.1 505.992 257.007 505.061 258.624 501.915C258.801 501.361 258.978 500.807 259.532 500.984C260.44 500.053 261.525 498.568 262.433 497.637C262.056 496.906 261.303 495.444 260.926 494.713C259.973 491.966 258.312 491.435 255.743 491.835C252.62 492.058 250.228 491.904 247.459 491.019C245.067 490.864 243.76 489.225 242.63 487.032C245.73 484.971 248.853 484.748 251.976 484.525C252.707 484.148 253.814 484.502 254.368 484.679C255.653 484.479 256.384 484.103 257.292 483.172C259.107 481.31 260.192 479.825 262.008 477.963C263.093 476.478 263.071 474.64 263.602 472.978C263.779 472.424 263.58 471.139 262.472 470.785C260.434 469.523 258.219 468.815 255.827 468.66C250.866 468.906 246.813 468.221 242.028 467.912C239.636 467.758 239.636 467.758 237.045 466.319C236.668 465.588 237.952 465.388 238.13 464.834C240.322 463.704 242.338 463.127 243.976 461.819C244.707 461.442 245.438 461.065 245.061 460.334C245.039 458.495 246.501 457.741 248.516 457.164C249.801 456.965 250.709 456.034 252.17 455.28C252.702 453.618 253.056 452.51 253.033 450.671C253.764 450.294 255.049 450.094 256.156 450.448C257.995 450.426 259.833 450.403 261.118 450.203C263.51 450.357 266.456 450.688 268.848 450.842C273.078 450.974 277.131 451.659 280.985 451.059C283.554 450.659 285.77 451.367 288.339 450.968C293.123 451.276 297.53 450.853 302.315 451.162C306.545 451.293 310.399 450.693 314.452 451.378C320.344 452.041 326.036 451.418 331.928 452.081C336.712 452.389 341.12 451.966 345.904 452.275C352.527 452.56 359.703 453.023 366.503 452.754C367.787 452.554 368.341 452.731 369.626 452.531C372.748 452.309 375.318 451.909 378.264 452.24C381.763 452.748 385.617 452.148 389.294 452.103C392.24 452.434 395.54 451.657 399.039 452.165C401.431 452.32 404.554 452.097 406.946 452.251C410.069 452.028 412.461 452.182 415.584 451.96C423.492 452.045 432.13 451.754 440.037 451.839C443.16 451.617 445.729 451.217 448.675 451.548C453.636 451.302 459.151 451.234 463.935 451.542C467.435 452.05 471.289 451.451 474.966 451.405C477.358 451.559 480.104 450.605 482.873 451.49C482.873 451.49 482.873 451.49 482.319 451.313C483.227 450.383 483.98 451.844 485.442 451.091C486.173 450.714 487.28 451.068 488.388 451.422C488.942 451.599 490.226 451.399 490.957 451.022C494.257 450.245 497.757 450.754 500.88 450.531C502.718 450.508 504.556 450.485 506.572 449.908C507.856 449.708 508.41 449.885 509.518 450.239C510.071 450.416 510.603 448.755 511.533 449.663C511.533 449.663 511.533 449.663 512.087 449.84C512.087 449.84 512.087 449.84 512.641 450.017L512.087 449.84C514.102 449.263 516.672 448.863 518.887 449.571C519.44 449.748 520.171 449.371 520.902 448.994C521.633 448.617 522.763 450.81 523.294 449.148C524.579 448.949 525.686 449.303 526.417 448.926C529.717 448.149 532.84 447.926 535.963 447.703C536.517 447.88 537.248 447.504 537.801 447.681C539.086 447.481 540.371 447.281 541.655 447.081C543.494 447.058 545.886 447.212 547.901 446.635C549.186 446.435 551.024 446.413 552.685 446.944C553.416 446.567 553.97 446.744 555.255 446.544C557.093 446.521 558.754 447.052 560.393 445.744C560.393 445.744 560.947 445.921 561.124 445.367C564.623 445.876 568.654 444.722 572.154 445.23C572.708 445.407 574.169 444.653 574.723 444.83C577.292 444.431 579.862 444.031 582.431 443.631C587.392 443.385 591.623 443.517 596.207 442.54C598.223 441.963 600.061 441.94 602.63 441.541C605.022 441.695 607.592 441.295 610.338 440.341C613.815 439.01 617.868 439.696 621.722 439.096C624.845 438.873 628.522 438.828 631.999 437.497C632.73 437.12 633.284 437.297 634.568 437.097C638.799 437.228 642.652 436.629 646.506 436.029C647.06 436.206 647.614 436.383 647.614 436.383C647.99 437.114 647.813 437.668 647.636 438.222C647.659 440.061 648.035 440.792 649.143 441.146C650.804 441.677 652.465 442.208 654.503 443.47C655.057 443.647 655.057 443.647 655.611 443.824C656.895 443.624 658.734 443.601 659.841 443.955C661.126 443.756 662.787 444.287 664.072 444.087C667.748 444.041 671.979 444.172 675.479 444.681C677.14 445.212 678.978 445.189 680.994 444.612C685.401 444.189 690.362 443.944 694.748 441.682C696.209 440.928 697.494 440.728 698.778 440.528C701.57 443.252 701.57 443.252 705.047 441.922C705.977 442.83 707.085 443.184 708.015 444.092C710.939 442.584 713.862 441.076 717.162 440.3C718.447 440.1 720.085 438.792 722.101 438.215C724.139 439.477 725.823 441.847 729.123 441.071C729.322 442.355 729.699 443.086 730.075 443.817C731.183 444.172 731.737 444.349 732.468 443.972C734.306 443.949 735.79 445.034 736.92 447.227C737.673 448.689 738.803 450.882 741.195 451.036C740.841 452.144 740.664 452.698 740.487 453.252C741.971 454.337 742.902 455.245 743.832 456.153C746.047 456.861 747.686 455.553 749.524 455.53C752.271 454.576 755.017 453.623 757.586 453.223C760.709 453 763.079 451.315 765.625 449.077C765.803 448.523 765.426 447.792 765.603 447.238C768.903 446.461 772.203 445.684 775.149 446.016C775.703 446.193 776.434 445.816 777.164 445.439C779.18 444.862 780.464 444.662 782.303 444.639C784.318 444.062 786.533 444.77 787.795 442.732C787.972 442.178 789.08 442.532 789.811 442.155C790.365 442.332 790.542 441.778 791.073 440.116C792.734 440.647 793.111 441.378 793.133 443.217C793.333 444.502 793.532 445.787 793.178 446.895C793.201 448.734 792.293 449.665 790.277 450.241C788.993 450.441 786.977 451.018 785.693 451.218C783.677 451.795 782.769 452.726 783.346 454.742C783.346 454.742 783.168 455.296 783.722 455.473C783.722 455.473 783.722 455.473 784.276 455.65C785.76 456.735 787.598 456.712 789.437 456.689C790.721 456.489 791.452 456.112 792.56 456.466C794.221 456.997 796.059 456.974 797.898 456.952C800.467 456.552 803.413 456.883 806.182 457.768C806.935 459.23 807.865 460.138 808.619 461.6C808.264 462.708 807.357 463.639 807.733 464.37C807.379 465.478 807.756 466.209 808.132 466.94C808.509 467.671 808.709 468.956 808.531 469.51C807.623 470.44 806.716 471.371 805.431 471.571L804.7 471.948C802.862 471.971 801.4 472.725 799.761 474.033C800.337 476.049 801.091 477.511 803.106 476.934C804.214 477.288 804.945 476.911 806.052 477.265C807.16 477.619 808.644 478.704 808.113 480.366C808.135 482.205 807.781 483.313 806.142 484.621C803.595 486.859 801.602 489.275 798.679 490.783C795.025 492.667 791.193 495.106 787.539 496.991C785.347 498.121 782.6 499.075 779.854 500.029C777.108 500.983 774.361 501.936 771.615 502.89C768.692 504.398 765.392 505.175 762.092 505.951C760.807 506.151 759.899 507.082 759.168 507.459C757.706 508.213 756.621 509.698 756.644 511.537C756.467 512.091 757.397 512.999 757.951 513.176C758.682 512.799 759.966 512.599 760.697 512.222C762.159 511.468 763.444 511.268 765.105 511.799C765.304 513.084 765.504 514.369 763.865 515.677C762.226 516.985 760.588 518.293 759.879 520.508C759.902 522.347 761.74 522.324 762.493 523.786C762.316 524.34 761.585 524.717 761.585 524.717C760.301 524.917 759.57 525.294 758.285 525.494C755.539 526.448 753.723 528.309 752.461 530.348C751.73 530.725 751.93 532.01 751.576 533.118C753.414 533.095 755.252 533.072 756.537 532.872C756.736 534.157 756.936 535.442 757.313 536.173C762.097 536.482 766.128 535.328 771.089 535.082C770.912 535.636 770.181 536.013 769.827 537.121C770.381 537.298 771.488 537.652 772.042 537.829C771.865 538.383 771.865 538.383 771.311 538.206C770.58 538.583 769.849 538.96 769.296 538.783C764.334 539.029 763.98 540.137 761.057 541.644C763.095 542.906 764.756 543.437 766.771 542.861C770.802 541.707 775.21 541.284 779.241 540.131C779.972 539.754 780.702 539.377 781.433 539C783.249 537.138 785.265 536.561 787.834 536.161C792.241 535.739 796.272 534.585 800.303 533.432C802.872 533.032 804.888 532.455 807.457 532.055C809.473 531.478 811.665 530.347 813.304 529.04C814.035 528.663 814.943 527.732 815.673 527.355C816.404 526.978 817.689 526.778 818.043 525.67L817.666 524.939C816.559 524.585 816.005 524.408 814.721 524.608C809.228 526.516 802.982 526.961 797.49 528.869C792.728 530.399 787.589 531.199 782.274 532.552C778.819 535.722 776.427 535.568 774.035 535.414ZM117.791 698.068C117.237 697.891 116.683 697.714 115.953 698.091C116.683 697.714 117.237 697.891 117.791 698.068L118.345 698.245C118.898 698.422 118.898 698.422 119.452 698.599L119.076 697.868C118.145 696.96 117.968 697.514 117.791 698.068ZM780.638 549.125C778.822 550.987 776.983 551.01 774.968 551.587C774.414 551.41 774.237 551.964 773.683 551.787C773.883 553.072 773.529 554.179 773.352 554.733C774.659 556.372 775.213 556.549 776.674 555.796C778.136 555.042 779.598 554.288 780.882 554.088C781.414 552.426 781.945 550.764 782.299 549.656C784.314 549.08 785.776 548.326 787.437 548.857C788.545 549.211 789.276 548.834 790.383 549.188C794.614 549.319 798.667 550.004 802.698 548.851C806.175 547.52 809.475 546.743 812.199 543.951C813.838 542.643 813.992 540.25 811.777 539.542C810.67 539.188 809.562 538.834 809.009 538.657C805.886 538.88 802.209 538.925 798.909 539.702C795.609 540.479 791.755 541.078 788.455 541.855C783.317 542.655 778.555 544.185 773.416 544.985C772.132 545.185 771.224 546.116 770.87 547.224C772.731 549.04 775.123 549.194 777.692 548.794C778.799 549.148 780.084 548.948 780.638 549.125ZM167.374 647.977C167.551 647.423 167.728 646.869 167.905 646.315C168.436 644.653 167.882 644.476 166.952 643.568C166.398 643.391 165.291 643.037 164.56 643.414C163.652 644.345 162.544 643.991 161.437 643.637C159.045 643.483 157.384 642.952 154.991 642.798C153.884 642.444 152.776 642.089 152.4 641.358C149.985 639.365 147.77 638.657 144.647 638.88C145.024 639.611 145.401 640.342 145.046 641.45C144.869 642.004 144.692 642.558 143.961 642.935C143.23 643.312 143.053 643.866 142.323 644.243C143.807 645.328 145.291 646.413 147.129 646.39C147.86 646.013 148.79 646.921 149.167 647.652C149.92 649.114 151.582 649.645 152.512 650.553C153.443 651.461 155.281 651.438 156.566 651.238C157.85 651.038 159.135 650.838 159.489 649.731C159.843 648.623 161.128 648.423 161.681 648.6C164.074 648.754 165.912 648.731 167.374 647.977ZM762.947 711.377C761.839 711.023 761.286 710.846 760.178 710.492C759.071 710.138 758.34 710.515 757.232 710.161C755.571 709.63 754.286 709.83 752.825 710.583C752.094 710.96 750.986 710.606 750.256 710.983C749.148 710.629 748.594 710.452 747.487 710.098C746.379 709.744 745.648 710.121 744.918 710.498C744.01 711.429 742.725 711.629 742.747 713.467C743.855 713.822 744.785 714.73 745.516 714.353C749.016 714.861 752.139 714.638 755.262 714.415C757.654 714.569 759.093 711.977 761.485 712.131C761.485 712.131 762.216 711.754 762.393 711.2C762.77 711.931 762.947 711.377 762.947 711.377ZM850.226 526.189C849.472 524.727 850.934 523.974 850.734 522.689C850.181 522.512 849.073 522.158 848.342 522.535C847.789 522.357 846.504 522.557 845.95 522.38C842.827 522.603 840.081 523.557 836.958 523.78C836.404 523.603 835.673 523.98 835.496 524.534C835.496 524.534 835.319 525.087 835.142 525.641L835.519 526.372C836.803 526.172 837.911 526.527 839.195 526.327C840.48 526.127 841.211 525.75 842.141 526.658C841.964 527.212 841.233 527.589 841.787 527.766C842.164 528.497 842.718 528.674 843.448 528.297C845.641 527.166 847.656 526.589 850.226 526.189ZM150.095 633.295C147.703 633.141 146.042 632.61 144.203 632.632C142.365 632.655 142.365 632.655 141.656 634.871C144.425 635.756 146.817 635.91 149.763 636.242C149.564 634.957 149.741 634.403 150.095 633.295ZM799.671 466.677C798.21 467.431 797.479 467.808 796.194 468.008C795.463 468.385 794.733 468.762 793.825 469.693C793.825 469.693 793.647 470.247 793.47 470.8C793.47 470.8 793.847 471.531 794.401 471.708C795.508 472.063 796.793 471.863 797.524 471.486C798.255 471.109 798.985 470.732 798.609 470.001C798.232 469.27 798.409 468.716 799.14 468.339C800.602 467.585 800.048 467.408 799.671 466.677ZM130.938 645.488C131.115 644.934 130.739 644.203 130.539 642.918L129.985 642.741C128.878 642.387 127.97 643.318 127.616 644.426C127.262 645.533 127.461 646.818 128.015 646.995C128.945 647.903 130.407 647.15 130.938 645.488ZM38.5169 680.662C39.6244 681.016 40.7319 681.37 41.1086 682.101C42.9245 680.24 42.9245 680.24 41.9941 679.332C41.2407 677.87 39.5795 677.338 38.2949 677.538C38.4944 678.823 39.4249 679.731 38.5169 680.662ZM825.537 567.142C824.429 566.788 823.875 566.611 823.322 566.434C822.037 566.634 820.575 567.388 819.667 568.319L819.49 568.873L819.867 569.604C821.883 569.027 823.898 568.45 825.537 567.142ZM759.577 691.372C758.469 691.018 757.916 690.841 757.185 691.218C755.9 691.418 754.992 692.349 755.369 693.08C755.745 693.81 757.03 693.611 757.761 693.234C757.938 692.68 758.669 692.303 759.577 691.372ZM212.862 744.336C213.97 744.69 214.701 744.313 214.878 743.759C215.055 743.205 214.678 742.474 214.124 742.297L213.571 742.12C213.017 741.943 212.286 742.32 212.109 742.874C211.932 743.428 212.308 744.159 212.862 744.336ZM158.724 707.49C159.654 708.398 160.762 708.752 162.046 708.552C162.046 708.552 162.777 708.176 162.401 707.445C162.401 707.445 162.024 706.714 161.47 706.537C160.363 706.182 159.632 706.559 158.724 707.49ZM828.919 527.926C827.612 526.287 827.612 526.287 826.527 527.772C827.257 527.395 827.811 527.572 828.919 527.926ZM755.127 703.382C755.127 703.382 754.573 703.205 754.396 703.759L754.219 704.313C755.127 703.382 755.127 703.382 755.127 703.382ZM830.358 525.333C830.358 525.333 830.535 524.779 830.358 525.333C830.535 524.779 830.535 524.779 830.358 525.333C829.981 524.602 829.981 524.602 830.358 525.333C829.804 525.156 829.981 524.602 830.358 525.333Z" fill="url(#paint0_linear)"/>
<path d="M778.378 634.492C782.231 633.892 781.832 631.322 781.256 629.306C782.718 628.552 784.556 628.529 786.948 628.684C790.824 629.923 795.055 630.054 798.909 629.454C800.016 629.808 800.216 631.093 799.862 632.201C799.507 633.309 799.707 634.594 798.245 635.348C797.514 635.725 796.784 636.102 796.053 636.479C793.683 638.163 791.491 639.294 789.498 641.71C788.235 643.749 786.043 644.88 783.651 644.725C781.812 644.748 779.797 645.325 778.712 646.81C776.342 648.495 774.504 648.518 772.466 647.255C771.359 646.901 770.428 645.993 768.59 646.016C766.929 645.485 766.729 644.2 767.637 643.269C768.168 641.607 769.076 640.677 770.914 640.654C772.199 640.454 773.661 639.7 774.945 639.5C775.676 639.123 776.961 638.923 777.692 638.546C778.777 637.061 779.131 635.954 778.378 634.492ZM788.632 631.054C788.078 630.876 787.524 630.699 786.971 630.522C786.971 630.522 786.24 630.899 786.063 631.453L786.439 632.184C786.993 632.361 787.724 631.984 788.632 631.054ZM790.293 631.585C790.293 631.585 790.47 631.031 790.293 631.585C791.024 631.208 790.47 631.031 790.293 631.585C790.47 631.031 790.47 631.031 790.293 631.585C790.47 631.031 790.47 631.031 790.293 631.585Z" fill="url(#paint1_linear)"/>
<path d="M47.0115 698.03C44.819 699.161 43.3573 699.915 41.1647 701.045C40.4339 701.422 40.6334 702.707 41.0101 703.438C41.0101 703.438 41.3868 704.169 41.5639 703.615C43.956 703.769 45.8168 705.585 48.0318 706.294C47.7001 709.24 47.1463 709.063 45.308 709.086C42.185 709.309 39.97 708.601 37.2012 707.716C34.9862 707.008 33.325 706.476 31.1099 705.768C30.3791 706.145 29.6482 706.522 28.9174 706.899C26.9244 709.315 24.909 709.892 22.1402 709.007C21.0327 708.652 20.6785 709.76 19.9476 710.137C19.571 709.406 18.4635 709.052 18.0868 708.321C18.0643 706.482 18.5956 704.821 19.1269 703.159C19.8353 700.943 20.0124 700.389 17.4207 698.95C16.867 698.773 17.044 698.219 17.044 698.219C17.2211 697.665 17.2212 697.665 17.952 697.288C18.6828 696.911 19.2366 697.088 19.2366 697.088C20.7208 698.173 22.0054 697.973 23.8437 697.95C24.3975 698.127 24.9512 698.304 25.505 698.481C26.6125 698.835 27.1662 699.012 28.4508 698.813C29.1817 698.436 30.2892 698.79 30.843 698.967C33.7888 699.298 34.5197 698.921 35.9589 696.328C36.136 695.774 36.3131 695.22 37.0439 694.843C37.7748 694.466 38.3285 694.643 39.0594 694.267C39.7902 693.89 40.344 694.067 41.0748 693.69C42.7586 696.06 44.7965 697.322 47.0115 698.03Z" fill="url(#paint2_linear)"/>
<path d="M69.1248 642.213C71.3174 641.082 73.1557 641.059 75.3707 641.767C75.9245 641.944 77.2091 641.744 78.3166 642.099C79.4241 642.453 80.9083 643.538 81.1079 644.823C81.4845 645.554 79.8457 646.861 78.0074 646.884C75.9919 647.461 74.1536 647.484 72.1156 646.222C68.9702 644.606 65.1164 645.205 61.4397 645.251C60.1551 645.451 58.8705 645.651 57.9401 644.743C56.8326 644.389 55.548 644.589 54.4405 644.235C52.7792 643.704 51.4946 643.904 49.8333 643.372C49.2796 643.195 48.9029 642.464 47.7954 642.11C48.7033 641.179 49.2346 639.518 50.1426 638.587C52.1805 639.849 54.196 639.272 55.8572 639.803C56.9647 640.157 57.6956 639.78 58.4264 639.403C61.9036 638.073 64.8494 638.404 67.0869 640.951C67.6407 641.128 68.1944 641.305 69.1248 642.213Z" fill="url(#paint3_linear)"/>
<path d="M111.72 652.168C112.097 652.899 112.474 653.63 112.297 654.183C112.673 654.914 113.05 655.645 113.427 656.376C112.519 657.307 110.68 657.33 109.75 656.422C108.642 656.068 107.158 654.983 106.228 654.075C103.436 651.351 100.291 649.735 96.0606 649.604C94.2222 649.626 93.1147 649.272 91.4534 648.741C90.8997 648.564 90.3459 648.387 89.6151 648.764C86.6917 650.272 84.4542 647.725 82.2392 647.017C82.2167 645.178 83.1247 644.247 84.4093 644.047C85.6939 643.847 86.8014 644.201 87.9089 644.555C90.5006 645.994 92.8927 646.149 95.0852 645.018C97.6769 646.457 99.8919 647.165 102.838 647.496C104.122 647.296 105.961 647.273 106.869 646.343C107.6 645.966 108.153 646.143 108.884 645.766C109.084 647.051 109.46 647.782 109.66 649.067C111.144 650.152 110.79 651.26 111.72 652.168Z" fill="url(#paint4_linear)"/>
<path d="M57.7259 656.881C57.903 656.327 58.0801 655.773 58.2572 655.219L58.988 654.842C60.8264 654.82 62.6647 654.797 64.5031 654.774C65.6106 655.128 66.8952 654.928 67.8256 655.836C69.3098 656.921 70.4173 657.275 72.2556 657.252C73.3631 657.606 74.094 657.229 75.0244 658.137C79.2773 660.108 84.0616 660.416 89.2224 661.455C91.6146 661.609 94.2062 663.048 96.4212 663.757C96.975 663.934 97.3517 664.665 97.7283 665.396C96.2666 666.149 95.5358 666.526 93.8745 665.995C92.9441 665.087 91.1057 665.11 89.8211 665.31C89.2674 665.133 88.5365 665.51 87.9828 665.333C85.3911 663.894 82.2681 664.117 79.876 663.962C77.661 663.254 75.446 662.546 73.7847 662.015C71.5697 661.307 69.1776 661.153 66.9626 660.445C65.8551 660.091 64.1938 659.56 62.9092 659.759C61.4475 660.513 60.6942 659.051 59.4096 659.251C59.033 658.52 58.1025 657.612 57.7259 656.881Z" fill="url(#paint5_linear)"/>
<path d="M689.343 435.677C692.466 435.455 694.836 433.77 698.513 433.724C700.351 433.701 701.813 432.947 702.898 431.462C704.16 429.424 706.352 428.293 708.745 428.447C710.029 428.247 710.76 427.87 712.045 427.67C714.791 426.717 715.522 426.34 719.021 426.848C719.398 427.579 719.598 428.864 718.136 429.618C715.943 430.748 713.574 432.433 711.182 432.279C709.897 432.479 709.166 432.856 708.812 433.964C708.281 435.626 706.819 436.38 705.712 436.025C704.05 435.494 702.035 436.071 700.196 436.094C698.358 436.117 697.073 436.317 695.235 436.34C693.574 435.809 691.558 436.385 689.72 436.408C689.72 436.408 689.166 436.231 689.343 435.677Z" fill="url(#paint6_linear)"/>
<path d="M40.5725 622.706C37.8262 623.66 35.0799 624.614 32.5107 625.014C30.8719 626.321 30.7173 628.714 28.7018 629.291C27.2177 628.206 27.5719 627.098 27.3723 625.813C26.619 624.351 26.4194 623.066 25.6661 621.604C24.9128 620.142 25.8207 619.212 27.1053 619.012C29.4974 619.166 31.8895 619.32 34.2816 619.474C35.3892 619.828 37.0504 620.359 38.335 620.159C39.4425 620.513 40.3729 621.421 40.5725 622.706Z" fill="url(#paint7_linear)"/>
<path d="M788.774 703.149C788.42 704.257 788.243 704.811 788.066 705.365C787.712 706.473 786.804 707.404 785.519 707.603C783.304 706.895 782.396 707.826 781.134 709.865C780.957 710.419 780.226 710.796 780.049 711.35C778.942 710.996 778.388 710.819 777.28 710.465C776.282 704.04 776.282 704.04 777.345 700.716C779.36 700.139 780.845 701.225 782.329 702.31C784.167 702.287 786.382 702.995 788.774 703.149Z" fill="url(#paint8_linear)"/>
<path d="M779.687 426.095C779.864 425.541 780.041 424.987 779.665 424.256C779.111 424.079 778.734 423.348 778.734 423.348C778.911 422.794 779.088 422.24 779.088 422.24C781.835 421.286 785.312 419.956 788.081 420.841L788.634 421.018C789.011 421.749 790.119 422.103 789.942 422.657C790.318 423.388 789.41 424.319 788.679 424.696C787.949 425.072 787.218 425.449 786.664 425.272C784.272 425.118 782.81 425.872 780.795 426.449C780.795 426.449 780.241 426.272 779.687 426.095Z" fill="url(#paint9_linear)"/>
<path d="M76.4683 716.604C77.1991 716.228 77.7529 716.405 77.7529 716.405C79.2371 717.49 80.6987 716.736 82.36 717.267C83.4675 717.621 85.3059 717.598 86.4134 717.952C88.8055 718.106 91.0205 718.814 92.1505 721.007C91.0654 722.492 89.5813 721.407 88.2967 721.607C87.0121 721.807 85.5279 720.722 84.4204 720.368C82.2054 719.66 79.9904 718.952 77.7753 718.243C77.7753 718.243 77.3987 717.512 76.4683 716.604Z" fill="url(#paint10_linear)"/>
<path d="M128.346 598.257C128.523 597.703 128.7 597.149 129.254 597.326C130.162 596.395 131.447 596.195 132.908 595.441C133.285 596.172 133.108 596.726 132.931 597.28C132.953 599.119 133.707 600.581 134.814 600.935C135.922 601.289 136.298 602.02 136.498 603.305C136.321 603.859 136.875 604.036 136.698 604.59C136.144 604.413 135.413 604.79 134.859 604.613C133.198 604.082 131.714 602.997 130.407 601.358C129.476 600.45 128.546 599.542 128.346 598.257Z" fill="url(#paint11_linear)"/>
<path d="M142.1 505.57C141.369 505.947 141.192 506.501 141.192 506.501C137.338 507.101 134.015 506.039 131.424 504.6C130.87 504.422 130.67 503.138 131.401 502.761C132.863 502.007 134.148 501.807 135.255 502.161C136.739 503.246 137.847 503.6 139.508 504.131C140.062 504.308 141.169 504.662 142.1 505.57Z" fill="url(#paint12_linear)"/>
<path d="M129.379 547.298C133.455 549.822 133.455 549.822 135.138 552.192C134.408 552.569 134.053 553.677 133.323 554.054C133.522 555.339 133.722 556.624 133.368 557.732C132.814 557.555 132.083 557.931 131.529 557.754C129.868 557.223 128.938 556.315 130.023 554.83C131.108 553.346 130.908 552.061 129.601 550.422C129.601 550.422 128.848 548.96 129.379 547.298Z" fill="url(#paint13_linear)"/>
<path d="M62.4674 714.574C64.3058 714.551 66.1441 714.529 67.9825 714.506C69.8208 714.483 71.4821 715.014 73.1433 715.545C72.9663 716.099 72.7892 716.653 72.6121 717.207C72.435 717.761 71.7041 718.138 71.1504 717.961C69.4891 717.43 68.2045 717.629 66.7428 718.383C66.012 718.76 64.9045 718.406 64.3507 718.229C63.0436 716.59 62.1132 715.682 62.4674 714.574Z" fill="url(#paint14_linear)"/>
<path d="M277.726 770.567C272.233 772.474 272.233 772.474 268.911 771.412C266.519 771.258 264.127 771.104 261.38 772.058C261.004 771.327 259.896 770.972 259.519 770.241L259.697 769.688C260.981 769.488 262.819 769.465 264.104 769.265C266.873 770.15 269.442 769.75 272.011 769.35C274.226 770.059 275.334 770.413 277.726 770.567Z" fill="url(#paint15_linear)"/>
<path d="M797.591 612.551C797.791 613.836 797.26 615.498 795.975 615.698C793.229 616.651 790.859 618.336 787.736 618.559C787.736 618.559 787.182 618.382 786.629 618.205C788.998 616.52 791.745 615.566 793.384 614.259C794.469 612.774 795.753 612.574 797.591 612.551Z" fill="url(#paint16_linear)"/>
<path d="M740.139 439.097C735.754 441.359 734.47 441.559 731.147 440.497C733.14 438.081 734.779 436.773 737.902 436.55C738.456 436.727 738.278 437.281 740.139 439.097Z" fill="url(#paint17_linear)"/>
<path d="M0.852813 712.582C2.6687 710.721 4.32996 711.252 6.16831 711.229C6.54497 711.96 7.47538 712.868 7.85204 713.599L7.67495 714.153C6.03616 715.46 4.92866 715.106 3.2674 714.575C2.53655 714.952 1.42904 714.598 0.852813 712.582Z" fill="url(#paint18_linear)"/>
<path d="M15.0427 670.102C13.7581 670.302 13.2043 670.125 12.4735 670.502C10.6351 670.525 10.2585 669.794 10.0589 668.509C10.236 667.955 9.68225 667.778 9.85935 667.224C10.0364 666.67 10.2135 666.116 10.3906 665.562C10.5677 665.008 12.229 665.539 12.6056 666.27C14.2669 666.801 14.4665 668.086 15.0427 670.102Z" fill="url(#paint19_linear)"/>
<path d="M797.593 612.551C798.878 612.351 799.232 611.243 800.694 610.489C802.333 609.181 804.171 609.158 805.855 611.528C804.216 612.836 802.023 613.967 800.185 613.99C799.077 613.636 798.147 612.728 797.593 612.551Z" fill="url(#paint20_linear)"/>
<path d="M327.955 773.802C325.94 774.379 323.924 774.956 322.817 774.602C319.494 773.539 316.017 774.87 312.495 772.523C314.887 772.677 316.903 772.1 318.564 772.631C321.886 773.694 324.81 772.186 327.955 773.802Z" fill="url(#paint21_linear)"/>
<path d="M107.113 666.566C105.652 667.32 104.367 667.52 102.706 666.989C102.152 666.812 101.598 666.635 101.776 666.081C101.953 665.527 102.13 664.973 102.307 664.419C103.946 663.111 106.338 663.265 107.468 665.458C107.291 666.012 107.291 666.012 107.113 666.566Z" fill="url(#paint22_linear)"/>
<path d="M137.092 727.44C139.307 728.148 141.7 728.302 143.361 728.833C143.56 730.118 143.383 730.672 142.276 730.318C140.437 730.341 139.153 730.541 137.669 729.456C137.115 729.279 136.738 728.548 137.092 727.44Z" fill="url(#paint23_linear)"/>
<path d="M47.0024 698.026C46.8029 696.741 47.9104 697.095 48.6412 696.718C49.3721 696.342 49.5492 695.788 50.28 695.411C50.8338 695.588 50.6567 696.142 51.2104 696.319C51.2104 696.319 51.2104 696.319 51.7642 696.496C51.7642 696.496 51.7642 696.496 51.5871 697.05C50.6791 697.981 51.6095 698.889 50.7016 699.819C49.9707 700.196 48.8632 699.842 48.4866 699.111C47.9328 698.934 47.3791 698.757 47.0024 698.026Z" fill="url(#paint24_linear)"/>
<path d="M752.614 722.725C753.367 724.187 754.298 725.095 753.767 726.757C752.482 726.957 751.551 726.049 750.621 725.141C750.975 724.033 750.776 722.748 752.614 722.725Z" fill="url(#paint25_linear)"/>
<path d="M38.1561 605.444C38.5103 604.336 38.3107 603.051 38.3107 603.051C39.2187 602.12 40.5033 601.92 41.9874 603.005C40.9024 604.49 40.9024 604.49 38.1561 605.444Z" fill="url(#paint26_linear)"/>
<path d="M135.924 526.798C138.139 527.507 138.139 527.507 138.715 529.522C136.146 529.922 136.146 529.922 134.285 528.106C135.016 527.729 135.747 527.352 135.924 526.798Z" fill="url(#paint27_linear)"/>
<path d="M161.728 742.032C161.905 741.478 161.905 741.478 162.636 741.101C163.743 741.455 165.405 741.986 166.512 742.34C166.535 744.179 165.804 744.556 164.873 743.648C163.766 743.294 162.835 742.386 161.728 742.032Z" fill="url(#paint28_linear)"/>
<path d="M749.483 451.854C751.676 450.724 754.068 450.878 756.836 451.763C753.536 452.54 751.875 452.009 749.483 451.854Z" fill="url(#paint29_linear)"/>
<path d="M780.587 619.935C779.856 620.311 779.679 620.865 778.771 621.796C777.863 622.727 776.756 622.373 775.825 621.465C777.464 620.157 778.926 619.403 780.587 619.935Z" fill="url(#paint30_linear)"/>
<path d="M135.749 527.355C134.087 526.824 132.603 525.739 131.673 524.831C133.135 524.077 134.419 523.877 135.172 525.339C135.726 525.516 136.103 526.247 135.749 527.355Z" fill="url(#paint31_linear)"/>
<path d="M151.105 549.97C149.997 549.616 147.982 550.192 147.405 548.176C151.082 548.131 151.082 548.131 151.105 549.97Z" fill="url(#paint32_linear)"/>
<path d="M334.758 773.534C333.673 775.019 332.743 774.111 332.012 774.488C331.458 774.311 330.174 774.511 329.62 774.334C330.528 773.403 331.259 773.026 334.758 773.534Z" fill="url(#paint33_linear)"/>
<path d="M357.569 774.724C358.123 774.901 359.407 774.701 359.961 774.878C360.161 776.163 359.053 775.809 358.876 776.363C358.322 776.186 357.591 776.563 357.569 774.724Z" fill="url(#paint34_linear)"/>
<path d="M170.667 586.138C171.951 585.938 172.682 585.561 172.882 586.846C172.705 587.4 172.527 587.954 172.527 587.954C171.974 587.777 171.974 587.777 171.974 587.777C171.42 587.6 171.043 586.869 170.667 586.138Z" fill="url(#paint35_linear)"/>
<path d="M311.214 772.724C310.483 773.101 309.929 772.924 309.752 773.478C309.752 773.478 309.198 773.301 308.822 772.57L308.999 772.016C308.999 772.016 309.73 771.639 310.283 771.816C310.283 771.816 310.66 772.547 311.214 772.724Z" fill="url(#paint36_linear)"/>
<path d="M795.789 660.208C795.036 658.746 794.659 658.015 794.282 657.284C796.121 657.261 796.121 657.261 795.789 660.208Z" fill="url(#paint37_linear)"/>
<path d="M797.585 656.51C797.032 656.333 796.655 655.602 796.655 655.602L796.832 655.048L797.386 655.225C797.209 655.779 797.585 656.51 797.585 656.51Z" fill="url(#paint38_linear)"/>
<path d="M94.7148 720.61C95.2686 720.787 95.6453 721.518 96.199 721.695C95.4682 722.072 94.9144 721.895 94.3607 721.718C94.5378 721.164 94.7148 720.61 94.7148 720.61Z" fill="url(#paint39_linear)"/>
<path d="M684.962 437.941C684.408 437.764 684.408 437.764 683.677 438.141L683.854 437.587L684.585 437.21C685.139 437.387 684.962 437.941 684.962 437.941Z" fill="url(#paint40_linear)"/>
<path d="M899.996 521.338C900.55 521.515 901.657 521.869 902.765 522.223C901.303 522.977 901.303 522.977 899.996 521.338Z" fill="url(#paint41_linear)"/>
<path d="M56.0603 656.351L55.5065 656.174C55.5065 656.174 55.5065 656.174 55.6836 655.62C55.5065 656.174 55.5065 656.174 56.0603 656.351Z" fill="url(#paint42_linear)"/>
<path d="M112.612 695.189C112.058 695.012 112.058 695.012 111.504 694.835C111.504 694.835 111.504 694.835 110.95 694.658C110.95 694.658 111.128 694.104 111.681 694.281C112.235 694.458 112.235 694.458 112.966 694.081C112.789 694.635 112.612 695.189 112.612 695.189Z" fill="url(#paint43_linear)"/>
<path d="M101.892 721.069L101.715 721.623C101.161 721.446 101.161 721.446 101.892 721.069C101.338 720.892 101.338 720.892 101.892 721.069Z" fill="url(#paint44_linear)"/>
<path d="M142.5 523.403C142.5 523.403 143.053 523.58 142.5 523.403C142.876 524.133 142.876 524.133 142.5 523.403C142.323 523.956 142.323 523.956 142.5 523.403Z" fill="url(#paint45_linear)"/>
<path d="M140.026 546.429C140.026 546.429 139.472 546.252 140.026 546.429C140.203 545.875 140.203 545.875 140.757 546.052L140.58 546.606L140.026 546.429Z" fill="url(#paint46_linear)"/>
<path d="M133.135 659.623C132.581 659.446 132.404 660 131.85 659.823L132.027 659.269C132.204 658.715 132.758 658.892 133.135 659.623C132.581 659.446 132.758 658.892 133.135 659.623Z" fill="url(#paint47_linear)"/>
<path d="M827.549 536.036C828.103 536.213 828.103 536.213 827.549 536.036C828.28 535.659 828.28 535.659 828.834 535.836C828.834 535.836 828.657 536.39 828.103 536.213C828.103 536.213 828.103 536.213 827.549 536.036Z" fill="url(#paint48_linear)"/>
<path d="M103.467 698.983L102.914 698.806C103.091 698.253 103.091 698.253 103.467 698.983C103.644 698.43 103.644 698.43 103.467 698.983Z" fill="url(#paint49_linear)"/>
<path d="M99.3291 721.47C99.3291 721.47 98.9528 720.74 99.3291 721.47C98.9528 720.74 98.9528 720.74 99.3291 721.47Z" fill="url(#paint50_linear)"/>
<path d="M779.692 426.096C778.962 426.473 778.962 426.473 779.692 426.096C778.962 426.473 778.962 426.473 779.692 426.096C779.515 426.649 778.962 426.473 779.692 426.096Z" fill="url(#paint51_linear)"/>
<path d="M780.966 620.668C781.143 620.114 781.697 620.292 781.874 619.738C781.32 619.561 781.143 620.114 780.966 620.668Z" fill="url(#paint52_linear)"/>
<path d="M797.582 656.505C797.582 656.505 797.959 657.236 797.582 656.505C797.959 657.236 797.582 656.505 797.582 656.505Z" fill="url(#paint53_linear)"/>
<path d="M769.503 721.411L768.772 721.788L768.949 721.234L769.503 721.411Z" fill="url(#paint54_linear)"/>
<path d="M21.662 670.386C21.2857 669.657 21.1089 670.21 21.1089 670.21L21.662 670.386Z" fill="url(#paint55_linear)"/>
<path d="M780.639 549.124L781.37 548.747C781.37 548.747 781.37 548.747 781.747 549.478C781.193 549.301 781.193 549.301 780.639 549.124Z" fill="url(#paint56_linear)"/>
<path d="M846.175 525.502C845.444 525.879 844.713 526.256 844.16 526.079C844.16 526.079 843.783 525.348 843.229 525.171C845.067 525.148 845.621 525.325 846.175 525.502Z" fill="url(#paint57_linear)"/>
</g>
<defs>
<linearGradient id="paint0_linear" x1="537.031" y1="358.901" x2="389.865" y2="819.239" gradientUnits="userSpaceOnUse">
<stop stop-color="#E5E5E5"/>
<stop offset="1" stop-color="#9C9C9C"/>
</linearGradient>
<linearGradient id="paint1_linear" x1="787.522" y1="625.814" x2="779.843" y2="649.834" gradientUnits="userSpaceOnUse">
<stop stop-color="#E5E5E5"/>
<stop offset="1" stop-color="#9C9C9C"/>
</linearGradient>
<linearGradient id="paint2_linear" x1="35.918" y1="692.041" x2="29.1884" y2="713.091" gradientUnits="userSpaceOnUse">
<stop stop-color="#E5E5E5"/>
<stop offset="1" stop-color="#9C9C9C"/>
</linearGradient>
<linearGradient id="paint3_linear" x1="66.206" y1="638.227" x2="63.1955" y2="647.644" gradientUnits="userSpaceOnUse">
<stop stop-color="#E5E5E5"/>
<stop offset="1" stop-color="#9C9C9C"/>
</linearGradient>
<linearGradient id="paint4_linear" x1="100.469" y1="643.076" x2="97.3891" y2="652.71" gradientUnits="userSpaceOnUse">
<stop stop-color="#E5E5E5"/>
<stop offset="1" stop-color="#9C9C9C"/>
</linearGradient>
<linearGradient id="paint5_linear" x1="78.7798" y1="657.845" x2="76.576" y2="664.739" gradientUnits="userSpaceOnUse">
<stop stop-color="#E5E5E5"/>
<stop offset="1" stop-color="#9C9C9C"/>
</linearGradient>
<linearGradient id="paint6_linear" x1="707.159" y1="423.055" x2="701.669" y2="440.228" gradientUnits="userSpaceOnUse">
<stop stop-color="#E5E5E5"/>
<stop offset="1" stop-color="#9C9C9C"/>
</linearGradient>
<linearGradient id="paint7_linear" x1="33.88" y1="618.735" x2="30.3381" y2="629.814" gradientUnits="userSpaceOnUse">
<stop stop-color="#E5E5E5"/>
<stop offset="1" stop-color="#9C9C9C"/>
</linearGradient>
<linearGradient id="paint8_linear" x1="783.237" y1="701.379" x2="780.049" y2="711.35" gradientUnits="userSpaceOnUse">
<stop stop-color="#E5E5E5"/>
<stop offset="1" stop-color="#9C9C9C"/>
</linearGradient>
<linearGradient id="paint9_linear" x1="785.427" y1="419.992" x2="783.124" y2="427.194" gradientUnits="userSpaceOnUse">
<stop stop-color="#E5E5E5"/>
<stop offset="1" stop-color="#9C9C9C"/>
</linearGradient>
<linearGradient id="paint10_linear" x1="84.858" y1="717.09" x2="83.7879" y2="720.437" gradientUnits="userSpaceOnUse">
<stop stop-color="#E5E5E5"/>
<stop offset="1" stop-color="#9C9C9C"/>
</linearGradient>
<linearGradient id="paint11_linear" x1="134.293" y1="595.884" x2="131.814" y2="603.639" gradientUnits="userSpaceOnUse">
<stop stop-color="#E5E5E5"/>
<stop offset="1" stop-color="#9C9C9C"/>
</linearGradient>
<linearGradient id="paint12_linear" x1="137.078" y1="502.744" x2="135.91" y2="506.399" gradientUnits="userSpaceOnUse">
<stop stop-color="#E5E5E5"/>
<stop offset="1" stop-color="#9C9C9C"/>
</linearGradient>
<linearGradient id="paint13_linear" x1="132.701" y1="548.36" x2="129.868" y2="557.223" gradientUnits="userSpaceOnUse">
<stop stop-color="#E5E5E5"/>
<stop offset="1" stop-color="#9C9C9C"/>
</linearGradient>
<linearGradient id="paint14_linear" x1="68.1596" y1="713.952" x2="66.5657" y2="718.937" gradientUnits="userSpaceOnUse">
<stop stop-color="#E5E5E5"/>
<stop offset="1" stop-color="#9C9C9C"/>
</linearGradient>
<linearGradient id="paint15_linear" x1="269.42" y1="767.911" x2="267.472" y2="774.005" gradientUnits="userSpaceOnUse">
<stop stop-color="#E5E5E5"/>
<stop offset="1" stop-color="#9C9C9C"/>
</linearGradient>
<linearGradient id="paint16_linear" x1="793.62" y1="611.281" x2="790.964" y2="619.591" gradientUnits="userSpaceOnUse">
<stop stop-color="#E5E5E5"/>
<stop offset="1" stop-color="#9C9C9C"/>
</linearGradient>
<linearGradient id="paint17_linear" x1="736.794" y1="436.196" x2="735.023" y2="441.736" gradientUnits="userSpaceOnUse">
<stop stop-color="#E5E5E5"/>
<stop offset="1" stop-color="#9C9C9C"/>
</linearGradient>
<linearGradient id="paint18_linear" x1="5.06081" y1="710.875" x2="3.71524" y2="715.084" gradientUnits="userSpaceOnUse">
<stop stop-color="#E5E5E5"/>
<stop offset="1" stop-color="#9C9C9C"/>
</linearGradient>
<linearGradient id="paint19_linear" x1="13.2922" y1="666.032" x2="11.8503" y2="670.542" gradientUnits="userSpaceOnUse">
<stop stop-color="#E5E5E5"/>
<stop offset="1" stop-color="#9C9C9C"/>
</linearGradient>
<linearGradient id="paint20_linear" x1="802.576" y1="609.374" x2="801.016" y2="614.255" gradientUnits="userSpaceOnUse">
<stop stop-color="#E5E5E5"/>
<stop offset="1" stop-color="#9C9C9C"/>
</linearGradient>
<linearGradient id="paint21_linear" x1="320.785" y1="771.412" x2="319.595" y2="775.135" gradientUnits="userSpaceOnUse">
<stop stop-color="#E5E5E5"/>
<stop offset="1" stop-color="#9C9C9C"/>
</linearGradient>
<linearGradient id="paint22_linear" x1="105.297" y1="663.658" x2="104.09" y2="667.431" gradientUnits="userSpaceOnUse">
<stop stop-color="#E5E5E5"/>
<stop offset="1" stop-color="#9C9C9C"/>
</linearGradient>
<linearGradient id="paint23_linear" x1="140.497" y1="727.918" x2="139.715" y2="730.363" gradientUnits="userSpaceOnUse">
<stop stop-color="#E5E5E5"/>
<stop offset="1" stop-color="#9C9C9C"/>
</linearGradient>
<linearGradient id="paint24_linear" x1="50.0076" y1="695.324" x2="48.6351" y2="699.617" gradientUnits="userSpaceOnUse">
<stop stop-color="#E5E5E5"/>
<stop offset="1" stop-color="#9C9C9C"/>
</linearGradient>
<linearGradient id="paint25_linear" x1="753.124" y1="722.888" x2="751.988" y2="726.441" gradientUnits="userSpaceOnUse">
<stop stop-color="#E5E5E5"/>
<stop offset="1" stop-color="#9C9C9C"/>
</linearGradient>
<linearGradient id="paint26_linear" x1="40.3956" y1="602.257" x2="39.2636" y2="605.798" gradientUnits="userSpaceOnUse">
<stop stop-color="#E5E5E5"/>
<stop offset="1" stop-color="#9C9C9C"/>
</linearGradient>
<linearGradient id="paint27_linear" x1="137.031" y1="527.152" x2="136.234" y2="529.645" gradientUnits="userSpaceOnUse">
<stop stop-color="#E5E5E5"/>
<stop offset="1" stop-color="#9C9C9C"/>
</linearGradient>
<linearGradient id="paint28_linear" x1="164.406" y1="741.667" x2="163.808" y2="743.536" gradientUnits="userSpaceOnUse">
<stop stop-color="#E5E5E5"/>
<stop offset="1" stop-color="#9C9C9C"/>
</linearGradient>
<linearGradient id="paint29_linear" x1="753.514" y1="450.701" x2="752.806" y2="452.917" gradientUnits="userSpaceOnUse">
<stop stop-color="#E5E5E5"/>
<stop offset="1" stop-color="#9C9C9C"/>
</linearGradient>
<linearGradient id="paint30_linear" x1="778.649" y1="619.315" x2="777.647" y2="622.449" gradientUnits="userSpaceOnUse">
<stop stop-color="#E5E5E5"/>
<stop offset="1" stop-color="#9C9C9C"/>
</linearGradient>
<linearGradient id="paint31_linear" x1="134.258" y1="524.381" x2="133.534" y2="526.647" gradientUnits="userSpaceOnUse">
<stop stop-color="#E5E5E5"/>
<stop offset="1" stop-color="#9C9C9C"/>
</linearGradient>
<linearGradient id="paint32_linear" x1="149.59" y1="548.024" x2="149.051" y2="549.712" gradientUnits="userSpaceOnUse">
<stop stop-color="#E5E5E5"/>
<stop offset="1" stop-color="#9C9C9C"/>
</linearGradient>
<linearGradient id="paint33_linear" x1="332.543" y1="772.826" x2="331.835" y2="775.042" gradientUnits="userSpaceOnUse">
<stop stop-color="#E5E5E5"/>
<stop offset="1" stop-color="#9C9C9C"/>
</linearGradient>
<linearGradient id="paint34_linear" x1="358.931" y1="774.549" x2="358.372" y2="776.299" gradientUnits="userSpaceOnUse">
<stop stop-color="#E5E5E5"/>
<stop offset="1" stop-color="#9C9C9C"/>
</linearGradient>
<linearGradient id="paint35_linear" x1="171.979" y1="585.852" x2="171.42" y2="587.6" gradientUnits="userSpaceOnUse">
<stop stop-color="#E5E5E5"/>
<stop offset="1" stop-color="#9C9C9C"/>
</linearGradient>
<linearGradient id="paint36_linear" x1="310.283" y1="771.816" x2="309.752" y2="773.478" gradientUnits="userSpaceOnUse">
<stop stop-color="#E5E5E5"/>
<stop offset="1" stop-color="#9C9C9C"/>
</linearGradient>
<linearGradient id="paint37_linear" x1="795.483" y1="657.348" x2="794.682" y2="659.853" gradientUnits="userSpaceOnUse">
<stop stop-color="#E5E5E5"/>
<stop offset="1" stop-color="#9C9C9C"/>
</linearGradient>
<linearGradient id="paint38_linear" x1="797.386" y1="655.225" x2="797.032" y2="656.333" gradientUnits="userSpaceOnUse">
<stop stop-color="#E5E5E5"/>
<stop offset="1" stop-color="#9C9C9C"/>
</linearGradient>
<linearGradient id="paint39_linear" x1="95.5455" y1="720.876" x2="95.1913" y2="721.984" gradientUnits="userSpaceOnUse">
<stop stop-color="#E5E5E5"/>
<stop offset="1" stop-color="#9C9C9C"/>
</linearGradient>
<linearGradient id="paint40_linear" x1="684.585" y1="437.21" x2="684.231" y2="438.318" gradientUnits="userSpaceOnUse">
<stop stop-color="#E5E5E5"/>
<stop offset="1" stop-color="#9C9C9C"/>
</linearGradient>
<linearGradient id="paint41_linear" x1="901.38" y1="521.78" x2="901.115" y2="522.611" gradientUnits="userSpaceOnUse">
<stop stop-color="#E5E5E5"/>
<stop offset="1" stop-color="#9C9C9C"/>
</linearGradient>
<linearGradient id="paint42_linear" x1="55.9605" y1="655.709" x2="55.7834" y2="656.263" gradientUnits="userSpaceOnUse">
<stop stop-color="#E5E5E5"/>
<stop offset="1" stop-color="#9C9C9C"/>
</linearGradient>
<linearGradient id="paint43_linear" x1="112.135" y1="693.815" x2="111.781" y2="694.923" gradientUnits="userSpaceOnUse">
<stop stop-color="#E5E5E5"/>
<stop offset="1" stop-color="#9C9C9C"/>
</linearGradient>
<linearGradient id="paint44_linear" x1="101.684" y1="721.003" x2="101.507" y2="721.557" gradientUnits="userSpaceOnUse">
<stop stop-color="#E5E5E5"/>
<stop offset="1" stop-color="#9C9C9C"/>
</linearGradient>
<linearGradient id="paint45_linear" x1="142.707" y1="523.47" x2="142.575" y2="523.884" gradientUnits="userSpaceOnUse">
<stop stop-color="#E5E5E5"/>
<stop offset="1" stop-color="#9C9C9C"/>
</linearGradient>
<linearGradient id="paint46_linear" x1="140.357" y1="545.924" x2="140.18" y2="546.478" gradientUnits="userSpaceOnUse">
<stop stop-color="#E5E5E5"/>
<stop offset="1" stop-color="#9C9C9C"/>
</linearGradient>
<linearGradient id="paint47_linear" x1="132.714" y1="659.031" x2="132.404" y2="660" gradientUnits="userSpaceOnUse">
<stop stop-color="#E5E5E5"/>
<stop offset="1" stop-color="#9C9C9C"/>
</linearGradient>
<linearGradient id="paint48_linear" x1="828.28" y1="535.659" x2="828.103" y2="536.213" gradientUnits="userSpaceOnUse">
<stop stop-color="#E5E5E5"/>
<stop offset="1" stop-color="#9C9C9C"/>
</linearGradient>
<linearGradient id="paint49_linear" x1="103.323" y1="698.48" x2="103.191" y2="698.895" gradientUnits="userSpaceOnUse">
<stop stop-color="#E5E5E5"/>
<stop offset="1" stop-color="#9C9C9C"/>
</linearGradient>
<linearGradient id="paint50_linear" x1="99.2543" y1="720.989" x2="99.1217" y2="721.404" gradientUnits="userSpaceOnUse">
<stop stop-color="#E5E5E5"/>
<stop offset="1" stop-color="#9C9C9C"/>
</linearGradient>
<linearGradient id="paint51_linear" x1="779.485" y1="426.03" x2="779.352" y2="426.445" gradientUnits="userSpaceOnUse">
<stop stop-color="#E5E5E5"/>
<stop offset="1" stop-color="#9C9C9C"/>
</linearGradient>
<linearGradient id="paint52_linear" x1="781.597" y1="619.649" x2="781.243" y2="620.757" gradientUnits="userSpaceOnUse">
<stop stop-color="#E5E5E5"/>
<stop offset="1" stop-color="#9C9C9C"/>
</linearGradient>
<linearGradient id="paint53_linear" x1="797.705" y1="656.544" x2="797.626" y2="656.79" gradientUnits="userSpaceOnUse">
<stop stop-color="#E5E5E5"/>
<stop offset="1" stop-color="#9C9C9C"/>
</linearGradient>
<linearGradient id="paint54_linear" x1="769.226" y1="721.323" x2="769.049" y2="721.877" gradientUnits="userSpaceOnUse">
<stop stop-color="#E5E5E5"/>
<stop offset="1" stop-color="#9C9C9C"/>
</linearGradient>
<linearGradient id="paint55_linear" x1="21.464" y1="670.052" x2="21.3855" y2="670.298" gradientUnits="userSpaceOnUse">
<stop stop-color="#E5E5E5"/>
<stop offset="1" stop-color="#9C9C9C"/>
</linearGradient>
<linearGradient id="paint56_linear" x1="781.37" y1="548.747" x2="781.193" y2="549.301" gradientUnits="userSpaceOnUse">
<stop stop-color="#E5E5E5"/>
<stop offset="1" stop-color="#9C9C9C"/>
</linearGradient>
<linearGradient id="paint57_linear" x1="844.791" y1="525.06" x2="844.436" y2="526.168" gradientUnits="userSpaceOnUse">
<stop stop-color="#E5E5E5"/>
<stop offset="1" stop-color="#9C9C9C"/>
</linearGradient>
<clipPath id="clip0">
<rect width="836" height="524" fill="white" transform="translate(128.562 210) rotate(17.7286)"/>
</clipPath>
</defs>
</svg>
