<svg width="950" height="850" viewBox="0 0 950 850" fill="none" xmlns="http://www.w3.org/2000/svg">
<path fill-rule="evenodd" clip-rule="evenodd" d="M652.646 230.517C653.754 228.624 653.723 226.756 653.002 224.675C652.224 222.402 651.418 220.034 650.545 217.79C648.468 211.834 646.419 205.975 644.342 200.019C644.314 199.923 644.286 199.828 644.257 199.732C648.604 200.321 652.769 203.468 655.468 206.945C656.831 208.731 657.811 210.631 658.244 212.797C658.638 215.184 658.496 217.52 658.382 219.953C658.343 220.173 658.428 220.46 658.389 220.681L659.117 220.674C659.423 218.184 659.728 215.695 659.43 213.28C659.075 210.674 658.106 208.458 656.629 206.288C653.952 202.179 649.516 199.53 645.859 196.337C643.739 194.462 642.109 192.129 640.739 189.614L639.666 189.515C643.298 200.016 646.902 210.421 650.534 220.922C650.619 221.209 650.733 221.593 650.818 221.88C646.909 219.597 641.003 221.138 639.149 225.441C637.256 229.965 640.775 234.451 645.526 234.295C648.41 234.171 651.048 232.868 652.646 230.517Z" fill="#666666"/>
<g clip-path="url(#clip0)">
<path d="M766.085 346.701C766.043 346.031 765.516 345.482 764.925 345.339C764.425 345.236 763.717 345.369 763.259 345.935C762.5 346.699 762.817 347.486 761.425 347.438C761.11 347.413 760.756 347.48 759.718 347.365C759.757 347.273 759.796 347.181 759.836 347.089C760.42 344.946 759.547 343.163 758.273 342.839C758.089 342.761 757.773 342.736 757.55 342.749C756.041 342.978 755.482 344.804 756.692 345.536C757.351 346.033 757.825 346.451 757.958 347.16C755.975 346.969 748 345.537 742.613 344.661C742.653 344.569 742.692 344.477 742.731 344.385C743.184 342.296 742.272 340.605 741.037 340.189C740.853 340.111 740.537 340.085 740.314 340.099C738.805 340.327 738.246 342.154 739.417 342.978C740.023 343.343 740.497 343.762 740.577 344.34C738.764 344.004 737.45 343.772 737.45 343.772C735.099 343.425 733.291 344.612 733.348 346.267C733.39 346.936 733.864 347.355 734.494 347.405C735.086 347.548 735.794 347.414 736.213 346.94C736.671 346.374 737.023 345.546 738.73 345.619C738.861 345.566 739.452 345.709 740.49 345.824C739.713 349.188 736.001 363.039 735.636 363.644C735.557 363.828 735.334 363.842 735.058 363.725C734.69 363.569 734.177 363.242 733.441 362.929C732.651 362.485 731.77 362.002 730.811 361.703C730.626 361.625 730.442 361.547 730.219 361.561C725.318 360.565 722.846 367.663 728.143 369.262C733.163 370.743 735.473 366.074 735.785 365.338C736.006 364.562 740.546 351.063 742.158 345.989L757.765 348.382C756.857 351.799 753.184 365.558 752.78 366.255C752.701 366.44 752.478 366.453 752.202 366.336C751.834 366.18 751.321 365.853 750.584 365.54C749.887 365.135 749.006 364.652 748.007 364.445C747.823 364.367 747.6 364.381 747.416 364.303C742.462 363.176 740.043 370.406 745.34 372.004C750.36 373.485 752.669 368.816 752.982 368.08C753.203 367.305 757.743 353.805 759.355 348.731L759.447 348.77C760.261 348.899 761.037 349.12 761.851 349.249C761.943 349.288 761.943 349.288 762.035 349.327C764.348 349.766 766.195 348.486 766.085 346.701Z" fill="#666666"/>
</g>
<defs>
<clipPath id="clip0">
<rect width="30.9" height="36.4" fill="white" transform="translate(738.234 334) rotate(23.0168)"/>
</clipPath>
</defs>
</svg>
