<svg width="950" height="850" viewBox="0 0 950 850" fill="none" xmlns="http://www.w3.org/2000/svg">
<g clip-path="url(#clip0)">
<path d="M213.234 518.47C213.239 518.949 213.481 519.186 213.722 519.423C214.206 519.897 215.4 519.647 215.875 519.163C216.112 518.922 216.112 518.922 216.349 518.68C218.009 516.988 219.687 517.211 220.905 519.355C221.146 519.592 221.151 520.071 221.392 520.308C222.838 521.252 222.368 522.214 221.661 523.418L221.903 523.655C224.046 522.437 224.288 522.675 224.789 525.064L224.794 525.543C225.04 526.259 225.523 526.733 226.239 526.487C227.676 526.473 228.633 526.464 229.841 527.65C230.083 527.887 230.562 527.882 230.804 528.119C231.52 527.873 232.003 528.347 232.486 528.822C233.211 529.533 233.927 529.287 234.397 528.325L234.393 527.846C234.862 526.884 235.816 526.396 237.252 526.382C237.973 526.615 238.214 526.852 238.228 528.288L238.232 528.767C238.241 529.725 238.246 530.203 238.971 530.915C239.696 531.626 238.026 532.36 238.751 533.072C239.727 534.978 238.783 536.424 237.597 537.632C237.123 538.116 237.127 538.594 237.136 539.552C237.637 541.942 238.613 543.848 238.635 546.242C238.644 547.2 239.128 547.674 239.848 547.906C240.569 548.139 241.052 548.613 240.819 549.334C241.07 550.529 241.549 550.524 242.506 550.515C243.464 550.506 243.947 550.98 243.715 551.701C243.715 551.701 243.956 551.938 244.198 552.175C244.914 551.929 245.388 551.445 246.109 551.678C246.829 551.91 247.55 552.143 248.038 553.096C248.279 553.333 248.763 553.807 248.767 554.286C249.004 554.044 249.241 553.803 249.479 553.561C249.711 552.841 250.427 552.594 251.148 552.827C252.11 553.297 252.83 553.529 253.779 552.562C254.016 552.321 254.258 552.558 254.495 552.316C255.694 552.544 256.155 550.624 257.596 551.089L257.833 550.848C257.824 549.89 258.778 549.402 259.494 549.156C259.968 548.672 260.201 547.952 260.675 547.469C261.149 546.985 261.624 546.502 261.615 545.544C261.61 545.065 261.601 544.108 261.838 543.866C262.787 542.899 262.778 541.942 263.485 540.738C263.955 539.775 263.95 539.297 262.984 538.348C261.775 537.162 261.771 536.684 263.194 535.233C263.905 534.508 263.901 534.029 262.697 533.323C261.977 533.09 261.735 532.853 261.252 532.379C260.285 531.43 260.513 530.231 261.945 529.738C262.424 529.734 262.903 529.729 263.382 529.725C263.619 529.483 264.098 529.478 263.856 529.241C264.093 529 263.61 528.525 263.368 528.288C262.885 527.814 262.648 528.056 261.932 528.302C260.979 528.79 260.021 528.799 259.054 527.85C258.571 527.376 258.092 527.381 257.622 528.343C257.39 529.063 256.911 529.068 256.19 528.835C255.707 528.361 255.465 528.124 255.94 527.641C256.177 527.399 256.41 526.678 256.647 526.437L256.642 525.958C256.401 525.721 256.163 525.962 255.922 525.725C255.685 525.967 255.447 526.209 255.21 526.45C254.736 526.934 254.257 526.938 253.774 526.464C253.29 525.99 253.044 525.274 253.04 524.795C253.035 524.316 253.031 523.837 253.264 523.117C251.59 523.372 251.841 524.567 251.129 525.292C250.171 525.301 249.214 525.31 248.493 525.078C248.005 524.125 247.518 523.172 247.988 522.209C248.457 521.247 248.453 520.768 247.965 519.815C247.719 519.099 247.952 518.379 248.909 518.37C249.867 518.36 250.587 518.593 250.834 519.309C251.08 520.025 251.563 520.499 252.283 520.732C253.487 521.439 254.691 522.145 255.895 522.852C256.615 523.085 257.573 523.076 258.289 522.83C259.005 522.583 259.475 521.621 259.229 520.905C258.983 520.189 258.504 520.194 258.025 520.198C257.546 520.203 257.067 520.207 256.347 519.975C255.147 519.747 254.66 518.794 254.413 518.078C254.405 517.12 255.121 516.874 255.837 516.628C256.074 516.386 256.074 516.386 256.311 516.144C256.548 515.902 256.544 515.424 256.544 515.424C256.056 514.471 255.563 513.039 254.838 512.327C253.872 511.379 253.142 510.189 252.892 508.994C253.608 508.747 254.324 508.501 254.803 508.497C255.04 508.255 255.272 507.534 254.794 507.539C254.552 507.302 254.073 507.306 254.073 507.306C251.912 506.609 250.699 504.944 249.723 503.038C249.96 502.796 250.198 502.555 250.439 502.792C250.676 502.55 250.914 502.308 251.392 502.304C252.346 501.816 252.815 500.854 252.569 500.138C252.323 499.422 251.598 498.71 250.403 498.961C249.687 499.207 249.204 498.733 249.437 498.013C249.428 497.055 249.902 496.572 250.864 497.041C251.343 497.037 251.822 497.032 252.059 496.79C252.296 496.549 252.771 496.065 253.487 495.819C253.728 496.056 254.212 496.531 254.216 497.009C254.699 497.484 254.941 497.721 255.174 497C255.639 495.559 256.834 495.308 257.796 495.778C258.995 496.006 259.47 495.523 260.186 495.276C261.613 494.305 263.045 493.813 263.748 492.13L263.985 491.888C264.938 491.4 265.649 490.675 265.399 489.48L265.394 489.002C266.106 488.276 267.055 487.31 266.804 486.115C266.804 486.115 267.041 485.873 267.278 485.632C267.753 485.148 267.985 484.428 267.739 483.712C267.735 483.233 267.73 482.754 267.726 482.275C267.717 481.318 267.712 480.839 268.907 480.588C270.339 480.095 271.046 478.891 271.033 477.455C271.019 476.018 270.294 475.307 268.853 474.842C268.853 474.842 268.853 474.842 268.611 474.605C267.649 474.135 267.403 473.419 267.394 472.462C267.39 471.983 268.101 471.258 268.343 471.495C268.585 471.732 269.063 471.727 269.305 471.964C269.788 472.439 270.267 472.434 270.983 472.188C272.415 471.695 272.885 470.733 272.872 469.297C272.867 468.818 272.858 467.86 272.854 467.381C273.561 466.177 274.268 464.974 275.453 463.765C276.402 462.798 276.881 462.794 277.852 464.221C278.094 464.458 278.094 464.458 278.335 464.695C279.06 465.407 279.776 465.161 280.488 464.435C280.958 463.473 280.712 462.757 279.508 462.05C278.787 461.818 277.588 461.59 277.583 461.111C277.337 460.395 278.049 459.67 278.282 458.949C278.282 458.949 278.281 458.949 278.519 458.708C278.51 457.75 279.221 457.025 280.179 457.016C281.137 457.007 282.094 456.998 283.047 456.51C283.526 456.505 284.005 456.501 284.479 456.017C284.716 455.775 285.191 455.292 284.949 455.055C284.94 454.097 283.978 453.628 283.025 454.116C282.788 454.357 282.309 454.362 281.835 454.845C281.123 455.57 280.165 455.579 279.445 455.347C278.724 455.114 278.241 454.64 278.232 453.682C278.223 452.725 278.456 452.004 278.926 451.042C278.921 450.563 279.154 449.843 278.912 449.605C278.424 448.652 278.899 448.169 279.615 447.923C280.089 447.439 280.805 447.193 281.284 447.189C282 446.942 282.953 446.454 283.181 445.255C282.702 445.26 282.461 445.022 282.224 445.264C281.508 445.51 280.796 446.235 280.08 446.482C279.606 446.965 278.89 447.211 278.415 447.695C277.941 448.178 277.221 447.946 276.974 447.23C276.245 446.039 275.274 444.612 274.544 443.422C275.735 442.692 276.446 441.967 277.399 441.479C276.916 441.005 276.437 441.009 275.963 441.493C273.582 442.952 271.891 441.292 269.729 440.594C269.488 440.357 269.246 440.12 269.241 439.641C269.237 439.163 269.228 438.205 268.512 438.451C267.554 438.46 267.559 438.939 267.326 439.66C267.326 439.66 267.089 439.901 267.331 440.138C267.098 440.859 266.619 440.864 265.903 441.11C265.424 441.114 264.945 441.119 264.467 441.123C263.267 440.895 263.026 440.658 263.254 439.459C263.478 437.781 263.231 437.065 261.79 436.6C261.07 436.367 260.349 436.135 259.866 435.66C259.383 435.186 258.9 434.712 259.132 433.991C259.119 432.555 257.915 431.848 256.479 431.862C255.763 432.108 255.042 431.875 254.568 432.359C253.615 432.847 253.136 432.851 252.415 432.619C252.174 432.381 251.453 432.149 250.974 432.153C250.026 433.12 249.797 434.32 248.603 434.57C247.649 435.058 247.18 436.021 246.705 436.504C245.515 437.234 245.761 437.95 246.012 439.144C246.253 439.382 245.779 439.865 245.542 440.107C245.081 442.026 244.862 444.183 246.791 445.602C247.274 446.076 247.52 446.792 247.762 447.029C248.245 447.503 248.724 447.499 249.444 447.731L249.686 447.968C249.932 448.684 250.411 448.68 251.127 448.434C252.317 447.704 253.288 449.131 254.483 448.88C254.483 448.88 254.725 449.118 254.966 449.355C254.971 449.834 255.213 450.071 255.217 450.55C255.226 451.507 254.989 451.749 254.031 451.758C252.116 451.776 251.637 451.781 251.176 453.701C250.944 454.421 250.948 454.9 250.474 455.383C250.237 455.625 250.004 456.346 249.767 456.587C249.306 458.507 249.798 459.939 251.006 461.125C252.215 462.31 253.423 463.496 254.631 464.682C255.115 465.156 255.119 465.635 254.403 465.881C253.45 466.369 252.251 466.141 251.051 465.913C251.297 466.629 251.302 467.108 251.306 467.587C251.311 468.065 251.074 468.307 250.595 468.312C249.879 468.558 249.163 468.804 248.442 468.572C247.964 468.576 247.717 467.86 247.234 467.386C246.992 467.149 246.751 466.912 246.509 466.675C244.388 470.286 245.127 472.434 247.534 473.848C247.534 473.848 247.776 474.085 247.539 474.327C246.116 475.777 246.116 475.777 245.65 477.218C245.413 477.46 245.418 477.938 244.939 477.943C243.99 478.91 243.99 478.91 244.478 479.863C245.695 482.006 244.76 484.409 242.616 485.627C241.426 486.357 240.464 485.887 239.502 485.417C238.795 486.621 239.045 487.816 239.533 488.769C240.021 489.722 239.788 490.443 239.077 491.168C238.603 491.651 237.649 492.139 236.933 492.385C236.217 492.632 235.739 492.636 235.009 491.446C234.767 491.209 234.526 490.972 234.047 490.976C233.81 491.218 233.331 491.222 233.331 491.222C232.364 490.274 230.686 490.051 230.668 488.135C230.664 487.656 230.664 487.656 230.659 487.178C230.901 487.415 230.901 487.415 231.38 487.41C232.584 488.117 233.541 488.108 233.774 487.387C234.007 486.667 233.756 485.472 232.794 485.002L232.552 484.765C231.59 484.295 230.4 485.025 229.93 485.987C229.702 487.187 229.236 488.628 229.008 489.827C228.538 490.789 228.306 491.51 227.594 492.235C226.404 492.965 226.167 493.206 225.2 492.258C224.475 491.546 223.508 490.598 222.313 490.849C222.313 490.849 221.83 490.374 221.826 489.895C221.821 489.417 222.058 489.175 222.054 488.696C222.049 488.217 221.324 487.506 220.608 487.752C219.655 488.24 218.944 488.965 218.474 489.927C218.241 490.648 218.971 491.838 219.687 491.592C221.36 491.337 222.085 492.048 223.052 492.996C224.497 493.94 224.502 494.419 223.321 496.107C222.135 497.315 221.19 498.761 220.005 499.969C219.53 500.452 218.819 501.178 218.586 501.898C217.866 501.666 216.904 501.196 216.183 500.963C215.225 500.972 214.505 500.74 213.306 500.512C212.343 500.042 211.39 500.53 211.158 501.251C210.925 501.971 211.65 502.682 212.849 502.91C212.849 502.91 212.849 502.91 213.091 503.148C214.049 503.138 214.532 503.613 214.778 504.329C214.782 504.808 215.266 505.282 215.986 505.514C217.186 505.742 217.432 506.458 217.441 507.416C217.45 508.374 217.459 509.331 217.468 510.289C217.481 511.725 217.481 511.725 216.532 512.692C216.774 512.929 217.495 513.162 217.736 513.399C217.978 513.636 217.745 514.357 217.508 514.598C216.797 515.323 216.081 515.57 215.369 516.295C214.653 516.541 213.937 516.787 213.221 517.034C213.709 517.987 213.472 518.228 213.234 518.47ZM242.424 490.657C243.136 489.932 243.364 488.733 244.568 489.439C246.009 489.905 246.734 490.616 246.747 492.052C246.756 493.01 246.761 493.489 248.197 493.475C248.676 493.471 248.68 493.949 248.443 494.191C248.206 494.433 247.49 494.679 247.494 495.158C247.257 495.4 247.262 495.878 247.029 496.599C245.342 495.418 244.134 494.232 242.688 493.288C241.722 492.34 241.717 491.861 242.424 490.657ZM241.785 524.663C243.454 523.929 245.119 522.716 247.025 521.74C247.272 522.456 247.518 523.172 247.522 523.65C247.773 524.845 247.777 525.324 246.587 526.054C245.634 526.542 244.918 526.788 243.965 527.276C242.998 526.327 242.51 525.374 241.785 524.663Z" fill="#D9D9D9"/>
<path d="M466.014 460.514C466.251 460.272 466.247 459.793 466.484 459.551C466.005 459.556 465.768 459.798 465.768 459.798C465.293 460.281 464.824 461.243 464.103 461.011C463.383 460.778 462.895 459.825 462.649 459.109C462.644 458.63 462.64 458.151 462.394 457.435C462.389 456.957 462.626 456.715 462.385 456.478C461.185 456.25 461.44 457.923 460.246 458.174C459.521 457.463 460.232 456.738 460.228 456.259C460.228 456.259 460.223 455.78 459.981 455.543C459.981 455.543 459.503 455.547 459.265 455.789C459.028 456.031 458.791 456.273 458.317 456.756C458.08 456.998 457.601 457.002 457.601 457.002C457.359 456.765 457.117 456.528 457.113 456.049C456.867 455.333 457.099 454.613 456.853 453.897L456.37 453.422C456.133 453.664 455.654 453.669 455.896 453.906C455.663 454.626 455.668 455.105 455.435 455.826C455.198 456.067 454.723 456.551 454.007 456.797C454.007 456.797 453.524 456.323 453.282 456.086C453.041 455.848 452.795 455.133 452.553 454.895C452.316 455.137 452.079 455.379 452.083 455.858C451.85 456.578 452.097 457.294 451.139 457.303C450.66 457.308 449.698 456.838 448.977 456.605C448.736 456.368 448.731 455.89 448.49 455.652C448.248 455.415 448.243 454.936 447.76 454.462C447.527 455.183 447.532 455.662 447.536 456.14C447.787 457.335 447.554 458.056 447.08 458.539C446.364 458.785 445.644 458.553 444.914 457.363C444.431 456.888 444.185 456.172 443.701 455.698L443.223 455.703C443.223 455.703 442.985 455.944 443.227 456.181C443.473 456.897 443.956 457.372 444.203 458.088C444.444 458.325 443.97 458.808 443.97 458.808C443.733 459.05 443.491 458.813 443.249 458.576C442.524 457.864 442.278 457.148 441.553 456.437C441.312 456.2 440.833 456.204 440.354 456.209C441.084 457.399 441.808 458.11 442.055 458.826C442.538 459.301 442.784 460.017 442.068 460.263C441.831 460.505 441.11 460.272 440.632 460.277C440.632 460.277 440.394 460.518 440.153 460.281C440.157 460.76 440.641 461.234 440.645 461.713C440.65 462.192 440.654 462.671 440.417 462.912C440.18 463.154 439.459 462.921 438.98 462.926L438.739 462.689C438.26 462.693 437.772 461.74 437.298 462.224C436.823 462.707 437.786 463.177 438.269 463.651C438.511 463.888 438.511 463.888 438.752 464.125C438.994 464.363 439.477 464.837 439.24 465.078C439.245 465.557 438.291 466.045 437.813 466.05C437.092 465.817 436.85 465.58 436.367 465.106C436.125 464.869 435.647 464.873 435.409 465.115C435.656 465.831 436.134 465.826 436.376 466.064C436.859 466.538 437.58 466.77 437.826 467.486C438.068 467.723 438.072 468.202 437.835 468.444C437.598 468.686 437.119 468.69 436.882 468.932C435.929 469.42 436.17 469.657 436.895 470.368C437.137 470.606 437.379 470.843 437.62 471.08C436.193 472.051 434.984 470.865 433.311 471.121C433.794 471.595 434.036 471.832 434.277 472.069C434.998 472.302 435.96 472.772 436.681 473.004C437.643 473.474 438.13 474.427 438.614 474.901C439.097 475.376 438.144 475.863 438.148 476.342C437.911 476.584 438.153 476.821 438.395 477.058C438.636 477.295 438.878 477.533 439.12 477.77C440.328 478.955 440.328 478.955 439.384 480.401C439.146 480.643 439.146 480.643 439.151 481.121C439.63 481.117 440.346 480.871 440.825 480.866C442.019 480.615 443.469 482.038 443.72 483.233C443.725 483.712 443.487 483.953 443.25 484.195C443.013 484.437 442.776 484.678 442.539 484.92C442.78 485.157 442.78 485.157 442.78 485.157C443.255 484.674 443.733 484.669 444.208 484.186C445.161 483.698 446.119 483.689 446.844 484.4C447.569 485.112 447.336 485.832 446.862 486.316C446.624 486.557 446.866 486.794 446.629 487.036C447.345 486.79 448.056 486.065 448.531 485.581C448.768 485.34 449.247 485.335 449.488 485.572C449.967 485.568 449.972 486.046 449.976 486.525C449.981 487.004 449.743 487.246 449.99 487.962C450.464 487.478 450.701 487.237 450.701 487.237C451.408 486.033 451.883 485.549 453.086 486.256C453.807 486.489 454.532 487.2 455.252 487.433C455.485 486.712 455.955 485.75 456.434 485.745C457.15 485.499 457.633 485.974 458.353 486.206C459.53 484.04 459.53 484.04 461.45 484.501C461.674 482.822 461.674 482.822 464.068 482.8C463.804 480.168 463.804 480.168 465.719 480.15L465.715 479.671L465.473 479.434C465.455 477.519 465.45 477.04 466.645 476.789C467.124 476.785 467.603 476.78 468.319 476.534C467.111 475.348 467.111 475.348 468.055 473.902C468.529 473.419 468.288 473.182 468.283 472.703C467.558 471.992 467.795 471.75 468.748 471.262C468.986 471.02 469.223 470.779 469.46 470.537C469.218 470.3 468.977 470.063 468.739 470.304C467.54 470.076 467.298 469.839 467.768 468.877C468.238 467.915 468.708 466.953 469.178 465.99C468.699 465.995 468.457 465.758 467.979 465.762C466.779 465.534 466.538 465.297 467.007 464.335C467.24 463.615 467.477 463.373 467.71 462.652C467.943 461.932 467.701 461.695 466.981 461.462C465.781 461.234 465.781 461.234 466.014 460.514Z" fill="#D9D9D9"/>
<path d="M158.094 510.853C159.289 510.602 160.251 511.072 160.976 511.783C161.46 512.258 162.18 512.49 162.654 512.007C163.366 511.282 164.319 510.794 165.523 511.501C165.764 511.738 166.002 511.496 166.243 511.733C167.201 511.724 167.68 511.72 168.15 510.757C168.387 510.516 168.382 510.037 168.619 509.795C168.852 509.075 169.089 508.833 170.047 508.824C171.483 508.81 171.958 508.327 172.423 506.886C172.656 506.165 173.13 505.682 173.363 504.961C173.595 504.241 174.07 503.757 174.065 503.278C173.331 501.609 174.276 500.164 173.783 498.732C173.779 498.253 173.537 498.016 173.295 497.779C172.324 496.351 171.353 494.924 170.145 493.738C169.42 493.027 168.937 492.553 167.979 492.562C166.784 492.813 165.585 492.585 164.855 491.394C164.13 490.683 163.41 490.451 162.457 490.938C160.783 491.194 159.356 492.165 157.682 492.421C157.445 492.662 156.966 492.667 156.729 492.909C156.501 494.108 155.548 494.596 154.357 495.325C154.125 496.046 153.892 496.766 153.896 497.245C153.905 498.203 153.914 499.161 153.203 499.886C152.491 500.611 152.496 501.09 153.221 501.801C153.946 502.512 154.192 503.228 153.722 504.191C153.489 504.911 153.731 505.148 153.977 505.864C154.953 507.77 156.64 508.951 157.853 510.616C157.137 510.862 157.615 510.858 158.094 510.853Z" fill="#D9D9D9"/>
<path d="M209.991 351.133C211.199 352.319 211.199 352.319 212.873 352.063C213.589 351.817 214.547 351.808 215.509 352.278C215.75 352.515 216.466 352.269 216.945 352.264C218.856 351.767 220.762 350.791 221.707 349.345C222.651 347.9 224.799 347.161 223.577 344.539C224.763 343.33 224.271 341.899 223.541 340.708L223.537 340.229C224.244 339.026 223.277 338.077 222.552 337.366C221.827 336.654 221.339 335.701 220.614 334.99C220.373 334.753 219.889 334.278 219.648 334.041C218.448 333.813 217.249 333.585 216.52 332.395C216.52 332.395 216.278 332.158 216.041 332.4C214.846 332.65 213.888 332.659 212.693 332.91C211.977 333.157 211.499 333.161 210.778 332.929C209.816 332.459 209.816 332.459 209.109 333.663C208.165 335.108 207.458 336.312 205.784 336.568C205.547 336.809 205.31 337.051 205.073 337.293C204.612 339.213 204.867 340.886 203.927 342.811C203.69 343.052 203.936 343.768 204.178 344.005C205.144 344.954 205.391 345.67 205.404 347.106C205.413 348.064 205.901 349.017 206.389 349.97C206.63 350.207 207.114 350.682 207.351 350.44C208.783 349.947 209.271 350.9 209.991 351.133Z" fill="#D9D9D9"/>
<path d="M322.719 423.33C322.97 424.525 322.979 425.483 322.267 426.208C322.03 426.449 322.034 426.928 322.039 427.407C322.527 428.36 323.015 429.313 322.786 430.513C322.549 430.754 322.791 430.991 323.033 431.229C323.762 432.419 324.25 433.372 325.216 434.32C326.425 435.506 327.396 436.933 329.307 436.436L329.785 436.432C330.994 437.617 332.193 437.846 333.379 436.637C333.616 436.395 333.858 436.632 334.337 436.628C334.578 436.865 335.057 436.86 335.299 437.098C335.536 436.856 335.536 436.856 335.773 436.614C336.243 435.652 336.717 435.169 337.917 435.397C339.116 435.625 340.539 434.174 341.004 432.733C340.995 431.776 341.465 430.814 342.177 430.088C342.414 429.847 342.646 429.126 342.646 429.126C341.917 427.936 342.628 427.211 343.098 426.249C342.857 426.012 342.615 425.774 342.615 425.774C341.411 425.068 341.411 425.068 341.877 423.627C342.109 422.906 341.863 422.19 341.143 421.958C340.422 421.725 339.939 421.251 339.93 420.293C339.925 419.814 339.442 419.34 338.963 419.345C338.006 419.354 337.522 418.879 337.034 417.926C336.547 416.973 334.144 416.038 333.432 416.763C332.242 417.493 331.521 417.261 330.317 416.554C329.852 417.995 328.662 418.724 327.221 418.259C326.5 418.027 326.026 418.51 325.793 419.231C324.858 421.634 324.634 423.312 322.719 423.33Z" fill="#D9D9D9"/>
<path d="M348.907 432.418C348.437 433.38 347.967 434.343 347.009 434.352C345.568 433.887 344.624 435.332 343.429 435.583C343.192 435.825 342.955 436.066 342.718 436.308C342.727 437.266 342.252 437.749 341.541 438.474C341.304 438.716 340.829 439.199 340.829 439.199C340.364 440.64 339.178 441.849 340.391 443.513C340.633 443.75 340.158 444.234 340.163 444.713C340.167 445.191 339.93 445.433 340.172 445.67C340.655 446.145 341.138 446.619 340.906 447.339C340.436 448.302 341.635 448.53 341.881 449.246C342.378 451.156 343.586 452.342 345.502 452.324L346.222 452.556C346.714 453.988 347.668 453.5 348.384 453.254C348.862 453.249 349.583 453.482 350.303 453.715C351.024 453.947 351.503 453.943 351.735 453.222C351.973 452.98 352.21 452.739 352.21 452.739C352.926 452.492 353.646 452.725 354.362 452.479C355.078 452.232 355.069 451.275 355.785 451.029C356.738 450.541 357.45 449.816 357.92 448.853C357.915 448.374 358.39 447.891 358.627 447.649C359.566 445.725 360.264 443.563 359.047 441.42C358.806 441.183 358.559 440.467 358.555 439.988C358.779 438.31 358.049 437.12 356.608 436.655C356.367 436.417 355.646 436.185 355.646 436.185C355.154 434.753 353.476 434.53 352.988 433.576C352.751 433.818 352.509 433.581 352.509 433.581C350.607 435.036 350.607 435.036 348.907 432.418Z" fill="#D9D9D9"/>
<path d="M276.72 394.315C276.491 395.514 275.784 396.718 276.751 397.667C276.993 397.904 276.997 398.383 276.76 398.624C276.55 401.739 278.241 403.399 280.17 404.817C281.132 405.287 282.332 405.515 283.061 406.705C283.303 406.942 283.782 406.938 284.019 406.696C284.972 406.208 286.167 405.957 287.366 406.185C287.845 406.181 288.324 406.176 288.561 405.934C290.23 405.2 291.658 404.229 292.843 403.02C293.318 402.537 293.792 402.053 294.025 401.333C294.495 400.371 294.727 399.65 295.197 398.688C295.671 398.205 295.662 397.247 295.416 396.531C294.929 395.578 294.441 394.625 294.673 393.904C294.66 392.468 294.409 391.273 292.964 390.329C292.481 389.855 291.997 389.381 291.514 388.906C291.031 388.432 290.306 387.721 289.585 387.488C289.343 387.251 288.386 387.26 287.907 387.265C286.949 387.274 285.992 387.283 285.271 387.05C283.351 386.59 281.441 387.087 280.255 388.295C279.078 390.461 277.655 391.912 276.72 394.315Z" fill="#D9D9D9"/>
<path d="M481.381 388.298C480.66 388.066 479.703 388.075 478.982 387.842C477.778 387.136 476.816 386.666 475.389 387.637C475.152 387.879 474.668 387.405 474.189 387.409C473.948 387.172 473.469 387.177 473.469 387.177C472.757 387.902 472.037 387.669 471.079 387.678C470.6 387.683 469.647 388.171 469.173 388.654C468.936 388.896 468.466 389.858 468.708 390.095C469.437 391.285 468.251 392.494 468.743 393.926C467.316 394.897 468.766 396.32 468.296 397.282C468.059 397.524 468.542 397.998 468.542 397.998C469.267 398.709 469.513 399.425 469.281 400.146C469.285 400.625 469.527 400.862 470.01 401.336C470.493 401.81 470.972 401.806 471.218 402.522C471.702 402.996 471.943 403.233 472.664 403.466C473.143 403.461 473.384 403.698 473.626 403.935C474.593 404.884 476.029 404.87 477.224 404.62C477.703 404.615 478.66 404.606 479.139 404.601C479.86 404.834 480.097 404.592 480.571 404.109C481.041 403.147 481.99 402.18 483.431 402.645L483.905 402.162C483.896 401.204 484.37 400.72 484.845 400.237C485.556 399.512 486.254 397.35 485.771 396.876C484.563 395.691 484.791 394.491 485.735 393.046C484.531 392.339 483.569 391.869 483.318 390.674C483.318 390.674 482.835 390.2 482.594 389.963C482.347 389.247 482.101 388.531 481.381 388.298Z" fill="#D9D9D9"/>
<path d="M285.683 252.246C286.399 252 287.598 252.228 288.072 251.745C288.784 251.02 289.737 250.532 290.211 250.048C291.397 248.84 292.341 247.394 292.565 245.716C293.017 242.838 292.274 240.212 290.099 238.078C288.895 237.371 287.692 236.664 286.251 236.199C285.772 236.203 285.051 235.971 284.814 236.212C284.098 236.459 283.382 236.705 282.899 236.231C282.178 235.998 281.7 236.003 281.467 236.723C280.997 237.685 280.286 238.41 279.086 238.182C278.845 237.945 278.37 238.429 278.375 238.908C277.435 240.832 275.775 242.524 276.997 245.146C276.531 246.587 277.256 247.298 277.986 248.489C278.232 249.205 278.72 250.158 279.203 250.632C281.127 251.571 283.056 252.99 285.683 252.246Z" fill="#D9D9D9"/>
<path d="M386.233 429.669C387.195 430.138 388.157 430.608 389.111 430.12C389.348 429.879 389.589 430.116 390.068 430.111C392.699 429.847 394.606 428.871 395.541 426.467C395.537 425.989 396.011 425.505 396.248 425.264C396.485 425.022 396.722 424.78 396.718 424.301C396.23 423.348 397.174 421.903 396.928 421.187C396.677 419.992 396.185 418.56 395.693 417.128C395.451 416.891 395.21 416.654 394.731 416.658C394.247 416.184 393.527 415.951 393.527 415.951C392.077 414.529 392.077 414.529 390.399 414.305C389.92 414.31 389.441 414.314 388.958 413.84C388.475 413.366 387.996 413.37 387.521 413.854C387.284 414.095 386.81 414.579 386.568 414.342C385.611 414.351 385.136 414.834 384.662 415.318C384.425 415.559 383.709 415.806 383.472 416.047C382.997 416.531 382.518 416.535 382.286 417.256C381.109 419.422 380.411 421.583 381.391 423.968C381.633 424.206 381.637 424.684 381.4 424.926C381.409 425.884 381.892 426.358 382.617 427.069C382.859 427.307 383.342 427.781 383.584 428.018C384.55 428.966 385.508 428.957 386.233 429.669Z" fill="#D9D9D9"/>
<path d="M150.622 326.561C150.859 326.319 151.096 326.077 151.575 326.073C152.291 325.826 152.761 324.864 152.994 324.144C153.692 321.982 154.385 319.342 152.926 316.961C152.68 316.245 152.434 315.529 151.709 314.818C151.226 314.344 150.984 314.106 150.501 313.632C149.539 313.162 148.818 312.93 148.093 312.219C147.851 311.981 147.368 311.507 147.131 311.749C145.699 312.241 144.5 312.013 143.3 311.785C142.822 311.79 142.343 311.794 141.868 312.278C141.157 313.003 140.441 313.249 139.729 313.974L139.492 314.216C137.358 316.391 137.863 319.26 137.649 321.895C137.653 322.374 137.895 322.611 138.137 322.848C138.861 323.56 139.108 324.276 139.833 324.987C140.558 325.699 141.041 326.173 142.003 326.643C144.894 328.531 148.009 328.74 150.622 326.561Z" fill="#D9D9D9"/>
<path d="M434.256 316.435C435.209 315.947 435.688 315.943 436.409 316.175C437.608 316.403 438.57 316.873 439.528 316.864C442.405 317.315 445.265 315.851 446.196 312.969C446.665 312.007 446.656 311.049 446.647 310.092C446.625 307.698 445.649 305.791 443.483 304.615C441.317 303.438 439.398 302.978 437.254 304.195C435.585 304.93 434.636 305.896 434.171 307.337C433.934 307.579 433.697 307.821 433.701 308.3C432.497 307.593 431.303 307.844 430.349 308.332C427.964 309.312 427.02 310.758 427.763 313.384C427.794 316.736 431.638 318.136 434.256 316.435Z" fill="#D9D9D9"/>
<path d="M348.515 390.28C349.011 392.191 349.987 394.097 352.148 394.795C352.39 395.032 352.869 395.027 353.11 395.265C354.077 396.213 355.276 396.441 356.467 395.711C356.704 395.47 357.424 395.702 357.903 395.698C358.382 395.693 358.624 395.93 358.861 395.689C359.572 394.964 360.284 394.238 361.242 394.229C361.479 393.988 361.716 393.746 361.953 393.504C362.423 392.542 362.656 391.822 363.367 391.096C363.841 390.613 364.074 389.893 363.828 389.177C363.823 388.698 363.577 387.982 363.573 387.503C363.081 386.071 362.825 384.397 361.375 382.975C359.201 380.84 356.56 380.147 353.696 381.132C352.743 381.62 352.036 382.824 350.6 382.838L350.362 383.08C348.228 385.255 347.772 387.654 348.515 390.28Z" fill="#D9D9D9"/>
<path d="M49.8898 512.843C51.3218 512.351 52.9999 512.574 53.4653 511.133C57.5017 507.503 56.4991 502.724 54.3242 500.59C50.216 496.559 46.3944 497.553 43.0695 500.458C40.9305 502.154 40.51 508.384 42.4433 510.281C43.4099 511.229 44.6138 511.936 45.5804 512.884C47.0124 512.392 48.2207 513.578 49.8898 512.843Z" fill="#D9D9D9"/>
<path d="M265.63 411.901C264.686 413.346 263.5 414.555 263.997 416.466L264.001 416.944C263.54 418.864 264.99 420.287 265.483 421.719L265.724 421.956C266.686 422.426 267.17 422.9 268.132 423.37C269.577 424.314 271.256 424.537 272.688 424.045C274.12 423.552 275.793 423.297 276.496 421.614C276.728 420.893 277.444 420.647 278.156 419.922C278.147 418.964 277.896 417.77 278.366 416.807C278.603 416.566 278.357 415.85 278.115 415.613C278.098 413.697 276.173 412.758 275.439 411.089L275.198 410.852C273.519 410.628 272.311 409.443 270.396 409.461C268.243 409.721 266.574 410.455 265.63 411.901Z" fill="#D9D9D9"/>
<path d="M191.715 521.548C190.529 522.757 189.097 523.249 188.873 524.927C188.878 525.406 188.64 525.648 188.403 525.89C187.692 526.615 187.942 527.809 188.188 528.525C188.435 529.241 188.918 529.716 189.164 530.432C190.627 533.291 193.268 533.984 195.913 535.156C196.154 535.393 196.629 534.91 197.107 534.905C197.823 534.659 198.061 534.417 198.777 534.171C199.014 533.929 199.734 534.162 199.73 533.683C200.674 532.237 201.618 530.792 202.321 529.109C203.256 526.706 202.039 524.562 200.826 522.898C199.376 521.475 197.93 520.531 196.252 520.308C194.574 520.084 193.138 520.098 191.715 521.548Z" fill="#D9D9D9"/>
<path d="M192.325 459.05C193.045 459.283 193.524 459.278 193.998 458.795C194.473 458.311 195.184 457.586 195.663 457.582C196.621 457.572 197.095 457.089 197.328 456.369C197.561 455.648 198.272 454.923 198.505 454.202C198.961 451.804 197.985 449.898 196.531 447.996C196.048 447.522 195.564 447.047 194.844 446.815C193.882 446.345 192.682 446.117 191.725 446.126C189.81 446.145 188.14 446.879 186.713 447.85C186.476 448.092 186.239 448.333 186.001 448.575C185.303 450.737 184.126 452.903 186.064 455.279C187.035 456.706 188.011 458.612 190.405 458.589C190.884 458.585 191.604 458.817 192.325 459.05Z" fill="#D9D9D9"/>
<path d="M215.833 488.754C215.819 487.317 215.564 485.644 215.072 484.212C214.342 483.021 213.854 482.068 212.418 482.082C211.939 482.087 211.219 481.854 210.977 481.617C210.257 481.384 209.778 481.389 209.062 481.635C208.583 481.64 208.346 481.881 207.625 481.649C207.146 481.653 206.668 481.658 206.43 481.9C206.193 482.141 205.477 482.388 205.24 482.629C204.287 483.117 203.817 484.079 203.826 485.037C203.835 485.995 203.602 486.715 203.611 487.673C203.616 488.152 203.379 488.393 203.62 488.631C204.35 489.821 204.842 491.253 205.572 492.443C206.534 492.913 207.259 493.624 208.458 493.852C211.344 495.261 215.868 492.584 215.833 488.754Z" fill="#D9D9D9"/>
<path d="M463.359 381.524C465.767 382.938 468.161 382.915 470.3 381.219C473.624 378.314 473.593 374.962 471.172 372.112C468.988 369.02 463.726 369.549 461.591 371.724C460.401 372.454 460.177 374.132 460.19 375.569C459.976 378.205 461.43 380.106 463.359 381.524Z" fill="#D9D9D9"/>
<path d="M380.275 330.358C378.619 332.528 378.646 335.401 380.579 337.298C382.754 339.433 385.869 339.642 387.766 337.709C388.952 336.5 389.194 336.737 391.105 336.24C393.015 335.743 393.96 334.298 392.984 332.392C392.496 331.438 391.771 330.727 390.335 330.741C389.856 330.745 389.135 330.513 388.415 330.28C387.923 328.848 386.486 328.862 385.524 328.392C383.841 327.69 381.931 328.187 380.503 329.158C380.512 330.116 380.512 330.116 380.275 330.358Z" fill="#D9D9D9"/>
<path d="M251.327 418.742C251.103 420.42 251.832 421.61 252.799 422.559C254.974 424.693 259.046 424.894 260.702 422.723C261.65 421.756 262.116 420.315 262.107 419.357C262.326 417.2 261.592 415.531 259.905 414.35C259.18 413.639 257.497 412.937 256.303 413.187C255.108 413.438 253.43 413.215 252.727 414.898C251.304 416.348 251.304 416.348 251.327 418.742Z" fill="#D9D9D9"/>
<path d="M265.717 267.759C267.149 267.267 268.335 266.059 269.042 264.855C269.986 263.409 269.968 261.494 268.993 259.587C268.259 257.918 266.581 257.695 265.372 256.509C263.452 256.049 261.542 256.546 260.36 258.233C258.23 260.887 258.262 264.239 260.678 266.61C262.128 268.033 263.806 268.257 265.717 267.759Z" fill="#D9D9D9"/>
<path d="M214.018 270.169C216.198 272.782 219.782 272.029 221.442 270.337C223.577 268.162 223.55 265.289 221.375 263.155C219.2 261.021 215.848 261.053 213.709 262.749C212.049 264.441 211.848 268.513 214.018 270.169Z" fill="#D9D9D9"/>
<path d="M340.378 263.697C340.847 262.735 341.076 261.535 341.304 260.336C340.82 259.862 340.574 259.146 340.091 258.672C337.191 255.826 333.119 255.625 331.002 259.716C329.36 263.323 331.065 266.419 334.905 267.341C337.062 267.559 339.442 266.1 340.378 263.697Z" fill="#D9D9D9"/>
<path d="M386.436 400.453C386.199 400.695 385.72 400.699 385.483 400.941C383.823 402.633 383.859 406.463 385.55 408.123C387.246 410.262 390.128 411.192 393.453 408.288C393.69 408.046 394.164 407.562 394.402 407.321C394.63 406.121 395.095 404.68 394.845 403.486C394.589 401.812 393.381 400.626 391.936 399.682C390.732 398.976 389.533 398.748 388.105 399.719C387.389 399.965 386.91 399.97 386.436 400.453Z" fill="#D9D9D9"/>
<path d="M246.172 405.144C246.409 404.902 246.642 404.182 246.638 403.703C247.098 401.783 247.336 401.541 249.251 401.523C251.645 401.5 253.547 400.046 254.245 397.884C254.478 397.164 254.71 396.443 254.943 395.723C255.646 394.04 254.916 392.85 253.238 392.626C252.039 392.398 250.844 392.649 249.644 392.421C248.445 392.193 247.25 392.444 246.543 393.648C245.116 394.619 244.888 395.818 245.38 397.25C245.626 397.966 245.398 399.166 245.165 399.886C244.941 401.564 245.197 403.238 245.21 404.674C245.452 404.912 245.693 405.149 245.935 405.386C245.698 405.627 245.935 405.386 246.172 405.144Z" fill="#D9D9D9"/>
<path d="M342.817 472.461C341.126 470.801 338.016 471.07 336.834 472.758C334.7 474.933 334.959 477.085 337.139 479.698C338.589 481.121 341.936 480.61 343.359 479.16C344.777 477.231 344.746 473.88 342.817 472.461Z" fill="#D9D9D9"/>
<path d="M305.151 515.68C306.597 516.624 309.228 516.36 310.651 514.91C310.888 514.668 311.121 513.947 311.595 513.464C312.302 512.26 312.293 511.303 311.327 510.354C311.085 510.117 310.843 509.88 310.597 509.164C309.143 507.262 305.308 506.82 303.656 509.469C303.2 511.868 303.222 514.262 305.151 515.68Z" fill="#D9D9D9"/>
<path d="M357.319 359.069C358.742 357.619 358.711 354.267 357.502 353.081C355.09 351.189 352.701 351.69 351.278 353.14C349.618 354.832 349.882 357.464 351.573 359.124C353.265 360.783 355.422 361.002 357.319 359.069Z" fill="#D9D9D9"/>
<path d="M184.78 241.474C186.44 239.782 186.655 237.146 184.722 235.249C183.272 233.827 180.157 233.617 178.971 234.825C176.6 237.242 177.101 239.632 178.551 241.055C181.209 243.663 183.357 242.924 184.78 241.474Z" fill="#D9D9D9"/>
<path d="M418.061 325.689C419.959 323.755 420.178 321.598 418.245 319.701C416.553 318.041 414.154 317.585 412.494 319.277C410.834 320.969 410.619 323.605 412.311 325.265C413.765 327.166 416.638 327.139 418.061 325.689Z" fill="#D9D9D9"/>
<path d="M456.017 339.213C457.44 337.763 457.413 334.89 455.963 333.467C454.272 331.807 451.636 331.593 449.739 333.526C448.078 335.218 448.343 337.849 449.793 339.272C451.484 340.932 454.357 340.905 456.017 339.213Z" fill="#D9D9D9"/>
<path d="M286.154 557.76C284.494 559.452 284.517 561.846 286.208 563.506C287.658 564.929 290.052 564.906 291.475 563.456C293.136 561.764 293.118 559.848 291.421 557.71C289.967 555.808 287.815 556.068 286.154 557.76Z" fill="#D9D9D9"/>
<path d="M356.338 305.926C354.888 304.503 352.494 304.526 351.071 305.976C349.648 307.426 349.907 309.578 351.357 311.001C352.807 312.424 355.201 312.401 356.624 310.951C357.569 309.506 357.546 307.111 356.338 305.926Z" fill="#D9D9D9"/>
<path d="M227.035 279.143C225.849 280.351 225.871 282.745 227.079 283.931C228.288 285.116 230.682 285.094 231.868 283.885C233.054 282.677 233.268 280.041 232.06 278.855C231.335 278.144 228.216 277.455 227.035 279.143Z" fill="#D9D9D9"/>
<path d="M306.972 301.125C308.181 302.311 310.333 302.051 311.519 300.843C312.942 299.393 312.682 297.24 311.232 295.817C310.024 294.632 307.63 294.654 306.686 296.1C305.504 297.787 305.764 299.94 306.972 301.125Z" fill="#D9D9D9"/>
<path d="M206.278 466.1C205.093 467.308 205.115 469.702 206.323 470.888C207.773 472.311 209.447 472.055 211.112 470.842C212.297 469.634 212.279 467.718 210.83 466.296C209.38 464.873 207.464 464.891 206.278 466.1Z" fill="#D9D9D9"/>
<path d="M215.477 476.546C215.244 477.267 214.528 477.513 214.537 478.47C214.783 479.186 214.792 480.144 214.801 481.102C215.052 482.296 215.53 482.292 216.242 481.567C216.716 481.083 217.195 481.079 217.674 481.074C218.869 480.823 219.822 480.336 220.292 479.373C220.757 477.932 220.023 476.263 219.061 475.794C218.336 475.082 216.662 475.338 215.477 476.546Z" fill="#D9D9D9"/>
<path d="M26.3956 407.716C27.3443 406.749 27.3263 404.834 26.118 403.648C25.1514 402.699 22.7573 402.722 22.0503 403.926C21.1016 404.893 21.1195 406.808 22.3278 407.994C23.2945 408.943 25.2098 408.924 26.3956 407.716Z" fill="#D9D9D9"/>
<path d="M159.862 469.895C160.81 468.928 160.788 466.534 159.821 465.586C158.855 464.637 156.939 464.655 155.753 465.864C154.568 467.072 154.823 468.746 156.031 469.931C157.235 470.638 158.913 470.862 159.862 469.895Z" fill="#D9D9D9"/>
<path d="M450.717 361.054C451.684 362.003 453.362 362.226 454.548 361.018C455.734 359.809 455.72 358.373 454.512 357.187C453.545 356.238 451.63 356.257 450.681 357.223C449.496 358.432 449.751 360.105 450.717 361.054Z" fill="#D9D9D9"/>
<path d="M160.204 276.187C161.153 275.221 161.135 273.305 160.168 272.357C159.202 271.408 157.524 271.185 156.338 272.393C155.389 273.36 155.165 275.038 156.132 275.987C157.34 277.172 159.256 277.154 160.204 276.187Z" fill="#D9D9D9"/>
<path d="M378.079 351.93C378.791 351.205 379.023 350.484 379.735 349.759C379.01 349.048 378.527 348.573 378.043 348.099C377.318 347.388 376.361 347.397 375.408 347.885C374.692 348.131 373.98 348.856 373.989 349.814C373.998 350.771 374.244 351.487 375.206 351.957C376.168 352.427 377.605 352.413 378.079 351.93Z" fill="#D9D9D9"/>
<path d="M228.894 477.857C229.127 477.136 229.36 476.415 228.635 475.704C228.147 474.751 227.18 473.802 226.692 472.849C226.209 472.375 225.968 472.138 225.252 472.384C224.536 472.631 224.303 473.351 224.544 473.588C225.037 475.02 225.771 476.689 226.263 478.121C226.992 479.311 228.424 478.819 228.894 477.857Z" fill="#D9D9D9"/>
<path d="M219.039 524.64C218.797 524.403 218.555 524.166 218.077 524.171C216.873 523.464 215.436 523.477 214.729 524.681C213.781 525.648 214.273 527.08 215.24 528.029C215.723 528.503 217.401 528.726 217.638 528.485C218.35 527.76 219.061 527.034 219.294 526.314C219.764 525.352 219.759 524.873 219.039 524.64Z" fill="#D9D9D9"/>
<path d="M214.622 232.332C215.571 231.365 215.795 229.687 214.586 228.501C213.861 227.79 212.183 227.567 211.472 228.292C210.523 229.258 210.299 230.937 211.266 231.885C211.995 233.075 213.432 233.062 214.622 232.332Z" fill="#D9D9D9"/>
<path d="M227.134 468.533C227.371 468.291 227.604 467.571 227.599 467.092C227.349 465.897 226.861 464.944 226.373 463.991C226.131 463.754 225.648 463.28 225.169 463.284C224.69 463.289 224.216 463.772 223.979 464.014C223.509 464.976 223.518 465.934 223.285 466.654C223.057 467.854 223.782 468.565 224.744 469.035C225.948 469.742 226.418 468.779 227.134 468.533Z" fill="#D9D9D9"/>
<path d="M317.727 299.349C318.438 298.624 318.662 296.946 317.695 295.997C316.97 295.286 315.055 295.304 314.343 296.029C313.632 296.754 313.65 298.67 314.375 299.381C315.104 300.571 316.541 300.558 317.727 299.349Z" fill="#D9D9D9"/>
<path d="M351.922 370.853C352.633 370.128 352.857 368.45 352.132 367.738C351.407 367.027 349.971 367.041 349.259 367.766C348.548 368.491 348.561 369.927 349.528 370.876C350.011 371.35 351.21 371.578 351.922 370.853Z" fill="#D9D9D9"/>
<path d="M522.959 431L522.722 431.241C523.21 432.195 523.461 433.389 523.707 434.105C524.19 434.58 524.432 434.817 524.669 434.575C525.148 434.57 525.868 434.803 526.105 434.561C526.343 434.32 526.338 433.841 526.334 433.362C526.334 433.362 526.092 433.125 526.329 432.883C525.841 431.93 523.675 430.754 522.959 431Z" fill="#D9D9D9"/>
<path d="M207.702 515.409C207.702 515.409 207.707 515.888 208.186 515.883C209.868 516.585 211.054 515.377 212.49 515.363C212.728 515.122 212.486 514.884 212.723 514.643C212.482 514.406 212.24 514.168 211.998 513.931C210.799 513.703 209.367 514.196 207.935 514.688C207.939 515.167 207.702 515.409 207.702 515.409Z" fill="#D9D9D9"/>
<path d="M412.453 340.586C412.928 340.103 412.914 338.666 412.194 338.434C411.71 337.959 410.753 337.968 410.041 338.694C409.567 339.177 409.576 340.135 410.059 340.609C410.784 341.32 411.742 341.311 412.453 340.586Z" fill="#D9D9D9"/>
<path d="M587.225 338.923C586.254 337.496 585.283 336.069 584.554 334.878C584.554 334.878 584.312 334.641 584.075 334.883L584.079 335.362C584.809 336.552 585.538 337.742 586.03 339.174C586.277 339.89 586.764 340.843 587.727 341.313C587.955 340.114 587.471 339.639 587.225 338.923Z" fill="#D9D9D9"/>
<path d="M139.985 469.366C140.459 468.883 140.45 467.925 139.967 467.451C139.483 466.976 138.526 466.986 138.051 467.469C137.577 467.952 137.586 468.91 138.069 469.384C138.794 470.096 139.752 470.087 139.985 469.366Z" fill="#D9D9D9"/>
<path d="M238.709 375.523C238.226 375.049 237.268 375.058 236.794 375.541C236.32 376.025 236.566 376.741 237.049 377.215C237.532 377.689 238.49 377.68 238.964 377.197C239.201 376.955 239.192 375.997 238.709 375.523Z" fill="#D9D9D9"/>
<path d="M217.557 239.009C218.027 238.047 218.014 236.61 217.289 235.899C217.047 235.662 216.568 235.666 216.331 235.908C215.861 236.87 215.875 238.306 216.6 239.018C216.841 239.255 217.083 239.492 217.557 239.009C217.32 239.25 217.32 239.25 217.557 239.009Z" fill="#D9D9D9"/>
<path d="M280.977 439.768C280.977 439.768 280.972 439.289 280.73 439.052C280.489 438.815 280.252 439.056 280.252 439.056C279.061 439.786 278.35 440.511 278.363 441.948C280.278 441.929 280.753 441.446 280.977 439.768Z" fill="#D9D9D9"/>
<path d="M277.6 488.645C277.13 489.607 276.418 490.332 276.665 491.048L277.385 491.281C277.855 490.319 278.325 489.356 279.036 488.631L278.553 488.157C278.074 488.161 277.837 488.403 277.6 488.645Z" fill="#D9D9D9"/>
<path d="M455.399 349.995C455.873 349.512 455.864 348.554 455.381 348.08C454.898 347.606 454.419 347.61 453.945 348.093C453.47 348.577 453.238 349.297 453.721 349.772C454.204 350.246 454.925 350.478 455.399 349.995Z" fill="#D9D9D9"/>
<path d="M300.712 271.737C301.182 270.775 301.41 269.576 301.401 268.618C301.401 268.618 301.159 268.381 300.681 268.385C299.974 269.589 299.504 270.552 299.754 271.746C299.754 271.746 299.996 271.984 300.238 272.221C300.233 271.742 300.712 271.737 300.712 271.737Z" fill="#D9D9D9"/>
<path d="M439.296 190.445C439.793 192.356 440.286 193.787 441.731 194.731C441.718 193.295 440.988 192.105 439.296 190.445Z" fill="#D9D9D9"/>
<path d="M513.118 427.978C513.852 429.647 515.06 430.833 516.027 431.781C514.317 428.206 514.317 428.206 513.118 427.978Z" fill="#D9D9D9"/>
<path d="M415.044 259.154C415.044 259.154 415.518 258.671 415.276 258.434C415.03 257.718 414.547 257.244 414.301 256.528C413.822 256.532 413.822 256.532 413.343 256.537C413.343 256.537 413.106 256.778 413.11 257.257C413.356 257.973 413.603 258.689 414.086 259.163C414.323 258.922 414.806 259.396 415.044 259.154Z" fill="#D9D9D9"/>
<path d="M530.074 346.89C530.293 344.733 529.322 343.306 528.351 341.878C528.606 343.552 528.861 345.226 530.074 346.89Z" fill="#D9D9D9"/>
<path d="M311.034 581.229C310.788 580.513 310.546 580.275 310.063 579.801C309.821 579.564 309.821 579.564 309.58 579.327L308.864 579.573C309.11 580.289 309.356 581.005 309.602 581.721C309.848 582.437 310.569 582.67 311.285 582.423C311.28 581.944 311.276 581.466 311.034 581.229Z" fill="#D9D9D9"/>
<path d="M239.166 423.884C239.636 422.922 239.148 421.969 238.66 421.016C238.418 420.779 238.418 420.779 238.181 421.02C237.944 421.262 237.707 421.504 237.707 421.504C237.716 422.461 237.962 423.177 237.971 424.135L238.454 424.609C238.691 424.368 238.929 424.126 239.166 423.884Z" fill="#D9D9D9"/>
<path d="M283.463 143.326C283.212 142.131 282.491 141.899 281.292 141.671C281.543 142.865 282.031 143.818 282.988 143.809C283.467 143.805 283.704 143.563 283.463 143.326Z" fill="#D9D9D9"/>
<path d="M569.652 328.794L569.41 328.557L569.173 328.799C569.182 329.756 569.191 330.714 569.437 331.43L569.916 331.425C569.907 330.468 570.139 329.747 569.652 328.794Z" fill="#D9D9D9"/>
<path d="M302.165 580.116C301.436 578.926 300.473 578.456 298.795 578.233C299.766 579.66 300.729 580.13 302.165 580.116Z" fill="#D9D9D9"/>
<path d="M380.062 179.755C380.532 178.793 379.57 178.323 379.324 177.608C379.324 177.608 379.082 177.37 378.845 177.612C378.858 179.049 379.104 179.764 380.062 179.755Z" fill="#D9D9D9"/>
</g>
<defs>
<clipPath id="clip0">
<rect width="471.369" height="360.645" fill="white" transform="translate(605.559 353.593) rotate(134.459)"/>
</clipPath>
</defs>
</svg>
