<svg width="950" height="850" viewBox="0 0 950 850" fill="none" xmlns="http://www.w3.org/2000/svg">
<g clip-path="url(#clip0)">
<path d="M509.582 372.138C509.151 372.347 509.04 372.666 508.929 372.986C508.706 373.626 509.443 374.599 510.083 374.821C510.403 374.933 510.403 374.933 510.723 375.044C512.961 375.823 513.476 377.435 512.058 379.451C511.947 379.771 511.515 379.98 511.404 380.299C511.168 382.01 510.097 381.996 508.707 381.871L508.596 382.19C510.612 383.609 510.501 383.928 508.554 385.402L508.123 385.611C507.581 386.139 507.358 386.778 507.887 387.321C508.513 388.614 508.93 389.476 508.374 391.075C508.262 391.395 508.471 391.826 508.36 392.145C508.888 392.688 508.666 393.327 508.443 393.967C508.11 394.926 508.638 395.468 509.709 395.482L510.14 395.274C511.211 395.288 512.059 395.941 512.685 397.234C512.782 397.985 512.671 398.305 511.378 398.93L510.947 399.139C510.085 399.556 509.654 399.765 509.32 400.724C508.986 401.683 507.61 400.487 507.276 401.447C505.969 403.143 504.258 402.907 502.659 402.35C502.02 402.128 501.589 402.336 500.727 402.754C498.78 404.227 497.473 405.924 495.318 406.966C494.456 407.383 494.233 408.023 494.33 408.774C494.428 409.524 494.205 410.164 493.455 410.261C492.481 410.998 492.69 411.429 493.107 412.291C493.524 413.153 493.302 413.793 492.551 413.89C492.551 413.89 492.44 414.21 492.329 414.53C492.857 415.072 493.497 415.294 493.594 416.045C493.691 416.796 493.789 417.547 493.135 418.395C493.024 418.715 492.802 419.354 492.371 419.563C492.69 419.674 493.01 419.785 493.33 419.897C494.081 419.799 494.609 420.342 494.707 421.092C494.693 422.163 494.79 422.914 496.07 423.359C496.389 423.47 496.278 423.79 496.598 423.901C496.904 425.083 498.837 424.68 499.032 426.181L499.351 426.292C500.214 425.875 501.062 426.529 501.59 427.071C502.23 427.294 502.981 427.196 503.621 427.419C504.26 427.641 504.9 427.864 505.762 427.447C506.193 427.238 507.055 426.821 507.375 426.932C508.654 427.377 509.516 426.96 510.907 427.085C511.978 427.099 512.409 426.891 512.853 425.612C513.41 424.013 513.841 423.804 515.76 424.472C516.719 424.805 517.15 424.597 517.275 423.206C517.178 422.456 517.289 422.136 517.511 421.496C517.956 420.217 519.138 419.911 520.195 420.996C520.404 421.427 520.612 421.858 520.821 422.289C521.141 422.4 521.349 422.831 521.461 422.511C521.781 422.622 522.003 421.983 522.114 421.663C522.337 421.024 522.017 420.912 521.488 420.37C520.64 419.717 520.223 418.855 520.668 417.575C520.89 416.936 520.682 416.505 519.611 416.491C518.86 416.588 518.651 416.157 518.554 415.406C518.776 414.767 518.888 414.447 519.527 414.67C519.847 414.781 520.598 414.683 520.918 414.795L521.349 414.586C521.46 414.266 521.14 414.155 521.252 413.835C520.932 413.724 520.612 413.613 520.292 413.502C519.652 413.279 519.444 412.848 519.666 412.209C519.889 411.569 520.431 411.041 520.862 410.832C521.293 410.624 521.724 410.415 522.475 410.318C521.529 408.913 520.556 409.65 519.596 409.317C519.179 408.455 518.762 407.593 518.665 406.842C519.318 405.994 519.972 405.146 521.042 405.159C522.113 405.173 522.544 404.965 523.198 404.117C523.74 403.588 524.491 403.491 524.908 404.353C525.325 405.215 525.423 405.966 524.88 406.494C524.338 407.023 524.116 407.662 524.213 408.413C524.088 409.803 523.963 411.194 523.838 412.584C523.935 413.335 524.352 414.197 524.881 414.739C525.409 415.281 526.48 415.295 527.022 414.767C527.565 414.239 527.356 413.808 527.147 413.377C526.939 412.946 526.73 412.515 526.633 411.764C526.327 410.582 526.98 409.734 527.522 409.206C528.385 408.789 528.913 409.331 529.441 409.873C529.761 409.984 529.761 409.984 530.081 410.095C530.401 410.207 530.832 409.998 530.832 409.998C531.485 409.15 532.57 408.093 532.904 407.134C533.349 405.855 534.113 404.687 535.087 403.95C535.615 404.492 536.144 405.035 536.352 405.466C536.672 405.577 537.423 405.48 537.214 405.049C537.325 404.729 537.117 404.298 537.117 404.298C536.825 402.045 537.812 400.238 539.119 398.542C539.439 398.653 539.758 398.764 539.647 399.084C539.967 399.195 540.287 399.307 540.496 399.738C541.344 400.391 542.414 400.405 542.957 399.877C543.499 399.348 543.833 398.389 543.096 397.416C542.567 396.873 542.79 396.234 543.541 396.137C544.403 395.72 545.042 395.942 545.028 397.013C545.237 397.444 545.446 397.875 545.765 397.986C546.085 398.097 546.725 398.32 547.253 398.862C547.142 399.182 546.92 399.821 546.489 400.03C546.266 400.669 546.155 400.989 546.906 400.892C548.408 400.697 549.145 401.67 549.131 402.741C549.437 403.923 550.077 404.145 550.605 404.688C552.093 405.563 553.15 406.648 554.971 406.565L555.291 406.676C556.139 407.329 557.099 407.663 558.072 406.926L558.503 406.718C559.463 407.051 560.742 407.496 561.715 406.759C561.715 406.759 562.035 406.871 562.355 406.982C562.995 407.204 563.746 407.107 564.288 406.579C564.719 406.37 565.15 406.162 565.581 405.953C566.443 405.536 566.874 405.328 567.611 406.301C568.668 407.385 570.059 407.51 571.352 406.885C572.645 406.259 572.979 405.3 572.784 403.798C572.784 403.798 572.784 403.798 572.895 403.479C572.909 402.408 573.451 401.88 574.313 401.463C574.744 401.254 575.704 401.588 575.593 401.907C575.481 402.227 575.69 402.658 575.579 402.978C575.356 403.618 575.565 404.049 576.093 404.591C577.15 405.675 578.221 405.689 579.514 405.064C579.945 404.855 580.807 404.438 581.238 404.23C582.629 404.355 584.019 404.48 585.619 405.036C586.898 405.481 587.107 405.912 586.231 407.4C586.119 407.719 586.119 407.719 586.008 408.039C585.675 408.999 586.203 409.541 587.162 409.875C588.233 409.889 588.775 409.36 588.9 407.97C588.803 407.219 588.497 406.037 588.928 405.829C589.47 405.3 590.43 405.634 591.181 405.537C591.181 405.537 591.181 405.537 591.501 405.648C592.363 405.231 593.322 405.565 593.739 406.427C594.157 407.289 594.574 408.151 595.422 408.804C595.631 409.235 595.839 409.666 596.479 409.889C596.799 410 597.438 410.222 597.55 409.903C598.412 409.486 598.426 408.415 597.577 407.761C597.258 407.65 597.049 407.219 596.409 406.997C595.45 406.663 595.033 405.801 594.935 405.05C594.838 404.299 595.06 403.66 595.922 403.243C596.784 402.826 597.535 402.728 598.606 402.742C599.037 402.534 599.788 402.436 599.899 402.117C600.553 401.269 601.192 401.491 601.721 402.033C602.36 402.256 602.889 402.798 603.097 403.229C603.626 403.771 604.474 404.425 605.656 404.119C605.448 403.688 605.559 403.368 605.239 403.257C604.71 402.715 603.751 402.381 603.223 401.839C602.583 401.616 602.054 401.074 601.415 400.851C600.775 400.629 600.678 399.878 601.22 399.35C601.985 398.182 602.861 396.694 603.625 395.526C604.793 396.291 605.753 396.625 606.601 397.278C606.824 396.639 606.615 396.208 605.975 395.985C603.639 394.456 604.418 392.217 604.126 389.965C604.237 389.645 604.348 389.325 604.779 389.117C605.21 388.908 606.072 388.491 605.544 387.949C605.127 387.087 604.696 387.296 603.945 387.393C603.945 387.393 603.625 387.282 603.514 387.601C602.763 387.699 602.554 387.268 602.026 386.725C601.817 386.294 601.608 385.863 601.4 385.432C601.094 384.251 601.205 383.931 602.387 383.625C604 383.11 604.542 382.582 604.347 381.081C604.25 380.33 604.153 379.579 604.375 378.939C604.598 378.3 604.82 377.66 605.571 377.563C606.864 376.937 606.989 375.547 606.363 374.254C605.835 373.712 605.737 372.961 605.098 372.738C604.25 372.085 604.041 371.654 603.944 370.903C604.055 370.583 603.957 369.832 603.749 369.401C602.469 368.957 601.287 369.262 600.55 368.289C599.702 367.636 598.631 367.622 597.992 367.399C596.824 366.634 596.281 367.163 595.308 367.9C595.197 368.219 594.557 367.997 594.237 367.886C592.305 368.289 590.261 369.012 589.802 371.362C589.579 372.001 589.037 372.529 588.926 372.849C588.703 373.489 588.912 373.92 589.009 374.671L588.898 374.99C588.356 375.519 588.565 375.95 589.093 376.492C590.261 377.257 589.385 378.744 590.122 379.718C590.122 379.718 590.011 380.037 589.9 380.357C589.469 380.566 589.357 380.886 588.926 381.094C588.064 381.511 587.745 381.4 587.327 380.538C586.493 378.814 586.284 378.383 584.351 378.786C583.601 378.883 583.17 379.092 582.53 378.869C582.21 378.758 581.459 378.855 581.139 378.744C579.206 379.147 578.122 380.204 577.566 381.803C577.01 383.402 576.454 385.001 575.898 386.6C575.675 387.239 575.244 387.448 574.716 386.905C573.867 386.252 573.561 385.07 573.255 383.888C572.713 384.417 572.282 384.625 571.851 384.834C571.42 385.042 571.1 384.931 570.891 384.5C570.363 383.958 569.835 383.415 569.737 382.665C569.529 382.234 570.071 381.705 570.293 381.066C570.405 380.746 570.516 380.426 570.627 380.106C566.455 379.731 564.829 381.316 564.578 384.097C564.578 384.097 564.467 384.416 564.147 384.305C562.228 383.638 562.228 383.638 560.727 383.832C560.407 383.721 559.976 383.93 559.767 383.499C558.488 383.054 558.488 383.054 557.834 383.902C556.416 385.918 553.844 386.098 551.827 384.68C550.659 383.915 550.673 382.845 550.687 381.774C549.296 381.649 548.323 382.386 547.67 383.234C547.016 384.082 546.265 384.18 545.306 383.846C544.666 383.623 543.818 382.97 543.289 382.428C542.761 381.885 542.552 381.454 543.317 380.286C543.428 379.967 543.539 379.647 543.331 379.216C543.011 379.105 542.802 378.674 542.802 378.674C543.247 377.394 542.733 375.782 544.457 374.947C544.888 374.739 544.888 374.739 545.319 374.53C545.208 374.85 545.208 374.85 545.416 375.281C545.291 376.672 545.708 377.534 546.459 377.436C547.21 377.339 548.184 376.602 548.197 375.531L548.309 375.212C548.322 374.141 547.154 373.376 546.084 373.362C544.902 373.668 543.4 373.863 542.218 374.169C541.147 374.155 540.396 374.252 539.437 373.918C538.269 373.154 537.949 373.042 538.394 371.763C538.728 370.804 539.172 369.525 538.435 368.552C538.435 368.552 538.658 367.912 539.089 367.704C539.52 367.495 539.84 367.606 540.271 367.398C540.702 367.189 541.036 366.23 540.507 365.688C539.659 365.034 538.699 364.7 537.629 364.686C536.878 364.784 536.113 365.952 536.641 366.494C537.587 367.898 537.253 368.857 536.809 370.137C536.572 371.847 536.141 372.055 534.111 371.708C532.512 371.151 530.802 370.915 529.202 370.359C528.563 370.136 527.603 369.803 526.852 369.9C526.755 369.149 526.769 368.079 526.671 367.328C526.254 366.466 526.157 365.715 525.851 364.533C525.865 363.463 525.016 362.809 524.266 362.906C523.515 363.004 523.181 363.963 523.487 365.145C523.487 365.145 523.487 365.145 523.376 365.465C523.793 366.327 523.571 366.966 523.028 367.495C522.597 367.703 522.375 368.343 522.472 369.093C522.778 370.275 522.236 370.804 521.374 371.221C520.512 371.638 519.65 372.055 518.787 372.472C517.494 373.098 517.494 373.098 516.215 372.653C516.104 372.972 516.201 373.723 516.09 374.043C515.979 374.363 515.228 374.46 514.908 374.349C513.949 374.015 513.42 373.473 512.461 373.139C511.932 372.597 511.404 372.055 510.875 371.512C510.222 372.36 509.902 372.249 509.582 372.138ZM547.197 386.654C548.156 386.988 549.338 386.682 549.213 388.073C549.408 389.574 549.074 390.534 547.781 391.159C546.919 391.576 546.488 391.785 547.114 393.078C547.323 393.509 546.892 393.717 546.572 393.606C546.252 393.495 545.723 392.953 545.292 393.161C544.973 393.05 544.542 393.259 543.791 393.356C544.138 391.326 544.694 389.727 544.931 388.017C545.375 386.738 545.806 386.529 547.197 386.654ZM516.175 400.599C517.552 401.795 519.36 402.782 521.056 404.089C520.514 404.617 519.972 405.146 519.541 405.354C518.567 406.091 518.136 406.299 516.968 405.535C516.12 404.881 515.591 404.339 514.743 403.686C515.188 402.406 515.841 401.558 516.175 400.599Z" fill="#D9D9D9"/>
<path d="M669.938 575.957C670.258 576.068 670.689 575.86 671.009 575.971C670.8 575.54 670.481 575.429 670.481 575.429C669.841 575.206 668.77 575.192 668.673 574.442C668.575 573.691 669.229 572.843 669.771 572.314C670.202 572.106 670.633 571.897 671.176 571.369C671.607 571.16 671.926 571.272 672.038 570.952C671.732 569.77 670.327 570.715 669.59 569.742C669.924 568.783 670.883 569.117 671.314 568.908C671.314 568.908 671.746 568.7 671.857 568.38C671.857 568.38 671.648 567.949 671.328 567.837C671.008 567.726 670.689 567.615 670.049 567.393C669.729 567.281 669.521 566.85 669.521 566.85C669.632 566.53 669.743 566.211 670.174 566.002C670.716 565.474 671.467 565.377 672.009 564.848L672.232 564.209C671.912 564.097 671.703 563.666 671.592 563.986C670.841 564.083 670.41 564.292 669.659 564.389C669.34 564.278 668.7 564.056 668.172 563.513C668.172 563.513 668.394 562.874 668.505 562.554C668.616 562.234 669.159 561.706 669.27 561.386C668.95 561.275 668.63 561.164 668.199 561.372C667.448 561.469 666.906 561.998 666.489 561.136C666.28 560.705 666.294 559.634 666.197 558.883C666.308 558.564 666.739 558.355 666.85 558.035C666.961 557.715 667.392 557.507 667.615 556.867C666.864 556.965 666.433 557.173 666.002 557.382C665.029 558.119 664.278 558.216 663.638 557.993C663.11 557.451 663.012 556.7 663.777 555.533C663.999 554.893 664.542 554.365 664.764 553.725L664.555 553.294C664.555 553.294 664.236 553.183 664.124 553.503C663.582 554.031 663.36 554.67 662.817 555.199C662.706 555.519 662.067 555.296 662.067 555.296C661.747 555.185 661.858 554.865 661.969 554.545C662.303 553.586 662.845 553.058 663.179 552.098C663.29 551.779 663.081 551.348 662.873 550.916C662.108 552.084 661.774 553.044 661.232 553.572C661.01 554.212 660.467 554.74 659.939 554.198C659.619 554.086 659.522 553.336 659.313 552.905C659.313 552.905 658.993 552.793 659.104 552.474C658.673 552.682 658.451 553.322 658.02 553.53C657.589 553.739 657.158 553.947 656.838 553.836C656.518 553.725 656.421 552.974 656.212 552.543L656.323 552.223C656.115 551.792 656.768 550.944 656.129 550.722C655.489 550.499 655.475 551.57 655.253 552.209C655.141 552.529 655.141 552.529 655.03 552.849C654.919 553.169 654.697 553.808 654.377 553.697C653.946 553.906 653.097 553.252 652.889 552.821C652.791 552.07 652.903 551.75 653.125 551.111C653.236 550.791 653.028 550.36 652.708 550.249C652.166 550.777 652.374 551.208 652.263 551.528C652.041 552.168 652.138 552.918 651.596 553.447C651.484 553.766 651.053 553.975 650.734 553.864C650.414 553.752 650.205 553.321 649.885 553.21C649.037 552.557 648.926 552.877 648.592 553.836C648.481 554.156 648.37 554.475 648.258 554.795C646.771 553.919 647.327 552.32 646.381 550.916C646.159 551.556 646.047 551.875 645.936 552.195C646.034 552.946 646.02 554.017 646.117 554.767C646.103 555.838 645.45 556.686 645.227 557.326C645.005 557.965 644.157 557.312 643.726 557.52C643.406 557.409 643.294 557.729 643.183 558.049C643.072 558.368 642.961 558.688 642.85 559.008C642.294 560.607 642.294 560.607 640.583 560.37C640.263 560.259 640.263 560.259 639.832 560.468C640.041 560.899 640.569 561.441 640.778 561.872C641.515 562.845 640.848 564.764 639.874 565.501C639.443 565.709 639.123 565.598 638.804 565.487C638.484 565.376 638.164 565.264 637.844 565.153C637.733 565.473 637.733 565.473 637.733 565.473C638.373 565.695 638.581 566.126 639.221 566.349C640.069 567.002 640.486 567.864 640.153 568.824C639.819 569.783 639.068 569.88 638.428 569.658C638.109 569.547 637.997 569.866 637.678 569.755C638.206 570.298 639.165 570.631 639.805 570.854C640.125 570.965 640.334 571.396 640.222 571.716C640.431 572.147 640 572.355 639.569 572.564C639.138 572.772 638.818 572.661 638.276 573.189C638.915 573.412 639.235 573.523 639.235 573.523C640.626 573.648 641.265 573.871 641.14 575.261C641.238 576.012 640.904 576.971 641.001 577.722C641.752 577.625 642.823 577.639 643.032 578.07C643.56 578.612 643.338 579.252 643.435 580.002C645.896 580.142 645.896 580.142 646.3 582.074C647.913 581.56 647.913 581.56 648.956 583.715C651.222 582.352 651.222 582.352 652.057 584.076L652.488 583.868L652.599 583.548C654.323 582.714 654.754 582.505 655.491 583.479C655.7 583.91 655.908 584.341 656.437 584.883C656.993 583.284 656.993 583.284 658.703 583.52C659.343 583.743 659.454 583.423 659.885 583.215C660.219 582.255 660.539 582.366 661.387 583.02C661.707 583.131 662.027 583.242 662.347 583.354C662.458 583.034 662.569 582.714 662.249 582.603C661.943 581.421 662.054 581.101 663.125 581.115C664.196 581.129 665.266 581.143 666.337 581.157C666.129 580.726 666.24 580.406 666.031 579.975C665.725 578.793 665.836 578.474 666.907 578.488C667.658 578.39 667.978 578.501 668.729 578.404C669.48 578.307 669.591 577.987 669.493 577.236C669.187 576.054 669.187 576.054 669.938 575.957Z" fill="#D9D9D9"/>
<path d="M492.92 319.026C493.657 319.999 493.644 321.069 493.31 322.029C493.088 322.668 493.185 323.419 493.825 323.642C494.784 323.975 495.632 324.629 495.507 326.019C495.396 326.339 495.716 326.45 495.605 326.77C496.022 327.632 496.23 328.063 497.301 328.077C497.621 328.188 498.052 327.98 498.372 328.091C499.123 327.994 499.443 328.105 499.86 328.967C500.486 330.26 501.125 330.482 502.627 330.288C503.378 330.19 504.018 330.413 504.768 330.316C505.519 330.218 506.159 330.441 506.59 330.232C507.786 328.856 509.496 329.092 510.581 328.036C511.012 327.827 511.123 327.507 511.234 327.187C512.11 325.7 512.986 324.212 513.542 322.613C513.876 321.654 514.098 321.014 513.681 320.152C512.944 319.179 512.638 317.997 513.403 316.829C513.736 315.87 513.639 315.119 512.791 314.466C511.845 313.061 510.357 312.185 509.412 310.781C509.092 310.67 508.883 310.239 508.563 310.128C507.381 310.433 506.533 309.78 505.365 309.015C504.614 309.113 503.863 309.21 503.432 309.418C502.57 309.836 501.708 310.253 500.748 309.919C499.789 309.585 499.358 309.794 499.024 310.753C498.691 311.712 498.148 312.241 497.078 312.227C496.327 312.324 496.216 312.644 495.673 313.172C494.366 314.868 494.019 316.898 493.032 318.706C492.503 318.164 492.712 318.595 492.92 319.026Z" fill="#D9D9D9"/>
<path d="M659.505 297.743C658.949 299.342 658.949 299.342 659.894 300.746C660.423 301.288 660.84 302.15 660.826 303.221C660.715 303.54 661.243 304.083 661.452 304.514C662.718 306.029 664.414 307.336 666.124 307.573C667.835 307.809 669.42 309.436 671.269 307.211C672.869 307.767 673.953 306.711 674.718 305.543L675.149 305.334C676.539 305.46 676.984 304.18 677.318 303.221C677.652 302.262 678.305 301.414 678.639 300.454C678.75 300.135 678.972 299.495 679.084 299.175C678.778 297.993 678.472 296.812 679.236 295.644C679.236 295.644 679.348 295.324 679.028 295.213C678.291 294.239 677.873 293.377 677.136 292.404C676.608 291.862 676.399 291.431 676.302 290.68C676.316 289.609 676.316 289.609 674.925 289.484C673.215 289.248 671.824 289.123 670.879 287.718C670.559 287.607 670.239 287.496 669.919 287.385C667.986 287.788 666.582 288.733 664.441 288.705C664.121 288.594 663.579 289.122 663.467 289.442C663.022 290.721 662.48 291.25 661.187 291.875C660.325 292.292 659.671 293.141 659.018 293.989C658.907 294.308 658.684 294.948 659.004 295.059C660.061 296.144 659.407 296.992 659.505 297.743Z" fill="#D9D9D9"/>
<path d="M642.367 430.507C641.393 431.244 640.531 431.661 639.572 431.328C639.252 431.216 638.821 431.425 638.39 431.634C637.736 432.482 637.083 433.33 635.901 433.636C635.581 433.524 635.47 433.844 635.359 434.164C634.594 435.332 633.94 436.18 633.496 437.459C632.939 439.058 632.064 440.546 633.329 442.061L633.538 442.492C632.982 444.091 633.288 445.273 634.887 445.829C635.207 445.94 635.095 446.26 635.304 446.691C635.193 447.011 635.401 447.442 635.29 447.762C635.61 447.873 635.61 447.873 635.93 447.984C637 447.998 637.64 448.221 637.946 449.402C638.252 450.584 640.171 451.252 641.673 451.057C642.535 450.64 643.606 450.654 644.565 450.988C644.885 451.099 645.636 451.001 645.636 451.001C646.401 449.834 647.36 450.167 648.431 450.181C648.542 449.861 648.653 449.542 648.653 449.542C648.778 448.151 648.778 448.151 650.28 447.957C651.031 447.859 651.573 447.331 651.476 446.58C651.378 445.829 651.601 445.19 652.463 444.773C652.894 444.564 653.116 443.925 652.908 443.494C652.491 442.632 652.713 441.992 653.367 441.144C654.02 440.296 653.839 437.724 652.88 437.39C651.711 436.625 651.614 435.874 651.739 434.484C650.237 434.679 649.069 433.914 648.875 432.412C648.777 431.662 648.137 431.439 647.387 431.536C644.814 431.717 643.201 432.232 642.367 430.507Z" fill="#D9D9D9"/>
<path d="M645.33 458.066C644.259 458.052 643.188 458.039 642.771 457.177C642.576 455.675 640.866 455.439 640.129 454.465C639.809 454.354 639.489 454.243 639.169 454.132C638.307 454.549 637.668 454.326 636.708 453.992C636.388 453.881 635.749 453.659 635.749 453.659C634.247 453.853 632.648 453.297 631.66 455.105C631.549 455.424 630.91 455.202 630.479 455.41C630.048 455.619 629.728 455.508 629.616 455.827C629.394 456.467 629.172 457.107 628.421 457.204C627.35 457.19 627.656 458.372 627.114 458.9C625.598 460.165 625.042 461.764 625.876 463.488L625.974 464.239C624.889 465.296 625.738 465.949 626.266 466.492C626.475 466.923 626.572 467.673 626.669 468.424C626.767 469.175 626.975 469.606 627.726 469.509C628.046 469.62 628.366 469.731 628.366 469.731C628.894 470.273 628.992 471.024 629.52 471.566C630.049 472.109 630.911 471.692 631.439 472.234C632.287 472.887 633.247 473.221 634.318 473.235C634.749 473.026 635.388 473.249 635.708 473.36C637.85 473.388 640.102 473.096 641.52 471.08C641.632 470.76 642.174 470.232 642.605 470.023C644.218 469.509 644.983 468.341 644.788 466.84C644.899 466.52 644.802 465.769 644.802 465.769C645.886 464.712 645.372 463.1 646.025 462.251C645.705 462.14 645.817 461.82 645.817 461.82C643.689 460.722 643.689 460.722 645.33 458.066Z" fill="#D9D9D9"/>
<path d="M648.959 376.522C647.777 376.828 646.386 376.703 645.941 377.982C645.83 378.302 645.399 378.51 645.079 378.399C642.173 379.539 641.395 381.777 640.936 384.127C640.922 385.198 641.228 386.38 640.463 387.547C640.352 387.867 640.561 388.298 640.881 388.409C641.729 389.063 642.466 390.036 642.772 391.218C642.981 391.649 643.189 392.08 643.509 392.191C644.886 393.387 646.374 394.263 647.973 394.819C648.612 395.042 649.252 395.264 650.003 395.167C651.074 395.181 651.825 395.083 652.895 395.097C653.535 395.32 654.397 394.903 654.939 394.374C655.593 393.526 656.246 392.678 656.997 392.581C658.29 391.955 659.264 391.218 659.5 389.508C659.722 388.869 659.945 388.229 660.167 387.59C660.39 386.95 660.723 385.991 660.626 385.24C660.737 384.92 660.32 384.058 660.111 383.627C659.694 382.765 659.277 381.903 659.18 381.152C658.776 379.22 657.511 377.704 655.912 377.148C653.45 377.009 651.531 376.341 648.959 376.522Z" fill="#D9D9D9"/>
<path d="M741.797 559.01C741.7 558.259 741.283 557.397 741.185 556.646C741.311 555.256 741.324 554.186 739.836 553.31C739.517 553.198 739.739 552.559 739.53 552.128C739.642 551.808 739.433 551.377 739.433 551.377C738.474 551.043 738.376 550.292 737.959 549.43C737.75 548.999 736.902 548.346 736.262 548.123C735.943 548.012 734.872 547.998 734.761 548.318C733.996 549.486 732.397 548.93 731.312 549.986C729.824 549.11 729.157 551.029 728.086 551.015C727.766 550.904 727.544 551.543 727.544 551.543C727.21 552.503 726.668 553.031 725.917 553.128C725.486 553.337 725.375 553.657 725.152 554.296C724.93 554.936 725.139 555.367 724.596 555.895C724.374 556.535 724.263 556.855 724.36 557.605C724.569 558.036 724.457 558.356 724.346 558.676C723.901 559.955 724.527 561.248 725.264 562.221C725.473 562.652 725.89 563.514 726.099 563.945C726.196 564.696 726.516 564.807 727.156 565.03C728.226 565.044 729.506 565.489 729.7 566.99L730.34 567.213C731.202 566.796 731.842 567.018 732.481 567.241C733.441 567.575 735.694 567.283 735.916 566.643C736.472 565.044 737.654 564.738 739.364 564.975C739.489 563.584 739.503 562.514 740.477 561.777C740.477 561.777 740.699 561.137 740.81 560.818C741.353 560.289 741.895 559.761 741.797 559.01Z" fill="#D9D9D9"/>
<path d="M781.247 323.954C781.775 324.497 782.081 325.678 782.721 325.901C783.68 326.235 784.529 326.888 785.168 327.111C786.767 327.667 788.478 327.903 790.091 327.389C792.886 326.569 794.944 324.775 795.945 321.897C796.07 320.507 796.195 319.116 796 317.615C795.791 317.184 795.694 316.433 795.374 316.322C794.846 315.779 794.317 315.237 794.54 314.598C794.442 313.847 794.234 313.416 793.483 313.513C792.412 313.499 791.453 313.165 791.147 311.984C791.258 311.664 790.618 311.441 790.187 311.65C788.046 311.622 785.807 310.843 783.958 313.068C782.456 313.263 782.122 314.222 781.357 315.39C780.815 315.918 780.162 316.766 779.939 317.406C779.912 319.547 779.453 321.897 781.247 323.954Z" fill="#D9D9D9"/>
<path d="M663.758 490.643C663.744 491.714 663.73 492.784 664.578 493.438C664.898 493.549 664.787 493.869 664.995 494.3C666.358 496.566 668.055 497.873 670.627 497.693C671.058 497.484 671.698 497.707 672.018 497.818C672.338 497.929 672.658 498.04 673.089 497.832C673.742 496.984 675.452 497.22 675.995 496.692C676.968 495.955 678.053 494.898 679.137 493.842C679.248 493.522 679.36 493.202 679.151 492.771C679.373 492.131 679.276 491.381 679.276 491.381C679.943 489.462 679.943 489.462 679.429 487.849C679.22 487.418 679.012 486.987 679.234 486.348C679.456 485.708 679.248 485.277 678.608 485.054C678.288 484.943 677.649 484.721 677.76 484.401C677.343 483.539 676.703 483.316 676.063 483.094C675.744 482.983 675.215 482.44 674.895 482.329C674.256 482.107 674.047 481.676 673.296 481.773C670.835 481.634 668.582 481.926 666.844 483.831C666.733 484.15 666.302 484.359 665.982 484.248C665.12 484.665 664.898 485.304 664.564 486.264C664.453 486.583 664.23 487.223 664.119 487.543C663.674 488.822 664.091 489.684 663.758 490.643Z" fill="#D9D9D9"/>
<path d="M656.373 233.566C656.693 233.677 657.013 233.788 657.222 234.219C657.75 234.762 658.821 234.776 659.572 234.678C661.824 234.386 664.508 233.886 666.037 231.55C666.58 231.022 667.122 230.493 667.456 229.534C667.678 228.895 667.789 228.575 668.012 227.935C668.026 226.865 667.928 226.114 668.262 225.154C668.373 224.835 668.596 224.195 668.276 224.084C667.219 222.999 666.913 221.818 666.607 220.636C666.398 220.205 666.19 219.774 665.55 219.551C664.591 219.217 664.062 218.675 663.103 218.342L662.783 218.23C659.904 217.229 657.527 218.911 655.052 219.843C654.62 220.051 654.509 220.371 654.398 220.691C654.064 221.65 653.522 222.179 653.188 223.138C652.855 224.097 652.632 224.737 652.618 225.807C652.146 229.228 653.286 232.134 656.373 233.566Z" fill="#D9D9D9"/>
<path d="M786.653 485.71C787.501 486.363 787.71 486.794 787.807 487.545C788.113 488.727 788.1 489.798 788.517 490.66C789.337 493.454 791.882 495.415 794.886 495.026C795.956 495.039 796.819 494.622 797.681 494.205C799.836 493.163 801.143 491.466 801.282 489.005C801.421 486.544 801.017 484.612 799.001 483.194C797.624 481.998 796.345 481.553 794.843 481.748C794.523 481.636 794.203 481.525 793.772 481.734C793.897 480.343 793.16 479.37 792.312 478.716C790.407 476.978 788.697 476.742 786.639 478.536C783.621 479.995 783.997 484.069 786.653 485.71Z" fill="#D9D9D9"/>
<path d="M683.265 439.716C681.749 440.981 680.442 442.677 680.734 444.93C680.623 445.249 680.832 445.68 680.72 446C680.275 447.279 680.581 448.461 681.75 449.226C682.069 449.337 682.167 450.088 682.375 450.519C682.584 450.95 682.473 451.27 682.793 451.381C683.752 451.715 684.712 452.048 685.129 452.91C685.449 453.022 685.768 453.133 686.088 453.244C687.159 453.258 687.91 453.161 688.869 453.494C689.509 453.717 690.26 453.62 690.802 453.091C691.233 452.883 691.775 452.354 692.207 452.146C693.291 451.089 694.695 450.144 695.363 448.225C696.364 445.347 695.863 442.664 693.749 440.495C692.901 439.841 691.51 439.716 690.885 438.423L690.565 438.312C687.686 437.311 685.322 437.922 683.265 439.716Z" fill="#D9D9D9"/>
<path d="M444.913 222.034C445.97 223.119 446.485 224.731 447.986 224.537C452.992 226.636 456.886 223.689 457.887 220.811C459.777 215.375 457.246 212.344 453.2 210.578C450.752 209.368 444.94 211.648 444.05 214.206C443.605 215.485 443.48 216.876 443.036 218.155C444.092 219.239 443.536 220.838 444.913 222.034Z" fill="#D9D9D9"/>
<path d="M628.32 374.002C626.609 373.766 625.01 373.21 623.494 374.475L623.063 374.684C621.131 375.087 620.463 377.005 619.379 378.062L619.268 378.382C619.254 379.452 619.031 380.092 619.017 381.163C618.781 382.873 619.296 384.486 620.353 385.57C621.41 386.655 622.355 388.059 624.177 387.975C624.928 387.878 625.456 388.42 626.416 388.754C627.278 388.337 628.251 387.6 629.322 387.614C629.642 387.725 630.184 387.197 630.295 386.877C632.019 386.043 632.047 383.902 633.243 382.525L633.354 382.206C632.839 380.593 633.395 378.994 632.561 377.27C631.407 375.435 630.03 374.239 628.32 374.002Z" fill="#D9D9D9"/>
<path d="M497.609 353.992C496.009 353.436 494.953 352.351 493.34 352.866C492.909 353.074 492.589 352.963 492.269 352.852C491.309 352.518 490.336 353.255 489.794 353.783C489.251 354.311 489.029 354.951 488.487 355.479C486.526 358.024 487.027 360.707 487.097 363.599C486.986 363.919 487.625 364.141 487.834 364.572C488.362 365.115 488.682 365.226 489.211 365.768C489.53 365.879 489.628 366.63 490.059 366.422C491.769 366.658 493.48 366.894 495.301 366.811C497.874 366.63 499.292 364.614 500.279 362.807C500.946 360.888 501.183 359.178 500.668 357.565C500.153 355.952 499.528 354.659 497.609 353.992Z" fill="#D9D9D9"/>
<path d="M554.383 327.855C554.48 328.606 554.689 329.037 555.329 329.259C555.968 329.482 556.928 329.816 557.136 330.247C557.554 331.109 558.193 331.331 558.944 331.234C559.695 331.136 560.654 331.47 561.405 331.373C563.769 330.761 565.076 329.065 566.175 326.938C566.397 326.298 566.619 325.659 566.522 324.908C566.536 323.837 566.23 322.655 565.813 321.793C564.978 320.069 563.602 318.874 562.114 317.998C561.794 317.886 561.474 317.775 561.154 317.664C558.901 317.956 556.44 317.817 555.119 320.583C554.243 322.071 552.936 323.767 553.98 325.922C554.188 326.353 554.286 327.104 554.383 327.855Z" fill="#D9D9D9"/>
<path d="M537.561 361.795C538.855 361.169 540.259 360.223 541.344 359.167C542.108 357.999 542.762 357.151 542.136 355.858C541.927 355.427 541.83 354.676 541.941 354.356C541.844 353.605 541.635 353.174 541.107 352.632C540.898 352.201 540.578 352.09 540.481 351.339C540.272 350.908 540.064 350.477 539.744 350.366C539.424 350.255 538.896 349.712 538.576 349.601C537.727 348.948 536.657 348.934 535.795 349.351C534.933 349.768 534.182 349.865 533.32 350.282C532.889 350.491 532.569 350.38 532.457 350.699C531.693 351.867 530.608 352.924 529.844 354.092C529.83 355.162 529.496 356.122 529.802 357.303C529.761 360.515 534.113 363.463 537.561 361.795Z" fill="#D9D9D9"/>
<path d="M740.229 539.824C739.979 542.605 741.022 544.76 743.47 545.969C747.516 547.735 750.533 546.276 752.077 542.869C753.94 539.574 751.214 535.041 748.336 534.04C747.168 533.276 745.555 533.79 744.261 534.416C741.786 535.347 740.688 537.474 740.229 539.824Z" fill="#D9D9D9"/>
<path d="M751.011 442.846C748.342 442.276 745.755 443.527 744.866 446.086C743.865 448.964 745.005 451.87 747.564 452.759C749.163 453.316 749.052 453.635 750.317 455.151C751.583 456.666 753.293 456.903 754.6 455.207C755.253 454.359 755.587 453.399 754.961 452.106C754.753 451.675 754.655 450.924 754.558 450.174C755.642 449.117 755.017 447.824 755.03 446.753C754.947 444.932 753.681 443.416 752.193 442.54C751.331 442.957 751.331 442.957 751.011 442.846Z" fill="#D9D9D9"/>
<path d="M616.025 363.992C614.412 364.507 613.647 365.675 613.202 366.954C612.201 369.832 613.759 373.6 616.428 374.17C617.708 374.615 619.21 374.42 620.072 374.003C622.116 373.28 623.311 371.904 623.659 369.874C623.993 368.915 623.909 367.093 623.172 366.12C622.435 365.147 621.92 363.534 620.099 363.617C618.18 362.95 618.18 362.95 616.025 363.992Z" fill="#D9D9D9"/>
<path d="M758.695 312.526C759.752 313.61 761.351 314.166 762.741 314.292C764.452 314.528 766.176 313.694 767.483 311.998C768.679 310.621 768.164 309.008 768.72 307.409C768.317 305.477 767.051 303.961 765.021 303.614C761.712 302.821 758.694 304.281 757.582 307.479C756.915 309.397 757.429 311.01 758.695 312.526Z" fill="#D9D9D9"/>
<path d="M734.439 266.809C733.007 269.896 735.218 272.815 737.456 273.594C740.335 274.595 742.921 273.344 743.922 270.466C744.923 267.588 743.463 264.571 741.016 263.361C738.777 262.582 735.008 264.14 734.439 266.809Z" fill="#D9D9D9"/>
<path d="M794.251 378.303C795.322 378.317 796.504 378.011 797.686 377.705C797.908 377.066 798.451 376.537 798.673 375.898C800.008 372.061 798.45 368.293 793.848 368.126C789.884 368.181 787.813 371.045 788.62 374.91C789.343 376.954 791.679 378.484 794.251 378.303Z" fill="#D9D9D9"/>
<path d="M690.263 478.353C689.943 478.241 689.734 477.81 689.415 477.699C687.176 476.92 683.727 478.589 682.949 480.827C681.739 483.274 682.129 486.277 686.175 488.043C686.495 488.154 687.135 488.377 687.455 488.488C688.637 488.182 690.138 487.988 691.112 487.251C692.516 486.305 693.072 484.707 693.308 482.996C693.433 481.606 693.127 480.424 691.64 479.548C691.111 479.006 690.902 478.575 690.263 478.353Z" fill="#D9D9D9"/>
<path d="M626.121 353.524C626.44 353.635 627.191 353.537 627.622 353.329C629.555 352.926 629.875 353.037 630.709 354.761C631.753 356.916 633.88 358.015 636.133 357.723C636.884 357.625 637.635 357.528 638.385 357.431C640.207 357.347 640.972 356.18 640.457 354.567C640.151 353.385 639.414 352.412 639.108 351.23C638.802 350.048 638.065 349.075 636.674 348.949C635.187 348.074 634.005 348.379 632.92 349.436C632.378 349.964 631.196 350.27 630.445 350.367C628.832 350.882 627.428 351.827 626.134 352.453C626.023 352.773 625.912 353.092 625.801 353.412C625.481 353.301 625.801 353.412 626.121 353.524Z" fill="#D9D9D9"/>
<path d="M606.52 469.661C607.299 467.423 605.728 464.726 603.697 464.378C600.819 463.377 598.983 464.531 597.551 467.617C596.884 469.536 598.775 472.345 600.694 473.012C603.044 473.471 606.062 472.011 606.52 469.661Z" fill="#D9D9D9"/>
<path d="M551.356 454.059C551.119 455.77 552.482 458.036 554.401 458.703C554.721 458.815 555.472 458.717 556.111 458.94C557.502 459.065 558.364 458.648 558.809 457.369C558.92 457.049 559.031 456.729 559.574 456.201C560.672 454.074 559.434 450.417 556.333 450.055C553.97 450.667 551.814 451.71 551.356 454.059Z" fill="#D9D9D9"/>
<path d="M715.248 434.349C717.167 435.016 720.185 433.556 720.741 431.958C721.422 428.968 719.948 427.022 718.029 426.354C715.79 425.576 713.524 426.938 712.745 429.177C711.967 431.415 712.69 433.459 715.248 434.349Z" fill="#D9D9D9"/>
<path d="M747.897 228.114C750.136 228.893 752.611 227.962 753.501 225.403C754.168 223.485 753.027 220.579 751.428 220.023C748.23 218.91 746.283 220.384 745.616 222.303C744.393 225.82 745.978 227.447 747.897 228.114Z" fill="#D9D9D9"/>
<path d="M771.37 475.02C773.928 475.91 775.972 475.187 776.862 472.628C777.641 470.39 777.029 468.026 774.79 467.248C772.551 466.469 770.076 467.4 769.297 469.639C768.199 471.766 769.451 474.352 771.37 475.02Z" fill="#D9D9D9"/>
<path d="M775.35 515.115C777.269 515.783 779.855 514.532 780.522 512.613C781.301 510.374 780.369 507.899 777.81 507.01C775.571 506.231 773.305 507.593 772.638 509.512C771.859 511.751 773.111 514.337 775.35 515.115Z" fill="#D9D9D9"/>
<path d="M505.195 454.851C502.956 454.072 500.8 455.115 500.022 457.353C499.355 459.272 500.398 461.427 502.317 462.094C504.555 462.873 506.28 462.039 507.489 459.592C508.588 457.465 507.433 455.629 505.195 454.851Z" fill="#D9D9D9"/>
<path d="M762.884 410.769C763.551 408.85 762.508 406.695 760.589 406.027C758.67 405.36 756.834 406.514 756.167 408.433C755.5 410.351 756.543 412.506 758.462 413.174C760.172 413.41 762.327 412.367 762.884 410.769Z" fill="#D9D9D9"/>
<path d="M731.878 282.408C730.279 281.852 728.124 282.895 727.568 284.494C727.012 286.092 728.055 288.248 729.654 288.804C731.253 289.36 733.728 288.428 734.284 286.83C734.618 285.87 733.908 282.756 731.878 282.408Z" fill="#D9D9D9"/>
<path d="M746.14 364.08C745.583 365.679 746.738 367.514 748.337 368.07C750.256 368.738 752.091 367.584 752.759 365.665C753.315 364.066 752.272 361.911 750.561 361.675C748.531 361.327 746.696 362.481 746.14 364.08Z" fill="#D9D9D9"/>
<path d="M553.967 343.483C552.368 342.927 550.213 343.97 549.657 345.569C548.989 347.487 549.935 348.892 551.743 349.879C553.342 350.435 555.066 349.601 555.733 347.682C556.401 345.763 555.566 344.039 553.967 343.483Z" fill="#D9D9D9"/>
<path d="M548.449 356.26C547.698 356.357 547.17 355.815 546.308 356.232C545.765 356.76 544.903 357.177 544.041 357.594C543.068 358.331 543.277 358.762 544.236 359.096C544.876 359.319 545.084 359.75 545.293 360.181C546.03 361.154 546.878 361.807 547.949 361.821C549.451 361.627 550.646 360.25 550.66 359.18C550.994 358.22 550.048 356.816 548.449 356.26Z" fill="#D9D9D9"/>
<path d="M530.711 303.133C531.991 303.578 534.146 302.535 534.591 301.256C535.036 299.977 534.201 298.253 532.602 297.696C531.003 297.14 529.599 298.086 529.043 299.685C528.917 301.075 529.432 302.688 530.711 303.133Z" fill="#D9D9D9"/>
<path d="M753.339 519.649C752.894 520.928 753.409 522.541 755.008 523.097C756.607 523.654 757.9 523.028 758.456 521.429C758.901 520.15 758.067 518.426 756.787 517.981C755.188 517.425 753.784 518.37 753.339 519.649Z" fill="#D9D9D9"/>
<path d="M706.012 220.718C707.291 221.162 709.015 220.328 709.46 219.049C709.905 217.77 709.39 216.157 707.791 215.601C706.512 215.156 704.899 215.67 704.454 216.95C703.898 218.548 704.732 220.273 706.012 220.718Z" fill="#D9D9D9"/>
<path d="M730.57 450.074C731.53 450.408 732.281 450.31 733.24 450.644C733.574 449.685 733.796 449.045 734.019 448.406C734.352 447.446 733.935 446.584 733.087 445.931C732.558 445.388 731.599 445.055 730.737 445.472C729.875 445.889 729.332 446.417 729.319 447.488C729.305 448.558 729.931 449.851 730.57 450.074Z" fill="#D9D9D9"/>
<path d="M552.992 368.954C553.743 368.857 554.494 368.76 554.828 367.8C555.481 366.952 555.926 365.673 556.579 364.825C556.802 364.185 556.913 363.866 556.385 363.323C555.856 362.781 555.105 362.878 554.994 363.198C553.91 364.255 552.714 365.631 551.629 366.688C550.865 367.856 551.921 368.94 552.992 368.954Z" fill="#D9D9D9"/>
<path d="M506.479 380.021C506.59 379.701 506.702 379.381 506.493 378.95C506.618 377.56 505.992 376.267 504.602 376.141C503.322 375.696 502.238 376.753 501.793 378.032C501.57 378.672 502.085 380.285 502.405 380.396C503.364 380.73 504.324 381.063 505.075 380.966C506.145 380.98 506.577 380.771 506.479 380.021Z" fill="#D9D9D9"/>
<path d="M768.906 251.196C770.186 251.641 771.799 251.127 772.355 249.528C772.688 248.568 772.174 246.956 771.214 246.622C769.935 246.177 768.322 246.691 767.877 247.97C767.112 249.138 767.738 250.431 768.906 251.196Z" fill="#D9D9D9"/>
<path d="M560.672 363.38C560.992 363.491 561.743 363.394 562.174 363.185C563.147 362.448 563.8 361.6 564.454 360.752C564.565 360.432 564.788 359.793 564.579 359.362C564.37 358.931 563.731 358.708 563.411 358.597C562.34 358.583 561.478 359 560.727 359.097C559.545 359.403 559.212 360.362 559.198 361.433C559.073 362.823 560.143 362.837 560.672 363.38Z" fill="#D9D9D9"/>
<path d="M752.339 373.047C753.299 373.38 754.912 372.866 755.357 371.587C755.69 370.627 754.856 368.903 753.896 368.57C752.937 368.236 751.213 369.07 750.879 370.029C750.114 371.197 750.74 372.49 752.339 373.047Z" fill="#D9D9D9"/>
<path d="M702.285 434.501C703.244 434.834 704.857 434.32 705.191 433.361C705.524 432.401 704.899 431.108 703.939 430.775C702.98 430.441 701.686 431.066 701.242 432.346C701.019 432.985 701.325 434.167 702.285 434.501Z" fill="#D9D9D9"/>
<path d="M720.942 614.845L720.622 614.734C719.969 615.582 718.996 616.319 718.453 616.847C718.231 617.487 718.12 617.807 718.439 617.918C718.648 618.349 718.745 619.1 719.065 619.211C719.385 619.322 719.816 619.114 720.247 618.905C720.247 618.905 720.358 618.585 720.678 618.697C721.332 617.849 721.471 615.388 720.942 614.845Z" fill="#D9D9D9"/>
<path d="M509.985 365.826C509.985 365.826 509.554 366.034 509.763 366.465C509.846 368.287 511.445 368.843 512.071 370.136C512.391 370.247 512.502 369.927 512.822 370.039C512.933 369.719 513.045 369.399 513.156 369.079C512.85 367.897 511.793 366.813 510.736 365.728C510.305 365.937 509.985 365.826 509.985 365.826Z" fill="#D9D9D9"/>
<path d="M755.505 476.31C756.144 476.533 757.438 475.907 757.34 475.156C757.563 474.517 757.145 473.655 756.186 473.321C755.546 473.099 754.684 473.516 754.462 474.155C754.128 475.115 754.545 475.977 755.505 476.31Z" fill="#D9D9D9"/>
<path d="M831.645 633.632C832.521 632.145 833.397 630.657 834.162 629.489C834.162 629.489 834.273 629.169 833.953 629.058L833.522 629.267C832.758 630.435 831.993 631.602 830.908 632.659C830.366 633.187 829.713 634.036 829.699 635.106C830.881 634.8 831.103 634.161 831.645 633.632Z" fill="#D9D9D9"/>
<path d="M522.699 284.934C523.339 285.156 524.201 284.739 524.423 284.1C524.645 283.46 524.228 282.598 523.589 282.376C522.949 282.153 522.087 282.57 521.864 283.21C521.531 284.169 521.948 285.031 522.699 284.934Z" fill="#D9D9D9"/>
<path d="M649.718 334.128C649.941 333.489 649.524 332.627 648.884 332.404C648.244 332.182 647.702 332.71 647.48 333.349C647.257 333.989 647.674 334.851 648.314 335.074C648.634 335.185 649.496 334.768 649.718 334.128Z" fill="#D9D9D9"/>
<path d="M764.124 256.703C765.195 256.717 766.488 256.091 766.822 255.132C766.933 254.812 766.724 254.381 766.404 254.27C765.334 254.256 764.04 254.881 763.707 255.841C763.596 256.16 763.484 256.48 764.124 256.703C763.804 256.591 763.804 256.591 764.124 256.703Z" fill="#D9D9D9"/>
<path d="M609.676 399.782C609.676 399.782 610.107 399.574 610.218 399.254C610.329 398.934 610.009 398.823 610.009 398.823C608.841 398.058 607.882 397.724 606.589 398.35C607.423 400.074 608.063 400.296 609.676 399.782Z" fill="#D9D9D9"/>
<path d="M564.038 417.603C562.967 417.589 562.008 417.255 561.466 417.783L561.563 418.534C562.634 418.548 563.704 418.562 564.664 418.896L564.886 418.256C564.678 417.825 564.358 417.714 564.038 417.603Z" fill="#D9D9D9"/>
<path d="M765.338 519.161C765.978 519.384 766.84 518.967 767.062 518.327C767.285 517.688 767.076 517.257 766.436 517.034C765.797 516.812 765.046 516.909 764.823 517.549C764.601 518.188 764.698 518.939 765.338 519.161Z" fill="#D9D9D9"/>
<path d="M770.039 345.867C771.11 345.881 772.292 345.575 773.154 345.158C773.154 345.158 773.265 344.838 773.056 344.407C771.666 344.282 770.595 344.268 769.622 345.005C769.622 345.005 769.511 345.325 769.399 345.644C769.83 345.436 770.039 345.867 770.039 345.867Z" fill="#D9D9D9"/>
<path d="M902.733 436.465C901.217 437.731 900.133 438.787 899.896 440.497C901.19 439.872 901.954 438.704 902.733 436.465Z" fill="#D9D9D9"/>
<path d="M719.473 604.655C718.277 606.032 717.721 607.631 717.276 608.91C719.779 605.837 719.779 605.837 719.473 604.655Z" fill="#D9D9D9"/>
<path d="M830.244 443.875C830.244 443.875 830.884 444.098 830.995 443.778C831.537 443.25 831.76 442.61 832.302 442.082C832.093 441.651 832.093 441.651 831.885 441.22C831.885 441.22 831.565 441.109 831.134 441.317C830.592 441.845 830.049 442.374 829.827 443.013C830.147 443.125 829.924 443.764 830.244 443.875Z" fill="#D9D9D9"/>
<path d="M800.035 585.358C802.079 584.635 802.955 583.147 803.831 581.66C802.426 582.605 801.022 583.551 800.035 585.358Z" fill="#D9D9D9"/>
<path d="M494.6 487.371C495.142 486.843 495.253 486.523 495.476 485.883C495.587 485.563 495.587 485.563 495.698 485.244L495.17 484.701C494.627 485.23 494.085 485.758 493.543 486.286C493.001 486.815 493.098 487.565 493.626 488.108C494.058 487.899 494.489 487.691 494.6 487.371Z" fill="#D9D9D9"/>
<path d="M606.182 355.192C607.253 355.206 607.906 354.358 608.56 353.51C608.671 353.19 608.671 353.19 608.351 353.079C608.031 352.967 607.712 352.856 607.712 352.856C606.849 353.273 606.307 353.801 605.445 354.219L605.223 354.858C605.542 354.969 605.862 355.081 606.182 355.192Z" fill="#D9D9D9"/>
<path d="M878.789 275.434C879.763 274.697 879.665 273.946 879.359 272.764C878.386 273.501 877.733 274.349 878.15 275.211C878.358 275.642 878.678 275.754 878.789 275.434Z" fill="#D9D9D9"/>
<path d="M833.3 613.418L833.411 613.098L833.092 612.987C832.229 613.404 831.367 613.821 830.825 614.35L831.034 614.781C831.896 614.364 832.647 614.266 833.3 613.418Z" fill="#D9D9D9"/>
<path d="M491.818 478.877C492.582 477.709 492.596 476.639 492.082 475.026C491.206 476.514 491.192 477.584 491.818 478.877Z" fill="#D9D9D9"/>
<path d="M887.099 378.336C888.17 378.35 888.184 377.28 888.726 376.751C888.726 376.751 888.837 376.432 888.517 376.32C887.224 376.946 886.682 377.474 887.099 378.336Z" fill="#D9D9D9"/>
<g clip-path="url(#clip1)">
<path fill-rule="evenodd" clip-rule="evenodd" d="M682.199 393.5C679.757 393.895 677.657 396.101 676.502 398.229C675.058 400.697 674.678 403.363 674.915 406.199C671.225 408.76 667.366 411.177 664.346 414.54C661.274 418.033 659.871 422.878 663.18 426.791C665.991 430.046 670.994 430.295 674.854 429.401C675.012 432.815 675.604 436.478 674.121 439.617C672.638 442.755 668.647 444.358 665.325 443.716C664.445 443.44 664.064 443.059 663.617 442.272C665.272 442.324 666.926 441.614 667.989 440.288C669.053 438.961 669.315 436.782 667.909 435.535C664.114 432.266 658.075 438.99 660.794 443.047C663.828 446.316 669.592 445.802 672.927 443.176C674.712 441.757 675.894 439.945 676.34 437.686C676.694 435.467 676.431 433.077 676.43 430.793C676.377 430.162 676.456 429.585 676.403 428.954C680.605 427.588 684.767 424.606 684.871 419.774C684.91 417.581 683.727 415.586 681.902 414.627C680.077 413.669 678.054 413.775 676.243 414.117L676.15 409.587C680.062 407.038 684.289 402.941 684.485 398.069C684.537 397.176 684.445 396.454 684.091 395.627C683.565 394.655 683.027 393.907 682.199 393.5ZM679.513 417.937C681.036 418.698 681.706 420.261 681.654 421.915L681.313 423.149L680.801 424.239L680.119 425.185L679.397 426.039L678.504 426.748C677.716 427.194 676.981 427.51 676.246 427.825L676.099 417.334C677.267 417.268 678.423 417.425 679.513 417.937ZM674.798 414.301C671.687 415.418 669.1 417.506 667.801 420.566C667.119 423.796 668.971 425.069 671.754 425.725C671.807 425.594 671.807 425.594 671.859 425.463C671.912 425.331 671.82 425.371 671.781 425.279C669.89 424.675 669.075 422.522 670.112 420.88C671.149 419.239 673.053 418.096 674.878 417.531L674.88 428.193C671.795 428.863 668.788 428.956 665.872 427.486L665.098 426.948C658.347 420.594 669.992 412.989 674.863 410.138L674.798 414.301ZM682.108 396.586C682.331 396.599 682.554 396.612 682.725 396.756C682.896 396.901 682.935 396.993 683.014 397.177C683.146 398.752 682.083 400.079 681.072 401.274C679.68 402.85 677.882 404.492 675.991 405.411C675.768 404.636 675.82 403.744 676.004 402.903C676.778 400.395 679.062 396.587 682.108 396.586Z" fill="#707070"/>
</g>
</g>
<defs>
<clipPath id="clip0">
<rect width="471.369" height="360.645" fill="white" transform="translate(826.211 656.477) rotate(-160.822)"/>
</clipPath>
<clipPath id="clip1">
<rect width="40.1" height="42.4" fill="white" transform="translate(646 408.806) rotate(-23.2115)"/>
</clipPath>
</defs>
</svg>
