<svg width="951" height="850" viewBox="0 0 951 850" fill="none" xmlns="http://www.w3.org/2000/svg">
<g clip-path="url(#clip0)">
<path d="M800.035 534.414C801.497 533.66 803.335 533.637 803.49 531.244C803.667 530.69 804.398 530.313 805.128 529.936C805.859 529.559 806.767 528.628 807.498 528.251C807.121 527.52 806.568 527.343 806.191 526.612C808.007 524.751 810.022 524.174 812.592 523.774C813.322 523.397 814.253 524.305 815.36 524.659C815.914 524.836 816.291 525.567 816.844 525.744C817.952 526.098 818.506 526.275 819.79 526.075C820.521 525.698 821.075 525.875 821.806 525.499C824.53 522.706 828.206 522.66 832.06 522.06C833.522 521.307 835.36 521.284 837.021 521.815C837.575 521.992 838.129 522.169 838.86 521.792C840.875 521.215 842.536 521.746 844.198 522.277C845.305 522.631 846.036 522.254 847.144 522.609C849.713 522.209 852.836 521.986 855.959 521.763C858.905 522.094 862.205 521.318 865.505 520.541C869.359 519.941 873.589 520.073 877.243 518.188C877.974 517.811 878.528 517.988 879.812 517.788C882.205 517.942 884.774 517.542 887.52 516.589C890.089 516.189 892.282 515.058 895.228 515.389C897.066 515.366 898.904 515.344 899.989 513.859C899.989 513.859 899.989 513.859 900.167 513.305C904.574 512.882 908.051 511.551 912.282 511.683C914.674 511.837 917.797 511.614 920.189 511.768C920.743 511.945 921.651 511.014 922.204 511.192C924.22 510.615 925.859 509.307 928.074 510.015C928.627 510.192 928.804 509.638 929.358 509.815C929.889 508.153 932.282 508.307 933.189 507.376C932.813 506.645 932.99 506.092 932.613 505.361C933.344 504.984 933.344 504.984 934.075 504.607C934.806 504.23 935.537 503.853 936.467 504.761C937.398 505.669 935.936 506.423 935.759 506.977C936.135 507.708 936.889 509.17 937.819 510.078C937.487 513.025 936.225 515.063 933.479 516.017C932.017 516.771 930.179 516.794 928.717 517.548C927.986 517.925 927.986 517.925 927.809 518.478C928.363 518.656 928.917 518.833 929.293 519.564C929.116 520.117 928.386 520.494 928.386 520.494C926.547 520.517 924.332 519.809 922.494 519.832C920.655 519.855 919.194 520.609 917.178 521.186C913.147 522.339 909.116 523.493 904.532 524.469C903.247 524.669 901.232 525.246 899.947 525.446C898.109 525.469 895.916 526.6 894.078 526.623C890.778 527.399 887.478 528.176 884.178 528.953C881.609 529.353 879.039 529.752 876.847 530.883C874.831 531.46 872.993 531.483 871.332 530.952C870.778 530.775 869.67 530.421 868.94 530.798C863.978 531.043 859.017 531.289 854.255 532.819C854.255 532.819 854.078 533.373 853.524 533.196C854.455 534.104 855.009 534.281 856.116 534.636C855.939 535.189 855.208 535.566 855.031 536.12C853.746 536.32 852.285 537.074 851 537.274C850.646 538.382 849.915 538.759 849.561 539.867C848.476 541.352 848.122 542.459 849.429 544.098C849.805 544.829 849.451 545.937 847.99 546.691C846.705 546.891 845.797 547.822 844.512 548.022C842.497 548.599 841.589 549.53 840.504 551.014C839.973 552.676 839.065 553.607 838.157 554.538C837.98 555.092 837.803 555.646 837.803 555.646C838.179 556.377 838.91 556 839.464 556.177C841.302 556.154 842.587 555.954 844.071 557.039C845.555 558.124 847.216 558.656 848.878 559.187C850.539 559.718 851.646 560.072 853.308 560.603C852.953 561.711 852.776 562.265 851.868 563.196C853.53 563.727 855.368 563.704 857.029 564.235C856.852 564.789 856.675 565.343 856.321 566.451C855.613 568.667 856.189 570.683 857.673 571.768C858.227 571.945 858.05 572.499 858.603 572.676C858.471 576.907 856.501 581.162 854.331 584.132C854.73 586.702 855.306 588.717 853.867 591.31C852.405 592.064 850.766 593.372 849.127 594.68C846.935 595.81 845.119 597.672 843.303 599.534C842.395 600.465 841.31 601.95 839.671 603.258C839.871 604.542 842.086 605.251 840.647 607.843C839.185 608.597 837.17 609.174 835.309 607.358C833.825 606.273 832.717 605.919 831.433 606.119C829.594 606.142 828.487 605.788 826.648 605.81C826.471 606.364 825.917 606.187 825.74 606.741C823.57 609.711 820.27 610.488 816.948 609.426C814.733 608.717 812.717 609.294 811.078 610.602C809.617 611.356 808.155 612.11 806.693 612.864C804.678 613.44 803.039 614.748 801.577 615.502C798.654 617.01 796.461 618.141 793.161 618.917C789.861 619.694 786.938 621.202 783.461 622.532L783.284 623.086C783.483 624.371 784.214 623.994 785.322 624.349C786.429 624.703 788.09 625.234 789.552 624.48C793.206 622.595 796.883 622.549 801.468 621.573C800.56 622.504 800.383 623.058 800.206 623.612C800.028 624.166 800.405 624.897 800.228 625.451C800.605 626.182 800.428 626.735 800.627 628.02C800.273 629.128 799.542 629.505 799.188 630.613C798.834 631.721 798.657 632.275 798.302 633.383C796.841 634.137 795.202 635.445 794.494 637.66C794.139 638.768 793.409 639.145 792.501 640.076C790.331 643.046 790.353 644.885 793.698 647.786C794.252 647.963 795.182 648.871 795.736 649.048C794.828 649.979 794.097 650.356 792.635 651.11C792.082 650.933 790.974 650.578 790.42 650.401C789.867 650.224 789.136 650.601 788.582 650.424C787.297 650.624 786.39 651.555 786.589 652.84C786.789 654.125 787.719 655.033 789.004 654.833C790.465 654.079 792.127 654.61 793.965 654.587C794.696 654.211 795.803 654.565 796.357 654.742C798.018 655.273 798.749 654.896 800.211 654.142C801.673 653.388 803.865 652.257 805.703 652.234C807.719 651.658 809.181 650.904 811.373 649.773C812.104 649.396 812.835 649.019 813.389 649.196C814.673 648.996 815.958 648.796 816.711 650.258C817.088 650.989 817.464 651.72 818.018 651.897C818.24 655.021 816.225 655.598 813.855 657.283C814.232 658.014 815.162 658.922 815.716 659.099C816.646 660.007 817.931 659.807 818.684 661.269C819.615 662.177 820.545 663.085 821.653 663.439C822.583 664.347 823.513 665.255 824.444 666.163C824.998 666.34 824.998 666.34 825.551 666.517C827.744 665.386 827.744 665.386 829.405 665.917C829.782 666.648 828.874 667.579 828.697 668.133C828.343 669.241 827.435 670.172 826.903 671.834C826.726 672.388 826.549 672.942 826.372 673.496C826.395 675.335 827.148 676.797 827.17 678.636C829.563 678.79 831.179 675.643 833.593 677.636C833.97 678.367 833.793 678.921 833.062 679.298C831.423 680.606 830.161 682.645 827.592 683.044C827.038 682.867 826.13 683.798 825.953 684.352C823.96 686.768 821.391 687.168 819.199 688.298C818.468 688.675 817.183 688.875 815.898 689.075C813.329 689.475 811.314 690.052 809.321 692.467C808.59 692.844 808.413 693.398 807.682 693.775C806.774 694.706 805.489 694.906 804.582 695.837C803.851 696.214 802.566 696.414 801.835 696.791C800.396 699.383 798.403 701.799 795.657 702.753C792.91 703.707 792.91 703.707 790.142 702.822C790.319 702.268 790.496 701.714 789.942 701.537C790.119 700.983 789.565 700.806 789.189 700.075C788.635 699.898 787.904 700.275 787.904 700.275L787.173 700.651C786.265 701.582 785.734 703.244 784.649 704.729C787.772 704.506 790.364 705.945 793.664 705.169C796.233 704.769 798.625 704.923 801.394 705.808C802.501 706.162 803.985 707.247 803.454 708.909C803.277 709.463 803.654 710.194 804.03 710.925C804.407 711.656 804.784 712.387 805.16 713.118C804.43 713.495 803.876 713.318 803.876 713.318C802.215 712.787 801.107 712.433 799.645 713.187C796.345 713.963 793.222 714.186 790.299 715.694C788.638 715.163 787.176 715.917 786.268 716.848L785.537 717.224C781.861 717.27 778.937 718.778 775.083 719.378C773.976 719.023 772.868 718.669 772.669 717.385C772.469 716.1 770.808 715.568 769.7 715.214C764.539 714.175 759.955 715.152 756.323 718.875C754.684 720.183 755.061 720.914 757.099 722.176L757.653 722.353C757.298 723.461 758.96 723.992 759.336 724.723C758.606 725.1 757.875 725.477 757.321 725.3C754.729 723.861 751.606 724.084 748.86 725.037C744.098 726.568 739.713 728.83 735.128 729.806C731.828 730.583 728.551 733.198 725.627 734.706L724.897 735.083C724.011 737.853 721.819 738.984 719.249 739.383C718.696 739.206 717.965 739.583 717.788 740.137C715.972 741.999 713.956 742.576 711.941 743.153C709.925 743.73 707.733 744.86 706.471 746.899C705.209 748.938 702.462 749.892 700.27 751.023C699.539 751.399 698.254 751.599 697.346 752.53C696.616 752.907 695.331 753.107 694.777 752.93C693.116 752.399 691.654 753.153 690.547 752.799C688.708 752.822 687.424 753.021 685.962 753.775C684.677 753.975 683.947 754.352 682.839 753.998C680.447 753.844 678.609 753.867 676.593 754.444C675.309 754.644 673.47 754.666 671.632 754.689C670.901 755.066 669.794 754.712 669.063 755.089C667.778 755.289 666.494 755.489 665.209 755.689C664.101 755.335 662.64 756.089 661.355 756.288C660.07 756.488 658.786 756.688 657.678 756.334C656.017 755.803 654.356 755.272 652.872 754.187C651.21 753.656 650.103 753.302 648.265 753.325C646.426 753.348 644.034 753.193 641.642 753.039C640.534 752.685 638.696 752.708 637.788 753.639C637.611 754.193 637.057 754.016 636.504 753.839C632.827 753.885 629.527 754.661 625.85 754.707C625.296 754.53 624.743 754.353 624.012 754.73C620.712 755.507 617.035 755.552 613.912 755.775C610.789 755.998 608.043 756.952 604.543 756.443C603.989 756.266 603.989 756.266 603.259 756.643C599.604 758.528 595.551 757.843 591.32 757.711C586.359 757.957 580.844 758.026 575.883 758.271C570.191 758.894 564.498 759.516 558.252 759.962C556.414 759.985 554.576 760.008 552.737 760.031C550.345 759.876 547.776 760.276 545.384 760.122C542.815 760.522 540.6 759.814 538.584 760.39C538.584 760.39 538.031 760.213 537.853 760.767C533.246 759.905 527.931 761.259 523.147 760.95C520.755 760.796 518.185 761.196 515.616 761.596C514.332 761.796 513.224 761.442 511.939 761.642C508.263 761.687 505.14 761.91 501.463 761.956C499.625 761.979 497.233 761.824 494.84 761.67C493.556 761.87 492.271 762.07 491.164 761.716C489.879 761.916 488.595 762.116 487.31 762.316C482.349 762.561 477.564 762.253 472.603 762.499C472.049 762.322 471.318 762.699 470.588 763.075C467.288 763.852 463.611 763.898 460.288 762.836C458.627 762.305 456.058 762.704 454.219 762.727C451.274 762.396 448.704 762.796 445.759 762.465L445.205 762.288C443.012 763.419 440.244 762.533 438.228 763.11C435.482 764.064 432.536 763.733 429.967 764.133C427.021 763.801 424.452 764.201 421.683 763.316C421.129 763.139 421.129 763.139 420.575 762.962C416.544 764.116 412.845 762.322 408.991 762.922C408.438 762.745 408.438 762.745 407.884 762.568C406.223 762.037 405.292 761.129 403.277 761.706C401.992 761.906 400.331 761.375 399.046 761.574C397.208 761.597 394.816 761.443 392.978 761.466C391.139 761.489 388.924 760.781 386.909 761.358C384.893 761.934 382.324 762.334 380.463 760.518C377.163 761.295 374.594 761.695 371.825 760.81C371.271 760.633 370.541 761.009 370.541 761.009C366.864 761.055 363.741 761.278 359.51 761.147C354.726 760.838 349.388 760.353 344.604 760.045C344.05 759.868 343.319 760.245 342.766 760.068C339.643 760.29 336.896 761.244 334.305 759.805C333.197 759.451 332.466 759.828 331.182 760.028C326.774 760.45 321.99 760.142 317.206 759.834C316.652 759.657 316.652 759.657 315.921 760.034C312.798 760.256 309.675 760.479 306.353 759.417C304.692 758.886 302.676 759.463 301.015 758.932C296.231 758.623 290.893 758.138 286.108 757.83C284.824 758.03 283.34 756.944 282.055 757.144C278.932 757.367 275.432 756.859 272.487 756.528C271.379 756.174 270.648 756.551 269.541 756.197C266.772 755.311 264.756 755.888 261.811 755.557C260.703 755.203 258.688 755.78 258.156 757.442C257.802 758.55 258.002 759.835 259.486 760.92C260.04 761.097 260.97 762.005 261.524 762.182C263.185 762.713 264.846 763.244 267.061 763.952C269.276 764.66 271.668 764.814 274.061 764.968C274.614 765.145 275.722 765.5 276.099 766.23C277.029 767.139 277.406 767.869 278.336 768.777C277.605 769.154 277.428 769.708 276.874 769.531C274.482 769.377 271.913 769.777 269.144 768.892C268.037 768.538 267.306 768.915 266.198 768.561C262.699 768.052 259.753 767.721 256.253 767.213C254.592 766.682 253.484 766.328 251.823 765.797C251.07 764.335 250.693 763.604 250.671 761.765C250.825 759.372 249.873 756.625 250.581 754.409C250.758 753.855 250.381 753.124 249.828 752.947C248.52 751.308 247.036 750.223 244.644 750.069C242.806 750.092 241.145 749.561 239.306 749.584C236.914 749.43 235.607 747.791 235.208 745.221C234.055 741.189 233.679 740.458 229.271 740.881C227.987 741.08 226.879 740.726 226.325 740.549C224.11 739.841 222.272 739.864 219.88 739.71C216.203 739.756 212.526 739.801 208.473 739.116C206.258 738.408 204.243 738.985 201.851 738.831C198.174 738.876 195.383 736.152 194.607 732.852C194.784 732.298 194.961 731.744 195.138 731.19C195.315 730.636 195.669 729.528 195.846 728.974C196.555 726.758 195.979 724.742 193.033 724.411C189.533 723.903 186.565 721.733 183.242 720.67C182.135 720.316 181.204 719.408 181.182 717.569C180.982 716.284 180.606 715.553 179.122 714.468C179.299 713.914 179.099 712.63 179.276 712.076C179.276 712.076 179.453 711.522 180.007 711.699C181.469 710.945 183.484 710.368 184.769 710.168C185.5 709.791 185.677 709.237 186.408 708.86C184.923 707.775 183.085 707.798 182.332 706.336C182.509 705.782 183.24 705.405 183.417 704.851C180.448 702.681 180.448 702.681 177.325 702.904C176.971 704.012 176.617 705.12 176.263 706.228C174.424 706.251 172.763 705.719 172.01 704.257C172.01 704.257 171.633 703.527 171.08 703.349C171.434 702.242 170.503 701.334 170.127 700.603C169.573 700.426 168.842 700.802 168.288 700.625C166.073 699.917 164.412 699.386 162.397 699.963C161.666 700.34 161.112 700.163 160.558 699.986C158.897 699.455 157.789 699.101 156.128 698.57C155.021 698.216 154.29 698.593 153.936 699.7C155.043 700.055 155.974 700.963 157.635 701.494C160.404 702.379 163.726 703.441 166.672 703.772C168.51 703.749 170.371 705.565 172.01 704.257C171.833 704.811 171.479 705.919 171.302 706.473C169.84 707.227 168.001 707.25 166.894 706.896C165.233 706.365 162.841 706.211 161.179 705.68C160.072 705.326 158.964 704.972 157.503 705.725C157.879 706.456 157.702 707.01 158.256 707.187C159.363 707.541 160.848 708.626 162.132 708.427C163.971 708.404 165.455 709.489 167.116 710.02L167.493 710.751C166.762 711.128 166.585 711.682 166.031 711.505C163.085 711.173 159.408 711.219 156.086 710.157C154.425 709.626 152.586 709.649 152.01 707.633C153.295 707.433 153.826 705.771 154.933 706.125C154.933 706.125 155.664 705.748 155.841 705.194C156.018 704.64 155.465 704.463 155.642 703.909C153.604 702.647 151.566 701.385 149.373 702.516C147.912 703.27 146.804 702.916 146.25 702.739C143.858 702.585 141.289 702.984 139.097 704.115C137.635 704.869 135.243 704.715 133.205 703.453C133.913 701.237 134.445 699.575 135.153 697.359C141.222 697.468 140.668 697.291 141.731 693.967C142.461 693.59 142.461 693.59 142.085 692.859C142.262 692.305 142.262 692.305 142.439 691.751C142.616 691.197 142.793 690.643 142.239 690.466C141.686 690.289 141.132 690.112 140.578 689.935C140.578 689.935 140.578 689.935 140.024 689.758C138.031 692.174 135.816 691.466 133.424 691.311C129.371 690.626 125.318 689.941 120.91 690.364C116.325 691.34 114.664 690.809 113.003 690.278C112.471 691.94 114.31 691.917 114.686 692.648C115.44 694.11 114.355 695.595 113.823 697.257C112.362 698.011 110.346 698.587 108.331 699.164C107.954 698.433 107.201 696.971 106.824 696.24C106.271 696.063 104.986 696.263 104.809 696.817C102.262 699.056 99.4933 698.171 96.3703 698.393C94.3324 697.131 91.7632 697.531 89.5482 696.823C88.9944 696.646 88.9944 696.646 88.4407 696.469C87.5103 695.561 87.8645 694.453 88.5953 694.076C89.5033 693.145 90.965 692.391 91.8729 691.461C93.1575 691.261 94.265 691.615 95.1954 692.523C96.1258 693.431 96.6796 693.608 97.9642 693.408C97.7871 693.962 97.7871 693.962 98.3408 694.139C98.3408 694.139 97.7871 693.962 97.9642 693.408C98.8721 692.477 99.603 692.1 100.511 691.169C100.688 690.615 101.419 690.238 101.419 690.238C102.903 691.323 105.118 692.031 106.602 693.116C107.333 692.74 108.618 692.54 109.349 692.163C109.526 691.609 110.256 691.232 110.434 690.678C109.88 690.501 109.326 690.324 108.772 690.147C107.465 688.508 106.358 688.154 104.719 689.462C104.719 689.462 103.611 689.107 103.058 688.93C102.327 689.307 102.15 689.861 101.419 690.238C101.042 689.507 100.666 688.776 100.289 688.045C99.3585 687.137 98.251 686.783 97.1435 686.429C95.3051 686.452 93.0901 685.744 91.4288 685.213C89.7676 684.682 87.3755 684.528 86.2904 686.012C84.4745 687.874 82.0824 687.72 80.067 688.297C79.6903 687.566 78.937 686.104 78.5603 685.373C78.7374 684.819 78.9145 684.265 79.0916 683.711C79.2687 683.157 78.3383 682.249 77.6075 682.626C77.0537 682.449 76.3229 682.826 75.7691 682.649C74.6616 682.295 74.8612 683.58 74.1303 683.957C72.469 683.426 70.6307 683.448 68.7923 683.471C66.954 683.494 65.2927 682.963 63.4544 682.986C61.0622 682.832 59.0243 681.57 58.8023 678.446C58.4256 677.715 58.049 676.984 57.6723 676.253C56.7419 675.345 55.4348 673.706 54.5044 672.798C53.0203 671.713 51.1594 669.897 49.6752 668.812C49.1215 668.635 48.5677 668.458 48.014 668.281C48.1911 667.727 48.3682 667.173 48.3682 667.173L47.8144 666.996C47.6373 667.55 47.4602 668.104 47.4602 668.104C46.3527 667.75 45.799 667.573 45.0457 666.111C44.8461 664.826 43.9157 663.918 42.9853 663.01C43.3395 661.902 44.2474 660.971 43.4941 659.509C42.5637 658.601 44.0254 657.847 44.3796 656.739C45.8637 657.824 47.8792 657.247 48.9642 655.762C49.8722 654.832 51.1568 654.632 52.6184 653.878C54.0801 653.124 55.0105 654.032 56.6493 652.724C57.5573 651.793 58.8419 651.593 59.5727 651.216C63.0724 651.725 63.2719 653.01 65.709 656.842C66.0856 657.573 67.3702 657.373 68.1011 656.996C68.6548 657.173 69.2086 657.35 70.3161 657.704C72.354 658.966 74.3919 660.228 76.4299 661.49C76.4299 661.49 76.2528 662.044 76.0757 662.598L75.5219 662.421L76.0757 662.598C77.7369 663.129 79.0215 662.929 79.9295 661.998C81.3912 661.244 82.8529 660.491 84.1375 660.291C86.7067 659.891 88.9217 660.599 91.3363 662.592C92.2667 663.5 93.928 664.031 95.0355 664.385C98.358 665.447 102.588 665.579 105.734 667.195C106.288 667.372 106.288 667.372 107.018 666.995C107.572 667.172 108.48 666.241 109.588 666.595C110.695 666.949 111.803 667.303 113.287 668.388C114.217 669.296 115.325 669.65 116.609 669.45C117.894 669.251 118.448 669.428 119.378 670.336C120.862 671.421 122.524 671.952 123.985 671.198C125.824 671.175 127.862 672.437 129.523 672.968C130.077 673.145 130.63 673.322 131.184 673.499C135.614 674.916 140.044 676.332 144.584 671.677C144.584 671.677 144.384 670.392 144.561 669.838C144.008 669.661 144.008 669.661 144.008 669.661C142.346 669.13 139.954 668.976 138.293 668.445C137.739 668.268 137.363 667.537 137.363 667.537C137.54 666.983 137.717 666.429 138.271 666.606C139.555 666.406 140.84 666.206 142.124 666.006C143.409 665.807 144.14 665.43 145.048 664.499C145.956 663.568 146.133 663.014 145.202 662.106C145.202 662.106 145.379 661.552 145.557 660.998C146.287 660.621 146.642 659.513 147.55 658.582C147.749 659.867 148.126 660.598 148.502 661.329C148.724 664.453 150.032 666.092 153.354 667.154C155.015 667.685 156.677 668.216 158.714 669.478C159.445 669.102 160.73 668.902 161.638 667.971C162.723 666.486 162.7 664.647 164.716 664.07C166.4 666.44 167.353 669.187 168.305 671.934C170.72 673.927 173.112 674.081 175.681 673.681C175.858 673.127 176.035 672.574 176.213 672.02C177.098 669.25 179.468 667.565 182.214 666.611C183.499 666.411 184.783 666.211 185.514 665.835L185.691 665.281C185.492 663.996 185.669 663.442 185.469 662.157C180.485 660.563 175.324 659.524 169.986 659.039C169.455 660.701 170.009 660.878 171.116 661.232C171.67 661.409 171.67 661.409 172.047 662.14C172.047 662.14 171.87 662.694 171.693 663.248C169.5 664.379 167.285 663.67 165.978 662.031C165.601 661.3 165.048 661.123 164.671 660.392C164.471 659.107 163.541 658.199 162.256 658.399C161.149 658.045 160.595 657.868 159.665 656.96C158.181 655.875 156.342 655.898 155.811 657.56C154.726 659.045 153.995 659.422 152.334 658.891C149.388 658.559 147.527 656.743 145.666 654.927C144.359 653.288 142.144 652.58 139.929 651.872C140.66 651.495 141.214 651.672 142.498 651.472C142.853 650.364 143.76 649.434 143.561 648.149C144.092 646.487 144.623 644.825 145.708 643.34C146.616 642.409 146.594 640.57 146.948 639.462C143.98 637.292 140.48 636.784 137.534 636.453C136.981 636.276 136.25 636.653 136.073 637.207C133.703 638.891 131.311 638.737 128.919 638.583C126.527 638.429 124.489 637.167 121.92 637.567C119.527 637.412 118.22 635.773 116.913 634.134C114.344 634.534 112.506 634.557 109.937 634.957C108.652 635.157 107.921 635.534 107.013 636.465C106.105 637.396 104.821 637.595 103.336 636.51C102.96 635.779 101.675 635.979 100.944 636.356C99.6597 636.556 98.5522 636.202 97.4447 635.848C97.068 635.117 95.9606 634.763 95.5839 634.032C94.6535 633.124 94.2768 632.393 93.1693 632.039C91.8847 632.239 90.2234 631.708 89.1384 633.193L88.4075 633.569C86.7463 633.038 85.4617 633.238 84.3542 632.884C83.0696 633.084 81.785 633.284 80.6775 632.93C78.2854 632.776 76.8012 631.691 76.5791 628.567C76.3796 627.282 75.4492 626.374 76.3571 625.443C76.3571 625.443 75.9805 624.712 75.6038 623.981C77.6192 623.404 79.4576 623.381 81.6726 624.09C83.3339 624.621 85.9031 624.221 87.7414 624.198C88.2952 624.375 89.2031 623.444 89.3802 622.89C89.1807 621.605 89.3578 621.051 90.2657 620.12C90.8195 620.297 92.1041 620.097 93.2116 620.452C95.7808 620.052 98.3725 621.491 99.6795 623.13C100.987 624.769 103.202 625.477 105.04 625.454C107.432 625.608 109.093 626.139 111.308 626.847C112.97 627.379 114.077 627.733 115.915 627.71C117.023 628.064 117.754 627.687 118.861 628.041C122.184 629.103 125.506 630.165 129.56 630.851C132.506 631.182 134.898 631.336 138.021 631.113C139.305 630.913 139.859 631.09 140.236 631.821C140.789 631.998 141.166 632.729 141.166 632.729C144.112 633.06 147.435 634.123 150.181 633.169C150.358 632.615 150.712 631.507 151.066 630.399C151.598 628.737 150.667 627.829 149.183 626.744C149.183 626.744 149.183 626.744 148.629 626.567C144.376 624.597 144.354 622.758 147.986 619.034C149.093 619.389 148.916 619.942 148.739 620.496L148.562 621.05C148.938 621.781 149.492 621.958 150.046 622.135C150.046 622.135 150.777 621.759 151.508 621.382C152.216 619.166 154.032 617.304 156.225 616.173C157.886 616.704 159.924 617.966 161.031 618.32C162.493 617.567 163.401 616.636 165.062 617.167C168.385 618.229 168.385 618.229 166.392 620.645C165.307 622.13 165.506 623.414 167.345 623.392C168.452 623.746 170.113 624.277 171.044 625.185C171.597 625.362 172.705 625.716 173.259 625.893C176.027 626.778 178.619 628.217 180.48 630.033C180.857 630.764 181.964 631.118 182.895 632.026C183.094 633.311 183.294 634.596 183.493 635.881C188.3 638.028 193.284 639.622 198.622 640.107C199.729 640.461 201.745 639.884 202.653 638.953C205.199 636.715 208.145 637.046 210.892 636.092C211.622 635.715 212.907 635.515 213.638 635.138C213.638 635.138 214.546 634.207 213.992 634.03C213.615 633.299 213.062 633.122 212.884 633.676C212.331 633.499 212.154 634.053 211.423 634.43C210.692 634.807 210.138 634.63 209.584 634.453C208.454 632.26 207.147 630.621 205.84 628.982C204.91 628.074 204.887 626.235 205.242 625.127C205.396 622.734 205.551 620.342 207.367 618.48C207.544 617.926 207.544 617.926 208.275 617.549C210.091 615.687 208.784 614.048 208.761 612.209C208.938 611.655 207.831 611.301 207.831 611.301C207.277 611.124 206.723 610.947 206.169 610.77C205.616 610.593 205.062 610.416 204.685 609.685C204.109 607.669 202.625 606.584 200.964 606.053C198.749 605.345 197.995 603.883 196.865 601.69C196.643 598.566 198.282 597.258 200.652 595.574C202.844 594.443 204.306 593.689 206.321 593.112C207.606 592.912 209.621 592.335 210.529 591.404C211.991 590.651 213.076 589.166 213.054 587.327C212.677 586.596 213.031 585.488 213.208 584.934C212.101 584.58 211.547 584.403 210.439 584.049C209.155 584.249 207.117 582.987 206.032 584.472C205.478 584.294 205.655 583.741 205.101 583.564C205.079 581.725 205.234 579.332 206.319 577.847C207.758 575.254 207.182 573.238 205.498 570.868C204.191 569.229 202.153 567.967 202.308 565.574C203.393 564.089 204.478 562.605 205.386 561.674C207.024 560.366 208.331 562.005 209.793 561.251C210.524 560.874 211.078 561.051 212.362 560.851C211.609 559.389 210.501 559.035 208.84 558.504C207.179 557.973 205.518 557.442 204.211 555.803C200.689 553.456 199.581 553.102 199.027 552.925C199.381 551.817 199.559 551.263 199.913 550.155C198.982 549.247 198.429 549.07 197.498 548.162C197.675 547.608 198.029 546.5 198.207 545.946C198.738 544.284 198.738 544.284 197.254 543.199C196.7 543.022 196.146 542.845 195.592 542.668C195.039 542.491 195.039 542.491 193.931 542.137C194.662 541.76 194.839 541.206 195.393 541.383C197.408 540.806 198.87 540.052 200.509 538.745C201.24 538.368 201.417 537.814 201.417 537.814C201.948 536.152 202.856 535.221 203.764 534.29C204.672 533.359 205.026 532.251 204.649 531.52C203.896 530.058 204.25 528.95 204.604 527.843C204.759 525.45 204.382 524.719 202.167 524.011C200.506 523.479 198.668 523.502 197.007 522.971C196.453 522.794 195.899 522.617 195.345 522.44C194.769 520.424 195.854 518.939 197.316 518.186C200.239 516.678 202.232 514.262 203.671 511.669C204.026 510.561 205.664 509.254 206.572 508.323C208.411 508.3 209.695 508.1 211.534 508.077C212.087 508.254 212.818 507.877 213.549 507.5C215.742 506.37 218.134 506.524 220.349 507.232C224.225 508.471 226.971 507.517 230.072 505.456C235.255 508.334 240.571 506.98 245.886 505.627C247.171 505.427 248.632 504.673 249.363 504.296C249.917 504.473 250.271 503.365 250.271 503.365C250.271 503.365 249.895 502.634 249.341 502.457C247.126 501.749 245.287 501.772 243.072 501.064C240.127 500.733 239.573 500.556 236.228 497.654C237.113 494.885 239.86 493.931 241.875 493.354C242.606 492.977 243.713 493.331 244.644 494.239C245.574 495.147 247.235 495.678 248.343 496.032C251.666 497.095 255.719 497.78 259.218 498.288C262.718 498.796 266.218 499.304 269.54 500.367C270.648 500.721 271.755 501.075 272.132 501.806C272.509 502.537 272.885 503.268 273.262 503.999C274.923 504.53 276.762 504.507 278.6 504.484C282.099 504.992 283.007 504.061 284.624 500.915C284.801 500.361 284.978 499.807 285.532 499.984C286.44 499.053 287.525 497.568 288.433 496.637C288.056 495.906 287.303 494.444 286.926 493.713C285.973 490.966 284.312 490.435 281.743 490.835C278.62 491.058 276.228 490.904 273.459 490.019C271.067 489.864 269.76 488.225 268.63 486.032C271.73 483.971 274.853 483.748 277.976 483.525C278.707 483.148 279.814 483.502 280.368 483.679C281.653 483.479 282.384 483.103 283.292 482.172C285.107 480.31 286.192 478.825 288.008 476.963C289.093 475.478 289.071 473.64 289.602 471.978C289.779 471.424 289.58 470.139 288.472 469.785C286.434 468.523 284.219 467.815 281.827 467.66C276.866 467.906 272.812 467.221 268.028 466.912C265.636 466.758 265.636 466.758 263.045 465.319C262.668 464.588 263.952 464.388 264.13 463.834C266.322 462.704 268.338 462.127 269.976 460.819C270.707 460.442 271.438 460.065 271.061 459.334C271.039 457.495 272.501 456.741 274.516 456.164C275.801 455.965 276.709 455.034 278.17 454.28C278.702 452.618 279.056 451.51 279.033 449.671C279.764 449.294 281.049 449.094 282.156 449.448C283.995 449.426 285.833 449.403 287.118 449.203C289.51 449.357 292.456 449.688 294.848 449.842C299.078 449.974 303.131 450.659 306.985 450.059C309.554 449.659 311.769 450.367 314.339 449.968C319.123 450.276 323.53 449.853 328.315 450.162C332.545 450.293 336.399 449.693 340.452 450.378C346.344 451.041 352.036 450.418 357.928 451.081C362.712 451.389 367.12 450.966 371.904 451.275C378.527 451.56 385.703 452.023 392.503 451.754C393.787 451.554 394.341 451.731 395.626 451.531C398.748 451.309 401.318 450.909 404.264 451.24C407.763 451.748 411.617 451.148 415.294 451.103C418.24 451.434 421.54 450.657 425.039 451.165C427.431 451.32 430.554 451.097 432.946 451.251C436.069 451.028 438.461 451.182 441.584 450.96C449.492 451.045 458.13 450.754 466.037 450.839C469.16 450.617 471.729 450.217 474.675 450.548C479.636 450.302 485.151 450.234 489.935 450.542C493.435 451.05 497.289 450.451 500.966 450.405C503.358 450.559 506.104 449.605 508.873 450.49C508.873 450.49 508.873 450.49 508.319 450.313C509.227 449.383 509.98 450.845 511.442 450.091C512.173 449.714 513.28 450.068 514.388 450.422C514.942 450.599 516.226 450.399 516.957 450.022C520.257 449.245 523.757 449.754 526.88 449.531C528.718 449.508 530.556 449.485 532.572 448.908C533.856 448.708 534.41 448.885 535.518 449.239C536.071 449.416 536.603 447.755 537.533 448.663C537.533 448.663 537.533 448.663 538.087 448.84C538.087 448.84 538.087 448.84 538.641 449.017L538.087 448.84C540.102 448.263 542.672 447.863 544.887 448.571C545.44 448.748 546.171 448.371 546.902 447.994C547.633 447.617 548.763 449.81 549.294 448.148C550.579 447.949 551.686 448.303 552.417 447.926C555.717 447.149 558.84 446.926 561.963 446.703C562.517 446.88 563.248 446.504 563.801 446.681C565.086 446.481 566.371 446.281 567.655 446.081C569.494 446.058 571.886 446.212 573.901 445.635C575.186 445.435 577.024 445.413 578.685 445.944C579.416 445.567 579.97 445.744 581.255 445.544C583.093 445.521 584.754 446.052 586.393 444.744C586.393 444.744 586.947 444.921 587.124 444.367C590.623 444.876 594.654 443.722 598.154 444.23C598.708 444.407 600.169 443.653 600.723 443.83C603.292 443.431 605.862 443.031 608.431 442.631C613.392 442.385 617.623 442.517 622.207 441.54C624.223 440.963 626.061 440.94 628.63 440.541C631.022 440.695 633.592 440.295 636.338 439.341C639.815 438.01 643.868 438.696 647.722 438.096C650.845 437.873 654.522 437.828 657.999 436.497C658.73 436.12 659.284 436.297 660.568 436.097C664.799 436.228 668.652 435.629 672.506 435.029C673.06 435.206 673.614 435.383 673.614 435.383C673.99 436.114 673.813 436.668 673.636 437.222C673.659 439.061 674.035 439.792 675.143 440.146C676.804 440.677 678.465 441.208 680.503 442.47C681.057 442.647 681.057 442.647 681.611 442.824C682.895 442.624 684.734 442.601 685.841 442.955C687.126 442.756 688.787 443.287 690.072 443.087C693.748 443.041 697.979 443.172 701.479 443.681C703.14 444.212 704.978 444.189 706.994 443.612C711.401 443.189 716.362 442.944 720.748 440.682C722.209 439.928 723.494 439.728 724.778 439.528C727.57 442.252 727.57 442.252 731.047 440.922C731.977 441.83 733.085 442.184 734.015 443.092C736.939 441.584 739.862 440.076 743.162 439.3C744.447 439.1 746.085 437.792 748.101 437.215C750.139 438.477 751.823 440.847 755.123 440.071C755.322 441.355 755.699 442.086 756.076 442.817C757.183 443.172 757.737 443.349 758.468 442.972C760.306 442.949 761.79 444.034 762.92 446.227C763.673 447.689 764.803 449.882 767.195 450.036C766.841 451.144 766.664 451.698 766.487 452.252C767.971 453.337 768.902 454.245 769.832 455.153C772.047 455.861 773.686 454.553 775.524 454.53C778.271 453.576 781.017 452.623 783.586 452.223C786.709 452 789.079 450.315 791.625 448.077C791.803 447.523 791.426 446.792 791.603 446.238C794.903 445.461 798.203 444.684 801.149 445.016C801.703 445.193 802.433 444.816 803.164 444.439C805.18 443.862 806.464 443.662 808.303 443.639C810.318 443.062 812.533 443.77 813.795 441.732C813.972 441.178 815.08 441.532 815.811 441.155C816.365 441.332 816.542 440.778 817.073 439.116C818.734 439.647 819.111 440.378 819.133 442.217C819.333 443.502 819.532 444.787 819.178 445.895C819.201 447.734 818.293 448.665 816.277 449.241C814.993 449.441 812.977 450.018 811.693 450.218C809.677 450.795 808.769 451.726 809.346 453.742C809.346 453.742 809.168 454.296 809.722 454.473C809.722 454.473 809.722 454.473 810.276 454.65C811.76 455.735 813.598 455.712 815.437 455.689C816.721 455.489 817.452 455.112 818.56 455.466C820.221 455.997 822.059 455.974 823.898 455.952C826.467 455.552 829.413 455.883 832.182 456.768C832.935 458.23 833.865 459.138 834.619 460.6C834.264 461.708 833.357 462.639 833.733 463.37C833.379 464.478 833.756 465.209 834.132 465.94C834.509 466.671 834.709 467.956 834.531 468.51C833.623 469.44 832.716 470.371 831.431 470.571L830.7 470.948C828.862 470.971 827.4 471.725 825.761 473.033C826.337 475.049 827.091 476.511 829.106 475.934C830.214 476.288 830.945 475.911 832.052 476.265C833.16 476.619 834.644 477.704 834.113 479.366C834.135 481.205 833.781 482.313 832.142 483.621C829.595 485.859 827.602 488.275 824.679 489.783C821.025 491.667 817.193 494.106 813.539 495.991C811.347 497.121 808.6 498.075 805.854 499.029C803.108 499.983 800.361 500.936 797.615 501.89C794.692 503.398 791.392 504.175 788.092 504.951C786.807 505.151 785.899 506.082 785.168 506.459C783.706 507.213 782.621 508.698 782.644 510.537C782.467 511.091 783.397 511.999 783.951 512.176C784.682 511.799 785.966 511.599 786.697 511.222C788.159 510.468 789.444 510.268 791.105 510.799C791.304 512.084 791.504 513.369 789.865 514.677C788.226 515.985 786.588 517.293 785.879 519.508C785.902 521.347 787.74 521.324 788.493 522.786C788.316 523.34 787.585 523.717 787.585 523.717C786.301 523.917 785.57 524.294 784.285 524.494C781.539 525.448 779.723 527.309 778.461 529.348C777.73 529.725 777.93 531.01 777.576 532.118C779.414 532.095 781.252 532.072 782.537 531.872C782.736 533.157 782.936 534.442 783.313 535.173C788.097 535.482 792.128 534.328 797.089 534.082C796.912 534.636 796.181 535.013 795.827 536.121C796.381 536.298 797.488 536.652 798.042 536.829C797.865 537.383 797.865 537.383 797.311 537.206C796.58 537.583 795.849 537.96 795.296 537.783C790.334 538.029 789.98 539.137 787.057 540.644C789.095 541.906 790.756 542.437 792.771 541.861C796.802 540.707 801.21 540.284 805.241 539.131C805.972 538.754 806.702 538.377 807.433 538C809.249 536.138 811.265 535.561 813.834 535.161C818.241 534.739 822.272 533.585 826.303 532.431C828.872 532.032 830.888 531.455 833.457 531.055C835.473 530.478 837.665 529.347 839.304 528.04C840.035 527.663 840.943 526.732 841.673 526.355C842.404 525.978 843.689 525.778 844.043 524.67L843.666 523.939C842.559 523.585 842.005 523.408 840.721 523.608C835.228 525.516 828.982 525.961 823.489 527.869C818.728 529.399 813.589 530.199 808.274 531.552C804.819 534.722 802.427 534.568 800.035 534.414ZM143.791 697.068C143.237 696.891 142.683 696.714 141.953 697.091C142.683 696.714 143.237 696.891 143.791 697.068L144.345 697.245C144.898 697.422 144.898 697.422 145.452 697.599L145.076 696.868C144.145 695.96 143.968 696.514 143.791 697.068ZM806.638 548.125C804.822 549.987 802.983 550.01 800.968 550.587C800.414 550.41 800.237 550.964 799.683 550.787C799.883 552.072 799.529 553.179 799.352 553.733C800.659 555.372 801.213 555.549 802.674 554.796C804.136 554.042 805.598 553.288 806.882 553.088C807.414 551.426 807.945 549.764 808.299 548.656C810.314 548.08 811.776 547.326 813.437 547.857C814.545 548.211 815.276 547.834 816.383 548.188C820.614 548.319 824.667 549.004 828.698 547.851C832.175 546.52 835.475 545.743 838.199 542.951C839.838 541.643 839.992 539.25 837.777 538.542C836.67 538.188 835.562 537.834 835.009 537.657C831.886 537.88 828.209 537.925 824.909 538.702C821.609 539.479 817.755 540.078 814.455 540.855C809.317 541.655 804.555 543.185 799.416 543.985C798.132 544.185 797.224 545.116 796.87 546.224C798.731 548.04 801.123 548.194 803.692 547.794C804.799 548.148 806.084 547.948 806.638 548.125ZM193.374 646.977C193.551 646.423 193.728 645.869 193.905 645.315C194.436 643.653 193.882 643.476 192.952 642.568C192.398 642.391 191.291 642.037 190.56 642.414C189.652 643.345 188.544 642.991 187.437 642.637C185.045 642.483 183.384 641.952 180.991 641.798C179.884 641.444 178.776 641.089 178.4 640.358C175.985 638.365 173.77 637.657 170.647 637.88C171.024 638.611 171.401 639.342 171.046 640.45C170.869 641.004 170.692 641.558 169.961 641.935C169.23 642.312 169.053 642.866 168.323 643.243C169.807 644.328 171.291 645.413 173.129 645.39C173.86 645.013 174.79 645.921 175.167 646.652C175.92 648.114 177.582 648.645 178.512 649.553C179.443 650.461 181.281 650.438 182.566 650.238C183.85 650.038 185.135 649.838 185.489 648.731C185.843 647.623 187.128 647.423 187.681 647.6C190.074 647.754 191.912 647.731 193.374 646.977ZM788.947 710.377C787.839 710.023 787.286 709.846 786.178 709.492C785.071 709.138 784.34 709.515 783.232 709.161C781.571 708.63 780.286 708.829 778.825 709.583C778.094 709.96 776.986 709.606 776.256 709.983C775.148 709.629 774.594 709.452 773.487 709.098C772.379 708.744 771.648 709.121 770.918 709.498C770.01 710.429 768.725 710.629 768.747 712.467C769.855 712.822 770.785 713.73 771.516 713.353C775.016 713.861 778.139 713.638 781.262 713.415C783.654 713.57 785.093 710.977 787.485 711.131C787.485 711.131 788.216 710.754 788.393 710.2C788.77 710.931 788.947 710.377 788.947 710.377ZM876.226 525.189C875.472 523.727 876.934 522.974 876.734 521.689C876.181 521.512 875.073 521.158 874.342 521.535C873.789 521.357 872.504 521.557 871.95 521.38C868.827 521.603 866.081 522.557 862.958 522.78C862.404 522.603 861.673 522.98 861.496 523.533C861.496 523.533 861.319 524.087 861.142 524.641L861.519 525.372C862.803 525.172 863.911 525.527 865.195 525.327C866.48 525.127 867.211 524.75 868.141 525.658C867.964 526.212 867.233 526.589 867.787 526.766C868.164 527.497 868.718 527.674 869.448 527.297C871.641 526.166 873.656 525.589 876.226 525.189ZM176.095 632.295C173.703 632.141 172.042 631.61 170.203 631.632C168.365 631.655 168.365 631.655 167.656 633.871C170.425 634.756 172.817 634.91 175.763 635.242C175.564 633.957 175.741 633.403 176.095 632.295ZM825.671 465.677C824.21 466.431 823.479 466.808 822.194 467.008C821.463 467.385 820.733 467.762 819.825 468.693C819.825 468.693 819.647 469.247 819.47 469.8C819.47 469.8 819.847 470.531 820.401 470.709C821.508 471.063 822.793 470.863 823.524 470.486C824.255 470.109 824.985 469.732 824.609 469.001C824.232 468.27 824.409 467.716 825.14 467.339C826.602 466.585 826.048 466.408 825.671 465.677ZM156.938 644.488C157.115 643.934 156.739 643.203 156.539 641.918L155.985 641.741C154.878 641.387 153.97 642.318 153.616 643.426C153.262 644.533 153.461 645.818 154.015 645.995C154.945 646.903 156.407 646.15 156.938 644.488ZM64.5169 679.662C65.6244 680.016 66.7319 680.37 67.1086 681.101C68.9245 679.24 68.9245 679.24 67.9941 678.332C67.2407 676.87 65.5795 676.338 64.2949 676.538C64.4944 677.823 65.4249 678.731 64.5169 679.662ZM851.537 566.142C850.429 565.788 849.875 565.611 849.322 565.434C848.037 565.634 846.575 566.388 845.667 567.319L845.49 567.873L845.867 568.604C847.883 568.027 849.898 567.45 851.537 566.142ZM785.577 690.372C784.469 690.018 783.916 689.841 783.185 690.218C781.9 690.418 780.992 691.349 781.369 692.079C781.745 692.81 783.03 692.611 783.761 692.234C783.938 691.68 784.669 691.303 785.577 690.372ZM238.862 743.336C239.97 743.69 240.701 743.313 240.878 742.759C241.055 742.205 240.678 741.474 240.124 741.297L239.571 741.12C239.017 740.943 238.286 741.32 238.109 741.874C237.932 742.428 238.308 743.159 238.862 743.336ZM184.724 706.49C185.654 707.398 186.762 707.752 188.046 707.552C188.046 707.552 188.777 707.176 188.401 706.445C188.401 706.445 188.024 705.714 187.47 705.537C186.363 705.182 185.632 705.559 184.724 706.49ZM854.919 526.926C853.612 525.287 853.612 525.287 852.527 526.772C853.257 526.395 853.811 526.572 854.919 526.926ZM781.127 702.382C781.127 702.382 780.573 702.205 780.396 702.759L780.219 703.313C781.127 702.382 781.127 702.382 781.127 702.382ZM856.358 524.333C856.358 524.333 856.535 523.779 856.358 524.333C856.535 523.779 856.535 523.779 856.358 524.333C855.981 523.602 855.981 523.602 856.358 524.333C855.981 523.602 855.804 524.156 856.358 524.333Z" fill="url(#paint0_linear)"/>
<path d="M804.378 633.492C808.231 632.892 807.832 630.322 807.256 628.306C808.718 627.552 810.556 627.529 812.948 627.684C816.824 628.923 821.055 629.054 824.909 628.454C826.016 628.808 826.216 630.093 825.862 631.201C825.507 632.309 825.707 633.594 824.245 634.348C823.514 634.725 822.784 635.102 822.053 635.479C819.683 637.163 817.491 638.294 815.498 640.71C814.235 642.749 812.043 643.88 809.651 643.725C807.812 643.748 805.797 644.325 804.712 645.81C802.342 647.495 800.504 647.518 798.466 646.255C797.359 645.901 796.428 644.993 794.59 645.016C792.929 644.485 792.729 643.2 793.637 642.269C794.168 640.607 795.076 639.677 796.914 639.654C798.199 639.454 799.661 638.7 800.945 638.5C801.676 638.123 802.961 637.923 803.692 637.546C804.777 636.061 805.131 634.954 804.378 633.492ZM814.632 630.054C814.078 629.876 813.524 629.699 812.971 629.522C812.971 629.522 812.24 629.899 812.063 630.453L812.439 631.184C812.993 631.361 813.724 630.984 814.632 630.054ZM816.293 630.585C816.293 630.585 816.47 630.031 816.293 630.585C817.024 630.208 816.47 630.031 816.293 630.585C816.47 630.031 816.47 630.031 816.293 630.585C816.47 630.031 816.47 630.031 816.293 630.585Z" fill="url(#paint1_linear)"/>
<path d="M73.0115 697.03C70.819 698.161 69.3573 698.915 67.1647 700.045C66.4339 700.422 66.6334 701.707 67.0101 702.438C67.0101 702.438 67.3868 703.169 67.5639 702.615C69.956 702.769 71.8168 704.585 74.0318 705.294C73.7001 708.24 73.1463 708.063 71.308 708.086C68.185 708.309 65.97 707.601 63.2012 706.716C60.9862 706.008 59.3249 705.476 57.1099 704.768C56.3791 705.145 55.6482 705.522 54.9174 705.899C52.9244 708.315 50.909 708.892 48.1402 708.007C47.0327 707.652 46.6785 708.76 45.9476 709.137C45.571 708.406 44.4635 708.052 44.0868 707.321C44.0643 705.482 44.5956 703.821 45.1269 702.159C45.8353 699.943 46.0124 699.389 43.4207 697.95C42.867 697.773 43.044 697.219 43.044 697.219C43.2211 696.665 43.2212 696.665 43.952 696.288C44.6828 695.911 45.2366 696.088 45.2366 696.088C46.7208 697.173 48.0054 696.973 49.8437 696.95C50.3975 697.127 50.9512 697.304 51.505 697.481C52.6125 697.835 53.1662 698.012 54.4508 697.813C55.1817 697.436 56.2892 697.79 56.843 697.967C59.7888 698.298 60.5197 697.921 61.9589 695.328C62.136 694.774 62.3131 694.22 63.0439 693.843C63.7748 693.466 64.3285 693.643 65.0594 693.267C65.7902 692.89 66.344 693.067 67.0748 692.69C68.7586 695.06 70.7965 696.322 73.0115 697.03Z" fill="url(#paint2_linear)"/>
<path d="M95.1248 641.213C97.3174 640.082 99.1557 640.059 101.371 640.767C101.925 640.944 103.209 640.744 104.317 641.099C105.424 641.453 106.908 642.538 107.108 643.823C107.485 644.554 105.846 645.861 104.007 645.884C101.992 646.461 100.154 646.484 98.1156 645.222C94.9702 643.606 91.1164 644.205 87.4397 644.251C86.1551 644.451 84.8705 644.651 83.9401 643.743C82.8326 643.389 81.548 643.589 80.4405 643.235C78.7792 642.704 77.4946 642.904 75.8333 642.372C75.2796 642.195 74.9029 641.464 73.7954 641.11C74.7033 640.179 75.2346 638.518 76.1426 637.587C78.1805 638.849 80.196 638.272 81.8572 638.803C82.9647 639.157 83.6956 638.78 84.4264 638.403C87.9036 637.073 90.8494 637.404 93.0869 639.951C93.6407 640.128 94.1944 640.305 95.1248 641.213Z" fill="url(#paint3_linear)"/>
<path d="M137.72 651.168C138.097 651.899 138.474 652.63 138.297 653.183C138.673 653.914 139.05 654.645 139.427 655.376C138.519 656.307 136.68 656.33 135.75 655.422C134.642 655.068 133.158 653.983 132.228 653.075C129.436 650.351 126.291 648.735 122.061 648.604C120.222 648.626 119.115 648.272 117.453 647.741C116.9 647.564 116.346 647.387 115.615 647.764C112.692 649.272 110.454 646.725 108.239 646.017C108.217 644.178 109.125 643.247 110.409 643.047C111.694 642.847 112.801 643.201 113.909 643.555C116.501 644.994 118.893 645.149 121.085 644.018C123.677 645.457 125.892 646.165 128.838 646.496C130.122 646.296 131.961 646.273 132.869 645.343C133.6 644.966 134.153 645.143 134.884 644.766C135.084 646.051 135.46 646.782 135.66 648.067C137.144 649.152 136.79 650.26 137.72 651.168Z" fill="url(#paint4_linear)"/>
<path d="M83.7259 655.881C83.903 655.327 84.0801 654.773 84.2572 654.219L84.988 653.842C86.8264 653.82 88.6647 653.797 90.5031 653.774C91.6106 654.128 92.8952 653.928 93.8256 654.836C95.3098 655.921 96.4173 656.275 98.2556 656.252C99.3631 656.606 100.094 656.229 101.024 657.137C105.277 659.108 110.062 659.416 115.222 660.455C117.615 660.609 120.206 662.048 122.421 662.757C122.975 662.934 123.352 663.665 123.728 664.396C122.267 665.149 121.536 665.526 119.875 664.995C118.944 664.087 117.106 664.11 115.821 664.31C115.267 664.133 114.537 664.51 113.983 664.333C111.391 662.894 108.268 663.117 105.876 662.962C103.661 662.254 101.446 661.546 99.7847 661.015C97.5697 660.307 95.1776 660.153 92.9626 659.445C91.8551 659.091 90.1938 658.56 88.9092 658.759C87.4475 659.513 86.6942 658.051 85.4096 658.251C85.033 657.52 84.1025 656.612 83.7259 655.881Z" fill="url(#paint5_linear)"/>
<path d="M715.343 434.677C718.466 434.455 720.836 432.77 724.513 432.724C726.351 432.701 727.813 431.947 728.898 430.462C730.16 428.424 732.352 427.293 734.745 427.447C736.029 427.247 736.76 426.87 738.045 426.67C740.791 425.717 741.522 425.34 745.021 425.848C745.398 426.579 745.598 427.864 744.136 428.618C741.943 429.748 739.574 431.433 737.182 431.279C735.897 431.479 735.166 431.856 734.812 432.964C734.281 434.626 732.819 435.38 731.712 435.025C730.05 434.494 728.035 435.071 726.196 435.094C724.358 435.117 723.073 435.317 721.235 435.34C719.574 434.809 717.558 435.385 715.72 435.408C715.72 435.408 715.166 435.231 715.343 434.677Z" fill="url(#paint6_linear)"/>
<path d="M66.5725 621.706C63.8262 622.66 61.0799 623.614 58.5107 624.014C56.8719 625.321 56.7173 627.714 54.7018 628.291C53.2177 627.206 53.5719 626.098 53.3723 624.813C52.619 623.351 52.4194 622.066 51.6661 620.604C50.9128 619.142 51.8207 618.212 53.1053 618.012C55.4974 618.166 57.8895 618.32 60.2816 618.474C61.3892 618.828 63.0504 619.359 64.335 619.159C65.4425 619.513 66.3729 620.421 66.5725 621.706Z" fill="url(#paint7_linear)"/>
<path d="M814.774 702.149C814.42 703.257 814.243 703.811 814.066 704.365C813.712 705.473 812.804 706.404 811.519 706.603C809.304 705.895 808.396 706.826 807.134 708.865C806.957 709.419 806.226 709.796 806.049 710.35C804.942 709.996 804.388 709.819 803.28 709.465C802.282 703.04 802.282 703.04 803.345 699.716C805.36 699.139 806.845 700.225 808.329 701.31C810.167 701.287 812.382 701.995 814.774 702.149Z" fill="url(#paint8_linear)"/>
<path d="M805.687 425.095C805.864 424.541 806.041 423.987 805.665 423.256C805.111 423.079 804.734 422.348 804.734 422.348C804.911 421.794 805.088 421.24 805.088 421.24C807.835 420.286 811.312 418.956 814.081 419.841L814.634 420.018C815.011 420.749 816.119 421.103 815.942 421.657C816.318 422.388 815.41 423.319 814.679 423.696C813.949 424.072 813.218 424.449 812.664 424.272C810.272 424.118 808.81 424.872 806.795 425.449C806.795 425.449 806.241 425.272 805.687 425.095Z" fill="url(#paint9_linear)"/>
<path d="M-3.58261 703.685C-2.47511 704.039 -1.92135 704.216 -0.813844 704.57C-0.26009 704.747 0.847418 705.101 1.40117 705.278C2.68577 705.078 4.16994 706.163 5.27745 706.517C6.20787 707.425 6.40745 708.71 5.12285 708.91C4.21491 709.841 3.48405 710.218 1.82279 709.687C1.26904 709.51 0.161534 709.156 -0.569312 709.532C-2.96142 709.378 -3.33809 708.647 -3.91432 706.631C-3.73723 706.078 -4.29097 705.9 -4.11388 705.347C-3.93679 704.793 -3.75971 704.239 -3.58261 703.685Z" fill="url(#paint10_linear)"/>
<path d="M102.468 715.604C103.199 715.228 103.753 715.405 103.753 715.405C105.237 716.49 106.699 715.736 108.36 716.267C109.468 716.621 111.306 716.598 112.413 716.952C114.805 717.106 117.02 717.814 118.15 720.007C117.065 721.492 115.581 720.407 114.297 720.607C113.012 720.807 111.528 719.722 110.42 719.368C108.205 718.66 105.99 717.952 103.775 717.243C103.775 717.243 103.399 716.512 102.468 715.604Z" fill="url(#paint11_linear)"/>
<path d="M154.346 597.257C154.523 596.703 154.7 596.149 155.254 596.326C156.162 595.395 157.447 595.195 158.908 594.441C159.285 595.172 159.108 595.726 158.931 596.28C158.953 598.119 159.707 599.581 160.814 599.935C161.922 600.289 162.298 601.02 162.498 602.305C162.321 602.859 162.875 603.036 162.698 603.59C162.144 603.413 161.413 603.79 160.859 603.613C159.198 603.082 157.714 601.997 156.407 600.358C155.476 599.45 154.546 598.542 154.346 597.257Z" fill="url(#paint12_linear)"/>
<path d="M168.1 504.57C167.369 504.947 167.192 505.501 167.192 505.501C163.338 506.101 160.015 505.039 157.424 503.6C156.87 503.422 156.67 502.138 157.401 501.761C158.863 501.007 160.148 500.807 161.255 501.161C162.739 502.246 163.847 502.6 165.508 503.131C166.062 503.308 167.169 503.662 168.1 504.57Z" fill="url(#paint13_linear)"/>
<path d="M155.379 546.298C159.455 548.822 159.455 548.822 161.138 551.192C160.408 551.569 160.053 552.677 159.323 553.054C159.522 554.339 159.722 555.624 159.368 556.732C158.814 556.555 158.083 556.931 157.529 556.754C155.868 556.223 154.938 555.315 156.023 553.83C157.108 552.346 156.908 551.061 155.601 549.422C155.601 549.422 154.848 547.96 155.379 546.298Z" fill="url(#paint14_linear)"/>
<path d="M88.4674 713.574C90.3058 713.551 92.1441 713.529 93.9825 713.506C95.8208 713.483 97.4821 714.014 99.1433 714.545C98.9663 715.099 98.7892 715.653 98.6121 716.207C98.435 716.761 97.7041 717.138 97.1504 716.961C95.4891 716.43 94.2045 716.629 92.7428 717.383C92.012 717.76 90.9045 717.406 90.3507 717.229C89.0436 715.59 88.1132 714.682 88.4674 713.574Z" fill="url(#paint15_linear)"/>
<path d="M303.726 769.567C298.233 771.474 298.233 771.474 294.911 770.412C292.519 770.258 290.127 770.104 287.38 771.058C287.004 770.327 285.896 769.972 285.519 769.241L285.697 768.688C286.981 768.488 288.819 768.465 290.104 768.265C292.873 769.15 295.442 768.75 298.011 768.35C300.226 769.059 301.334 769.413 303.726 769.567Z" fill="url(#paint16_linear)"/>
<path d="M823.591 611.551C823.791 612.836 823.26 614.498 821.975 614.698C819.229 615.651 816.859 617.336 813.736 617.559C813.736 617.559 813.182 617.382 812.629 617.205C814.998 615.52 817.745 614.566 819.384 613.259C820.469 611.774 821.753 611.574 823.591 611.551Z" fill="url(#paint17_linear)"/>
<path d="M766.139 438.097C761.754 440.359 760.47 440.559 757.147 439.497C759.14 437.081 760.779 435.773 763.902 435.55C764.456 435.727 764.278 436.281 766.139 438.097Z" fill="url(#paint18_linear)"/>
<path d="M26.8528 711.582C28.6687 709.721 30.33 710.252 32.1683 710.229C32.545 710.96 33.4754 711.868 33.852 712.599L33.675 713.153C32.0362 714.46 30.9287 714.106 29.2674 713.575C28.5366 713.952 27.429 713.598 26.8528 711.582Z" fill="url(#paint19_linear)"/>
<path d="M41.0427 669.102C39.7581 669.302 39.2043 669.125 38.4735 669.502C36.6351 669.525 36.2585 668.794 36.0589 667.509C36.236 666.955 35.6823 666.778 35.8593 666.224C36.0364 665.67 36.2135 665.116 36.3906 664.562C36.5677 664.008 38.229 664.539 38.6056 665.27C40.2669 665.801 40.4665 667.086 41.0427 669.102Z" fill="url(#paint20_linear)"/>
<path d="M823.593 611.551C824.878 611.351 825.232 610.243 826.694 609.489C828.333 608.181 830.171 608.158 831.855 610.528C830.216 611.836 828.023 612.967 826.185 612.99C825.077 612.636 824.147 611.728 823.593 611.551Z" fill="url(#paint21_linear)"/>
<path d="M353.955 772.802C351.94 773.379 349.924 773.956 348.817 773.602C345.494 772.539 342.017 773.87 338.495 771.523C340.887 771.677 342.903 771.1 344.564 771.631C347.886 772.694 350.81 771.186 353.955 772.802Z" fill="url(#paint22_linear)"/>
<path d="M133.113 665.566C131.652 666.32 130.367 666.52 128.706 665.989C128.152 665.812 127.598 665.635 127.776 665.081C127.953 664.527 128.13 663.973 128.307 663.419C129.946 662.111 132.338 662.265 133.468 664.458C133.291 665.012 133.291 665.012 133.113 665.566Z" fill="url(#paint23_linear)"/>
<path d="M163.092 726.44C165.307 727.148 167.7 727.302 169.361 727.833C169.56 729.118 169.383 729.672 168.276 729.318C166.437 729.341 165.153 729.541 163.669 728.456C163.115 728.279 162.738 727.548 163.092 726.44Z" fill="url(#paint24_linear)"/>
<path d="M73.0024 697.026C72.8029 695.741 73.9104 696.095 74.6412 695.718C75.3721 695.342 75.5492 694.788 76.28 694.411C76.8338 694.588 76.6567 695.142 77.2104 695.319C77.2104 695.319 77.2104 695.319 77.7642 695.496C77.7642 695.496 77.7642 695.496 77.5871 696.05C76.6791 696.981 77.6095 697.889 76.7016 698.819C75.9707 699.196 74.8632 698.842 74.4866 698.111C73.9328 697.934 73.3791 697.757 73.0024 697.026Z" fill="url(#paint25_linear)"/>
<path d="M778.614 721.725C779.367 723.187 780.298 724.095 779.767 725.757C778.482 725.957 777.551 725.049 776.621 724.141C776.975 723.033 776.776 721.748 778.614 721.725Z" fill="url(#paint26_linear)"/>
<path d="M64.1561 604.444C64.5103 603.336 64.3107 602.051 64.3107 602.051C65.2187 601.12 66.5033 600.92 67.9874 602.005C66.9024 603.49 66.9024 603.49 64.1561 604.444Z" fill="url(#paint27_linear)"/>
<path d="M161.924 525.798C164.139 526.507 164.139 526.507 164.715 528.522C162.146 528.922 162.146 528.922 160.285 527.106C161.016 526.729 161.747 526.352 161.924 525.798Z" fill="url(#paint28_linear)"/>
<path d="M187.728 741.032C187.905 740.478 187.905 740.478 188.636 740.101C189.743 740.455 191.405 740.986 192.512 741.34C192.535 743.179 191.804 743.556 190.873 742.648C189.766 742.294 188.835 741.386 187.728 741.032Z" fill="url(#paint29_linear)"/>
<path d="M775.483 450.854C777.676 449.724 780.068 449.878 782.836 450.763C779.536 451.54 777.875 451.009 775.483 450.854Z" fill="url(#paint30_linear)"/>
<path d="M806.587 618.935C805.856 619.311 805.679 619.865 804.771 620.796C803.863 621.727 802.756 621.373 801.825 620.465C803.464 619.157 804.926 618.403 806.587 618.935Z" fill="url(#paint31_linear)"/>
<path d="M161.749 526.355C160.087 525.824 158.603 524.739 157.673 523.831C159.135 523.077 160.419 522.877 161.172 524.339C161.726 524.516 162.103 525.247 161.749 526.355Z" fill="url(#paint32_linear)"/>
<path d="M177.105 548.97C175.997 548.616 173.982 549.192 173.405 547.176C177.082 547.131 177.082 547.131 177.105 548.97Z" fill="url(#paint33_linear)"/>
<path d="M360.758 772.534C359.673 774.019 358.743 773.111 358.012 773.488C357.458 773.311 356.174 773.511 355.62 773.334C356.528 772.403 357.259 772.026 360.758 772.534Z" fill="url(#paint34_linear)"/>
<path d="M383.569 773.724C384.123 773.901 385.407 773.701 385.961 773.878C386.161 775.163 385.053 774.809 384.876 775.363C384.322 775.186 383.591 775.563 383.569 773.724Z" fill="url(#paint35_linear)"/>
<path d="M196.667 585.138C197.951 584.938 198.682 584.561 198.882 585.846C198.705 586.4 198.527 586.954 198.527 586.954C197.974 586.777 197.974 586.777 197.974 586.777C197.42 586.6 197.043 585.869 196.667 585.138Z" fill="url(#paint36_linear)"/>
<path d="M337.214 771.724C336.483 772.101 335.929 771.924 335.752 772.478C335.752 772.478 335.198 772.301 334.822 771.57L334.999 771.016C334.999 771.016 335.73 770.639 336.283 770.816C336.283 770.816 336.66 771.547 337.214 771.724Z" fill="url(#paint37_linear)"/>
<path d="M821.789 659.208C821.036 657.746 820.659 657.015 820.282 656.284C822.121 656.261 822.121 656.261 821.789 659.208Z" fill="url(#paint38_linear)"/>
<path d="M823.585 655.51C823.032 655.333 822.655 654.602 822.655 654.602L822.832 654.048L823.386 654.225C823.209 654.779 823.585 655.51 823.585 655.51Z" fill="url(#paint39_linear)"/>
<path d="M120.715 719.61C121.269 719.787 121.645 720.518 122.199 720.695C121.468 721.072 120.914 720.895 120.361 720.718C120.538 720.164 120.715 719.61 120.715 719.61Z" fill="url(#paint40_linear)"/>
<path d="M710.962 436.941C710.408 436.764 710.408 436.764 709.677 437.141L709.854 436.587L710.585 436.21C711.139 436.387 710.962 436.941 710.962 436.941Z" fill="url(#paint41_linear)"/>
<path d="M925.996 520.338C926.55 520.515 927.657 520.869 928.765 521.223C927.303 521.977 927.303 521.977 925.996 520.338Z" fill="url(#paint42_linear)"/>
<path d="M82.0603 655.351L81.5065 655.174C81.5065 655.174 81.5065 655.174 81.6836 654.62C81.5065 655.174 81.5065 655.174 82.0603 655.351Z" fill="url(#paint43_linear)"/>
<path d="M138.612 694.189C138.058 694.012 138.058 694.012 137.504 693.835C137.504 693.835 137.504 693.835 136.95 693.658C136.95 693.658 137.128 693.104 137.681 693.281C138.235 693.458 138.235 693.458 138.966 693.081C138.789 693.635 138.612 694.189 138.612 694.189Z" fill="url(#paint44_linear)"/>
<path d="M127.892 720.069L127.715 720.623C127.161 720.446 127.161 720.446 127.892 720.069C127.338 719.892 127.338 719.892 127.892 720.069Z" fill="url(#paint45_linear)"/>
<path d="M168.5 522.403C168.5 522.403 169.053 522.58 168.5 522.403C168.876 523.133 168.876 523.133 168.5 522.403C168.323 522.956 168.323 522.956 168.5 522.403Z" fill="url(#paint46_linear)"/>
<path d="M166.026 545.429C166.026 545.429 165.472 545.252 166.026 545.429C166.203 544.875 166.203 544.875 166.757 545.052L166.58 545.606L166.026 545.429Z" fill="url(#paint47_linear)"/>
<path d="M159.135 658.623C158.581 658.446 158.404 659 157.85 658.823L158.027 658.269C158.204 657.715 158.758 657.892 159.135 658.623C158.758 657.892 158.581 658.446 159.135 658.623Z" fill="url(#paint48_linear)"/>
<path d="M853.549 535.036C854.103 535.213 854.103 535.213 853.549 535.036C854.28 534.659 854.28 534.659 854.834 534.836C854.834 534.836 854.657 535.39 854.103 535.213C854.103 535.213 854.103 535.213 853.549 535.036Z" fill="url(#paint49_linear)"/>
<path d="M129.467 697.983L128.914 697.806C129.091 697.253 129.091 697.253 129.467 697.983C129.644 697.43 129.644 697.43 129.467 697.983Z" fill="url(#paint50_linear)"/>
<path d="M125.329 720.47C125.329 720.47 124.953 719.74 125.329 720.47C124.953 719.74 124.953 719.74 125.329 720.47Z" fill="url(#paint51_linear)"/>
<path d="M805.692 425.096C804.962 425.473 804.962 425.473 805.692 425.096C804.962 425.473 804.962 425.473 805.692 425.096C804.962 425.473 805.515 425.649 805.692 425.096Z" fill="url(#paint52_linear)"/>
<path d="M806.966 619.668C807.143 619.114 807.697 619.292 807.874 618.738C807.32 618.561 807.143 619.114 806.966 619.668Z" fill="url(#paint53_linear)"/>
<path d="M823.582 655.505C823.582 655.505 823.959 656.236 823.582 655.505C823.959 656.236 823.582 655.505 823.582 655.505Z" fill="url(#paint54_linear)"/>
<path d="M795.503 720.411L794.772 720.788L794.949 720.234L795.503 720.411Z" fill="url(#paint55_linear)"/>
<path d="M47.662 669.386C47.2857 668.657 47.1089 669.21 47.1089 669.21L47.662 669.386Z" fill="url(#paint56_linear)"/>
<path d="M806.639 548.124L807.37 547.747C807.37 547.747 807.37 547.747 807.747 548.478C807.193 548.301 807.193 548.301 806.639 548.124Z" fill="url(#paint57_linear)"/>
<path d="M872.175 524.502C871.444 524.879 870.713 525.256 870.16 525.079C870.16 525.079 869.783 524.348 869.229 524.171C871.067 524.148 871.621 524.325 872.175 524.502Z" fill="url(#paint58_linear)"/>
</g>
<defs>
<linearGradient id="paint0_linear" x1="563.031" y1="357.901" x2="415.865" y2="818.239" gradientUnits="userSpaceOnUse">
<stop stop-color="#E5E5E5"/>
<stop offset="1" stop-color="#9C9C9C"/>
</linearGradient>
<linearGradient id="paint1_linear" x1="813.522" y1="624.814" x2="805.843" y2="648.834" gradientUnits="userSpaceOnUse">
<stop stop-color="#E5E5E5"/>
<stop offset="1" stop-color="#9C9C9C"/>
</linearGradient>
<linearGradient id="paint2_linear" x1="61.918" y1="691.041" x2="55.1884" y2="712.091" gradientUnits="userSpaceOnUse">
<stop stop-color="#E5E5E5"/>
<stop offset="1" stop-color="#9C9C9C"/>
</linearGradient>
<linearGradient id="paint3_linear" x1="92.206" y1="637.227" x2="89.1955" y2="646.644" gradientUnits="userSpaceOnUse">
<stop stop-color="#E5E5E5"/>
<stop offset="1" stop-color="#9C9C9C"/>
</linearGradient>
<linearGradient id="paint4_linear" x1="126.469" y1="642.076" x2="123.389" y2="651.71" gradientUnits="userSpaceOnUse">
<stop stop-color="#E5E5E5"/>
<stop offset="1" stop-color="#9C9C9C"/>
</linearGradient>
<linearGradient id="paint5_linear" x1="104.78" y1="656.845" x2="102.576" y2="663.739" gradientUnits="userSpaceOnUse">
<stop stop-color="#E5E5E5"/>
<stop offset="1" stop-color="#9C9C9C"/>
</linearGradient>
<linearGradient id="paint6_linear" x1="733.159" y1="422.055" x2="727.669" y2="439.228" gradientUnits="userSpaceOnUse">
<stop stop-color="#E5E5E5"/>
<stop offset="1" stop-color="#9C9C9C"/>
</linearGradient>
<linearGradient id="paint7_linear" x1="59.88" y1="617.735" x2="56.3381" y2="628.814" gradientUnits="userSpaceOnUse">
<stop stop-color="#E5E5E5"/>
<stop offset="1" stop-color="#9C9C9C"/>
</linearGradient>
<linearGradient id="paint8_linear" x1="809.237" y1="700.379" x2="806.049" y2="710.35" gradientUnits="userSpaceOnUse">
<stop stop-color="#E5E5E5"/>
<stop offset="1" stop-color="#9C9C9C"/>
</linearGradient>
<linearGradient id="paint9_linear" x1="811.427" y1="418.992" x2="809.124" y2="426.194" gradientUnits="userSpaceOnUse">
<stop stop-color="#E5E5E5"/>
<stop offset="1" stop-color="#9C9C9C"/>
</linearGradient>
<linearGradient id="paint10_linear" x1="1.50485" y1="705.04" x2="-0.0570031" y2="709.925" gradientUnits="userSpaceOnUse">
<stop stop-color="#E5E5E5"/>
<stop offset="1" stop-color="#9C9C9C"/>
</linearGradient>
<linearGradient id="paint11_linear" x1="110.858" y1="716.09" x2="109.788" y2="719.437" gradientUnits="userSpaceOnUse">
<stop stop-color="#E5E5E5"/>
<stop offset="1" stop-color="#9C9C9C"/>
</linearGradient>
<linearGradient id="paint12_linear" x1="160.293" y1="594.884" x2="157.814" y2="602.639" gradientUnits="userSpaceOnUse">
<stop stop-color="#E5E5E5"/>
<stop offset="1" stop-color="#9C9C9C"/>
</linearGradient>
<linearGradient id="paint13_linear" x1="163.078" y1="501.744" x2="161.91" y2="505.399" gradientUnits="userSpaceOnUse">
<stop stop-color="#E5E5E5"/>
<stop offset="1" stop-color="#9C9C9C"/>
</linearGradient>
<linearGradient id="paint14_linear" x1="158.701" y1="547.36" x2="155.868" y2="556.223" gradientUnits="userSpaceOnUse">
<stop stop-color="#E5E5E5"/>
<stop offset="1" stop-color="#9C9C9C"/>
</linearGradient>
<linearGradient id="paint15_linear" x1="94.1596" y1="712.952" x2="92.5657" y2="717.937" gradientUnits="userSpaceOnUse">
<stop stop-color="#E5E5E5"/>
<stop offset="1" stop-color="#9C9C9C"/>
</linearGradient>
<linearGradient id="paint16_linear" x1="295.42" y1="766.911" x2="293.472" y2="773.005" gradientUnits="userSpaceOnUse">
<stop stop-color="#E5E5E5"/>
<stop offset="1" stop-color="#9C9C9C"/>
</linearGradient>
<linearGradient id="paint17_linear" x1="819.62" y1="610.281" x2="816.964" y2="618.591" gradientUnits="userSpaceOnUse">
<stop stop-color="#E5E5E5"/>
<stop offset="1" stop-color="#9C9C9C"/>
</linearGradient>
<linearGradient id="paint18_linear" x1="762.794" y1="435.196" x2="761.023" y2="440.736" gradientUnits="userSpaceOnUse">
<stop stop-color="#E5E5E5"/>
<stop offset="1" stop-color="#9C9C9C"/>
</linearGradient>
<linearGradient id="paint19_linear" x1="31.0608" y1="709.875" x2="29.7152" y2="714.084" gradientUnits="userSpaceOnUse">
<stop stop-color="#E5E5E5"/>
<stop offset="1" stop-color="#9C9C9C"/>
</linearGradient>
<linearGradient id="paint20_linear" x1="39.2922" y1="665.032" x2="37.8503" y2="669.542" gradientUnits="userSpaceOnUse">
<stop stop-color="#E5E5E5"/>
<stop offset="1" stop-color="#9C9C9C"/>
</linearGradient>
<linearGradient id="paint21_linear" x1="828.576" y1="608.374" x2="827.016" y2="613.255" gradientUnits="userSpaceOnUse">
<stop stop-color="#E5E5E5"/>
<stop offset="1" stop-color="#9C9C9C"/>
</linearGradient>
<linearGradient id="paint22_linear" x1="346.785" y1="770.412" x2="345.595" y2="774.135" gradientUnits="userSpaceOnUse">
<stop stop-color="#E5E5E5"/>
<stop offset="1" stop-color="#9C9C9C"/>
</linearGradient>
<linearGradient id="paint23_linear" x1="131.297" y1="662.658" x2="130.09" y2="666.431" gradientUnits="userSpaceOnUse">
<stop stop-color="#E5E5E5"/>
<stop offset="1" stop-color="#9C9C9C"/>
</linearGradient>
<linearGradient id="paint24_linear" x1="166.497" y1="726.918" x2="165.715" y2="729.363" gradientUnits="userSpaceOnUse">
<stop stop-color="#E5E5E5"/>
<stop offset="1" stop-color="#9C9C9C"/>
</linearGradient>
<linearGradient id="paint25_linear" x1="76.0076" y1="694.324" x2="74.6351" y2="698.617" gradientUnits="userSpaceOnUse">
<stop stop-color="#E5E5E5"/>
<stop offset="1" stop-color="#9C9C9C"/>
</linearGradient>
<linearGradient id="paint26_linear" x1="779.124" y1="721.888" x2="777.988" y2="725.441" gradientUnits="userSpaceOnUse">
<stop stop-color="#E5E5E5"/>
<stop offset="1" stop-color="#9C9C9C"/>
</linearGradient>
<linearGradient id="paint27_linear" x1="66.3956" y1="601.257" x2="65.2636" y2="604.798" gradientUnits="userSpaceOnUse">
<stop stop-color="#E5E5E5"/>
<stop offset="1" stop-color="#9C9C9C"/>
</linearGradient>
<linearGradient id="paint28_linear" x1="163.031" y1="526.152" x2="162.234" y2="528.645" gradientUnits="userSpaceOnUse">
<stop stop-color="#E5E5E5"/>
<stop offset="1" stop-color="#9C9C9C"/>
</linearGradient>
<linearGradient id="paint29_linear" x1="190.406" y1="740.667" x2="189.808" y2="742.536" gradientUnits="userSpaceOnUse">
<stop stop-color="#E5E5E5"/>
<stop offset="1" stop-color="#9C9C9C"/>
</linearGradient>
<linearGradient id="paint30_linear" x1="779.514" y1="449.701" x2="778.806" y2="451.917" gradientUnits="userSpaceOnUse">
<stop stop-color="#E5E5E5"/>
<stop offset="1" stop-color="#9C9C9C"/>
</linearGradient>
<linearGradient id="paint31_linear" x1="804.649" y1="618.315" x2="803.647" y2="621.449" gradientUnits="userSpaceOnUse">
<stop stop-color="#E5E5E5"/>
<stop offset="1" stop-color="#9C9C9C"/>
</linearGradient>
<linearGradient id="paint32_linear" x1="160.258" y1="523.381" x2="159.534" y2="525.647" gradientUnits="userSpaceOnUse">
<stop stop-color="#E5E5E5"/>
<stop offset="1" stop-color="#9C9C9C"/>
</linearGradient>
<linearGradient id="paint33_linear" x1="175.59" y1="547.024" x2="175.051" y2="548.712" gradientUnits="userSpaceOnUse">
<stop stop-color="#E5E5E5"/>
<stop offset="1" stop-color="#9C9C9C"/>
</linearGradient>
<linearGradient id="paint34_linear" x1="358.543" y1="771.826" x2="357.835" y2="774.042" gradientUnits="userSpaceOnUse">
<stop stop-color="#E5E5E5"/>
<stop offset="1" stop-color="#9C9C9C"/>
</linearGradient>
<linearGradient id="paint35_linear" x1="384.931" y1="773.549" x2="384.372" y2="775.299" gradientUnits="userSpaceOnUse">
<stop stop-color="#E5E5E5"/>
<stop offset="1" stop-color="#9C9C9C"/>
</linearGradient>
<linearGradient id="paint36_linear" x1="197.979" y1="584.852" x2="197.42" y2="586.6" gradientUnits="userSpaceOnUse">
<stop stop-color="#E5E5E5"/>
<stop offset="1" stop-color="#9C9C9C"/>
</linearGradient>
<linearGradient id="paint37_linear" x1="336.283" y1="770.816" x2="335.752" y2="772.478" gradientUnits="userSpaceOnUse">
<stop stop-color="#E5E5E5"/>
<stop offset="1" stop-color="#9C9C9C"/>
</linearGradient>
<linearGradient id="paint38_linear" x1="821.483" y1="656.348" x2="820.682" y2="658.853" gradientUnits="userSpaceOnUse">
<stop stop-color="#E5E5E5"/>
<stop offset="1" stop-color="#9C9C9C"/>
</linearGradient>
<linearGradient id="paint39_linear" x1="823.386" y1="654.225" x2="823.032" y2="655.333" gradientUnits="userSpaceOnUse">
<stop stop-color="#E5E5E5"/>
<stop offset="1" stop-color="#9C9C9C"/>
</linearGradient>
<linearGradient id="paint40_linear" x1="121.545" y1="719.876" x2="121.191" y2="720.984" gradientUnits="userSpaceOnUse">
<stop stop-color="#E5E5E5"/>
<stop offset="1" stop-color="#9C9C9C"/>
</linearGradient>
<linearGradient id="paint41_linear" x1="710.585" y1="436.21" x2="710.231" y2="437.318" gradientUnits="userSpaceOnUse">
<stop stop-color="#E5E5E5"/>
<stop offset="1" stop-color="#9C9C9C"/>
</linearGradient>
<linearGradient id="paint42_linear" x1="927.38" y1="520.78" x2="927.115" y2="521.611" gradientUnits="userSpaceOnUse">
<stop stop-color="#E5E5E5"/>
<stop offset="1" stop-color="#9C9C9C"/>
</linearGradient>
<linearGradient id="paint43_linear" x1="81.9605" y1="654.709" x2="81.7834" y2="655.263" gradientUnits="userSpaceOnUse">
<stop stop-color="#E5E5E5"/>
<stop offset="1" stop-color="#9C9C9C"/>
</linearGradient>
<linearGradient id="paint44_linear" x1="138.135" y1="692.815" x2="137.781" y2="693.923" gradientUnits="userSpaceOnUse">
<stop stop-color="#E5E5E5"/>
<stop offset="1" stop-color="#9C9C9C"/>
</linearGradient>
<linearGradient id="paint45_linear" x1="127.684" y1="720.003" x2="127.507" y2="720.557" gradientUnits="userSpaceOnUse">
<stop stop-color="#E5E5E5"/>
<stop offset="1" stop-color="#9C9C9C"/>
</linearGradient>
<linearGradient id="paint46_linear" x1="168.707" y1="522.47" x2="168.575" y2="522.884" gradientUnits="userSpaceOnUse">
<stop stop-color="#E5E5E5"/>
<stop offset="1" stop-color="#9C9C9C"/>
</linearGradient>
<linearGradient id="paint47_linear" x1="166.357" y1="544.924" x2="166.18" y2="545.478" gradientUnits="userSpaceOnUse">
<stop stop-color="#E5E5E5"/>
<stop offset="1" stop-color="#9C9C9C"/>
</linearGradient>
<linearGradient id="paint48_linear" x1="158.714" y1="658.031" x2="158.404" y2="659" gradientUnits="userSpaceOnUse">
<stop stop-color="#E5E5E5"/>
<stop offset="1" stop-color="#9C9C9C"/>
</linearGradient>
<linearGradient id="paint49_linear" x1="854.28" y1="534.659" x2="854.103" y2="535.213" gradientUnits="userSpaceOnUse">
<stop stop-color="#E5E5E5"/>
<stop offset="1" stop-color="#9C9C9C"/>
</linearGradient>
<linearGradient id="paint50_linear" x1="129.323" y1="697.48" x2="129.191" y2="697.895" gradientUnits="userSpaceOnUse">
<stop stop-color="#E5E5E5"/>
<stop offset="1" stop-color="#9C9C9C"/>
</linearGradient>
<linearGradient id="paint51_linear" x1="125.254" y1="719.989" x2="125.122" y2="720.404" gradientUnits="userSpaceOnUse">
<stop stop-color="#E5E5E5"/>
<stop offset="1" stop-color="#9C9C9C"/>
</linearGradient>
<linearGradient id="paint52_linear" x1="805.485" y1="425.03" x2="805.352" y2="425.445" gradientUnits="userSpaceOnUse">
<stop stop-color="#E5E5E5"/>
<stop offset="1" stop-color="#9C9C9C"/>
</linearGradient>
<linearGradient id="paint53_linear" x1="807.597" y1="618.649" x2="807.243" y2="619.757" gradientUnits="userSpaceOnUse">
<stop stop-color="#E5E5E5"/>
<stop offset="1" stop-color="#9C9C9C"/>
</linearGradient>
<linearGradient id="paint54_linear" x1="823.705" y1="655.544" x2="823.626" y2="655.79" gradientUnits="userSpaceOnUse">
<stop stop-color="#E5E5E5"/>
<stop offset="1" stop-color="#9C9C9C"/>
</linearGradient>
<linearGradient id="paint55_linear" x1="795.226" y1="720.323" x2="795.049" y2="720.877" gradientUnits="userSpaceOnUse">
<stop stop-color="#E5E5E5"/>
<stop offset="1" stop-color="#9C9C9C"/>
</linearGradient>
<linearGradient id="paint56_linear" x1="47.464" y1="669.052" x2="47.3855" y2="669.298" gradientUnits="userSpaceOnUse">
<stop stop-color="#E5E5E5"/>
<stop offset="1" stop-color="#9C9C9C"/>
</linearGradient>
<linearGradient id="paint57_linear" x1="807.37" y1="547.747" x2="807.193" y2="548.301" gradientUnits="userSpaceOnUse">
<stop stop-color="#E5E5E5"/>
<stop offset="1" stop-color="#9C9C9C"/>
</linearGradient>
<linearGradient id="paint58_linear" x1="870.791" y1="524.06" x2="870.436" y2="525.168" gradientUnits="userSpaceOnUse">
<stop stop-color="#E5E5E5"/>
<stop offset="1" stop-color="#9C9C9C"/>
</linearGradient>
<clipPath id="clip0">
<rect width="836" height="524" fill="white" transform="translate(154.562 209) rotate(17.7286)"/>
</clipPath>
</defs>
</svg>
