<svg width="15" height="11" viewBox="0 0 15 11" fill="none" xmlns="http://www.w3.org/2000/svg">
<path d="M14.5202 1.89394C14.2677 0.757576 13.6995 0.315657 12.7525 0.189394C12.1844 0.126263 9.53284 0 7.38637 0C5.23991 0 2.58839 0.126263 2.02021 0.189394C1.07324 0.315657 0.505066 0.757576 0.252541 1.89394C0.189409 2.27273 0 4.35606 0 5.11364V5.30303C0 6.12374 0.126278 8.14394 0.252541 8.52273C0.505066 9.65909 1.07324 10.101 2.02021 10.2273C2.58839 10.2904 5.23991 10.4167 7.38637 10.4167C9.53284 10.4167 12.1844 10.2904 12.7525 10.2273C13.6995 10.101 14.2677 9.65909 14.5202 8.52273C14.5833 8.14394 14.7727 6.06061 14.7727 5.30303V5.11364C14.7727 4.35606 14.6465 2.27273 14.5202 1.89394ZM5.87122 7.2601V3.09343L9.78535 5.11364L5.87122 7.2601Z" fill="#C83398"/>
</svg>
