<svg width="16" height="16" viewBox="0 0 16 16" fill="none" xmlns="http://www.w3.org/2000/svg">
<path d="M15.6748 14.112L12.2935 10.7303C13.1153 9.58717 13.5672 8.22121 13.5672 6.78335C13.5672 4.97221 12.8621 3.26891 11.5796 1.98756C10.2998 0.706761 8.59535 0 6.78303 0C4.97128 0 3.26736 0.705102 1.98652 1.98756C0.705679 3.2678 0 4.97166 0 6.78335C0 8.59505 0.705126 10.2984 1.98652 11.5803C3.26736 12.8611 4.97072 13.5678 6.78303 13.5678C8.22039 13.5678 9.58529 13.1182 10.7295 12.2942L14.1108 15.6759C14.3276 15.8922 14.6097 16 14.8928 16C15.1765 16 15.4591 15.8922 15.6748 15.6759C16.1067 15.2435 16.1067 14.5439 15.6748 14.112ZM3.55107 10.0158C2.68722 9.15194 2.21216 8.00332 2.21216 6.7828C2.21216 5.56228 2.68722 4.41477 3.55107 3.55095C4.41436 2.68713 5.56192 2.21153 6.78303 2.21153C8.00415 2.21153 9.15226 2.68713 10.0156 3.55095C10.8794 4.41477 11.355 5.56284 11.355 6.78335C11.355 8.00387 10.88 9.15194 10.0156 10.0163C9.15171 10.8801 8.0047 11.3546 6.78303 11.3546C5.56137 11.3546 4.41326 10.879 3.55107 10.0158Z" fill="#FF46A7"/>
</svg>
