<svg width="17" height="10" viewBox="0 0 17 10" fill="none" xmlns="http://www.w3.org/2000/svg">
<path fill-rule="evenodd" clip-rule="evenodd" d="M7.83286 9.35893H8.80522C8.80522 9.35893 9.10907 9.29816 9.23062 9.17661C9.35216 9.05507 9.35217 8.7512 9.35217 8.7512C9.35217 8.7512 9.35217 7.47499 9.95989 7.2319C10.5676 7.04958 11.2969 8.50812 12.1477 9.05507C12.7554 9.48047 13.2416 9.35893 13.2416 9.35893L15.4294 9.29816C15.4294 9.29816 16.5841 9.23738 16.0371 8.3258C15.9763 8.26503 15.7333 7.6573 14.457 6.44186C13.12 5.16564 13.3024 5.40873 14.9432 3.22093C15.9156 1.88394 16.341 1.0939 16.2194 0.729268C16.0979 0.425406 15.3686 0.486178 15.3686 0.486178H12.9377C12.9377 0.486178 12.7554 0.486178 12.6339 0.546951C12.5123 0.607723 12.3908 0.790039 12.3908 0.790039C12.3908 0.790039 12.0261 1.82317 11.4792 2.67398C10.3853 4.49715 9.9599 4.61869 9.77758 4.49715C9.35217 4.25406 9.47372 3.40325 9.47372 2.8563C9.47372 1.0939 9.71679 0.303862 8.92675 0.121545C8.68367 0.0607727 8.44058 0 7.77209 0C6.92127 0 6.19201 1.08669e-07 5.76661 0.182317C5.46275 0.303861 5.28043 0.607723 5.40197 0.668495C5.58429 0.668495 5.94893 0.79004 6.13125 1.03313C6.37433 1.39776 6.37433 2.12703 6.37433 2.12703C6.37433 2.12703 6.49587 4.25406 6.00969 4.49715C5.70583 4.67946 5.21966 4.31483 4.2473 2.61321C3.76112 1.7624 3.39649 0.790039 3.39649 0.790039C3.39649 0.790039 3.33571 0.607723 3.21417 0.546951C3.03185 0.425406 2.84953 0.425406 2.84953 0.425406H0.54019C0.54019 0.425406 0.175564 0.425406 0.0540198 0.607723C-0.0675247 0.729267 0.0540198 1.03313 0.0540198 1.03313C0.0540198 1.03313 1.87718 5.28719 3.94344 7.41422C5.64506 9.48047 7.83286 9.35893 7.83286 9.35893Z" fill="#C83398"/>
</svg>
