<svg width="15" height="15" viewBox="0 0 15 15" fill="none" xmlns="http://www.w3.org/2000/svg">
<path fill-rule="evenodd" clip-rule="evenodd" d="M10.8702 0H3.65929C1.61439 0 0 1.61439 0 3.65929V10.924C0 12.9689 1.66821 14.5833 3.65929 14.5833H10.924C12.9689 14.5833 14.5833 12.9689 14.5833 10.924V3.65929C14.5833 1.6682 12.9151 0 10.8702 0ZM13.0766 10.924C13.0766 12.0541 12.0541 13.1304 10.8702 13.1304H3.60547C2.4754 13.1304 1.39914 12.1079 1.39914 10.924V3.65929C1.39914 2.52921 2.42158 1.45295 3.60547 1.45295H10.924C12.0541 1.45295 13.1304 2.4754 13.1304 3.65929V10.924H13.0766ZM11.1393 2.4754C11.6774 2.4754 12.1079 2.9059 12.1079 3.44403C12.1079 3.98217 11.6774 4.41267 11.1393 4.41267C10.6012 4.41267 10.1707 3.98217 10.1707 3.44403C10.1707 2.9059 10.6012 2.4754 11.1393 2.4754ZM7.26476 3.65929C9.25584 3.65929 10.924 5.27368 10.924 7.31857C10.924 9.30966 9.30966 10.9779 7.26476 10.9779C5.27368 10.9779 3.60547 9.36347 3.60547 7.31857C3.60547 5.27368 5.27368 3.65929 7.26476 3.65929ZM7.26476 9.47109C6.02706 9.47109 5.05843 8.50246 5.05843 7.26476C5.05843 6.02706 6.02706 5.05843 7.26476 5.05843C8.50246 5.05843 9.47109 6.02706 9.47109 7.26476C9.47109 8.50246 8.50246 9.47109 7.26476 9.47109Z" fill="#C83398"/>
</svg>
