<svg width="28" height="22" viewBox="0 0 28 22" fill="none" xmlns="http://www.w3.org/2000/svg">
<path d="M5.76739 8.62572C6.109 6.47843 8.79311 4.18474 10.8916 4.13594C11.038 4.13594 11.1844 4.08714 11.282 3.98953C11.3796 3.94073 11.4772 3.89193 11.526 3.74552C12.258 2.37907 11.8676 1.30543 10.6476 0.426992C9.23232 -0.597848 6.98743 0.426992 5.86499 1.35423C3.03448 3.69672 0.155165 7.7472 0.301571 11.6026C-0.186449 14.1892 -0.0888448 16.9708 0.643184 19.2645C1.1312 20.7286 2.54646 21.4606 4.01052 21.5582C5.47457 21.6559 8.50029 22.095 9.81795 21.2167C11.1356 20.3382 11.2332 18.6301 11.3796 17.1661C11.526 15.5557 11.9652 12.5299 10.5988 11.261C9.23232 10.041 5.32817 11.3586 5.76739 8.62572Z" fill="#FF46A7"/>
<path d="M21.8729 8.62572C22.2145 6.47843 24.8985 4.18474 26.9971 4.13594C27.1435 4.13594 27.2899 4.08714 27.3875 3.98953C27.4852 3.94073 27.5827 3.89193 27.6316 3.74552C28.3636 2.37907 27.9732 1.30543 26.7531 0.426992C25.3379 -0.597848 23.093 0.426992 21.9705 1.35423C19.14 3.69672 16.2606 7.74728 16.407 11.6026C15.919 14.1892 16.0166 16.9708 16.7486 19.2645C17.2366 20.7286 18.6519 21.4606 20.116 21.5582C21.58 21.6559 24.6058 22.095 25.9234 21.2167C27.241 20.3382 27.3387 18.6301 27.4851 17.1661C27.6315 15.5557 28.0707 12.5299 26.7043 11.261C25.3378 10.041 21.3848 11.3586 21.8729 8.62572Z" fill="#FF46A7"/>
</svg>
