<svg width="28" height="33" viewBox="0 0 28 33" fill="none" xmlns="http://www.w3.org/2000/svg">
<path d="M2.52108 0.187447L27.0416 12.8461C28.2121 13.4576 28.3322 15.0782 27.2817 15.8731L3.24139 32.629C2.1009 33.4851 0.690297 32.7819 0.690297 31.3142L0.480206 23.2115L6.63285 26.3914L5.28227 25.6882C6.21267 26.208 8.40361 26.208 9.75419 24.7097C10.7146 23.6701 11.8851 22.0802 11.1348 20.5208C10.4145 18.9919 8.58369 18.7167 6.7529 20.001C5.10219 21.1629 4.74204 23.2421 4.95213 23.6701L1.98085 22.1413L2.01086 11.8065L14.9164 18.4721L12.3953 17.1574C13.3257 17.6771 15.3666 18.0135 17.1974 16.0872C18.7581 14.4666 18.9081 12.3263 18.1278 11.1032C17.4975 10.0942 15.5167 9.17691 13.1757 11.1644C12.0052 12.1734 11.2849 14.3137 11.615 14.9558L0.0900387 9.02403L0 1.77742C0 1.47166 0.0600258 1.22704 0.180077 0.982433C0.600258 0.15687 1.6207 -0.271199 2.52108 0.187447Z" fill="#FF46A7"/>
</svg>
