<svg width="36" height="41" viewBox="0 0 36 41" fill="none" xmlns="http://www.w3.org/2000/svg">
<path d="M3.24139 0.232888L34.7678 15.9603C36.2727 16.7201 36.4271 18.7335 35.0765 19.7212L4.16751 40.5391C2.70116 41.6028 0.887524 40.729 0.887524 38.9056L0.617408 28.8385L8.52795 32.7893L6.79149 31.9156C7.98772 32.5614 10.8046 32.5614 12.5411 30.7C13.7759 29.4083 15.2809 27.4329 14.3162 25.4955C13.39 23.596 11.0362 23.2541 8.6823 24.8497C6.55996 26.2933 6.09691 28.8765 6.36702 29.4083L2.54681 27.5089L2.5854 14.6687L19.1782 22.9502L15.9368 21.3167C17.1331 21.9625 19.7571 22.3804 22.1109 19.9871C24.1175 17.9737 24.3104 15.3145 23.3072 13.7949C22.4968 12.5413 19.95 11.4016 16.9401 13.8709C15.4352 15.1245 14.5091 17.7837 14.9336 18.5815L0.115764 11.2117L0 2.20831C0 1.82842 0.077176 1.52451 0.231528 1.2206C0.77176 0.1949 2.08375 -0.336945 3.24139 0.232888Z" fill="white" fill-opacity="0.3"/>
</svg>
